<svg width="134" height="34" viewBox="0 0 134 34" fill="none" xmlns="http://www.w3.org/2000/svg">
<g id="logo_hydroflask">
<g id="Group 1309">
<g id="Group">
<path id="Vector" d="M15.6921 7.65388C15.7207 8.05381 16.0349 8.36804 16.4348 8.36804C16.8347 8.36804 17.149 8.05381 17.1775 7.65388L17.5489 1.16928C17.5775 0.855043 17.4632 0.540811 17.2347 0.312279C17.0061 0.0837461 16.7205 -0.00195312 16.4348 -0.00195312C16.1492 -0.00195312 15.8635 0.112313 15.635 0.312279C15.4064 0.540811 15.2922 0.855043 15.3207 1.16928L15.6921 7.65388Z" fill="black"/>
<path id="Vector_2" d="M19.7193 11.0817C19.3765 10.8818 18.9195 10.996 18.691 11.3674C18.2339 12.1673 17.3769 12.6815 16.4056 12.6815C15.4344 12.6815 14.5774 12.1387 14.1203 11.3674C13.9203 11.0246 13.4633 10.8818 13.0919 11.0817C12.7491 11.2817 12.6063 11.7388 12.8062 12.1101C13.5204 13.3385 14.863 14.1669 16.3771 14.1669C17.9197 14.1669 19.2337 13.3385 19.9479 12.1101C20.205 11.7673 20.0907 11.3103 19.7193 11.0817Z" fill="black"/>
<path id="Vector_3" d="M13.3787 8.28322C13.493 8.65459 13.8929 8.88312 14.2643 8.76885C14.6356 8.65459 14.8927 8.28322 14.807 7.88329L13.6358 2.22711C13.5787 1.94145 13.4073 1.68435 13.1216 1.51295C12.8645 1.37012 12.5788 1.34155 12.2932 1.39868C12.0361 1.45581 11.779 1.65578 11.6361 1.91288C11.4647 2.19854 11.4647 2.51278 11.5504 2.79844L13.3787 8.28322Z" fill="black"/>
<path id="Vector_4" d="M11.4073 9.56608C11.6358 9.90888 12.0643 9.99458 12.4071 9.79462C12.7499 9.59465 12.8927 9.16615 12.6928 8.82335L10.4074 4.28127C10.2932 4.02417 10.0646 3.82421 9.7504 3.73851C9.46474 3.65281 9.20764 3.70994 8.97911 3.85277C8.75057 3.99561 8.57917 4.19557 8.49347 4.48124C8.40778 4.7669 8.46491 5.08114 8.63631 5.30967L11.4073 9.56608Z" fill="black"/>
<path id="Vector_5" d="M18.5769 8.76885C18.9482 8.88312 19.3482 8.65459 19.4624 8.28322L21.2907 2.79844C21.3764 2.51278 21.3478 2.19854 21.205 1.91288C21.0622 1.65578 20.8051 1.48438 20.548 1.39868C20.2909 1.34155 19.9766 1.37012 19.7195 1.51295C19.4339 1.68435 19.2625 1.94145 19.2053 2.22711L18.0341 7.88329C17.977 8.28322 18.2055 8.65459 18.5769 8.76885Z" fill="black"/>
<path id="Vector_6" d="M20.4343 9.79756C20.7771 9.99753 21.2056 9.88326 21.4342 9.56903L24.2337 5.31262C24.4051 5.08408 24.4622 4.76985 24.3765 4.48418C24.2908 4.19852 24.1194 3.99855 23.8909 3.85572C23.6624 3.71289 23.3767 3.68432 23.1196 3.74146C22.8339 3.82715 22.5768 4.02712 22.4626 4.28422L20.1772 8.8263C19.9773 9.1691 20.1201 9.62616 20.4343 9.79756Z" fill="black"/>
<path id="Vector_7" d="M26.3759 27.3627L22.4052 22.0779C21.691 21.1352 21.2625 19.9354 21.2625 18.707C21.2625 17.4501 21.691 16.2789 22.4052 15.3362L26.3759 10.0228C26.7758 9.30864 26.5473 8.39451 25.8332 7.99457C25.119 7.59464 24.2049 7.82318 23.8049 8.53734L21.3196 12.8509C20.2627 14.6506 18.3773 15.679 16.4348 15.6504C14.4922 15.6504 12.5783 14.6506 11.5499 12.8509L9.06459 8.53734C8.66466 7.82318 7.75053 7.59464 7.03636 7.99457C6.3222 8.39451 6.09367 9.30864 6.4936 10.0228L10.4643 15.3076C11.1785 16.2503 11.607 17.4501 11.607 18.6785C11.607 19.9354 11.1785 21.1066 10.4643 22.0493L6.4936 27.3341C6.09367 28.0483 6.3222 28.9624 7.03636 29.3624C7.75053 29.7623 8.66466 29.5338 9.06459 28.8196L11.5499 24.506C12.6068 22.7063 14.4922 21.678 16.4348 21.7065C18.3773 21.7065 20.2912 22.7063 21.3196 24.506L23.8049 28.8196C24.2049 29.5338 25.119 29.7623 25.8332 29.3624C26.5473 28.9624 26.7758 28.0483 26.3759 27.3627Z" fill="black"/>
</g>
<g id="Group_2">
<path id="Vector_8" d="M132.244 16.5096C132.386 16.5096 132.529 16.4239 132.529 16.224C132.529 16.024 132.415 15.9383 132.244 15.9383H131.701V16.5096H132.244ZM132.901 17.4809H132.501L132.158 16.8524H131.701V17.4809H131.358V15.6526H132.244C132.643 15.6526 132.872 15.8812 132.872 16.2525C132.872 16.5096 132.729 16.7382 132.501 16.7953L132.901 17.4809ZM132.044 15.2527C131.301 15.2527 130.701 15.8526 130.701 16.5953C130.701 17.3381 131.301 17.9665 132.044 17.9665C132.786 17.9665 133.386 17.3666 133.386 16.5953C133.386 15.8526 132.786 15.2527 132.044 15.2527ZM132.044 18.2522C131.129 18.2522 130.387 17.5095 130.387 16.5953C130.387 15.6812 131.129 14.9385 132.044 14.9385C132.958 14.9385 133.7 15.6812 133.7 16.5953C133.729 17.5095 132.958 18.2522 132.044 18.2522Z" fill="black"/>
<g id="Group_3">
<path id="Vector_9" d="M115.018 19.2825C113.79 19.0825 113.076 18.9111 113.076 18.3969C113.076 18.0256 113.561 17.6257 114.704 17.6257C115.39 17.6257 115.875 17.8256 116.132 18.1113C116.332 18.3112 116.618 18.3684 116.875 18.3112L118.332 17.9113C118.56 17.8542 118.675 17.5971 118.56 17.3971C117.875 16.1688 116.475 15.3975 114.704 15.3975C111.876 15.3975 110.533 16.9972 110.533 18.5398C110.533 20.7394 112.876 21.1965 114.618 21.4536C116.332 21.7107 116.675 21.9392 116.675 22.5105C116.675 23.0819 115.904 23.3961 114.904 23.3961C114.304 23.3961 113.533 23.1961 113.076 22.6819C112.876 22.4534 112.561 22.3391 112.276 22.4248L110.819 22.8248C110.59 22.8819 110.476 23.139 110.562 23.339C111.247 24.8244 112.847 25.71 114.904 25.71C117.418 25.71 119.189 24.3388 119.189 22.3963C119.189 20.2252 117.446 19.6824 115.018 19.2825Z" fill="black"/>
<path id="Vector_10" d="M92.3365 17.7133H87.0803V14.571H93.5934C93.822 14.571 94.0219 14.371 94.0219 14.1425V12.657C94.0219 12.4285 93.822 12.2285 93.5934 12.2285H84.9949C84.7664 12.2285 84.5664 12.4285 84.5664 12.657V24.9978C84.5664 25.2263 84.7664 25.4263 84.9949 25.4263H86.6518C86.8803 25.4263 87.0803 25.2263 87.0803 24.9978V20.0272H92.3365C92.565 20.0272 92.765 19.8272 92.765 19.5987V18.1132C92.765 17.9133 92.565 17.7133 92.3365 17.7133Z" fill="black"/>
<path id="Vector_11" d="M97.7922 12.657C97.7922 12.4285 97.5922 12.2285 97.3637 12.2285H95.7068C95.4783 12.2285 95.2783 12.4285 95.2783 12.657V24.9978C95.2783 25.2263 95.4783 25.4263 95.7068 25.4263H97.3637C97.5922 25.4263 97.7922 25.2263 97.7922 24.9978V12.657Z" fill="black"/>
<path id="Vector_12" d="M104.078 23.3111C102.678 23.3111 101.564 22.1113 101.564 20.5687C101.564 18.969 102.678 17.7692 104.078 17.7692C105.477 17.7692 106.591 19.0261 106.591 20.5687C106.591 22.0828 105.477 23.3111 104.078 23.3111ZM108.677 15.6267H107.134C106.906 15.6267 106.706 15.8267 106.706 16.0552V16.6837C105.934 15.8838 104.906 15.4268 103.706 15.4268C101.164 15.4268 99.0498 17.6264 99.0498 20.5402C99.0498 23.4254 101.164 25.625 103.706 25.625C104.906 25.625 105.963 25.168 106.706 24.3681V24.9966C106.706 25.2251 106.906 25.4251 107.134 25.4251H108.677C108.905 25.4251 109.105 25.2251 109.105 24.9966V16.0552C109.105 15.8267 108.905 15.6267 108.677 15.6267Z" fill="black"/>
<path id="Vector_13" d="M126.016 19.4559L129.073 16.2564C129.301 16.0279 129.13 15.6279 128.816 15.6279H126.559C126.331 15.6279 126.131 15.7136 125.988 15.885L123.017 19.1702V12.657C123.017 12.4285 122.817 12.2285 122.588 12.2285H120.931C120.703 12.2285 120.503 12.4285 120.503 12.657V24.9978C120.503 25.2263 120.703 25.4263 120.931 25.4263H122.588C122.817 25.4263 123.017 25.2263 123.017 24.9978V22.5982L124.274 21.2841L126.473 25.0263C126.616 25.2549 126.873 25.3977 127.13 25.3977H129.159C129.473 25.3977 129.644 25.0549 129.473 24.7978L126.016 19.4559Z" fill="black"/>
</g>
<g id="Group_4">
<path id="Vector_14" d="M40.9739 12.657C40.9739 12.4285 40.774 12.2285 40.5454 12.2285H38.8886C38.66 12.2285 38.4601 12.4285 38.4601 12.657V17.6562H32.8325V12.657C32.8325 12.4285 32.6325 12.2285 32.404 12.2285H30.7185C30.49 12.2285 30.29 12.4285 30.29 12.657V24.9978C30.29 25.2263 30.49 25.4263 30.7185 25.4263H32.404C32.6325 25.4263 32.8325 25.2263 32.8325 24.9978V19.9986H38.4601V24.9978C38.4601 25.2263 38.66 25.4263 38.8886 25.4263H40.5454C40.774 25.4263 40.9739 25.2263 40.9739 24.9978V12.657Z" fill="black"/>
<path id="Vector_15" d="M57.3422 23.3123C55.9424 23.3123 54.8283 22.1125 54.8283 20.57C54.8283 18.9702 55.9424 17.7704 57.3422 17.7704C58.7419 17.7704 59.856 19.0274 59.856 20.57C59.856 22.084 58.7419 23.3123 57.3422 23.3123ZM62.3699 12.657C62.3699 12.4285 62.1699 12.2285 61.9414 12.2285H60.2845C60.056 12.2285 59.856 12.4285 59.856 12.657V16.5706C59.0847 15.8565 58.1135 15.428 56.9708 15.428C54.4284 15.428 52.3145 17.6276 52.3145 20.5414C52.3145 23.4266 54.4284 25.6262 56.9708 25.6262C58.1706 25.6262 59.199 25.1692 59.9703 24.3693V24.9978C59.9703 25.2263 60.1703 25.4263 60.3988 25.4263H61.9414C62.1699 25.4263 62.3699 25.2263 62.3699 24.9978V12.657Z" fill="black"/>
<path id="Vector_16" d="M69.1119 15.3992C68.0836 15.3421 67.0552 15.7135 66.341 16.599V16.0563C66.341 15.8277 66.141 15.6278 65.9125 15.6278H64.3699C64.1414 15.6278 63.9414 15.8277 63.9414 16.0563V24.9976C63.9414 25.2261 64.1414 25.4261 64.3699 25.4261H66.0268C66.2553 25.4261 66.4553 25.2261 66.4553 24.9976V20.5984C66.4553 19.8271 66.541 19.0272 67.0837 18.4559C67.5694 17.9417 68.255 17.7703 69.0548 17.7988C69.2834 17.7988 69.5119 17.6274 69.5119 17.3703V15.7706C69.4833 15.5992 69.3119 15.4278 69.1119 15.3992Z" fill="black"/>
<path id="Vector_17" d="M74.6537 23.3675C73.311 23.3675 72.2255 22.2249 72.2255 20.568C72.2255 18.8826 73.311 17.7114 74.6537 17.7114C75.9963 17.7114 77.0818 18.8826 77.0818 20.568C77.0818 22.2249 75.9963 23.3675 74.6537 23.3675ZM74.6537 15.3975C71.9399 15.3975 69.7402 17.6257 69.7402 20.5394C69.7402 23.4532 71.9399 25.6529 74.6537 25.6529C77.3675 25.6529 79.5957 23.4532 79.5957 20.5394C79.5957 17.6257 77.3961 15.3975 74.6537 15.3975Z" fill="black"/>
<path id="Vector_18" d="M51.7722 15.6279H50.2296C50.001 15.6279 49.8011 15.7708 49.7154 15.9707L47.3158 22.2268L44.9162 15.9707C44.8305 15.7422 44.6305 15.6279 44.402 15.6279H42.8594C42.5737 15.6279 42.3738 15.9136 42.4595 16.1993L46.0589 25.5405L45.7446 26.3118C45.3733 27.2831 44.8591 27.6544 43.8878 27.683C43.6593 27.683 43.4593 27.883 43.4593 28.1115V29.5684C43.4593 29.7969 43.6307 29.9969 43.8592 29.9969C45.6875 30.054 47.0301 29.6255 47.9442 27.2259L52.1721 16.2278C52.2864 15.9422 52.0864 15.6279 51.7722 15.6279Z" fill="black"/>
</g>
</g>
</g>
</g>
</svg>
