<svg width="110" height="36" viewBox="0 0 110 36" fill="none" xmlns="http://www.w3.org/2000/svg">
<g id="logo_oxo" clip-path="url(#clip0_5265_9726)">
<g id="Symbols">
<g id="logo-oxo">
<path id="Combined-Shape" fill-rule="evenodd" clip-rule="evenodd" d="M54.8949 0C75.8068 0 91.8658 3.17649 101.439 8.29397C106.556 11.0293 109.38 14.3379 109.38 18C109.38 21.6617 106.556 24.9707 101.439 27.6616C91.8658 32.8235 75.8068 36 54.8949 36C33.9831 36 17.9248 32.8235 8.35091 27.6616C3.23344 24.9707 0.454102 21.6617 0.454102 18C0.454102 14.3379 3.23344 11.0293 8.35091 8.29397C17.9248 3.17649 33.9831 0 54.8949 0ZM61.2479 8.29397L54.9394 14.5592L48.6304 8.29397L45.1012 11.8232L51.4542 18L45.1012 24.1768L48.5419 27.6176L54.8509 21.353L61.1594 27.6176L64.6894 24.0883L58.3364 17.9115L64.6894 11.7355L61.2479 8.29397ZM32.0865 8.64708C26.6156 8.64708 22.0278 12.8385 22.0278 17.9556C22.0278 23.0738 26.5715 27.2645 32.0865 27.2645C37.6012 27.2645 42.1453 23.0738 42.1453 17.9556C42.1453 12.8385 37.5567 8.64708 32.0865 8.64708ZM77.7037 8.64708C72.2331 8.64708 67.6449 12.8385 67.6449 17.9556C67.6449 23.0738 72.1891 27.2645 77.7037 27.2645C83.2183 27.2645 87.7629 23.0738 87.7629 17.9556C87.7629 12.8385 83.1743 8.64708 77.7037 8.64708ZM32.0864 12.8825C34.8657 12.8825 37.0717 15.0885 37.0717 17.9556C37.0717 20.8234 34.8657 23.0294 32.0864 23.0294C29.3067 23.0294 27.101 20.8234 27.101 17.9556C27.101 15.0885 29.3067 12.8825 32.0864 12.8825ZM77.7037 12.8825C80.483 12.8825 82.689 15.0885 82.689 17.9556C82.689 20.8234 80.483 23.0294 77.7037 23.0294C74.9244 23.0294 72.7184 20.8234 72.7184 17.9556C72.7184 15.0885 74.9244 12.8825 77.7037 12.8825Z" fill="#DA2C2A"/>
</g>
</g>
</g>
<defs>
<clipPath id="clip0_5265_9726">
<rect width="109.091" height="36" fill="white" transform="translate(0.454102)"/>
</clipPath>
</defs>
</svg>
