<svg width="64" height="40" viewBox="0 0 64 40" fill="none" xmlns="http://www.w3.org/2000/svg">
<g id="logo_sabon">
<g id="Group">
<path id="Vector" d="M38.3237 3.00857C42.0143 2.92712 45.689 3.51764 49.1682 4.7513C50.2321 5.22384 51.251 5.79185 52.2123 6.44837C54.6171 8.0389 59.2289 11.2808 59.2289 17.7419C59.2289 21.0675 57.3948 24.4389 55.4238 26.6382C50.9262 31.7142 44.0618 35.0094 35.0666 36.4477C32.6124 36.836 30.1313 37.0294 27.6466 37.0261C21.5585 37.0261 16.2846 35.603 12.3578 33.0231C11.4231 32.3561 10.5496 31.6074 9.74747 30.7857C7.56334 28.6777 5.88149 26.1207 5.88149 22.7189C5.88149 15.8165 11.5054 10.0023 20.28 6.319C26.0225 4.05416 32.1512 2.92974 38.3237 3.00857ZM27.6238 37.7491C30.0862 37.764 32.5455 37.5705 34.9752 37.1707C49.3128 34.7887 59.8301 26.9046 59.8301 17.5745C59.8301 13.2062 57.2502 10.0936 55.0509 7.68122C49.1682 3.38146 44.1303 2.45302 37.2659 2.45302C29.8003 2.45302 22.0912 4.3023 16.863 7.19417C9.2528 11.3341 5.22702 16.1133 5.22702 22.1482C5.22702 28.6625 9.22997 31.6381 12.4263 33.7309C16.2313 36.227 21.2617 37.7491 27.6466 37.7491M59.031 29.1952C57.9989 30.4233 56.8466 31.545 55.5912 32.5437C48.6888 37.7795 37.5627 39.0428 30.0514 39.0428C20.7366 39.0428 12.3349 36.189 7.13717 31.3261C6.50553 30.7477 6.17829 29.9562 5.2879 29.0811C3.06572 26.9046 1.95463 23.4419 1.95463 20.3141C1.96139 18.062 2.56255 15.8516 3.69737 13.9064C5.2761 11.1897 7.49064 8.89679 10.1508 7.22461C13.3906 5.12472 16.9394 3.54547 20.6681 2.54434C24.0539 1.75934 27.5017 1.27045 30.9723 1.08319H32.4943C41.0786 1.08319 50.8729 2.15622 57.1818 7.8182C59.6627 10.0632 61.2304 12.019 61.9762 13.815C62.7123 15.6908 63.0817 17.6904 63.0644 19.7053C63.0644 23.5104 61.7174 26.2196 59.0691 29.2333M52.2199 3.64021C47.0602 1.28866 40.211 0.0101523 33.0651 0.0101523C29.3931 -0.0679863 25.7254 0.30517 22.1445 1.12124C14.6713 2.64328 6.67295 6.93542 3.11899 12.5365C1.64665 14.8031 0.854383 17.444 0.835938 20.1467C0.844747 22.6043 1.40656 25.0285 2.47974 27.2394C3.12721 28.3486 3.89268 29.3845 4.76279 30.3291C10.2954 36.6912 19.4505 40.0093 30.8886 40.0093C41.4439 40.0093 52.2884 36.9652 57.7297 31.9197C60.7738 29.0887 64.0005 25.5728 64.0005 19.7434C64.0461 12.0951 58.719 6.50925 52.2047 3.60216" fill="#C3A854"/>
<path id="Vector_2" d="M40.6902 25.1746C39.5639 25.1746 38.4072 22.4349 38.4072 19.0864C38.4072 15.1063 39.5563 14.0865 40.5532 14.0865C41.7024 14.0865 42.8363 16.9403 42.8363 18.919C42.8363 22.1762 42.0068 25.1898 40.7283 25.1898M30.66 25.4714C30.4351 25.4644 30.2111 25.439 29.9903 25.3953C29.9903 25.3953 29.7544 22.823 29.7544 20.9357C29.7544 19.3452 29.8076 18.957 30.5154 18.957C30.9241 18.9382 31.3322 19.0035 31.7147 19.1487C32.0971 19.2939 32.4457 19.5161 32.7389 19.8014C33.032 20.0867 33.2635 20.4291 33.4191 20.8075C33.5746 21.1859 33.6509 21.5921 33.6432 22.0011C33.6432 24.2385 32.3114 25.479 30.6828 25.479M29.4348 14.9465C29.4348 13.9039 29.4348 13.6451 29.8838 13.6451C30.1165 13.646 30.3468 13.6936 30.5609 13.7849C30.775 13.8763 30.9686 14.0096 31.1303 14.177C31.292 14.3444 31.4186 14.5425 31.5025 14.7596C31.5864 14.9767 31.626 15.2085 31.6189 15.4411C31.6189 16.6664 30.9035 17.4807 30.0131 17.4807C29.8625 17.487 29.7116 17.4742 29.5641 17.4426C29.5641 17.4426 29.4348 15.9206 29.4348 14.9465ZM22.3116 19.2006L23.1792 16.1565C23.1792 16.1032 23.2401 16.0804 23.2553 16.0804C23.2749 16.0821 23.2933 16.0907 23.3072 16.1046C23.3211 16.1185 23.3297 16.1369 23.3314 16.1565L23.7119 19.0864L22.3116 19.2006ZM53.1785 22.2446C53.1785 19.8703 53.2927 17.1154 53.2927 14.5051C53.2927 12.5264 52.76 12.1155 51.9457 12.1155C51.6212 12.1302 51.2982 12.1684 50.9792 12.2296C51.0553 13.6756 51.0933 17.8383 51.0933 20.9661C50.1877 18.957 48.445 14.2616 47.684 12.184C47.393 12.084 47.0857 12.0401 46.7784 12.0546C45.888 12.0546 45.3933 12.3666 45.3933 12.9374C45.3933 13.6984 45.4466 16.7425 45.4846 19.7866V19.1397C45.1117 15.4564 43.0418 12.3666 40.1575 12.0698C38.6355 12.0698 36.8242 14.2692 36.2687 15.6771C35.8799 16.7896 35.6868 17.9612 35.6979 19.1397C35.6813 19.6126 35.7042 20.0861 35.7664 20.5552C35.5971 20.0232 35.317 19.5331 34.9444 19.1172C34.5719 18.7014 34.1154 18.3693 33.6051 18.1428C33.3083 18.0134 33.179 17.9601 33.179 17.8307C33.179 17.5339 33.529 17.3665 34.0617 16.3087C34.2493 15.9006 34.3454 15.4565 34.3433 15.0074C34.3433 12.4579 31.7559 12.047 30.6067 12.047C29.7916 12.022 28.9764 12.0961 28.1791 12.2677C27.8457 13.7658 27.7026 15.2999 27.7529 16.8338C27.7529 19.0408 27.8442 21.6434 27.9203 24.0711C27.6939 24.4961 27.3641 24.8572 26.9614 25.1213C26.8092 24.4592 26.4363 22.5719 25.9949 20.441C26.6038 20.2584 27.2354 19.8094 27.2354 19.368C27.2354 19.0712 27.1593 18.9038 26.794 18.9038H26.6646L25.6982 18.9799C25.0132 15.6314 24.2903 12.184 24.1761 12.0546C24.0431 11.9547 23.8774 11.9085 23.7119 11.9252C23.3041 11.9415 22.9023 12.029 22.5247 12.184L20.2416 19.3832L19.0392 19.4745C18.8993 19.9484 18.6917 20.3995 18.4228 20.8139L19.7926 20.7759L18.9251 23.5688C18.887 20.3878 13.598 18.0134 13.598 15.3118C13.6021 14.7713 13.7979 14.2498 14.1504 13.8401C14.503 13.4304 14.9895 13.159 15.5233 13.0744C15.7157 13.201 15.8757 13.3709 15.9907 13.5704C16.1056 13.7699 16.1723 13.9936 16.1854 14.2235C16.1854 14.9465 15.1885 15.6314 15.1885 15.8293C15.1885 16.0271 15.8734 16.1261 15.9495 16.1261C16.5459 16.0756 17.1087 15.8285 17.5495 15.4235C17.9902 15.0185 18.284 14.4787 18.3848 13.8887C18.297 13.2302 17.9756 12.6252 17.4791 12.184C17.1004 12.0736 16.7091 12.0122 16.3148 12.0013C15.6959 11.9846 15.078 12.059 14.4807 12.222C13.619 12.4208 12.8496 12.9047 12.2971 13.5953C11.7446 14.2859 11.4414 15.1427 11.4367 16.0271C11.4367 19.193 16.5279 20.8596 16.5279 23.82C16.5366 24.1043 16.4848 24.3873 16.376 24.6502C16.2672 24.9131 16.1037 25.1498 15.8965 25.3448C15.6893 25.5398 15.4431 25.6885 15.1741 25.7812C14.9051 25.8738 14.6195 25.9083 14.3361 25.8823C13.2479 25.8823 12.7076 25.4561 12.7076 24.756C12.7579 24.1217 13.0269 23.5246 13.4686 23.0665C13.4686 22.8991 13.2783 22.8458 13.0957 22.8458C12.4279 22.8416 11.7849 23.0987 11.3042 23.5624C10.8235 24.026 10.5433 24.6592 10.5234 25.3268C10.5234 26.3465 11.8172 26.9934 13.7273 26.9934C14.9409 26.9991 16.1365 26.7009 17.2052 26.1258C17.7457 25.8243 18.2072 25.3992 18.5522 24.8854C18.5181 25.1733 18.5003 25.463 18.4989 25.7529C18.487 26.1932 18.5567 26.6318 18.7044 27.0467C19.9829 27.0467 20.8657 24.3983 20.8885 24.307L21.9083 20.6846L23.9402 20.5552L24.549 24.9234C24.6479 25.5931 24.998 27.0923 25.9797 27.0923C26.4013 27.036 26.8017 26.8739 27.1437 26.6211C27.4857 26.3682 27.7581 26.0329 27.9355 25.6464L27.9736 26.4607C28.8489 26.8417 29.797 27.0261 30.7513 27.001C33.9933 27.001 36.01 25.0376 36.01 22.0392V21.6663C36.8851 25.0376 39.328 27.1076 40.5761 27.1076C42.608 27.1076 44.4192 24.9843 44.8834 23.9265C45.2827 23.0076 45.5023 22.0208 45.5303 21.0194V26.7423C45.8521 26.925 46.2183 27.0146 46.5881 27.001C47.7753 27.001 48.0493 26.5368 48.0493 24.5734C48.0493 22.9448 47.8438 20.0072 47.7753 17.7242C48.5363 19.5735 50.2486 24.1852 50.8194 25.4638C51.3901 26.7423 51.8924 26.9858 52.5393 26.9858C52.7205 26.9563 52.8922 26.8844 53.0403 26.776C53.1884 26.6675 53.3088 26.5256 53.3916 26.3618C53.2622 24.8397 53.2014 23.7743 53.2014 22.237" fill="#C3A854"/>
</g>
</g>
</svg>
