<svg width="106" height="30" viewBox="0 0 106 30" fill="none" xmlns="http://www.w3.org/2000/svg">
<g id="logo_adobe">
<path id="Vector" d="M11.6785 1H0V29L11.6785 1Z" fill="#FA0F00"/>
<path id="Vector_2" d="M19.8968 1H31.56V29L19.8968 1Z" fill="#FA0F00"/>
<path id="Vector_3" d="M15.7875 11.3176L23.2206 28.9978H18.3438L16.1222 23.3688H10.6824L15.7875 11.3176Z" fill="#FA0F00"/>
<path id="Vector_4" d="M50.6119 18.8122L51.989 22.7708C52.0346 22.87 52.1031 22.9157 52.2248 22.9157H54.8725C55.017 22.9157 55.0398 22.8471 55.017 22.7022L49.5468 7.47036C49.524 7.34832 49.5011 7.32544 49.3794 7.32544H46.0927C46.0014 7.32544 45.9481 7.39409 45.9481 7.49324C45.9025 8.29411 45.834 8.53819 45.7351 8.77463L40.8583 22.6793C40.8355 22.8471 40.8887 22.9157 41.0257 22.9157H43.3918C43.5364 22.9157 43.6048 22.87 43.6581 22.725L44.9591 18.8122H50.6119ZM45.7123 16.2266C46.4275 14.0604 47.3709 11.284 47.7513 9.69755H47.7741C48.2458 11.3603 49.3566 14.6553 49.8587 16.2266H45.7123Z" fill="#FA0F00"/>
<path id="Vector_5" d="M62.0467 23.1532C63.4694 23.1532 64.9835 22.8939 66.5203 22.2303C66.642 22.1846 66.6648 22.1312 66.6648 22.0168C66.6192 21.5896 66.5659 20.9718 66.5659 20.4989V6.15951C66.5659 6.06798 66.5659 6.02222 66.4518 6.02222H63.8727C63.7738 6.02222 63.7281 6.06798 63.7281 6.19002V11.0486C63.3249 11.0029 63.0434 10.98 62.7086 10.98C58.547 10.98 55.9907 13.7335 55.9907 17.1734C55.9907 21.1625 58.6155 23.1532 62.0467 23.1532ZM63.7281 20.4989C63.3021 20.6362 62.8304 20.6896 62.351 20.6896C60.4642 20.6896 58.9198 19.6218 58.9198 17.0285C58.9198 14.7327 60.5099 13.375 62.6173 13.375C63.0434 13.375 63.4162 13.4207 63.7281 13.5428V20.4989Z" fill="#FA0F00"/>
<path id="Vector_6" d="M74.8976 10.9805C71.3446 10.9805 69.1459 13.7111 69.1459 17.0823C69.1459 20.0951 70.8957 23.1537 74.8443 23.1537C78.1843 23.1537 80.5276 20.6901 80.5276 17.0061C80.5276 13.7568 78.5419 10.9805 74.8976 10.9805ZM74.753 13.3755C76.7616 13.3755 77.6137 15.1069 77.6137 17.0823C77.6137 19.5231 76.3584 20.7358 74.8976 20.7358C73.0945 20.7358 72.0293 19.218 72.0293 17.029C72.0293 14.7789 73.1629 13.3755 74.753 13.3755Z" fill="#FA0F00"/>
<path id="Vector_7" d="M83.1916 6.02222C83.0927 6.02222 83.0242 6.06798 83.0242 6.19002V22.421C83.0242 22.4897 83.0927 22.6117 83.1916 22.6346C84.3252 22.9854 85.5121 23.1532 86.737 23.1532C90.2443 23.1532 93.6528 20.9718 93.6528 16.5785C93.6528 13.3979 91.4768 10.98 88.0684 10.98C87.2848 10.98 86.5544 11.102 85.9153 11.3156L85.8849 6.2129C85.8849 6.0451 85.8392 6.02222 85.6718 6.02222H83.1916ZM90.7388 16.8683C90.7388 19.4997 88.9433 20.7354 87.0033 20.7354C86.6 20.7354 86.2424 20.7125 85.9153 20.6133V13.6877C86.2881 13.5428 86.737 13.4207 87.5663 13.4207C89.4379 13.4207 90.7388 14.6106 90.7388 16.8683Z" fill="#FA0F00"/>
<path id="Vector_8" d="M103.276 17.723C104.433 17.723 105.384 17.7002 105.711 17.6239C105.833 17.601 105.878 17.5552 105.901 17.4561C105.97 17.1968 106 16.6552 106 15.9916C106 13.7339 104.646 10.9805 101.146 10.9805C97.5701 10.9805 95.5844 13.9017 95.5844 17.1968C95.5844 20.118 97.1213 23.1537 101.427 23.1537C103.04 23.1537 104.083 22.8944 104.98 22.4673C105.072 22.4215 105.117 22.3452 105.117 22.2079V20.2324C105.117 20.118 105.049 20.0951 104.98 20.1409C104.083 20.5223 103.109 20.713 102.044 20.713C99.6319 20.713 98.5364 19.3782 98.4679 17.723H103.276ZM98.4679 15.6789C98.6581 14.5196 99.3885 13.261 101.024 13.261C102.827 13.261 103.299 14.7789 103.299 15.4654C103.299 15.4882 103.299 15.5874 103.299 15.656C103.2 15.6789 102.896 15.6789 101.998 15.6789H98.4679Z" fill="#FA0F00"/>
</g>
</svg>
