<svg width="132" height="18" viewBox="0 0 132 18" fill="none" xmlns="http://www.w3.org/2000/svg">
<g id="Group">
<g id="Group_2">
<g id="Group_3">
<path id="_x34_2302b53-1cfb-4a74-9e02-b7be13fd71b7" fill-rule="evenodd" clip-rule="evenodd" d="M113.5 8.28197C115.159 8.28197 115.805 9.29579 115.888 10.182C115.895 10.2345 115.85 10.2796 115.798 10.2871H115.79H111.224C111.172 10.2871 111.127 10.242 111.127 10.1895C111.127 10.1819 111.127 10.1819 111.127 10.1744C111.262 9.31832 112.028 8.28197 113.5 8.28197ZM116.001 13.9068C115.94 13.9068 115.88 13.9369 115.843 13.9819C115.43 14.5602 114.761 14.9206 113.763 14.9206C112.381 14.9206 111.187 14.012 111.059 12.7278C111.052 12.6752 111.097 12.6301 111.149 12.6226H111.157H119.357C119.38 12.5475 119.433 11.9993 119.433 11.4962C119.433 7.67367 117.15 5.3982 113.455 5.3982C110.361 5.3982 107.499 7.83889 107.499 11.6614C107.499 15.6566 110.428 17.9997 113.718 17.9997C116.691 17.9997 118.569 16.34 119.185 14.3274C119.192 14.3123 119.207 14.2372 119.23 14.1321C119.252 14.027 119.185 13.9293 119.08 13.9068C119.065 13.9068 119.057 13.8993 119.042 13.8993H116.001V13.9068ZM123.247 11.6163L119.357 6.07409C119.297 5.98397 119.32 5.87132 119.402 5.80373C119.433 5.7812 119.47 5.76618 119.515 5.76618H123.338C123.405 5.76618 123.465 5.79622 123.495 5.84879L125.493 8.89026C125.53 8.95034 125.613 8.95034 125.651 8.89026L127.603 5.8563C127.641 5.80373 127.701 5.76618 127.761 5.76618H131.366C131.523 5.76618 131.613 5.93891 131.523 6.06657L127.686 11.4661C127.641 11.5337 127.641 11.6163 127.686 11.6839C128.94 13.4712 130.374 15.5364 131.666 17.3463C131.756 17.474 131.666 17.6467 131.508 17.6467H127.716C127.648 17.6467 127.588 17.6167 127.558 17.5641L125.485 14.425C125.455 14.3799 125.395 14.3724 125.35 14.395C125.343 14.4025 125.328 14.41 125.32 14.425C124.697 15.3487 123.886 16.6329 123.27 17.5641C123.232 17.6167 123.172 17.6467 123.112 17.6467H119.575C119.47 17.6467 119.387 17.5641 119.38 17.4589C119.38 17.4214 119.395 17.3839 119.418 17.3463L123.24 11.8266C123.3 11.7665 123.3 11.6764 123.247 11.6163ZM102.648 17.4589V0.539359C102.648 0.434222 102.738 0.344102 102.843 0.344102H106.11C106.215 0.344102 106.305 0.426712 106.305 0.539359V17.4589C106.305 17.5641 106.215 17.6467 106.11 17.6467H102.843C102.738 17.6542 102.656 17.5641 102.648 17.4589ZM97.2786 17.4589V0.539359C97.2786 0.434222 97.3687 0.344102 97.4738 0.344102H100.733C100.838 0.344102 100.928 0.426712 100.928 0.539359V17.4589C100.928 17.5641 100.846 17.6467 100.733 17.6467H97.4663C97.3612 17.6542 97.2786 17.5641 97.2786 17.4589ZM89.2055 14.8531C90.67 14.8531 91.9166 13.704 91.9166 11.6989C91.9166 9.64124 90.6925 8.56734 89.2055 8.56734C87.6435 8.56734 86.472 9.64124 86.472 11.6989C86.472 13.659 87.6961 14.8531 89.2055 14.8531ZM91.9391 16.1222C91.4134 17.2712 90.2119 17.9846 88.7249 17.9846C85.2178 17.9846 82.7997 15.3337 82.7997 11.6764C82.7997 8.13928 85.0827 5.41322 88.6048 5.41322C90.7376 5.41322 91.6763 6.58475 91.9166 7.13297V5.96144C91.9166 5.8563 91.9992 5.77369 92.1118 5.77369H95.2585C95.3636 5.77369 95.4537 5.8563 95.4537 5.96895V17.4665C95.4537 17.5716 95.3711 17.6542 95.2585 17.6542H92.1194C92.0142 17.6542 91.9241 17.5716 91.9241 17.4665C91.9241 17.0234 91.9391 16.0246 91.9391 16.1222ZM75.012 5.90136L77.1974 12.525C77.2274 12.6151 77.3551 12.6151 77.3776 12.5175L79.2475 5.90887C79.2701 5.82626 79.3452 5.76618 79.4353 5.76618H82.6044C82.7321 5.76618 82.8297 5.89385 82.7922 6.01401L79.2175 17.5115C79.195 17.5941 79.1199 17.6467 79.0373 17.6467H75.6954C75.6128 17.6467 75.5377 17.5941 75.5152 17.519L73.0595 10.2495C73.0294 10.1594 72.9018 10.1594 72.8792 10.2495L70.4686 17.519C70.446 17.5941 70.371 17.6467 70.2883 17.6467H66.8714C66.7888 17.6467 66.7137 17.5941 66.6911 17.5115L63.0714 6.01401C63.0414 5.91638 63.0939 5.80373 63.1991 5.77369C63.2141 5.76618 63.2366 5.76618 63.2592 5.76618H66.6461C66.7287 5.76618 66.8038 5.82626 66.8338 5.90887L68.7038 12.495C68.7263 12.5851 68.854 12.5851 68.884 12.5025L71.0919 5.90136C71.1144 5.82626 71.1895 5.76618 71.2721 5.76618H74.8618C74.9144 5.77369 74.9895 5.82626 75.012 5.90136ZM62.0576 9.12306C62.0576 9.2282 61.975 9.31081 61.8623 9.31081C61.8548 9.31081 61.8398 9.31081 61.8323 9.31081C61.5244 9.25824 61.2165 9.23571 60.9011 9.23571C59.4367 9.23571 58.115 10.0993 58.115 12.4649V17.4589C58.115 17.5641 58.0323 17.6467 57.9272 17.6467H54.6604C54.5553 17.6467 54.4652 17.5641 54.4652 17.4589V5.96144C54.4652 5.8563 54.5478 5.76618 54.6604 5.76618H57.807C57.9122 5.76618 57.9948 5.84879 57.9948 5.96144V7.37328C58.6181 6.03653 60.1351 5.65354 61.0888 5.65354C61.3817 5.65354 61.6746 5.68358 61.8999 5.73615C61.99 5.75868 62.0501 5.83377 62.0501 5.92389C62.0576 5.91638 62.0576 9.12306 62.0576 9.12306ZM49.0281 17.4589V5.96144C49.0281 5.8563 49.1107 5.76618 49.2233 5.76618H52.4901C52.5952 5.76618 52.6854 5.84879 52.6854 5.96144V17.4589C52.6854 17.5641 52.6028 17.6467 52.4901 17.6467H49.2233C49.1182 17.6542 49.0281 17.5641 49.0281 17.4589ZM50.8304 0.0136719C52.032 0.0136719 52.9933 0.967416 52.9933 2.13895C52.9933 3.31048 52.032 4.26422 50.8304 4.26422C49.6814 4.26422 48.7202 3.31048 48.7202 2.13895C48.7202 0.967416 49.6739 0.0136719 50.8304 0.0136719ZM37.4029 10.7677H41.2629C41.3305 10.7677 41.3756 10.7001 41.3531 10.64L39.4456 5.1654C39.4306 5.11283 39.3705 5.0903 39.3254 5.10532C39.2954 5.11283 39.2729 5.13536 39.2653 5.1654L37.3128 10.64C37.2903 10.7001 37.3428 10.7677 37.4029 10.7677ZM42.4645 14.2072H36.1563C36.0737 14.2072 36.0061 14.2598 35.976 14.3349L34.8421 17.519C34.812 17.5941 34.7444 17.6467 34.6618 17.6467H31.0947C30.9895 17.6467 30.8994 17.5641 30.8994 17.4589C30.8994 17.4364 30.9069 17.4139 30.9144 17.3914L37.1776 0.824729C37.2077 0.749631 37.2752 0.697063 37.3578 0.704573H41.4807C41.5633 0.704573 41.6309 0.757143 41.661 0.832241L47.8566 17.3989C47.8941 17.4965 47.8415 17.6091 47.7439 17.6467C47.7214 17.6542 47.6988 17.6617 47.6763 17.6617H43.959C43.8764 17.6617 43.8088 17.6091 43.7787 17.5341L42.6448 14.3499C42.6147 14.2598 42.5396 14.2072 42.4645 14.2072Z" fill="black"/>
</g>
<path id="Vector" fill-rule="evenodd" clip-rule="evenodd" d="M26.2888 7.05821C27.2426 7.98943 27.558 9.39377 27.0849 10.6404L25.3201 15.4317C24.8545 16.6858 23.8031 17.6621 22.4964 17.9174C21.1672 18.1802 19.8004 17.6921 18.9442 16.6482L8.37795 3.98671C8.29534 3.88908 8.14515 3.87406 8.04752 3.95667C8.01748 3.9792 7.99495 4.01674 7.97993 4.05429L4.54044 13.3589C4.47285 13.5542 4.6606 13.7344 4.84834 13.6593L9.06885 11.9396C10.0226 11.5566 11.1115 12.0147 11.4945 12.9684C11.5095 13.0135 11.5321 13.0586 11.5396 13.1036C11.855 14.0574 11.3293 15.0937 10.4056 15.4692L4.8934 17.7221C3.87207 18.1427 2.70054 18.0676 1.78434 17.4518C0.492653 16.5882 -0.033033 14.9585 0.507673 13.5016L4.57048 2.51478C5.05111 1.21559 6.14754 0.29188 7.50681 0.0590756C8.85107 -0.181238 10.2179 0.32192 11.089 1.3808L17.1569 8.6503L22.7367 6.36731C23.9683 5.84914 25.3276 6.11949 26.2888 7.05821ZM23.0671 10.7155C23.1347 10.5202 22.947 10.34 22.7592 10.4151L19.6802 11.6767L21.5276 13.8921C21.6102 13.9898 21.7529 14.0048 21.8581 13.9222C21.8881 13.8921 21.9106 13.8621 21.9256 13.8246L23.0671 10.7155Z" fill="url(#paint0_linear_5291_8799)"/>
</g>
</g>
<defs>
<linearGradient id="paint0_linear_5291_8799" x1="-2.00972" y1="1.51735" x2="14.6054" y2="26.4446" gradientUnits="userSpaceOnUse">
<stop stop-color="#FF4244"/>
<stop offset="1" stop-color="#FF8E3C"/>
</linearGradient>
</defs>
</svg>
