<svg width="111" height="30" viewBox="0 0 111 30" fill="none" xmlns="http://www.w3.org/2000/svg">
<g id="logo_akeneo">
<path id="Vector" d="M36.1474 15.6267C36.1474 14.6129 35.8884 13.894 35.3704 13.5069C34.8524 13.1014 34.0939 12.9171 33.1135 12.9171C32.54 12.9171 31.9665 12.9539 31.4116 13.0645C30.8936 13.1567 30.3756 13.2857 29.8576 13.4332C29.5061 12.8065 29.3396 12.106 29.3581 11.3871C29.9871 11.1843 30.6531 11.0369 31.3191 10.9447C32.0035 10.8341 32.688 10.7972 33.3725 10.7788C35.1114 10.7788 36.4249 11.1659 37.3313 11.9585C38.2378 12.7512 38.6818 14.0046 38.6818 15.7373V24.0507C38.0713 24.1982 37.3313 24.3272 36.4618 24.4747C35.5924 24.6221 34.7044 24.6959 33.798 24.6959C33.021 24.6959 32.2625 24.6221 31.5041 24.4562C30.8751 24.3272 30.2831 24.0691 29.7651 23.7005C29.2841 23.3687 28.9142 22.9079 28.6552 22.3917C28.3777 21.7834 28.2482 21.1198 28.2667 20.4378C28.2297 19.1106 28.8587 17.8387 29.9501 17.083C30.4866 16.6959 31.0971 16.4194 31.7445 16.2535C32.4475 16.0691 33.1505 15.977 33.872 15.977C34.4269 15.977 34.8894 15.9954 35.2409 16.0138C35.5924 16.0323 35.8884 16.0691 36.1289 16.106L36.1474 15.6267ZM36.1474 18.1337C35.8884 18.0968 35.5554 18.0599 35.1669 18.0231C34.7784 17.9862 34.4269 17.9678 34.1494 17.9678C33.0765 17.9678 32.2625 18.1705 31.689 18.5576C31.1156 18.9816 30.8011 19.6636 30.8381 20.3641C30.8196 20.788 30.9121 21.212 31.1156 21.5807C31.3006 21.8572 31.5411 22.0968 31.837 22.2627C32.133 22.4286 32.4475 22.5208 32.7805 22.5392C33.132 22.5761 33.465 22.5945 33.761 22.5945C34.1679 22.5945 34.5934 22.5761 35.0004 22.5208C35.3889 22.4839 35.7589 22.4286 36.1289 22.3364L36.1474 18.1337Z" fill="black"/>
<path id="Vector_2" d="M42.4366 5.37781C42.6401 5.34094 42.8621 5.32251 43.0656 5.30407C43.3061 5.28564 43.5096 5.28564 43.6946 5.28564C43.8796 5.28564 44.1016 5.28564 44.3421 5.30407C44.5641 5.32251 44.786 5.34094 44.9895 5.37781V24.3824C44.7675 24.4193 44.5456 24.4377 44.3421 24.4562C44.1016 24.4746 43.8796 24.4746 43.6946 24.4746C43.4911 24.4746 43.2876 24.4746 43.0656 24.4562C42.8436 24.4377 42.6401 24.4193 42.4366 24.3824V5.37781ZM45.0635 17.4884L49.9658 11.0921C50.1878 11.0552 50.4098 11.0368 50.6503 11.0184C50.8908 10.9999 51.1128 10.9999 51.3533 10.9999C51.6123 10.9999 51.8528 10.9999 52.0932 11.0184C52.3337 11.0368 52.5742 11.0552 52.8147 11.0921L47.9124 17.3041L53.5362 24.3824C53.2957 24.4193 53.0552 24.4377 52.8332 24.4562C52.6112 24.4746 52.3707 24.4746 52.1302 24.4746C51.8898 24.4746 51.6493 24.4746 51.4088 24.4562C51.1683 24.4377 50.9278 24.4193 50.6873 24.4009L45.0635 17.4884Z" fill="black"/>
<path id="Vector_3" d="M57.329 18.3733C57.366 19.8295 57.736 20.8802 58.4575 21.5622C59.1789 22.2443 60.2334 22.5761 61.6393 22.5761C62.8418 22.5761 64.0257 22.3549 65.1542 21.9309C65.3022 22.2258 65.4132 22.5392 65.4872 22.871C65.5797 23.2397 65.6167 23.6083 65.6537 23.977C65.0432 24.2351 64.4142 24.4194 63.7667 24.53C63.0083 24.659 62.2498 24.7143 61.4913 24.7143C60.4369 24.7327 59.3639 24.5668 58.365 24.2166C56.737 23.6268 55.4791 22.2811 54.9796 20.6221C54.7021 19.7189 54.5726 18.7973 54.5911 17.8572C54.5911 16.9171 54.7021 15.9954 54.9611 15.0922C55.1831 14.2811 55.5901 13.5254 56.1266 12.8618C56.663 12.2166 57.329 11.7005 58.0875 11.3502C58.9754 10.9631 59.9189 10.7604 60.8809 10.7972C61.7133 10.7788 62.5273 10.9447 63.3043 11.2581C63.9702 11.553 64.5622 11.9954 65.0432 12.5484C65.5242 13.1198 65.8942 13.7834 66.1161 14.5023C66.3566 15.295 66.4861 16.1244 66.4861 16.9539C66.4861 17.1936 66.4861 17.4516 66.4676 17.7281C66.4491 18.0046 66.4306 18.2258 66.4121 18.4102L57.329 18.3733ZM63.9332 16.4562C63.9332 15.9954 63.8777 15.5161 63.7482 15.0737C63.6372 14.6498 63.4338 14.2627 63.1748 13.9125C62.9158 13.5807 62.5828 13.3042 62.2128 13.1198C61.7873 12.9171 61.3063 12.8065 60.8254 12.8249C59.7709 12.8249 58.9569 13.1383 58.402 13.7834C57.7915 14.5392 57.4215 15.4793 57.366 16.4562H63.9332Z" fill="black"/>
<path id="Vector_4" d="M69.8528 11.0922C70.0378 11.0553 70.2228 11.0369 70.4078 11.0184C70.5928 11 70.7778 11 70.9628 11C71.1478 11 71.3143 11 71.4993 11.0184C71.6658 11.0369 71.8323 11.0553 72.0358 11.0922C72.0913 11.3502 72.1468 11.7005 72.2022 12.1429C72.2577 12.5115 72.2762 12.8802 72.2762 13.2489C72.4612 12.9355 72.6832 12.6406 72.9237 12.3641C73.2012 12.0691 73.5157 11.7926 73.8487 11.5714C74.6441 11.0553 75.5691 10.7788 76.5311 10.7788C78.0665 10.7788 79.195 11.2212 79.9164 12.0876C80.6379 12.9539 81.0079 14.2443 81.0079 15.9585V24.4009C80.7859 24.4378 80.5639 24.4562 80.3604 24.4747C80.1199 24.4931 79.8979 24.4931 79.7129 24.4931C79.5094 24.4931 79.306 24.4931 79.084 24.4747C78.862 24.4562 78.6585 24.4378 78.455 24.4009V16.6774C78.455 15.4424 78.27 14.5392 77.8815 13.9677C77.4745 13.3779 76.7716 13.0461 76.0686 13.1014C75.5876 13.1014 75.1251 13.1936 74.6811 13.3595C74.2372 13.5438 73.8487 13.8203 73.5342 14.1705C73.1827 14.576 72.9052 15.0553 72.7387 15.5899C72.5167 16.2719 72.4242 16.9724 72.4427 17.6728V24.4009C72.2392 24.4378 72.0173 24.4562 71.8138 24.4747C71.5733 24.4931 71.3698 24.4931 71.1848 24.4931C70.9998 24.4931 70.7778 24.4931 70.5373 24.4747C70.3153 24.4562 70.0933 24.4378 69.8898 24.4009V11.0922H69.8528Z" fill="black"/>
<path id="Vector_5" d="M86.817 18.3733C86.854 19.8296 87.2239 20.8802 87.9454 21.5623C88.6669 22.2443 89.7213 22.5761 91.1273 22.5761C92.3297 22.5761 93.5137 22.3549 94.6421 21.9309C94.7901 22.2259 94.9011 22.5392 94.9751 22.871C95.0676 23.2397 95.1046 23.6084 95.1231 23.977C94.5311 24.2351 93.9022 24.4194 93.2547 24.53C92.4962 24.659 91.7378 24.7143 90.9793 24.7143C89.9248 24.7328 88.8519 24.5669 87.8529 24.2167C86.2065 23.6268 84.9485 22.2812 84.4491 20.6222C84.1716 19.719 84.0421 18.7973 84.0606 17.8572C84.0606 16.9171 84.1716 15.9954 84.4306 15.0922C84.6525 14.2812 85.0595 13.5254 85.596 12.8618C86.1325 12.2166 86.7985 11.7005 87.5569 11.3503C88.4264 10.9632 89.3884 10.7789 90.3503 10.7973C91.1828 10.7789 91.9967 10.9448 92.7737 11.2581C93.4397 11.553 94.0317 11.9954 94.5126 12.5484C94.9936 13.1199 95.3636 13.7835 95.5856 14.5024C95.8261 15.295 95.9556 16.1245 95.9556 16.954C95.9556 17.1936 95.9556 17.4517 95.9371 17.7282C95.9186 18.0047 95.9001 18.2259 95.8816 18.4102L86.817 18.3733ZM93.4397 16.4563C93.4397 15.9954 93.3842 15.5162 93.2547 15.0738C93.1437 14.6498 92.9402 14.2627 92.6812 13.9125C92.4222 13.5807 92.0892 13.3042 91.7193 13.1199C91.2938 12.9171 90.8128 12.8065 90.3318 12.8249C89.2774 12.8249 88.4634 13.1383 87.9084 13.7835C87.2979 14.5392 86.928 15.4793 86.8725 16.4563H93.4397Z" fill="black"/>
<path id="Vector_6" d="M104.78 24.6958C103.837 24.7143 102.912 24.5299 102.042 24.1613C101.284 23.8295 100.618 23.3318 100.081 22.7051C99.5448 22.0599 99.1563 21.3041 98.9158 20.4931C98.4163 18.6866 98.4163 16.788 98.9158 15C99.1378 14.1889 99.5448 13.4516 100.081 12.788C100.618 12.1613 101.284 11.6451 102.042 11.3133C103.8 10.5944 105.761 10.5944 107.499 11.3133C108.258 11.6636 108.924 12.1613 109.46 12.788C109.997 13.4332 110.385 14.1889 110.626 15C111.125 16.8064 111.125 18.7051 110.626 20.4931C110.404 21.3041 109.997 22.0415 109.46 22.7051C108.924 23.3318 108.258 23.8295 107.499 24.1613C106.648 24.5299 105.724 24.7143 104.78 24.6958ZM104.78 22.6498C105.983 22.6498 106.87 22.2074 107.444 21.341C108.017 20.4746 108.295 19.2765 108.295 17.7465C108.295 16.2166 108.017 15.0184 107.444 14.1521C106.87 13.2857 105.983 12.8617 104.78 12.8617C103.578 12.8617 102.708 13.2857 102.153 14.1521C101.598 15.0184 101.321 16.1981 101.302 17.7465C101.302 19.2765 101.58 20.4931 102.153 21.341C102.727 22.2074 103.596 22.6313 104.78 22.6498Z" fill="black"/>
<path id="Vector_7" d="M18.2772 26.4472C18.3697 26.7421 18.4437 26.9264 18.4622 27.0001C18.0183 20.7329 21.6626 18.2444 22.9391 14.1338C22.9576 14.06 22.9576 14.0047 22.976 13.931C22.9945 13.8388 23.0315 13.7467 23.05 13.6545C23.2535 12.5117 22.8281 11.166 21.9771 9.72824V9.70981C21.9031 9.59921 21.8291 9.47017 21.7551 9.35957C21.6071 9.13838 21.4591 8.91718 21.3111 8.71441L21.2556 8.64068L21.1261 8.45635L20.9966 8.27202L20.8486 8.08768L20.7006 7.90335L20.5896 7.77432C19.1097 6.00474 17.4448 4.41948 15.6134 3.01855C15.7983 5.21211 15.7428 7.42409 15.4469 9.59921C15.0029 12.1246 14.1704 14.5577 12.9865 16.825C10.4336 16.5485 7.93617 15.8849 5.58677 14.8711C3.60735 13.8941 1.73893 12.7144 0 11.3504C0 11.5531 0.0369983 11.7375 0.0554976 11.9402C0.0554976 11.9955 0.0554976 12.0508 0.0739969 12.1061C0.0739969 12.2536 0.0924959 12.3826 0.110995 12.5301C0.110995 12.6038 0.110995 12.6591 0.129494 12.7144C0.129494 12.8619 0.166493 12.9909 0.184992 13.1384C0.184992 13.1937 0.184992 13.249 0.203491 13.3043C0.221991 13.4886 0.24049 13.6545 0.277489 13.8388C0.277489 13.8573 0.277489 13.8757 0.277489 13.8941C0.314487 14.0969 0.332986 14.2997 0.369985 14.5024V14.5393C0.406983 14.7236 0.425482 14.908 0.462481 15.0739L0.48098 15.1845C0.517978 15.3504 0.536478 15.5163 0.573476 15.6637C0.573476 15.7006 0.573476 15.719 0.591975 15.7559C0.628974 15.9402 0.665972 16.1246 0.72147 16.3089C0.850965 16.8988 1.01746 17.4702 1.18395 18.0232V18.0416C1.44294 18.908 1.77593 19.7375 2.16441 20.5485L2.3309 20.8803C2.3864 20.9725 2.4234 21.0647 2.4789 21.1568C2.53439 21.249 2.58989 21.3412 2.64539 21.4333L2.66389 21.4702C2.73789 21.5808 2.83038 21.7098 2.90438 21.802L2.94138 21.8573V21.8757C3.03387 22.0048 3.12637 22.1154 3.21887 22.226C3.29286 22.2997 3.34836 22.3734 3.42236 22.4471L3.51485 22.5393L3.64435 22.6683L3.73685 22.7605L3.86634 22.8711L3.97734 22.9448L4.10683 23.037L4.21783 23.1107L4.36582 23.2029L4.45832 23.2582L4.68031 23.3135L4.7543 23.3504C4.8468 23.3872 4.9208 23.4241 5.01329 23.4425L5.16129 23.4978C9.30511 24.7329 13.4304 23.1292 18.4252 26.9449" fill="url(#paint0_linear_3791_3244)"/>
<path id="Vector_8" d="M15.4472 9.58065C15.0033 12.106 14.1708 14.5392 12.9868 16.8065C17.6672 17.341 22.1995 16.6406 22.9764 13.9309C23.8274 10.9631 19.9611 6.41014 15.5952 3C15.7987 5.19355 15.7432 7.40554 15.4472 9.58065Z" fill="url(#paint1_linear_3791_3244)"/>
<path id="Vector_9" d="M5.60532 14.8342C3.62591 13.8573 1.75748 12.6775 0.0185547 11.3135C0.425538 16.825 2.09047 22.5577 5.05035 23.4978C7.75124 24.3642 10.8591 20.9909 13.005 16.8066C10.4521 16.5301 7.95473 15.8665 5.60532 14.8342Z" fill="url(#paint2_linear_3791_3244)"/>
<path id="Vector_10" d="M9.32367 20.0508C5.17984 18.4656 1.83148 15.3319 0.0185547 11.3135C0.277544 14.6868 0.999014 18.1522 2.20146 20.5301C2.25696 20.6222 2.31246 20.7328 2.36796 20.825V20.8434C2.42346 20.9356 2.47895 21.0278 2.53445 21.1199L2.55295 21.1568C2.60845 21.249 2.66395 21.3411 2.71944 21.4149L2.73794 21.4517L2.90444 21.6914L3.01543 21.8388L3.03393 21.8757L3.10793 21.9679C3.16342 22.0416 3.23742 22.1338 3.29292 22.2075C3.7369 22.7789 4.34738 23.2029 5.03185 23.4425L5.17984 23.4978C9.32367 24.7328 13.449 23.1292 18.4438 26.9448C18.0738 26.484 14.5405 21.9863 9.32367 20.0508Z" fill="url(#paint3_linear_3791_3244)"/>
<path id="Vector_11" d="M22.9946 13.9309C23.8456 10.9631 19.9792 6.41014 15.6134 3C17.9443 6.76037 18.7028 11.2765 17.7223 15.5714C16.4089 21.0645 18.3143 26.5761 18.4623 26.9816C18.0183 20.7143 21.6627 18.2258 22.9391 14.1152C22.9576 14.0599 22.9761 13.9862 22.9946 13.9309Z" fill="url(#paint4_linear_3791_3244)"/>
</g>
<defs>
<linearGradient id="paint0_linear_3791_3244" x1="2.57445" y1="22.6593" x2="22.5353" y2="12.0067" gradientUnits="userSpaceOnUse">
<stop offset="0.04" stop-color="#5F2385"/>
<stop offset="0.97" stop-color="#9452BA"/>
</linearGradient>
<linearGradient id="paint1_linear_3791_3244" x1="23.2842" y1="24.1132" x2="13.1717" y2="5.02828" gradientUnits="userSpaceOnUse">
<stop offset="0.04" stop-color="#5F2385"/>
<stop offset="1" stop-color="white"/>
</linearGradient>
<linearGradient id="paint2_linear_3791_3244" x1="13.319" y1="29.3934" x2="3.20649" y2="10.3085" gradientUnits="userSpaceOnUse">
<stop offset="0.04" stop-color="#5F2385"/>
<stop offset="1" stop-color="white"/>
</linearGradient>
<linearGradient id="paint3_linear_3791_3244" x1="4.83963" y1="13.517" x2="12.8071" y2="28.5536" gradientUnits="userSpaceOnUse">
<stop offset="0.23" stop-color="#4F1374"/>
<stop offset="0.84" stop-color="#5F2385"/>
</linearGradient>
<linearGradient id="paint4_linear_3791_3244" x1="14.8224" y1="8.22728" x2="22.7899" y2="23.2639" gradientUnits="userSpaceOnUse">
<stop offset="0.23" stop-color="#4F1374"/>
<stop offset="0.84" stop-color="#5F2385"/>
</linearGradient>
</defs>
</svg>
