<svg width="47" height="30" viewBox="0 0 47 30" fill="none" xmlns="http://www.w3.org/2000/svg">
<g id="logo_aws">
<path id="Vector" d="M13.3579 11.2153C13.3579 11.7846 13.4197 12.2461 13.528 12.5846C13.6516 12.923 13.8062 13.2923 14.0227 13.6923C14.1 13.8153 14.1309 13.9384 14.1309 14.0461C14.1309 14.2 14.0382 14.3538 13.8372 14.5077L12.8632 15.1538C12.724 15.2461 12.5849 15.2923 12.4612 15.2923C12.3066 15.2923 12.152 15.2153 11.9974 15.0769C11.7809 14.8461 11.5954 14.6 11.4408 14.3538C11.2862 14.0923 11.1316 13.8 10.9615 13.4461C9.75559 14.8615 8.24046 15.5692 6.41612 15.5692C5.11743 15.5692 4.08158 15.2 3.32401 14.4615C2.56644 13.723 2.17993 12.7384 2.17993 11.5077C2.17993 10.2 2.64375 9.13842 3.58684 8.33842C4.52993 7.53842 5.78223 7.13842 7.37467 7.13842C7.90033 7.13842 8.44144 7.18457 9.01348 7.2615C9.58552 7.33842 10.173 7.4615 10.7914 7.59996V6.47688C10.7914 5.30765 10.5441 4.49227 10.0648 4.01534C9.57006 3.53842 8.73519 3.30765 7.54473 3.30765C7.00361 3.30765 6.44704 3.36919 5.875 3.50765C5.30296 3.64611 4.74638 3.81534 4.20526 4.03073C3.95789 4.13842 3.77237 4.19996 3.66414 4.23073C3.55592 4.2615 3.47862 4.27688 3.41677 4.27688C3.20033 4.27688 3.0921 4.12304 3.0921 3.79996V3.04611C3.0921 2.79996 3.12302 2.61534 3.20033 2.50765C3.27763 2.39996 3.41677 2.29227 3.63322 2.18457C4.17434 1.90765 4.82368 1.67688 5.58125 1.49227C6.33881 1.29227 7.14276 1.19996 7.99309 1.19996C9.83289 1.19996 11.178 1.61534 12.0437 2.44611C12.8941 3.27688 13.327 4.53842 13.327 6.23073V11.2153H13.3579ZM7.08092 13.5538C7.59112 13.5538 8.11677 13.4615 8.67335 13.2769C9.22993 13.0923 9.72467 12.7538 10.1421 12.2923C10.3895 12 10.575 11.6769 10.6678 11.3077C10.7605 10.9384 10.8224 10.4923 10.8224 9.96919V9.32304C10.374 9.21534 9.89473 9.12304 9.4 9.0615C8.90526 8.99996 8.42598 8.96919 7.94671 8.96919C6.91085 8.96919 6.15329 9.16919 5.64309 9.58457C5.13289 9.99996 4.88552 10.5846 4.88552 11.3538C4.88552 12.0769 5.07105 12.6153 5.45756 12.9846C5.82862 13.3692 6.36973 13.5538 7.08092 13.5538ZM19.4957 15.2153C19.2174 15.2153 19.0319 15.1692 18.9082 15.0615C18.7845 14.9692 18.6763 14.7538 18.5835 14.4615L14.9503 2.56919C14.8576 2.2615 14.8112 2.0615 14.8112 1.9538C14.8112 1.70765 14.9349 1.56919 15.1822 1.56919H16.6974C16.9911 1.56919 17.1921 1.61534 17.3003 1.72304C17.424 1.81534 17.5168 2.03073 17.6095 2.32304L20.2069 12.5077L22.6187 2.32304C22.696 2.01534 22.7888 1.81534 22.9125 1.72304C23.0362 1.63073 23.2526 1.56919 23.5309 1.56919H24.7678C25.0615 1.56919 25.2625 1.61534 25.3862 1.72304C25.5099 1.81534 25.6181 2.03073 25.6799 2.32304L28.1227 12.6307L30.7974 2.32304C30.8901 2.01534 30.9984 1.81534 31.1066 1.72304C31.2303 1.63073 31.4312 1.56919 31.7095 1.56919H33.1474C33.3947 1.56919 33.5339 1.69227 33.5339 1.9538C33.5339 2.03073 33.5184 2.10765 33.503 2.19996C33.4875 2.29227 33.4566 2.41534 33.3947 2.58457L29.6687 14.4769C29.576 14.7846 29.4678 14.9846 29.3441 15.0769C29.2204 15.1692 29.0194 15.2307 28.7566 15.2307H27.427C27.1332 15.2307 26.9322 15.1846 26.8085 15.0769C26.6849 14.9692 26.5766 14.7692 26.5148 14.4615L24.1184 4.53842L21.7375 14.4461C21.6602 14.7538 21.5674 14.9538 21.4437 15.0615C21.3201 15.1692 21.1036 15.2153 20.8253 15.2153H19.4957ZM39.3625 15.6307C38.5585 15.6307 37.7546 15.5384 36.9816 15.3538C36.2085 15.1692 35.6056 14.9692 35.2036 14.7384C34.9562 14.6 34.7862 14.4461 34.7243 14.3077C34.6625 14.1692 34.6316 14.0153 34.6316 13.8769V13.0923C34.6316 12.7692 34.7553 12.6153 34.9872 12.6153C35.0799 12.6153 35.1727 12.6307 35.2655 12.6615C35.3582 12.6923 35.4974 12.7538 35.652 12.8153C36.1776 13.0461 36.7497 13.2307 37.3526 13.3538C37.971 13.4769 38.574 13.5384 39.1924 13.5384C40.1664 13.5384 40.924 13.3692 41.4497 13.0307C41.9753 12.6923 42.2536 12.2 42.2536 11.5692C42.2536 11.1384 42.1145 10.7846 41.8362 10.4923C41.5579 10.2 41.0322 9.93842 40.2747 9.69227L38.0329 8.99996C36.9043 8.64611 36.0694 8.12304 35.5592 7.43073C35.049 6.75381 34.7862 5.99996 34.7862 5.19996C34.7862 4.5538 34.9253 3.98457 35.2036 3.49227C35.4819 2.99996 35.853 2.56919 36.3168 2.23073C36.7806 1.87688 37.3062 1.61534 37.9247 1.43073C38.5431 1.24611 39.1924 1.16919 39.8727 1.16919C40.2128 1.16919 40.5684 1.18457 40.9085 1.23073C41.2641 1.27688 41.5888 1.33842 41.9135 1.39996C42.2227 1.47688 42.5164 1.5538 42.7947 1.64611C43.073 1.73842 43.2895 1.83073 43.4441 1.92304C43.6605 2.04611 43.8151 2.16919 43.9079 2.30765C44.0007 2.43073 44.047 2.59996 44.047 2.81534V3.53842C44.047 3.8615 43.9234 4.03073 43.6914 4.03073C43.5678 4.03073 43.3668 3.96919 43.1039 3.84611C42.2227 3.44611 41.2332 3.24611 40.1355 3.24611C39.2543 3.24611 38.5585 3.38457 38.0793 3.67688C37.6 3.96919 37.3526 4.41534 37.3526 5.04611C37.3526 5.47688 37.5072 5.84611 37.8164 6.13842C38.1257 6.43073 38.6977 6.72304 39.5171 6.98457L41.7125 7.67688C42.8256 8.03073 43.6296 8.52304 44.1089 9.15381C44.5882 9.78457 44.8201 10.5077 44.8201 11.3077C44.8201 11.9692 44.6809 12.5692 44.4181 13.0923C44.1398 13.6153 43.7687 14.0769 43.2895 14.4461C42.8102 14.8307 42.2382 15.1077 41.5733 15.3077C40.8776 15.523 40.151 15.6307 39.3625 15.6307Z" fill="#252F3E"/>
<path id="Vector_2" fill-rule="evenodd" clip-rule="evenodd" d="M42.2845 23.1076C37.198 26.8461 29.8079 28.8307 23.4536 28.8307C14.5484 28.8307 6.52434 25.5538 0.463818 20.1076C-0.0154583 19.6768 0.417436 19.0922 0.989476 19.4307C7.54474 23.2153 15.6306 25.5076 23.9947 25.5076C29.6378 25.5076 35.8375 24.3384 41.5424 21.9384C42.3928 21.5538 43.1194 22.4922 42.2845 23.1076Z" fill="#FF9900"/>
<path id="Vector_3" fill-rule="evenodd" clip-rule="evenodd" d="M44.4026 20.7078C43.7533 19.877 40.1046 20.3078 38.4503 20.5078C37.9556 20.5693 37.8783 20.1386 38.3266 19.8155C41.2332 17.7847 46.0105 18.3693 46.5671 19.0463C47.1237 19.7386 46.4125 24.4924 43.6914 26.7693C43.274 27.1232 42.872 26.9386 43.0576 26.477C43.676 24.954 45.052 21.5232 44.4026 20.7078Z" fill="#FF9900"/>
</g>
</svg>
