<svg width="108" height="28" viewBox="0 0 108 28" fill="none" xmlns="http://www.w3.org/2000/svg">
<path id="logo_capital" fill-rule="evenodd" clip-rule="evenodd" d="M42.0406 12.5218V19.1575L42.0425 19.1594C42.0425 20.3737 42.1113 21.7448 42.8827 22.7718H35.8142C35.6385 22.3357 35.5354 21.6817 35.5678 21.2457H35.501C34.027 22.7412 31.8942 23.1791 29.6545 23.1791C26.1546 23.1791 23.2505 21.6817 23.2505 18.2874C23.2505 17.9585 23.2791 17.6525 23.3326 17.3657C21.8433 20.607 18.1658 23.2995 12.6687 23.2995C4.58632 23.2995 0 18.2224 0 11.6498C0 4.64117 4.9701 0 12.6687 0C19.5291 0.0305969 23.3097 3.23945 23.9703 8.81382H16.4855C16.3423 8.00683 15.6435 5.54378 12.4568 5.54378C8.85377 5.54378 7.6986 8.65893 7.6986 11.6498C7.6986 14.6406 8.85186 17.7558 12.4568 17.7558C15.0459 17.7558 16.0636 16.136 16.518 14.0478H24.0753C24.0753 14.7343 23.9779 15.4247 23.7908 16.1054C25.1383 13.7716 28.7457 13.3528 31.6261 13.0185L31.6262 13.0185L31.6263 13.0185C32.3049 12.9397 32.9431 12.8656 33.5019 12.7723C34.4509 12.6174 35.3922 12.3669 35.3922 11.34C35.3922 10.25 34.237 9.84456 33.1181 9.84456C30.9815 9.84456 30.5615 10.8103 30.529 11.4949H24.0906C24.2968 6.9455 29.1275 6.1997 33.4351 6.1997C42.0417 6.1997 42.0412 9.35681 42.0406 12.4489L42.0406 12.5218ZM32.4899 19.5342C34.0671 19.5342 35.2891 18.6928 35.3941 17.01V15.5145C34.5559 15.8894 33.6088 16.1074 32.6656 16.2929C31.1266 16.6065 30.3209 16.9469 30.3209 18.0388C30.3209 18.7846 31.2278 19.5342 32.4899 19.5342ZM49.7831 6.6032V8.37782H49.8481C50.6901 7.349 51.6982 6.19779 54.9595 6.19779C59.899 6.19779 62.2857 10.7147 62.2857 14.763C62.2857 18.5628 60.7067 23.1733 54.8563 23.1733C52.8744 23.1733 51.0911 22.3625 50.0848 20.9914H50.0161V28H43.3619V6.6032H49.7812H49.7831ZM55.6277 14.7018C55.6277 12.7704 55.0931 10.6821 52.7045 10.6821C50.3159 10.6821 49.7812 12.7704 49.7812 14.7018C49.7812 16.6332 50.3178 18.689 52.7045 18.689C55.0912 18.689 55.6277 16.6026 55.6277 14.7018ZM100.162 12.5218V19.1575C100.162 20.3718 100.233 21.7429 101 22.7698H93.9355C93.7599 22.3338 93.6549 21.6798 93.6892 21.2438H93.6186C92.1484 22.7392 90.0156 23.1772 87.7778 23.1772C84.9347 23.1772 82.4927 22.1923 81.6697 20.0085V22.7698C81.0225 22.7698 80.3347 22.8156 79.6389 22.8619L79.6388 22.8619C78.9264 22.9093 78.2056 22.9572 77.5111 22.9572C74.7597 22.9572 71.72 22.5538 71.72 18.1287V10.403H69.3829V22.7698H62.8738V6.6032H71.7181V1.68092H78.1985V6.60511H81.6678V10.4049H78.1985V16.0423C78.1985 17.5378 78.5574 18.1918 80.19 18.1918C80.5852 18.1918 80.9785 18.1669 81.3795 18.1248C81.4981 13.9768 86.1774 13.4336 89.7443 13.0194L89.7443 13.0194C90.4249 12.9404 91.065 12.8661 91.6252 12.7723C92.5684 12.6174 93.5117 12.3669 93.5117 11.34C93.5117 10.25 92.3584 9.84456 91.2395 9.84456C89.1087 9.84456 88.6848 10.8103 88.6504 11.4949H82.212C82.4239 6.9455 87.2508 6.1997 91.5565 6.1997C100.163 6.1997 100.163 9.35547 100.162 12.4469V12.5218ZM90.6075 19.5323C92.1827 19.5323 93.4086 18.6909 93.5136 17.0081V15.5126C92.6754 15.8874 91.7264 16.1055 90.7832 16.2909C89.2499 16.6027 88.4404 16.945 88.4404 18.0369C88.4404 18.7827 89.3473 19.5323 90.6075 19.5323ZM62.87 0.52971H69.3848V4.85726H62.87V0.52971ZM108 0.52971H101.485V22.7698H108V0.52971Z" fill="#003057"/>
</svg>
