<svg xmlns="http://www.w3.org/2000/svg" width="138" height="28" viewBox="0 0 138 28" fill="none">
<g id="logo_aubuchon-hardware">
<g id="Hardware">
<path id="Vector" d="M0 28.0047L3.28403 15.193H4.99968L3.58961 20.6867H14.3382L15.7483 15.1875H17.4639L14.1744 27.9955H12.4642L14.0731 21.7171H3.32637L1.71565 27.9955L0 28.0047Z" fill="#006940"/>
<path id="Vector_2" d="M16.0391 27.9891L26.4637 15.1719H28.4057L32.0874 27.9799H30.322L29.258 23.9598H20.9835L17.8063 27.9872L16.0391 27.9891ZM21.8266 22.9331H28.9414L27.1006 16.2097L21.8266 22.9331Z" fill="#006940"/>
<path id="Vector_3" d="M37.1833 22.1649L35.6922 27.9835H33.9766L37.2606 15.1719H44.3754C48.3608 15.1719 50.301 16.1653 49.6954 18.5308C49.2793 20.1503 48.2025 21.0053 45.9401 21.67C47.9521 22.1852 47.6686 23.7862 47.3722 25.1398C46.9507 27.0787 47.0409 27.6124 47.4312 27.8617L47.398 27.9854H45.5001C45.0178 27.1138 45.8094 24.7114 45.7818 23.7382C45.7339 22.3496 44.2907 22.1723 42.5751 22.1742L37.1833 22.1649ZM42.7978 21.129C45.3455 21.129 47.5048 20.3793 47.965 18.5825C48.4583 16.6602 46.4574 16.1986 44.1618 16.2004H38.7112L37.4484 21.129H42.7978Z" fill="#006940"/>
<path id="Vector_4" d="M50.2891 27.9679L53.5676 15.1562H59.7748C61.7997 15.1562 63.6627 15.243 65.1298 16.1146C67.2099 17.3408 67.2026 19.8318 66.7644 21.5399C66.2796 23.5428 65.0484 25.2833 63.3239 26.4039C61.323 27.7223 58.8876 27.9716 56.4908 27.9735L50.2891 27.9679ZM52.2679 26.9357H56.3822C57.9211 26.9357 59.276 26.8637 60.8002 26.3466C63.4454 25.4732 64.6125 23.285 65.058 21.5455C65.5385 19.6767 65.4814 17.6325 63.1804 16.6723C62.1992 16.2642 60.6547 16.194 59.1397 16.194H55.0237L52.2679 26.9357Z" fill="#006940"/>
<path id="Vector_5" d="M81.7868 26.246H81.8384L88.6494 15.1406H90.4166L82.363 27.956H80.4669L79.1563 16.6401H79.1047L71.9899 27.9597H70.0957L68.6875 15.1443H70.4032L71.469 26.2442H71.5187L78.5782 15.1443H80.4964L81.7868 26.246Z" fill="#006940"/>
<path id="Vector_6" d="M85.2109 27.9486L95.6355 15.1406H97.5776L101.259 27.9486H99.4939L98.4299 23.9286H90.1462L86.9708 27.9504L85.2109 27.9486ZM90.9966 22.8963H98.1188L96.278 16.1636L90.9966 22.8963Z" fill="#006940"/>
<path id="Vector_7" d="M106.341 22.1162L104.848 27.9348H103.133L106.419 15.125H113.532C117.519 15.125 119.459 16.1166 118.852 18.484C118.436 20.1034 117.361 20.9584 115.096 21.6232C117.11 22.1384 116.825 23.7394 116.529 25.0911C116.107 27.03 116.197 27.5655 116.587 27.813L116.556 27.9385H114.664C114.181 27.0669 114.973 24.6645 114.947 23.6914C114.898 22.3027 113.456 22.1254 111.741 22.1273L106.341 22.1162ZM111.954 21.0821C114.502 21.0821 116.661 20.3324 117.123 18.5338C117.615 16.6134 115.614 16.1517 113.318 16.1536H107.873L106.612 21.0821H111.954Z" fill="#006940"/>
<path id="Vector_8" d="M119.102 27.8976L122.325 15.0859H134.189L133.929 16.1182H123.75L122.584 20.7347H131.774L131.514 21.7669H122.325L121.045 26.8561H131.472L131.218 27.8847L119.102 27.8976Z" fill="#006940"/>
</g>
<g id="Aubuchon">
<path id="Vector_9" d="M0.046814 13.1364L9.11472 0.265625H14.385L16.9125 13.0995H11.6679L11.436 11.36H6.36268L5.11829 13.1401L0.046814 13.1364ZM10.6997 4.3466L7.91634 8.80059L11.2151 8.78027L10.6997 4.3466Z" fill="#F58220"/>
<path id="Vector_10" d="M19.7432 0.296875H25.019L23.0254 7.79405C22.6978 9.01649 22.7309 10.0672 24.9178 10.0524C26.8341 10.0414 27.6459 9.10698 28.0085 7.76266L30.0077 0.304261H35.3277L33.4463 7.32132C32.3768 11.3007 29.4978 13.0568 24.1097 13.0901C19.0842 13.1215 16.6819 11.6756 17.8288 7.40257L19.7432 0.296875Z" fill="#F58220"/>
<path id="Vector_11" d="M33.7343 13.032L37.0993 0.253613L44.9357 0.203755C48.6174 0.179749 51.3786 0.83529 50.7178 3.37436C50.3717 4.68729 49.026 5.65305 47.8424 6.17379C49.5249 6.51726 50.1692 7.70093 49.8047 9.08403C49.0518 11.9426 45.9887 12.9619 41.729 12.9803L33.7343 13.032ZM40.5159 7.65476L39.8956 10.0166L42.2408 9.99994C43.5625 9.99994 44.621 9.77281 44.8731 8.81442C45.1677 7.70647 43.9343 7.63445 42.2242 7.64368L40.5159 7.65476ZM41.6904 3.20078L41.1289 5.3299L43.3618 5.31698C44.4313 5.31698 45.3039 4.93104 45.5009 4.18686C45.7623 3.19339 44.7185 3.18231 43.5809 3.1897L41.6904 3.20078Z" fill="#F58220"/>
<path id="Vector_12" d="M79.513 5.04529C79.6971 3.75267 78.854 3.01403 77.2157 3.0325C75.3748 3.04358 73.95 4.27341 73.3186 6.66844C72.8584 8.40794 72.9155 10.0422 75.5718 10.0237C77.2543 10.0126 78.2907 9.10041 78.8043 7.90566L83.8298 7.87427C82.5191 11.08 79.0657 13.03 74.8594 13.0558C69.591 13.0891 67.0672 10.5943 68.1294 6.56319C69.1915 2.53207 73.3444 0.0299363 77.7937 0.000390813C82.6645 -0.0310013 84.8919 1.83037 84.4722 5.0139L79.513 5.04529Z" fill="#F58220"/>
<path id="Vector_13" d="M83.7578 13.112L87.1798 0.292898L92.4096 0.257812L91.2628 4.55299H96.1575L97.3044 0.294744H102.529L99.0532 13.112H93.8989L95.2942 7.97288H90.3571L89.0059 13.112H83.7578Z" fill="#F58220"/>
<path id="Vector_14" d="M118.975 6.60328C117.871 10.8246 113.584 13.2252 108.868 13.251C103.864 13.2953 101.158 10.8948 102.272 6.6753C103.297 2.78268 107.353 0.22884 112.312 0.195602C117.998 0.160516 119.839 3.32373 118.975 6.60328ZM107.487 6.67715C107.069 8.26153 107.167 10.2392 109.668 10.2226C111.923 10.2078 113.212 8.67886 113.751 6.63652C114.197 4.94874 113.784 3.16308 111.469 3.22956C109.099 3.24433 107.899 5.10939 107.487 6.67715Z" fill="#F58220"/>
<path id="Vector_15" d="M130.788 7.12459L132.375 0.31804H137.378L134.094 13.03H129.284L125.306 6.04064L123.704 13.03H118.633L121.992 0.3125H126.799L130.788 7.12459Z" fill="#F58220"/>
<path id="Vector_16" d="M53.067 0.304688H58.3428L56.351 7.80186C56.0215 9.02431 56.0547 10.0732 58.2416 10.0602C60.1579 10.0473 60.9715 9.11479 61.3323 7.77047L63.3259 0.312074H68.6459L66.7627 7.32913C65.6951 11.3085 62.8142 13.0647 57.4279 13.0979C52.4006 13.1293 49.9983 11.6834 51.1452 7.41038L53.067 0.304688Z" fill="#F58220"/>
</g>
</g>
</svg>