<svg xmlns="http://www.w3.org/2000/svg" width="116" height="32" viewBox="0 0 116 32" fill="none">
<g clip-path="url(#clip0_6089_50196)">
<path d="M103.575 21.1895H108.862V30.7113H103.575V21.1895Z" fill="#FF5F00"/>
<path d="M103.915 25.9461C103.915 25.0299 104.122 24.1256 104.522 23.3015C104.922 22.4774 105.503 21.7552 106.222 21.1894C105.331 20.4864 104.261 20.049 103.133 19.927C102.005 19.8051 100.866 20.0036 99.8461 20.4999C98.8257 20.9961 97.9654 21.7701 97.3635 22.7332C96.7616 23.6963 96.4424 24.8098 96.4424 25.9461C96.4424 27.0825 96.7616 28.1959 97.3635 29.1591C97.9654 30.1222 98.8257 30.8962 99.8461 31.3924C100.866 31.8887 102.005 32.0872 103.133 31.9652C104.261 31.8433 105.331 31.4059 106.222 30.7029C105.503 30.1371 104.922 29.4149 104.522 28.5908C104.122 27.7667 103.915 26.8624 103.915 25.9461Z" fill="#EB001B"/>
<path d="M116 25.9462C116 27.0824 115.681 28.1957 115.08 29.1587C114.478 30.1217 113.618 30.8957 112.598 31.3919C111.578 31.8882 110.439 32.0868 109.311 31.9649C108.184 31.8431 107.114 31.4058 106.223 30.703C106.942 30.1369 107.523 29.4146 107.922 28.5906C108.322 27.7666 108.53 26.8624 108.53 25.9462C108.53 25.0301 108.322 24.1259 107.922 23.3019C107.523 22.4779 106.942 21.7556 106.223 21.1895C107.114 20.4867 108.184 20.0493 109.311 19.9275C110.439 19.8056 111.578 20.0042 112.598 20.5005C113.618 20.9968 114.478 21.7707 115.08 22.7337C115.681 23.6968 116 24.8101 116 25.9462Z" fill="#F79E1B"/>
<path d="M115.419 29.6967V29.5054H115.494V29.4639H115.294V29.5054H115.369V29.6967H115.419ZM115.81 29.6967V29.4639H115.751L115.685 29.6219L115.61 29.4639H115.552V29.6967H115.593V29.5221L115.66 29.6718H115.701L115.768 29.5221V29.6967H115.81Z" fill="#F79E1B"/>
<path d="M87.4901 24.2496C87.7242 24.2491 87.956 24.2972 88.1706 24.391C88.3807 24.4781 88.5702 24.6084 88.7267 24.7736C88.8868 24.9422 89.0136 25.1397 89.1002 25.3557C89.2773 25.8331 89.2773 26.3585 89.1002 26.8359C89.0136 27.0519 88.8868 27.2494 88.7267 27.418C88.5702 27.5832 88.3807 27.7135 88.1706 27.8006C87.9552 27.8909 87.7236 27.9362 87.4901 27.9336C87.2662 27.9379 87.0444 27.8895 86.8427 27.7923C86.6691 27.7034 86.5164 27.5787 86.3945 27.4264V27.8422H85.6309V22.5781H86.3945V24.7569C86.5182 24.6064 86.6706 24.4821 86.8427 24.391C87.0444 24.2938 87.2662 24.2454 87.4901 24.2496ZM87.3988 24.9731C87.2506 24.9701 87.1036 24.9985 86.9672 25.0563C86.8412 25.1093 86.728 25.1887 86.6352 25.2891C86.5396 25.3923 86.4661 25.514 86.4194 25.6467C86.3684 25.7909 86.3431 25.9429 86.3447 26.0958C86.3438 26.2487 86.3691 26.4005 86.4194 26.5449C86.4661 26.6776 86.5396 26.7993 86.6352 26.9024C86.728 27.0029 86.8412 27.0823 86.9672 27.1353C87.1036 27.1931 87.2506 27.2215 87.3988 27.2185C87.5502 27.2196 87.7001 27.1884 87.8386 27.127C87.9651 27.071 88.0782 26.9888 88.1706 26.8858C88.2636 26.7822 88.3343 26.6605 88.3781 26.5282C88.4277 26.3895 88.453 26.2432 88.4528 26.0958C88.4536 25.9484 88.4284 25.802 88.3781 25.6634C88.3323 25.532 88.2619 25.4106 88.1706 25.3058C88.0782 25.2028 87.9651 25.1206 87.8386 25.0646C87.7014 24.9993 87.5506 24.968 87.3988 24.9731Z" fill="black"/>
<path d="M90.6278 29.3226H89.7812L91.0345 27.1189L89.4824 24.3413H90.3373L91.4578 26.3538L92.5368 24.3413H93.3751L90.6278 29.3226Z" fill="black"/>
<path d="M4.48198 4.63202C5.22316 4.61376 5.95605 4.7916 6.60676 5.14761C7.18697 5.47752 7.67945 5.94244 8.04265 6.50312V0H9.12164V13.7713H8.04265V12.0416C7.68213 12.6067 7.18919 13.0749 6.60676 13.4054C5.95605 13.7614 5.22316 13.9393 4.48198 13.921C3.87516 13.9257 3.27371 13.8069 2.71409 13.5717C2.18166 13.348 1.69914 13.02 1.2948 12.6071C0.887743 12.182 0.56646 11.6822 0.348605 11.1351C-0.116202 9.94268 -0.116202 8.61865 0.348605 7.4262C0.568483 6.88013 0.889531 6.38069 1.2948 5.95426C1.69654 5.53614 2.17959 5.205 2.71409 4.98129C3.27371 4.74615 3.87516 4.62733 4.48198 4.63202ZM4.59818 5.65489C4.1105 5.64808 3.62687 5.74443 3.17889 5.93763C2.76133 6.11586 2.38539 6.37924 2.07499 6.71102C1.76281 7.04341 1.51762 7.43308 1.3529 7.85863C1.00981 8.77549 1.00981 9.78584 1.3529 10.7027C1.51762 11.1282 1.76281 11.5179 2.07499 11.8503C2.39039 12.1779 2.76872 12.4382 3.18719 12.6154C3.63407 12.8018 4.11414 12.8952 4.59818 12.8898C5.07954 12.8953 5.55692 12.8019 6.00087 12.6154C6.41886 12.4397 6.79652 12.1801 7.11056 11.8525C7.4246 11.525 7.66837 11.1365 7.82685 10.711C7.99886 10.2539 8.08606 9.76917 8.08415 9.28067C8.09012 8.78911 8.0028 8.30089 7.82685 7.842C7.66215 7.41644 7.41696 7.02677 7.10476 6.69439C6.79051 6.3713 6.41527 6.11405 6.00087 5.93763C5.55774 5.74754 5.08019 5.65128 4.59818 5.65489Z" fill="black"/>
<path d="M12.4827 17.63H11.2792L14.7154 11.7672L10.499 4.77344H11.7191L15.3379 10.6944L18.7243 4.77344H19.9195L12.4827 17.63Z" fill="black"/>
<path d="M25.7217 4.63212C26.2441 4.62632 26.7635 4.71071 27.2572 4.8816C27.702 5.03576 28.1093 5.2823 28.4524 5.60509C28.7887 5.92463 29.052 6.31328 29.2243 6.74438C29.4127 7.2234 29.5058 7.73475 29.4982 8.24958V13.7714H28.4192V8.59054C28.4239 8.17525 28.3594 7.76209 28.2283 7.36808C28.1139 7.02083 27.9207 6.70488 27.6639 6.44501C27.4081 6.18746 27.0994 5.98881 26.7592 5.86289C26.3676 5.72406 25.9545 5.65647 25.5391 5.6633C25.1363 5.66126 24.7366 5.73459 24.3605 5.87952C24.004 6.01759 23.6792 6.22697 23.4061 6.4949C23.1321 6.76512 22.9149 7.08744 22.767 7.44293C22.6081 7.82473 22.529 8.23512 22.5346 8.64875V13.7714H21.4473V4.77349H22.5263V6.35353C22.6947 6.06651 22.9045 5.80592 23.1488 5.58014C23.3837 5.3683 23.6461 5.18927 23.9289 5.04792C24.2081 4.90852 24.5037 4.80514 24.8087 4.74022C25.1075 4.66693 25.4141 4.63062 25.7217 4.63212Z" fill="black"/>
<path d="M40.5201 13.7714H39.4411V12.0417C39.0806 12.6068 38.5876 13.075 38.0052 13.4055C37.3545 13.7615 36.6216 13.9394 35.8804 13.9211C35.2736 13.9258 34.6721 13.807 34.1125 13.5718C33.5801 13.3481 33.0976 13.0201 32.6932 12.6072C32.2862 12.1822 31.9649 11.6824 31.747 11.1353C31.2822 9.9428 31.2822 8.61877 31.747 7.42632C31.9669 6.88025 32.288 6.38081 32.6932 5.95438C33.095 5.53626 33.578 5.20512 34.1125 4.98141C34.6721 4.74627 35.2736 4.62745 35.8804 4.63214C36.6216 4.61388 37.3545 4.79172 38.0052 5.14773C38.5854 5.47764 39.0779 5.94256 39.4411 6.50324V4.77351H40.5201V13.7714ZM36.0049 5.65501C35.5172 5.6482 35.0336 5.74455 34.5856 5.93775C34.1681 6.11598 33.7921 6.37936 33.4817 6.71114C33.1695 7.04353 32.9244 7.4332 32.7596 7.85875C32.4166 8.77561 32.4166 9.78596 32.7596 10.7028C32.9244 11.1284 33.1695 11.518 33.4817 11.8504C33.7971 12.1781 34.1755 12.4383 34.5939 12.6155C35.0408 12.8019 35.5209 12.8953 36.0049 12.8899C36.4863 12.8954 36.9637 12.802 37.4076 12.6155C37.8256 12.4398 38.2033 12.1802 38.5173 11.8527C38.8313 11.5251 39.0751 11.1366 39.2336 10.7111C39.4056 10.254 39.4928 9.76929 39.4909 9.28078C39.4969 8.78923 39.4096 8.30101 39.2336 7.84212C39.0689 7.41657 38.8237 7.0269 38.5115 6.69451C38.1973 6.37142 37.822 6.11417 37.4076 5.93775C36.9642 5.74848 36.4868 5.65226 36.0049 5.65501Z" fill="black"/>
<path d="M54.4808 4.63205C55.0058 4.62696 55.5278 4.71132 56.0246 4.88153C56.4694 5.0357 56.8767 5.28224 57.2198 5.60503C57.5561 5.92456 57.8194 6.31322 57.9917 6.74432C58.1801 7.22334 58.2732 7.73469 58.2656 8.24952V13.7713H57.1783V8.59047C57.1845 8.1744 57.117 7.76052 56.9791 7.36802C56.8614 7.02227 56.6687 6.707 56.4147 6.44494C56.1589 6.18739 55.8502 5.98875 55.51 5.86282C55.1155 5.72395 54.6996 5.65637 54.2816 5.66324C53.8787 5.6612 53.479 5.73453 53.103 5.87946C52.7464 6.01753 52.4217 6.22691 52.1485 6.49484C51.8746 6.76506 51.6573 7.08737 51.5094 7.44286C51.3505 7.82467 51.2714 8.23506 51.277 8.64869V13.7713H50.1897V8.59047C50.1944 8.17519 50.1299 7.76203 49.9988 7.36802C49.8844 7.02077 49.6912 6.70482 49.4344 6.44494C49.1786 6.18739 48.8699 5.98875 48.5297 5.86282C48.1382 5.724 47.725 5.6564 47.3096 5.66324C46.9068 5.6612 46.5071 5.73453 46.1311 5.87946C45.7745 6.01753 45.4497 6.22691 45.1766 6.49484C44.9027 6.76506 44.6854 7.08737 44.5375 7.44286C44.3786 7.82467 44.2995 8.23506 44.3051 8.64869V13.7713H43.2178V4.77343H44.2968V6.35347C44.4652 6.06645 44.675 5.80586 44.9193 5.58008C45.1542 5.36824 45.4166 5.18921 45.6995 5.04785C45.9786 4.90846 46.2742 4.80507 46.5792 4.74016C46.8847 4.67367 47.1963 4.64021 47.5088 4.64037C47.906 4.63874 48.3019 4.68623 48.6874 4.78174C49.037 4.86959 49.3724 5.00679 49.6834 5.18923C50.2783 5.54266 50.7395 6.08369 50.9948 6.72769C51.1469 6.37645 51.3605 6.05536 51.6256 5.77966C51.87 5.52141 52.1528 5.3026 52.4639 5.13101C52.7702 4.965 53.0966 4.83922 53.435 4.75679C53.7774 4.67387 54.1285 4.632 54.4808 4.63205Z" fill="black"/>
<path d="M61.6104 0.748409C61.7143 0.745126 61.8177 0.764213 61.9137 0.804381C62.0096 0.844549 62.0958 0.904864 62.1665 0.981257C62.2402 1.05535 62.2981 1.1437 62.3366 1.24091C62.3751 1.33813 62.3935 1.44219 62.3906 1.54675C62.3934 1.64978 62.3751 1.75229 62.3367 1.84794C62.2984 1.94359 62.2409 2.03035 62.1678 2.10284C62.0946 2.17533 62.0074 2.23202 61.9116 2.2694C61.8157 2.30677 61.7132 2.32404 61.6104 2.32013C61.5081 2.32254 61.4063 2.30467 61.3108 2.26757C61.2154 2.23047 61.1282 2.17485 61.0543 2.10392C60.9821 2.03088 60.9256 1.94371 60.8885 1.84785C60.8514 1.75199 60.8343 1.64949 60.8385 1.54675C60.8336 1.33719 60.9111 1.1341 61.0543 0.981257C61.1258 0.905873 61.2121 0.846236 61.3079 0.806145C61.4036 0.766055 61.5066 0.746392 61.6104 0.748409ZM62.1582 13.7713H61.0709V4.77336H62.1582V13.7713Z" fill="black"/>
<path d="M68.9307 4.6322C69.5681 4.62468 70.2005 4.74631 70.7899 4.98979C71.348 5.2187 71.8453 5.57459 72.2424 6.02929L71.5369 6.7611C71.1977 6.41881 70.798 6.14249 70.3583 5.94613C69.8995 5.74934 69.4049 5.65023 68.9058 5.65507C68.2135 5.64644 67.5352 5.85069 66.9623 6.24027C66.3895 6.62985 65.9496 7.18604 65.702 7.83386C65.3479 8.7659 65.3479 9.7958 65.702 10.7278C65.8646 11.1539 66.1133 11.5418 66.4324 11.8671C66.7492 12.185 67.124 12.4391 67.5363 12.6156C67.9691 12.8004 68.4353 12.8939 68.9058 12.89C69.4148 12.8967 69.9191 12.7917 70.3832 12.5823C70.8239 12.3833 71.2258 12.1073 71.5701 11.7673L72.2507 12.5158C71.845 12.9646 71.3465 13.3193 70.7899 13.5553C69.599 14.0321 68.2707 14.0321 67.0798 13.5553C66.5342 13.3341 66.0398 13.0029 65.6273 12.5823C65.2166 12.1602 64.8948 11.6596 64.6811 11.1104C64.2274 9.92445 64.2274 8.6123 64.6811 7.42638C64.8926 6.87605 65.2147 6.37509 65.6273 5.95454C66.0399 5.53398 66.5343 5.20279 67.0798 4.98147C67.6675 4.74308 68.2967 4.62435 68.9307 4.6322Z" fill="black"/>
<path d="M79.1565 17.63H77.953L81.3892 11.7672L77.1729 4.77344H78.3929L82.0117 10.6944L85.3981 4.77344H86.5933L79.1565 17.63Z" fill="black"/>
<path d="M88.6514 0.748409C88.7553 0.745126 88.8587 0.764213 88.9547 0.804381C89.0506 0.844549 89.1368 0.904864 89.2075 0.981257C89.2812 1.05535 89.3391 1.1437 89.3776 1.24091C89.4161 1.33813 89.4345 1.44219 89.4316 1.54675C89.4344 1.64978 89.4161 1.75229 89.3778 1.84794C89.3394 1.94359 89.2819 2.03035 89.2088 2.10284C89.1357 2.17533 89.0485 2.23202 88.9526 2.2694C88.8567 2.30677 88.7542 2.32404 88.6514 2.32013C88.5491 2.32254 88.4473 2.30467 88.3519 2.26757C88.2564 2.23047 88.1693 2.17485 88.0953 2.10392C88.0231 2.03088 87.9666 1.94371 87.9295 1.84785C87.8924 1.75199 87.8754 1.64949 87.8795 1.54675C87.8747 1.33719 87.9522 1.1341 88.0953 0.981257C88.1668 0.905873 88.2531 0.846236 88.3489 0.806145C88.4446 0.766055 88.5477 0.746392 88.6514 0.748409ZM89.1992 13.7713H88.1119V4.77336H89.1992V13.7713Z" fill="black"/>
<path d="M95.8233 4.63205C96.397 4.62852 96.9651 4.74463 97.4916 4.97301C97.9962 5.19138 98.4488 5.5145 98.8196 5.92103C99.2028 6.34544 99.5015 6.83943 99.6994 7.37634C99.9191 7.96982 100.032 8.5978 100.031 9.23081C100.033 9.30852 100.03 9.38625 100.023 9.46365C100.022 9.53598 100.016 9.60818 100.006 9.67987H92.4784C92.5096 10.1628 92.6277 10.6361 92.827 11.077C93.0088 11.4695 93.2654 11.8226 93.5823 12.1165C93.8956 12.3979 94.2588 12.6179 94.653 12.7651C95.0684 12.9135 95.5068 12.9867 95.9478 12.9813C96.53 12.9899 97.1073 12.8736 97.641 12.6404C98.1409 12.4089 98.5961 12.0908 98.9856 11.7007L99.5666 12.4491C99.3009 12.7163 99.0089 12.9559 98.6951 13.1643C98.4102 13.3478 98.107 13.5011 97.7904 13.6217C97.4868 13.734 97.1726 13.8149 96.8525 13.8628C96.5334 13.906 96.2117 13.9282 95.8897 13.9293C95.2675 13.9343 94.6503 13.8185 94.072 13.5884C93.5338 13.3739 93.0452 13.0512 92.6361 12.6404C92.229 12.2202 91.9101 11.7225 91.6982 11.1768C91.2527 9.96591 91.2556 8.63508 91.7065 7.42623C91.9163 6.87695 92.2354 6.37616 92.6444 5.9543C93.045 5.54071 93.525 5.21258 94.0554 4.98964C94.6132 4.7478 95.2155 4.62597 95.8233 4.63205ZM95.8067 5.59671C95.3776 5.58964 94.9515 5.66881 94.5534 5.82956C94.1831 5.98005 93.845 6.20024 93.5574 6.47821C93.263 6.76138 93.0238 7.09696 92.8519 7.46781C92.6653 7.86638 92.5474 8.29379 92.5033 8.73184H98.9275C98.8944 8.29032 98.7878 7.85745 98.6121 7.45118C98.449 7.08363 98.2212 6.74844 97.9398 6.46157C97.6647 6.18589 97.3374 5.96817 96.977 5.82124C96.6053 5.67031 96.2077 5.59402 95.8067 5.59671Z" fill="black"/>
<path d="M103.301 13.7713H102.214V0H103.301V13.7713Z" fill="black"/>
<path d="M109.966 4.63202C110.708 4.61376 111.44 4.7916 112.091 5.14761C112.671 5.47752 113.164 5.94244 113.527 6.50312V0H114.606V13.7713H113.527V12.0416C113.167 12.6067 112.674 13.0749 112.091 13.4054C111.44 13.7614 110.708 13.9393 109.966 13.921C109.36 13.9257 108.758 13.8069 108.198 13.5717C107.666 13.348 107.184 13.02 106.779 12.6071C106.372 12.182 106.051 11.6822 105.833 11.1351C105.368 9.94268 105.368 8.61865 105.833 7.4262C106.053 6.88013 106.374 6.38069 106.779 5.95426C107.181 5.53614 107.664 5.205 108.198 4.98129C108.758 4.74615 109.36 4.62733 109.966 4.63202ZM110.091 5.65489C109.603 5.64808 109.12 5.74443 108.672 5.93763C108.254 6.11586 107.878 6.37924 107.568 6.71102C107.255 7.0434 107.01 7.43307 106.846 7.85863C106.502 8.77549 106.502 9.78584 106.846 10.7027C107.01 11.1283 107.255 11.5179 107.568 11.8503C107.883 12.1779 108.261 12.4382 108.68 12.6154C109.127 12.8018 109.607 12.8952 110.091 12.8898C110.572 12.8953 111.05 12.8019 111.494 12.6154C111.912 12.4397 112.289 12.1801 112.603 11.8525C112.917 11.525 113.161 11.1365 113.32 10.711C113.492 10.2539 113.579 9.76917 113.577 9.28067C113.583 8.78911 113.495 8.30089 113.32 7.842C113.155 7.41645 112.91 7.02678 112.597 6.69439C112.283 6.3713 111.908 6.11405 111.494 5.93763C111.05 5.74836 110.573 5.65214 110.091 5.65489Z" fill="black"/>
</g>
<defs>
<clipPath id="clip0_6089_50196">
<rect width="116" height="32" fill="white"/>
</clipPath>
</defs>
</svg>