<svg xmlns="http://www.w3.org/2000/svg" width="89" height="24" viewBox="0 0 89 24" fill="none">
<g id="logo_gust">
<path id="Vector" d="M15.9785 21.8587V15.11H12.7299V13.496H22.8355V15.11H20.079V20.4093H22.1475C21.0768 21.5066 19.6644 22.3799 17.9149 23.0246C16.1653 23.6739 14.3155 23.9939 12.37 23.9939C8.84808 23.9939 5.90935 22.9332 3.5447 20.8162C1.1846 18.6992 0 15.9696 0 12.6364C0 11.0132 0.296151 9.47694 0.883897 8.02752C1.47164 6.57811 2.33731 5.2933 3.47636 4.17766C4.59262 3.05745 5.88201 2.18415 7.3491 1.56232C8.81163 0.935915 10.3015 0.625 11.8096 0.625C12.8803 0.625 13.9145 0.762168 14.9078 1.03651C15.901 1.31084 16.8396 1.7132 17.7144 2.23901L20.2749 0.625V8.62649C18.7441 6.2992 17.3271 4.67147 16.0286 3.73872C14.7255 2.80598 13.345 2.33961 11.8779 2.33961C9.71375 2.33961 7.94596 3.19919 6.57911 4.92294C5.21226 6.64669 4.52883 8.90997 4.52883 11.7219C4.52883 14.7305 5.40817 17.2315 7.17141 19.2296C8.93009 21.2277 11.0578 22.2245 13.55 22.2245C14.0284 22.2245 14.4795 22.1924 14.8941 22.1239C15.3087 22.0599 15.6687 21.9684 15.9785 21.8587Z" fill="#001DF5"/>
<path id="Vector_2" d="M37.1008 21.4324C39.0053 21.4324 40.4952 20.8334 41.5795 19.64C42.6639 18.4421 43.2015 16.7915 43.2015 14.6837V2.53513H39.6887V0.953125H48.35V2.53513H45.1015V15.1775C45.1015 17.7654 44.2358 19.8869 42.509 21.533C40.7822 23.179 38.6363 24.002 36.0802 24.002C33.5242 24.002 31.3145 23.2018 29.5194 21.597C27.7242 19.9967 26.8312 17.8889 26.8312 15.2781V2.53971H23.5508V0.957697H34.2441V2.53971H30.9637V14.6563C30.9637 16.7869 31.5058 18.4467 32.5857 19.6446C33.67 20.8425 35.1736 21.4369 37.0963 21.4369L37.1008 21.4324Z" fill="#001DF5"/>
<path id="Vector_3" d="M56.9806 2.3678C55.9509 2.3678 55.1171 2.66957 54.4701 3.27311C53.8232 3.87665 53.5042 4.67223 53.5042 5.65984C53.5042 6.4737 53.814 7.19155 54.4382 7.81795C55.0624 8.44436 56.4111 9.19421 58.4887 10.0721C59.7781 10.6208 60.7303 11.0643 61.3408 11.4072C61.9514 11.7455 62.4662 12.093 62.8808 12.4451C63.6007 13.0166 64.1338 13.6568 64.4709 14.37C64.8081 15.0833 64.9812 15.8789 64.9812 16.7568C64.9812 18.8189 64.1657 20.5426 62.5391 21.9234C60.908 23.3043 58.9033 23.9993 56.5204 23.9993C55.231 23.9993 53.9416 23.7752 52.6477 23.3226C51.3583 22.8745 50.3195 22.2847 49.5312 21.5622V15.6366C50.5154 17.7855 51.6544 19.4316 52.9438 20.5746C54.2332 21.7177 55.6137 22.2847 57.0763 22.2847C58.3019 22.2847 59.2951 21.9372 60.0606 21.2467C60.826 20.5563 61.2087 19.6282 61.2087 18.4668C61.2087 17.502 60.8852 16.6745 60.2428 15.9795C59.6004 15.2845 58.2153 14.4935 56.0921 13.5927C54.8665 13.0898 53.9781 12.6783 53.4177 12.3582C52.8618 12.0382 52.3834 11.7181 51.9916 11.3889C51.3355 10.8402 50.848 10.2275 50.5336 9.54628C50.2147 8.86501 50.0598 8.09686 50.0598 7.24185C50.0598 5.39922 50.7386 3.8355 52.0918 2.55069C53.4496 1.26588 55.0989 0.625757 57.0444 0.625757C57.8964 0.625757 58.7438 0.781214 59.5867 1.08756C60.4296 1.3939 61.1313 1.79169 61.7008 2.27178L64.1292 0.59375V8.36206C62.7943 6.21308 61.5686 4.6768 60.4569 3.7532C59.3407 2.8296 58.1834 2.37237 56.9806 2.37237V2.3678Z" fill="#001DF5"/>
<path id="Vector_4" d="M76.0056 2.53304H71.1169L67.1484 7.80031V0L68.9208 0.955607H87.2275L88.9998 0V7.80031L85.0314 2.53304H80.1745V22.0887H83.9151V23.6707H72.2377V22.0887H76.0102V2.53304H76.0056Z" fill="#001DF5"/>
</g>
</svg>