 <svg
                xmlns="http://www.w3.org/2000/svg"
                xmlns:xlink="http://www.w3.org/1999/xlink"
                viewBox="0 0 500 500"
                width="500"
                height="500"
                preserveAspectRatio="xMidYMid meet"
                style="
                  width: 100%;
                  height: 100%;
                  transform: translate3d(0px, 0px, 0px);
                  content-visibility: visible;
                "
              >
                <defs>
                  <clipPath id="__lottie_element_2">
                    <rect width="500" height="500" x="0" y="0"></rect>
                  </clipPath>
                </defs>
                <g clip-path="url(#__lottie_element_2)">
                  <g
                    transform="matrix(1.1785115003585815,-1.1785115003585815,1.1785115003585815,1.1785115003585815,373.2228088378906,386.1322326660156)"
                    opacity="1"
                    style="display: block"
                  >
                    <g
                      opacity="1"
                      transform="matrix(1,0,0,1,5.4770002365112305,-110.03500366210938)"
                    >
                      <path
                        fill="rgb(32,32,32)"
                        fill-opacity="1"
                        d=" M150,-9 C150,-9 150,9 150,9 C150,9 -150,9 -150,9 C-150,9 -150,-9 -150,-9 C-150,-9 150,-9 150,-9z"
                      ></path>
                    </g>
                  </g>
                  <g
                    transform="matrix(1.6666669845581055,0,0,1.6666669845581055,240.8716583251953,433.356689453125)"
                    opacity="1"
                    style="display: none"
                  >
                    <g
                      opacity="1"
                      transform="matrix(1,0,0,1,5.4770002365112305,-110.03500366210938)"
                    >
                      <path
                        fill="rgb(32,32,32)"
                        fill-opacity="1"
                        d=" M150,-9 C150,-9 150,9 150,9 C150,9 -150,9 -150,9 C-150,9 -150,-9 -150,-9 C-150,-9 150,-9 150,-9z"
                      ></path>
                    </g>
                  </g>
                  <g
                    transform="matrix(1.1785115003585815,1.1785115003585815,-1.1785115003585815,1.1785115003585815,113.86776733398438,373.2228088378906)"
                    opacity="1"
                    style="display: block"
                  >
                    <g
                      opacity="1"
                      transform="matrix(1,0,0,1,5.4770002365112305,-110.03500366210938)"
                    >
                      <path
                        fill="rgb(32,32,32)"
                        fill-opacity="1"
                        d=" M150,-9 C150,-9 150,9 150,9 C150,9 -150,9 -150,9 C-150,9 -150,-9 -150,-9 C-150,-9 150,-9 150,-9z"
                      ></path>
                    </g>
                  </g>
                </g>
              </svg>