<svg xmlns="http://www.w3.org/2000/svg" xmlns:xlink="http://www.w3.org/1999/xlink" xmlns:serif="http://www.serif.com/" width="100%" height="100%" viewBox="0 0 60 60" version="1.1" xml:space="preserve" style="fill-rule:evenodd;clip-rule:evenodd;stroke-linejoin:round;stroke-miterlimit:2;">
    <circle cx="30" cy="30" r="30" style="fill:white;"/>
    <path d="M26,21C23.79,21 22,22.79 22,25L22,32C22,33.1 22.9,34 24,34L27,34L27,38C27,39.1 27.9,40 29,40L31,40C32.1,40 33,39.1 33,38L33,34L36,34C37.1,34 38,33.1 38,32L38,21L26,21ZM26,23L30,23L30,25L32,25L32,23L33,23L33,27L35,27L35,23L36,23L36,28L24,28L24,25C24,23.9 24.9,23 26,23ZM24,32L24,30L36,30L36,32L24,32Z" style="fill:rgb(243,61,0);fill-rule:nonzero;"/>
</svg>