<svg xmlns="http://www.w3.org/2000/svg" width="60" height="60" viewBox="0 0 60 60" fill="none">
<circle cx="30" cy="30" r="30" fill="url(#paint0_linear_3791_3123)"/>
<path d="M26 21C23.79 21 22 22.79 22 25V32C22 33.1 22.9 34 24 34H27V38C27 39.1 27.9 40 29 40H31C32.1 40 33 39.1 33 38V34H36C37.1 34 38 33.1 38 32V21H26ZM26 23H30V25H32V23H33V27H35V23H36V28H24V25C24 23.9 24.9 23 26 23ZM24 32V30H36V32H24Z" fill="white"/>
<defs>
<linearGradient id="paint0_linear_3791_3123" x1="60" y1="60" x2="1.78814e-06" y2="-1.78814e-06" gradientUnits="userSpaceOnUse">
<stop offset="2.77791e-10" stop-color="#FC3E00"/>
<stop offset="0.25" stop-color="#F73D00"/>
<stop offset="0.5" stop-color="#F53D00"/>
<stop offset="0.75" stop-color="#F03C00"/>
<stop offset="1" stop-color="#DA3700"/>
</linearGradient>
</defs>
</svg>