<svg width="123" height="24" viewBox="0 0 123 24" fill="none" xmlns="http://www.w3.org/2000/svg">
<g id="Group">
<path id="Vector" d="M8.63975 0.492188H3.66342C1.54054 0.492188 0 2.04419 0 4.18285V19.8042C0 21.9429 1.54054 23.4949 3.66342 23.4949H8.63975C15.7548 23.4949 20.7259 18.7642 20.7259 11.9909C20.7259 5.21752 15.7601 0.492188 8.63975 0.492188ZM8.88857 17.3935H6.34217V6.59885H8.88857C12.1232 6.59885 14.3837 8.81752 14.3837 11.9962C14.3837 15.1749 12.1232 17.3935 8.88857 17.3935Z" fill="#ED6A03"/>
<path id="Vector_2" d="M42.0875 3.264C42.0875 1.376 40.7534 0 38.9164 0C37.0794 0 35.7453 1.376 35.7453 3.264V13.9893C35.7453 16.0587 34.1995 17.68 32.2195 17.68C30.2396 17.68 28.6937 16.0587 28.6937 13.9893V3.264C28.6937 1.376 27.3597 0 25.5226 0C23.6856 0 22.3516 1.376 22.3516 3.264V14.272C22.3516 20 26.4067 24 32.2195 24C38.0323 24 42.0875 20 42.0875 14.272V3.264Z" fill="#ED6A03"/>
<path id="Vector_3" d="M84.0523 18.048L78.6577 11.904L83.687 5.968C84.4176 5.10933 84.804 4.24 84.804 3.44533C84.804 1.51467 83.3323 0 81.4583 0C80.5053 0 79.6212 0.528 78.753 1.61067L73.0726 9.27467V3.264C73.0726 1.312 71.7968 0 69.9015 0C68.0063 0 66.7304 1.312 66.7304 3.264V20.736C66.7304 22.688 68.0063 24 69.9015 24C71.7968 24 73.0726 22.688 73.0726 20.736V14.6773L79.1713 22.4907C80.0501 23.5627 80.8071 24 81.7759 24C83.6553 24 85.0211 22.5493 85.0211 20.5547C85.0211 19.6533 84.6664 18.7413 84.0523 18.0427V18.048Z" fill="#ED6A03"/>
<path id="Vector_4" d="M92.9828 3.264C92.9828 1.312 91.7069 0 89.8117 0C87.9165 0 86.6406 1.312 86.6406 3.264V20.736C86.6406 22.688 87.9165 24 89.8117 24C91.7069 24 92.9828 22.688 92.9828 20.736V3.264Z" fill="#ED6A03"/>
<path id="Vector_5" d="M122.977 3.44848C123.183 1.68315 121.876 0.557816 120.536 0.403149C119.425 0.269816 118.572 0.611149 118.001 1.40582C117.572 2.00315 117.307 2.89915 117.143 4.30715C116.974 5.76848 116.989 6.74982 117.196 7.39515C117.482 8.25915 118.144 8.79248 119.054 8.89915C120.78 9.10182 121.595 7.69915 122.585 4.86715C122.792 4.28582 122.945 3.72582 122.977 3.44848Z" fill="#CC3362"/>
<path id="Vector_6" d="M50.6937 11.8133V20.736C50.6937 22.688 49.4179 24 47.5226 24C45.6274 24 44.3516 22.688 44.3516 20.736V3.264C44.3516 1.312 45.6221 0 47.5226 0C48.4332 0 49.2697 0.341333 49.7567 0.842667C50.2437 1.344 58.2059 12.1867 58.2059 12.1867V3.264C58.2059 1.312 59.4817 0 61.377 0C63.2722 0 64.548 1.312 64.548 3.264V20.736C64.548 22.688 63.2722 24 61.377 24C60.4611 24 59.6299 23.664 59.1376 23.1573C58.6453 22.6507 50.6884 11.8133 50.6884 11.8133H50.6937Z" fill="#ED6A03"/>
<path id="Vector_7" d="M101.534 11.8133V20.736C101.534 22.688 100.258 24 98.3625 24C96.4673 24 95.1914 22.688 95.1914 20.736V3.264C95.1914 1.312 96.462 0 98.3625 0C99.2784 0 100.11 0.341333 100.602 0.842667C101.089 1.344 109.051 12.1867 109.051 12.1867V3.264C109.046 1.312 110.322 0 112.217 0C114.112 0 115.388 1.312 115.388 3.264V20.736C115.388 22.688 114.112 24 112.217 24C111.301 24 110.47 23.664 109.977 23.1573C109.485 22.6507 101.528 11.8133 101.528 11.8133H101.534Z" fill="#ED6A03"/>
</g>
</svg>
