<svg width="118" height="32" viewBox="0 0 118 32" fill="none" xmlns="http://www.w3.org/2000/svg">
<g id="Frame" clip-path="url(#clip0_5291_8763)">
<g id="Group 6">
<g id="Group 3">
<path id="Rectangle 1" d="M104.663 21.1885H109.96V30.7103H104.663V21.1885Z" fill="#FF5F00"/>
<g id="Group 2">
<g id="Group 1">
<path id="Path 1" d="M105.004 25.9457C105.003 25.0294 105.211 24.1251 105.612 23.301C106.012 22.4769 106.595 21.7547 107.316 21.1889C106.423 20.486 105.35 20.0485 104.22 19.9266C103.09 19.8046 101.949 20.0031 100.927 20.4994C99.9046 20.9956 99.0426 21.7696 98.4395 22.7327C97.8364 23.6959 97.5166 24.8093 97.5166 25.9457C97.5166 27.082 97.8364 28.1955 98.4395 29.1586C99.0426 30.1217 99.9046 30.8957 100.927 31.3919C101.949 31.8882 103.09 32.0867 104.22 31.9648C105.35 31.8428 106.423 31.4054 107.316 30.7024C106.595 30.1366 106.012 29.4144 105.612 28.5903C105.211 27.7663 105.003 26.8619 105.004 25.9457Z" fill="#EB001B"/>
<path id="Path 2" d="M117.112 25.9452C117.112 27.0814 116.792 28.1947 116.19 29.1577C115.587 30.1208 114.725 30.8947 113.703 31.391C112.681 31.8872 111.54 32.0858 110.41 31.964C109.281 31.8421 108.208 31.4048 107.315 30.702C108.036 30.1359 108.618 29.4136 109.019 28.5896C109.419 27.7656 109.627 26.8614 109.627 25.9452C109.627 25.0291 109.419 24.1249 109.019 23.3009C108.618 22.4769 108.036 21.7546 107.315 21.1885C108.208 20.4857 109.281 20.0483 110.41 19.9265C111.54 19.8047 112.681 20.0032 113.703 20.4995C114.725 20.9958 115.587 21.7697 116.19 22.7328C116.792 23.6958 117.112 24.8091 117.112 25.9452Z" fill="#F79E1B"/>
<path id="Path 3" d="M116.53 29.6957V29.5045H116.605V29.4629H116.405V29.5045H116.48V29.6957H116.53ZM116.921 29.6957V29.4629H116.863L116.796 29.6209L116.721 29.4629H116.663V29.6957H116.705V29.5211L116.771 29.6708H116.813L116.879 29.5211V29.6957H116.921Z" fill="#F79E1B"/>
</g>
</g>
</g>
<g id="Group 4">
<path id="Path 4" d="M88.5464 24.2496C88.781 24.2491 89.0132 24.2972 89.2283 24.391C89.4388 24.4781 89.6286 24.6084 89.7855 24.7736C89.9459 24.9422 90.0728 25.1397 90.1597 25.3557C90.3371 25.8331 90.3371 26.3585 90.1597 26.8359C90.0728 27.0519 89.9459 27.2494 89.7855 27.418C89.6286 27.5832 89.4388 27.7135 89.2283 27.8006C89.0124 27.8909 88.7804 27.9362 88.5464 27.9336C88.3221 27.9379 88.0999 27.8895 87.8977 27.7923C87.7239 27.7034 87.5708 27.5787 87.4487 27.4264V27.8422H86.6836V22.5781H87.4487V24.7569C87.5727 24.6064 87.7253 24.4821 87.8977 24.391C88.0999 24.2938 88.3221 24.2454 88.5464 24.2496ZM88.4549 24.9731C88.3065 24.9701 88.1592 24.9985 88.0225 25.0563C87.8963 25.1093 87.7828 25.1887 87.6898 25.2891C87.5941 25.3923 87.5205 25.514 87.4736 25.6467C87.4225 25.7909 87.3972 25.9429 87.3988 26.0958C87.3979 26.2487 87.4232 26.4005 87.4736 26.5449C87.5205 26.6776 87.5941 26.7993 87.6898 26.9024C87.7828 27.0029 87.8963 27.0823 88.0225 27.1353C88.1592 27.1931 88.3065 27.2215 88.4549 27.2185C88.6066 27.2196 88.7569 27.1884 88.8957 27.127C89.0223 27.071 89.1357 26.9888 89.2283 26.8858C89.3215 26.7822 89.3922 26.6605 89.4362 26.5282C89.4859 26.3895 89.5112 26.2432 89.511 26.0958C89.5118 25.9484 89.4865 25.802 89.4362 25.6634C89.3903 25.532 89.3197 25.4106 89.2283 25.3058C89.1357 25.2028 89.0223 25.1206 88.8957 25.0646C88.7582 24.9993 88.607 24.968 88.4549 24.9731Z" fill="black"/>
<path id="Path 5" d="M91.6896 29.3221H90.8414L92.0971 27.1184L90.542 24.3408H91.3985L92.5212 26.3533L93.6023 24.3408H94.4422L91.6896 29.3221Z" fill="black"/>
</g>
<g id="Group 5">
<path id="Path 6" d="M5.37835 4.63202C6.12096 4.61376 6.85527 4.7916 7.50725 5.14761C8.08857 5.47752 8.58201 5.94244 8.94591 6.50312V0H10.027V13.7713H8.94591V12.0416C8.58469 12.6067 8.0908 13.0749 7.50725 13.4054C6.85527 13.7614 6.12096 13.9393 5.37835 13.921C4.77035 13.9257 4.16774 13.8069 3.60704 13.5717C3.07358 13.348 2.59013 13.02 2.185 12.6071C1.77716 12.182 1.45525 11.6822 1.23697 11.1351C0.771269 9.94268 0.771269 8.61865 1.23697 7.4262C1.45728 6.88013 1.77895 6.38069 2.185 5.95426C2.58752 5.53614 3.0715 5.205 3.60704 4.98129C4.16774 4.74615 4.77035 4.62733 5.37835 4.63202ZM5.49477 5.65489C5.00615 5.64808 4.52159 5.74443 4.07273 5.93763C3.65437 6.11586 3.2777 6.37924 2.9667 6.71102C2.65391 7.04341 2.40825 7.43308 2.24321 7.85863C1.89946 8.77549 1.89946 9.78584 2.24321 10.7027C2.40825 11.1282 2.65391 11.5179 2.9667 11.8503C3.28271 12.1779 3.66177 12.4382 4.08105 12.6154C4.5288 12.8018 5.0098 12.8952 5.49477 12.8898C5.97707 12.8953 6.45537 12.8019 6.90018 12.6154C7.31898 12.4397 7.69737 12.1801 8.01201 11.8525C8.32666 11.525 8.57091 11.1365 8.7297 10.711C8.90204 10.2539 8.98941 9.76917 8.98749 9.28067C8.99347 8.78911 8.90599 8.30089 8.7297 7.842C8.56468 7.41644 8.31901 7.02677 8.00621 6.69439C7.69135 6.3713 7.31538 6.11405 6.90018 5.93763C6.4562 5.74754 5.97772 5.65128 5.49477 5.65489Z" fill="black"/>
<path id="Path 7" d="M13.3948 17.63H12.1889L15.6318 11.7672L11.4072 4.77344H12.6297L16.2555 10.6944L19.6484 4.77344H20.8459L13.3948 17.63Z" fill="black"/>
<path id="Path 8" d="M26.6587 4.63212C27.1821 4.62632 27.7025 4.71071 28.1972 4.8816C28.6428 5.03576 29.0509 5.2823 29.3947 5.60509C29.7316 5.92463 29.9955 6.31328 30.1681 6.74438C30.3569 7.2234 30.4501 7.73475 30.4425 8.24958V13.7714H29.3614V8.59054C29.3661 8.17525 29.3015 7.76209 29.1702 7.36808C29.0555 7.02083 28.8619 6.70488 28.6047 6.44501C28.3484 6.18746 28.0391 5.98881 27.6982 5.86289C27.3059 5.72406 26.8919 5.65647 26.4758 5.6633C26.0721 5.66126 25.6716 5.73459 25.2949 5.87952C24.9376 6.01759 24.6123 6.22697 24.3386 6.4949C24.0641 6.76512 23.8464 7.08744 23.6982 7.44293C23.539 7.82473 23.4598 8.23512 23.4654 8.64875V13.7714H22.376V4.77349H23.4571V6.35353C23.6259 6.06651 23.836 5.80592 24.0808 5.58014C24.3161 5.3683 24.5791 5.18927 24.8625 5.04792C25.1421 4.90852 25.4383 4.80514 25.744 4.74022C26.0433 4.66693 26.3505 4.63062 26.6587 4.63212Z" fill="black"/>
<path id="Path 9" d="M41.486 13.7714H40.4049V12.0417C40.0437 12.6068 39.5498 13.075 38.9662 13.4055C38.3143 13.7615 37.5799 13.9394 36.8373 13.9211C36.2293 13.9258 35.6267 13.807 35.066 13.5718C34.5326 13.3481 34.0491 13.0201 33.644 12.6072C33.2361 12.1822 32.9142 11.6824 32.696 11.1353C32.2303 9.9428 32.2303 8.61877 32.696 7.42632C32.9163 6.88025 33.2379 6.38081 33.644 5.95438C34.0465 5.53626 34.5305 5.20512 35.066 4.98141C35.6267 4.74627 36.2293 4.62745 36.8373 4.63214C37.5799 4.61388 38.3143 4.79172 38.9662 5.14773C39.5476 5.47764 40.041 5.94256 40.4049 6.50324V4.77351H41.486V13.7714ZM36.9621 5.65501C36.4735 5.6482 35.9889 5.74455 35.54 5.93775C35.1217 6.11598 34.745 6.37936 34.434 6.71114C34.1212 7.04353 33.8756 7.4332 33.7105 7.85875C33.3668 8.77561 33.3668 9.78596 33.7105 10.7028C33.8756 11.1284 34.1212 11.518 34.434 11.8504C34.75 12.1781 35.1291 12.4383 35.5484 12.6155C35.9961 12.8019 36.4771 12.8953 36.9621 12.8899C37.4444 12.8954 37.9227 12.802 38.3675 12.6155C38.7863 12.4398 39.1647 12.1802 39.4793 11.8527C39.794 11.5251 40.0382 11.1366 40.197 10.7111C40.3693 10.254 40.4567 9.76929 40.4548 9.28078C40.4608 8.78923 40.3733 8.30101 40.197 7.84212C40.032 7.41657 39.7863 7.0269 39.4735 6.69451C39.1587 6.37142 38.7827 6.11417 38.3675 5.93775C37.9232 5.74848 37.4449 5.65226 36.9621 5.65501Z" fill="black"/>
<path id="Path 10" d="M55.4743 4.63205C56.0003 4.62696 56.5233 4.71132 57.0211 4.88153C57.4667 5.0357 57.8748 5.28224 58.2186 5.60503C58.5555 5.92456 58.8193 6.31322 58.992 6.74432C59.1808 7.22334 59.274 7.73469 59.2664 8.24952V13.7713H58.177V8.59047C58.1832 8.1744 58.1156 7.76052 57.9774 7.36802C57.8595 7.02227 57.6664 6.707 57.4119 6.44494C57.1556 6.18739 56.8463 5.98875 56.5055 5.86282C56.1103 5.72395 55.6935 5.65637 55.2747 5.66324C54.871 5.6612 54.4706 5.73453 54.0938 5.87946C53.7366 6.01753 53.4112 6.22691 53.1375 6.49484C52.863 6.76506 52.6453 7.08737 52.4971 7.44286C52.338 7.82467 52.2587 8.23506 52.2643 8.64869V13.7713H51.1749V8.59047C51.1796 8.17519 51.1149 7.76203 50.9836 7.36802C50.869 7.02077 50.6754 6.70482 50.4181 6.44494C50.1618 6.18739 49.8525 5.98875 49.5117 5.86282C49.1194 5.724 48.7054 5.6564 48.2892 5.66324C47.8856 5.6612 47.4851 5.73453 47.1084 5.87946C46.7511 6.01753 46.4257 6.22691 46.152 6.49484C45.8776 6.76506 45.6599 7.08737 45.5117 7.44286C45.3525 7.82467 45.2733 8.23506 45.2789 8.64869V13.7713H44.1895V4.77343H45.2705V6.35347C45.4393 6.06645 45.6495 5.80586 45.8942 5.58008C46.1296 5.36824 46.3926 5.18921 46.6759 5.04785C46.9556 4.90846 47.2518 4.80507 47.5574 4.74016C47.8634 4.67367 48.1757 4.64021 48.4888 4.64037C48.8868 4.63874 49.2834 4.68623 49.6697 4.78174C50.02 4.86959 50.356 5.00679 50.6676 5.18923C51.2637 5.54266 51.7257 6.08369 51.9816 6.72769C52.1339 6.37645 52.3479 6.05536 52.6136 5.77966C52.8584 5.52141 53.1417 5.3026 53.4535 5.13101C53.7604 4.965 54.0874 4.83922 54.4265 4.75679C54.7696 4.67387 55.1213 4.632 55.4743 4.63205Z" fill="black"/>
<path id="Path 11" d="M62.6178 0.748409C62.7219 0.745126 62.8255 0.764213 62.9216 0.804381C63.0177 0.844549 63.1041 0.904864 63.1749 0.981257C63.2488 1.05535 63.3067 1.1437 63.3453 1.24091C63.3839 1.33813 63.4024 1.44219 63.3995 1.54675C63.4023 1.64978 63.3839 1.75229 63.3455 1.84794C63.3071 1.94359 63.2495 2.03035 63.1762 2.10284C63.1029 2.17533 63.0156 2.23202 62.9195 2.2694C62.8235 2.30677 62.7208 2.32404 62.6178 2.32013C62.5152 2.32254 62.4132 2.30467 62.3176 2.26757C62.222 2.23047 62.1346 2.17485 62.0606 2.10392C61.9882 2.03088 61.9316 1.94371 61.8944 1.84785C61.8572 1.75199 61.8402 1.64949 61.8444 1.54675C61.8395 1.33719 61.9171 1.1341 62.0606 0.981257C62.1322 0.905873 62.2187 0.846236 62.3146 0.806145C62.4106 0.766055 62.5138 0.746392 62.6178 0.748409ZM63.1666 13.7713H62.0772V4.77336H63.1666V13.7713Z" fill="black"/>
<path id="Path 12" d="M69.9523 4.6322C70.591 4.62468 71.2246 4.74631 71.8151 4.98979C72.3742 5.2187 72.8725 5.57459 73.2704 6.02929L72.5635 6.7611C72.2236 6.41881 71.8232 6.14249 71.3826 5.94613C70.9229 5.74934 70.4274 5.65023 69.9273 5.65507C69.2337 5.64644 68.5541 5.85069 67.9801 6.24027C67.4061 6.62985 66.9654 7.18604 66.7174 7.83386C66.3626 8.7659 66.3626 9.7958 66.7174 10.7278C66.8803 11.1539 67.1294 11.5418 67.4492 11.8671C67.7666 12.185 68.142 12.4391 68.5552 12.6156C68.9888 12.8004 69.4559 12.8939 69.9273 12.89C70.4373 12.8967 70.9425 12.7917 71.4076 12.5823C71.8491 12.3833 72.2518 12.1073 72.5968 11.7673L73.2787 12.5158C72.8722 12.9646 72.3727 13.3193 71.8151 13.5553C70.6219 14.0321 69.291 14.0321 68.0978 13.5553C67.5511 13.3341 67.0558 13.0029 66.6425 12.5823C66.231 12.1602 65.9086 11.6596 65.6945 11.1104C65.2399 9.92445 65.2399 8.6123 65.6945 7.42638C65.9064 6.87605 66.229 6.37509 66.6424 5.95454C67.0558 5.53398 67.5512 5.20279 68.0978 4.98147C68.6866 4.74308 69.3171 4.62435 69.9523 4.6322Z" fill="black"/>
<path id="Path 13" d="M80.1975 17.63H78.9917L82.4345 11.7672L78.21 4.77344H79.4324L83.0582 10.6944L86.4511 4.77344H87.6486L80.1975 17.63Z" fill="black"/>
<path id="Path 14" d="M89.7105 0.748409C89.8146 0.745126 89.9183 0.764213 90.0144 0.804381C90.1105 0.844549 90.1969 0.904864 90.2677 0.981257C90.3415 1.05535 90.3995 1.1437 90.4381 1.24091C90.4767 1.33813 90.4951 1.44219 90.4922 1.54675C90.495 1.64978 90.4767 1.75229 90.4383 1.84794C90.3999 1.94359 90.3423 2.03035 90.269 2.10284C90.1957 2.17533 90.1083 2.23202 90.0123 2.2694C89.9162 2.30677 89.8135 2.32404 89.7105 2.32013C89.608 2.32254 89.506 2.30467 89.4104 2.26757C89.3148 2.23047 89.2274 2.17485 89.1534 2.10392C89.081 2.03088 89.0244 1.94371 88.9872 1.84785C88.95 1.75199 88.933 1.64949 88.9371 1.54675C88.9323 1.33719 89.0099 1.1341 89.1534 0.981257C89.225 0.905873 89.3115 0.846236 89.4074 0.806145C89.5034 0.766055 89.6066 0.746392 89.7105 0.748409ZM90.2594 13.7713H89.17V4.77336H90.2594V13.7713Z" fill="black"/>
<path id="Path 15" d="M96.8964 4.63205C97.4712 4.62852 98.0404 4.74463 98.5679 4.97301C99.0735 5.19138 99.527 5.5145 99.8985 5.92103C100.282 6.34544 100.582 6.83943 100.78 7.37634C101 7.96982 101.113 8.5978 101.113 9.23081C101.114 9.30852 101.111 9.38625 101.104 9.46365C101.103 9.53598 101.097 9.60818 101.088 9.67987H93.545C93.5762 10.1628 93.6946 10.6361 93.8943 11.077C94.0764 11.4695 94.3335 11.8226 94.6511 12.1165C94.9649 12.3979 95.3288 12.6179 95.7238 12.7651C96.14 12.9135 96.5793 12.9867 97.0211 12.9813C97.6045 12.9899 98.1829 12.8736 98.7176 12.6404C99.2185 12.4089 99.6746 12.0908 100.065 11.7007L100.647 12.4491C100.381 12.7163 100.088 12.9559 99.7737 13.1643C99.4883 13.3478 99.1845 13.5011 98.8673 13.6217C98.5631 13.734 98.2483 13.8149 97.9276 13.8628C97.6078 13.906 97.2856 13.9282 96.9629 13.9293C96.3395 13.9343 95.7211 13.8185 95.1417 13.5884C94.6025 13.3739 94.1129 13.0512 93.703 12.6404C93.2952 12.2202 92.9756 11.7225 92.7633 11.1768C92.3169 9.96591 92.3199 8.63508 92.7716 7.42623C92.9819 6.87695 93.3016 6.37616 93.7114 5.9543C94.1127 5.54071 94.5936 5.21258 95.1251 4.98964C95.684 4.7478 96.2874 4.62597 96.8964 4.63205ZM96.8798 5.59671C96.4498 5.58964 96.0228 5.66881 95.624 5.82956C95.253 5.98005 94.9143 6.20024 94.6261 6.47821C94.3312 6.76138 94.0915 7.09696 93.9193 7.46781C93.7322 7.86638 93.6141 8.29379 93.57 8.73184H100.007C99.9734 8.29032 99.8666 7.85745 99.6906 7.45118C99.5271 7.08363 99.299 6.74844 99.017 6.46157C98.7414 6.18589 98.4134 5.96817 98.0523 5.82124C97.6799 5.67031 97.2815 5.59402 96.8798 5.59671Z" fill="black"/>
<path id="Path 16" d="M104.389 13.7713H103.3V0H104.389V13.7713Z" fill="black"/>
<path id="Path 17" d="M111.067 4.63202C111.809 4.61376 112.544 4.7916 113.196 5.14761C113.777 5.47752 114.27 5.94244 114.634 6.50312V0H115.715V13.7713H114.634V12.0416C114.273 12.6067 113.779 13.0749 113.196 13.4054C112.544 13.7614 111.809 13.9393 111.067 13.921C110.459 13.9257 109.856 13.8069 109.296 13.5717C108.762 13.348 108.279 13.02 107.873 12.6071C107.466 12.182 107.144 11.6822 106.925 11.1351C106.46 9.94268 106.46 8.61865 106.925 7.4262C107.146 6.88013 107.467 6.38069 107.873 5.95426C108.276 5.53614 108.76 5.205 109.296 4.98129C109.856 4.74615 110.459 4.62733 111.067 4.63202ZM111.192 5.65489C110.703 5.64808 110.218 5.74443 109.77 5.93763C109.351 6.11586 108.974 6.37924 108.664 6.71102C108.351 7.0434 108.105 7.43307 107.94 7.85863C107.596 8.77549 107.596 9.78584 107.94 10.7027C108.105 11.1283 108.351 11.5179 108.664 11.8503C108.98 12.1779 109.359 12.4382 109.778 12.6154C110.226 12.8018 110.707 12.8952 111.192 12.8898C111.674 12.8953 112.152 12.8019 112.597 12.6154C113.016 12.4397 113.394 12.1801 113.709 11.8525C114.023 11.525 114.268 11.1365 114.426 10.711C114.599 10.2539 114.686 9.76917 114.684 9.28067C114.69 8.78911 114.603 8.30089 114.426 7.842C114.261 7.41645 114.016 7.02678 113.703 6.69439C113.388 6.3713 113.012 6.11405 112.597 5.93763C112.153 5.74836 111.674 5.65214 111.192 5.65489Z" fill="black"/>
</g>
</g>
</g>
<defs>
<clipPath id="clip0_5291_8763">
<rect width="116.225" height="32" fill="white" transform="translate(0.887695)"/>
</clipPath>
</defs>
</svg>
