<svg width="76" height="40" viewBox="0 0 76 40" fill="none" xmlns="http://www.w3.org/2000/svg">
<g clip-path="url(#clip0_3791_2975)">
<path fill-rule="evenodd" clip-rule="evenodd" d="M20.1554 39.92C9.04028 39.92 0 30.9632 0 19.9579C0 8.95263 9.04028 0 20.1554 0C31.2679 0 40.3108 8.95263 40.3108 19.9579C40.3108 30.9632 31.27 39.92 20.1554 39.92Z" fill="#F89829"/>
<path fill-rule="evenodd" clip-rule="evenodd" d="M20.3688 11.7837C20.6085 11.43 20.4645 11.1484 20.0436 11.1484H14.6205C14.1985 11.1484 13.6553 11.43 13.4135 11.7837L11.5454 14.3621C11.3062 14.7111 11.4492 14.9942 11.8696 14.9942H17.2948C17.7184 14.9942 18.2584 14.7111 18.5012 14.3621L20.3688 11.7837Z" fill="white"/>
<path fill-rule="evenodd" clip-rule="evenodd" d="M20.3797 28.0189C20.6252 28.3684 20.4727 28.6552 20.0614 28.6552H14.6266C14.2099 28.6552 13.6683 28.3684 13.4217 28.0189L11.5515 25.44C11.3091 25.0863 11.4521 24.8047 11.8735 24.8047H17.2977C17.7213 24.8047 18.2629 25.0863 18.5057 25.44L20.3797 28.0189Z" fill="white"/>
<path fill-rule="evenodd" clip-rule="evenodd" d="M28.8781 11.7596C29.1257 11.4222 28.9801 11.1475 28.5624 11.1475L25.2938 11.1406C24.8724 11.1406 24.3287 11.4222 24.0879 11.7685L20.0015 17.4022C19.7538 17.7443 19.2144 17.9748 18.7956 17.9748H12.0773C11.6564 17.9748 11.3125 18.2512 11.3125 18.6727V21.1285C11.3125 21.5396 11.6564 21.8275 12.0773 21.8275L18.7956 21.8296C19.2181 21.8296 19.7538 22.0554 20.0015 22.399L24.0879 28.0375C24.3308 28.3775 24.8724 28.659 25.2938 28.659H28.5624C28.9801 28.659 29.1257 28.3775 28.8781 28.0422L23.4236 20.518C23.1743 20.1796 23.1743 19.6285 23.4236 19.2864L28.8781 11.7596Z" fill="white"/>
<path fill-rule="evenodd" clip-rule="evenodd" d="M50.7614 19.635C51.0032 19.635 51.0749 19.4387 51.0749 19.295V19.1671C51.0749 18.9276 51.0324 18.2213 50.5605 17.6418C50.0338 17.0044 49.2616 16.9923 48.6052 16.9923C47.8495 16.9923 47.0347 17.0334 46.5064 17.8944C46.2078 18.3913 46.1642 18.9155 46.1498 19.635H50.7614ZM47.9637 23.7918C47.335 23.7918 46.5793 23.6534 45.9638 22.875C45.3787 22.1244 45.3516 21.2202 45.3516 20.1008C45.3516 19.0418 45.4084 17.796 46.3635 16.9923C47.0496 16.4265 47.9775 16.3281 48.7333 16.3281C49.2616 16.3281 50.046 16.3981 50.662 16.7497C51.3311 17.1455 51.8743 17.9244 51.8743 19.1271C51.8743 19.4234 51.8318 19.8323 51.5607 20.0729C51.3311 20.2855 50.975 20.2981 50.7614 20.2981H46.1498C46.136 20.735 46.1642 21.4297 46.2774 21.8265C46.4358 22.4329 46.9927 23.1292 47.9637 23.1292H51.675V23.7918H47.9637Z" fill="black"/>
<path fill-rule="evenodd" clip-rule="evenodd" d="M57.9739 23.789L54.9041 20.9901C54.6607 20.779 54.3323 20.3527 54.3323 19.9148C54.3323 19.4769 54.6193 19.1243 54.9169 18.8406L57.6582 16.2943H58.6579L55.3729 19.349C55.2469 19.4622 55.1024 19.6454 55.1024 19.8848C55.1024 20.1827 55.3468 20.438 55.518 20.5933L59.0012 23.789H57.9739ZM53.0195 23.789H53.7625V13.8906H53.0195V23.789Z" fill="black"/>
<path fill-rule="evenodd" clip-rule="evenodd" d="M61.1559 22.8578C61.1984 22.9562 61.2399 23.0841 61.3127 23.0841C61.4115 23.0841 61.4407 22.9141 61.4551 22.8709L63.0686 16.832C63.2265 16.3109 63.5241 16.2109 63.7526 16.2109C63.9806 16.2109 64.282 16.3109 64.4388 16.832L66.0518 22.8709C66.0656 22.9141 66.0948 23.0841 66.1958 23.0841C66.2649 23.0841 66.3101 22.9562 66.3515 22.8578L68.0512 16.3109H68.7931L66.9367 23.2525C66.8373 23.5762 66.68 23.8736 66.2085 23.8736C65.6654 23.8736 65.481 23.4478 65.4385 23.2383L63.868 17.3851C63.8536 17.2841 63.8106 17.1288 63.7526 17.1288C63.6963 17.1288 63.6538 17.2841 63.6394 17.3851L62.0689 23.2383C61.9977 23.4478 61.8691 23.8736 61.2978 23.8736C60.8269 23.8736 60.6691 23.5762 60.5691 23.2525L58.7148 16.3109H59.4573L61.1559 22.8578Z" fill="black"/>
<path fill-rule="evenodd" clip-rule="evenodd" d="M70.1097 22.5422C70.1097 22.6996 70.0948 22.8833 70.1936 22.9954C70.2941 23.1096 70.5088 23.1248 70.6358 23.1248H72.3641C72.9498 23.1248 73.9484 23.0827 74.4773 22.1354C74.8046 21.5822 74.8046 20.9312 74.8046 20.3517C74.8046 18.8538 74.5921 18.2454 74.4921 18.0348C74.0632 17.0712 73.1364 16.9606 72.4215 16.9606H70.1097V22.5422ZM70.8936 23.788C70.4524 23.788 69.9943 23.7759 69.7233 23.5617C69.3943 23.2948 69.3672 22.8833 69.3672 22.6143V13.8906H70.1097V16.2933H72.4784C73.2634 16.2933 74.4347 16.4496 75.0778 17.5248C75.4913 18.2175 75.5769 19.1633 75.5769 20.1401C75.5769 21.029 75.4913 21.879 75.09 22.5564C74.4496 23.6338 73.3213 23.788 72.5209 23.788H70.8936Z" fill="black"/>
</g>
<defs>
<clipPath id="clip0_3791_2975">
<rect width="76" height="40" fill="white"/>
</clipPath>
</defs>
</svg>
