<svg xmlns="http://www.w3.org/2000/svg" width="60" height="60" viewBox="0 0 60 60" fill="none">
<circle cx="30" cy="30" r="30" fill="url(#paint0_linear_3791_3134)"/>
<path d="M31.1286 40.19L29.4986 36.36C31.0686 35.78 32.5386 35 33.8986 34.09L31.1286 40.19ZM23.6386 30.5L19.8086 28.87L25.9086 26.1C24.9986 27.46 24.2186 28.93 23.6386 30.5ZM37.2186 22C37.4986 22 37.7486 22 37.9586 22.05C38.1286 23.44 37.9386 26.3 34.6586 29.58C32.9586 31.29 30.9286 32.6 28.6486 33.47L26.4986 31.37C27.4186 29.06 28.7286 27.03 30.4186 25.34C33.1786 22.58 35.6386 22 37.2186 22ZM37.2186 20C35.2386 20 32.2386 20.69 28.9986 23.93C26.8086 26.12 25.4986 28.53 24.6486 30.64C24.3686 31.39 24.5586 32.21 25.1086 32.77L27.2386 34.89C27.6186 35.27 28.1286 35.5 28.6586 35.5C28.8886 35.5 29.1286 35.44 29.3586 35.35C31.4986 34.53 33.8786 33.19 36.0686 31C41.7286 25.34 39.6086 20.39 39.6086 20.39C39.6086 20.39 38.6986 20 37.2186 20ZM32.5386 27.46C31.7586 26.68 31.7586 25.41 32.5386 24.63C33.3186 23.85 34.5886 23.85 35.3686 24.63C36.1386 25.41 36.1486 26.68 35.3686 27.46C34.5886 28.24 33.3186 28.24 32.5386 27.46ZM24.2386 40L27.8786 36.36C27.5386 36.27 27.2086 36.12 26.9086 35.91L22.8286 40H24.2386ZM19.9986 40H21.4086L26.1786 35.24L24.7586 33.83L19.9986 38.59V40ZM19.9986 37.17L24.0886 33.09C23.8786 32.79 23.7286 32.47 23.6386 32.12L19.9986 35.76V37.17Z" fill="white"/>
<defs>
<linearGradient id="paint0_linear_3791_3134" x1="60" y1="60" x2="1.78814e-06" y2="-1.78814e-06" gradientUnits="userSpaceOnUse">
<stop offset="2.77791e-10" stop-color="#00E673"/>
<stop offset="0.25" stop-color="#00DA6D"/>
<stop offset="0.5" stop-color="#00CF67"/>
<stop offset="0.75" stop-color="#00C864"/>
<stop offset="1" stop-color="#00BF60"/>
</linearGradient>
</defs>
</svg>