<svg xmlns="http://www.w3.org/2000/svg" xmlns:xlink="http://www.w3.org/1999/xlink" xmlns:serif="http://www.serif.com/" width="100%" height="100%" viewBox="0 0 60 60" version="1.1" xml:space="preserve" style="fill-rule:evenodd;clip-rule:evenodd;stroke-linejoin:round;stroke-miterlimit:2;">
    <circle cx="30" cy="30" r="30" style="fill:white;"/>
    <path d="M31.129,40.19L29.499,36.36C31.069,35.78 32.539,35 33.899,34.09L31.129,40.19ZM23.639,30.5L19.809,28.87L25.909,26.1C24.999,27.46 24.219,28.93 23.639,30.5ZM37.219,22C37.499,22 37.749,22 37.959,22.05C38.129,23.44 37.939,26.3 34.659,29.58C32.959,31.29 30.929,32.6 28.649,33.47L26.499,31.37C27.419,29.06 28.729,27.03 30.419,25.34C33.179,22.58 35.639,22 37.219,22ZM37.219,20C35.239,20 32.239,20.69 28.999,23.93C26.809,26.12 25.499,28.53 24.649,30.64C24.369,31.39 24.559,32.21 25.109,32.77L27.239,34.89C27.619,35.27 28.129,35.5 28.659,35.5C28.889,35.5 29.129,35.44 29.359,35.35C31.499,34.53 33.879,33.19 36.069,31C41.729,25.34 39.609,20.39 39.609,20.39C39.609,20.39 38.699,20 37.219,20ZM32.539,27.46C31.759,26.68 31.759,25.41 32.539,24.63C33.319,23.85 34.589,23.85 35.369,24.63C36.139,25.41 36.149,26.68 35.369,27.46C34.589,28.24 33.319,28.24 32.539,27.46ZM24.239,40L27.879,36.36C27.539,36.27 27.209,36.12 26.909,35.91L22.829,40L24.239,40ZM19.999,40L21.409,40L26.179,35.24L24.759,33.83L19.999,38.59L19.999,40ZM19.999,37.17L24.089,33.09C23.879,32.79 23.729,32.47 23.639,32.12L19.999,35.76L19.999,37.17Z" style="fill:rgb(0,203,101);fill-rule:nonzero;"/>
</svg>