<svg width="164" height="16" viewBox="0 0 164 16" fill="none" xmlns="http://www.w3.org/2000/svg">
<g id="logo_henry-schein">
<path id="Vector" fill-rule="evenodd" clip-rule="evenodd" d="M34.5421 12.9394C34.5421 13.7685 34.6063 14.3427 34.7329 14.5968C34.8603 14.7893 35.1795 14.9159 35.6894 14.9159L36.7093 14.9792V15.6167C35.5611 15.6167 34.5421 15.5534 33.5222 15.5534C32.439 15.5534 31.4182 15.6167 30.2708 15.6167V14.9792L31.354 14.9159C31.864 14.9159 32.1189 14.7884 32.2473 14.5968C32.4381 14.3427 32.4381 13.7694 32.4381 12.9394V8.03165C32.1831 8.03165 31.609 7.96835 30.6533 7.96835H25.4896C24.5339 7.96835 23.9598 8.03165 23.6407 8.03165V12.9394C23.6407 13.7685 23.7048 14.3427 23.8965 14.5968C24.024 14.7893 24.279 14.9159 24.7889 14.9159L25.8721 14.9792V15.6167C24.7247 15.6167 23.6407 15.5534 22.6849 15.5534C21.6009 15.5534 20.5177 15.6167 19.4336 15.6167V14.9792L20.4535 14.9159C20.9634 14.9159 21.2817 14.7884 21.4092 14.5968C21.5367 14.3427 21.6 13.7694 21.6 12.9394V3.05879C21.6 2.23057 21.5367 1.65644 21.4092 1.40147C21.2817 1.2098 20.9634 1.08319 20.4535 1.08319L19.4336 1.01901V0.381579C20.5168 0.381579 21.6009 0.444881 22.6849 0.444881C23.6407 0.444881 24.7247 0.381579 25.8721 0.381579V1.01901L24.7889 1.08319C24.279 1.08319 24.024 1.21068 23.8965 1.40147C23.7048 1.65644 23.6407 2.22969 23.6407 3.05879V7.01176H32.4381V3.05879C32.4381 2.23057 32.4381 1.65644 32.2473 1.40147C32.1189 1.2098 31.864 1.08319 31.354 1.08319L30.2708 1.01901V0.381579C31.4182 0.381579 32.4381 0.444881 33.5222 0.444881C34.5421 0.444881 35.562 0.381579 36.7093 0.381579V1.01901L35.6894 1.08319C35.1795 1.08319 34.8603 1.21068 34.7329 1.40147C34.6054 1.65644 34.5421 2.22969 34.5421 3.05879V12.9394ZM39.0674 5.54522C39.0674 4.90691 39.0674 4.46115 38.9399 4.27036C38.8124 4.07869 38.6216 4.01538 38.175 4.01538L37.3468 3.9512V3.37795C37.8567 3.37795 38.3025 3.44125 38.8124 3.44125H40.3423C41.8721 3.44125 43.4661 3.37795 44.486 3.37795C45.2509 3.37795 46.0792 3.44125 46.7175 3.44125C46.5258 4.20617 46.4616 5.22607 46.4616 6.11847H45.8242V4.9711C45.8242 4.77943 45.8242 4.58863 45.6967 4.52445C44.741 4.14199 43.3386 4.14199 42.2546 4.14199C41.7446 4.14199 41.2347 4.14199 40.7247 4.27036V8.98824C41.298 8.98824 41.9354 9.05154 42.7645 9.05154C43.8486 9.05154 44.486 8.98824 44.6768 8.85899C44.7401 8.79569 44.8043 8.6049 44.8043 8.41235L44.8685 7.45664H45.4426C45.3784 8.22156 45.3784 8.85899 45.3784 9.4973C45.3784 10.1347 45.3784 10.8346 45.4426 11.472H44.8685L44.8043 10.4521C44.8043 10.198 44.741 10.0706 44.6768 10.0073C44.4851 9.8147 43.8486 9.7514 42.7645 9.7514C41.9363 9.7514 41.2989 9.7514 40.7247 9.8147V14.7243C41.2249 14.8504 41.7387 14.9145 42.2546 14.915C43.6569 14.915 45.4417 14.8517 45.76 14.6592C46.0783 14.5317 46.27 13.7677 46.3974 12.6845H47.0349C46.8312 13.6271 46.7246 14.5881 46.7166 15.5525C45.9508 15.6158 44.5493 15.68 43.2736 15.6158C41.9354 15.6158 40.5331 15.5525 39.449 15.5525C38.7474 15.5525 38.1741 15.6158 37.5367 15.6158V15.1058L38.1741 15.0425C38.6208 15.0425 38.8116 14.9792 38.939 14.7884C39.0665 14.5959 39.0665 14.1492 39.0665 13.4494L39.0674 5.54522ZM49.458 5.54522C49.458 4.90691 49.458 4.46115 49.3305 4.27036C49.203 4.07869 49.0114 4.01538 48.5656 4.01538L47.8007 3.9512V3.37795C48.5656 3.44125 49.2663 3.44125 49.9038 3.44125C50.2229 3.44125 50.5412 3.44125 50.8595 3.37795L59.2736 13.7685H59.3369V5.54522C59.3369 4.90691 59.2736 4.46115 59.1461 4.27036C59.0828 4.07869 58.8278 4.01538 58.4454 4.01538L57.6163 3.9512V3.37795C58.3179 3.44125 59.0828 3.44125 59.656 3.44125C60.3568 3.44125 60.9942 3.44125 61.8233 3.37795V3.9512L60.9942 4.01538C60.6118 4.01538 60.3568 4.07869 60.2935 4.27036C60.166 4.46115 60.1018 4.90779 60.1018 5.54522V15.2984C60.1018 15.4892 60.166 15.7433 60.166 15.9358L58.572 15.68L50.2853 5.35355V13.4494C50.2853 14.1501 50.2853 14.5968 50.4128 14.7884C50.5403 14.9792 50.732 15.0425 51.1777 15.0425L51.9427 15.1058V15.6158C51.1777 15.6158 50.5403 15.5525 49.8396 15.5525C49.2021 15.5525 48.5005 15.6158 47.7998 15.6158V15.1058L48.5647 15.0425C49.0105 15.0425 49.2021 14.9792 49.3296 14.7884C49.4571 14.5959 49.4571 14.1492 49.4571 13.4494L49.458 5.54522ZM65.713 13.4494C65.713 14.1501 65.713 14.5968 65.8405 14.7884C65.968 14.9792 66.1587 15.0425 66.6054 15.0425L67.4336 15.1058V15.6158C66.5412 15.6158 65.7121 15.5525 64.8839 15.5525C64.0556 15.5525 63.2266 15.6158 62.2708 15.6158V15.1058L63.1632 15.0425C63.5457 15.0425 63.7374 14.9792 63.8649 14.7884C63.9923 14.5959 64.0557 14.1492 64.0557 13.4494V5.54522C64.0557 4.90691 63.9923 4.46115 63.8649 4.27036C63.7365 4.07869 63.5457 4.01538 63.1632 4.01538L62.3983 3.9512V3.37795C63.354 3.44125 64.3748 3.44125 65.3938 3.44125C66.4137 3.44125 67.4336 3.44125 68.4535 3.37795C71.3224 3.37795 72.0231 4.78031 72.0231 6.05517C72.0231 7.96835 70.3025 9.11485 68.581 9.43312L72.5973 14.6601C72.8522 14.9792 73.2347 15.0434 73.6805 15.1067V15.6167C73.2347 15.6167 72.788 15.5534 72.4056 15.5534C72.0222 15.5534 71.6407 15.6167 71.1949 15.6167C71.0032 15.2993 70.6841 14.9792 70.4933 14.6601L67.2419 10.3255C66.987 9.94219 66.6045 9.6248 66.3495 9.24234L66.4128 9.05154C66.9228 9.05154 67.4327 9.05154 68.006 8.98824C69.2167 8.73239 70.3007 7.7758 70.3007 6.50181C70.3007 4.58951 68.8351 4.07957 67.496 4.07957C66.7311 4.07957 66.2212 4.14287 65.7112 4.27123V13.4494H65.713ZM78.8441 9.56149L80.6931 6.6926C81.3947 5.60941 81.9688 4.52533 82.6054 3.37795H84.0086V3.63292C82.4788 5.35443 80.3748 8.28575 79.6732 9.87977C79.4182 10.3264 79.4182 10.773 79.4182 11.2188V13.4494C79.4182 14.1501 79.4182 14.5968 79.5457 14.7884C79.6732 14.9792 79.864 15.0425 80.3106 15.0425L81.1397 15.1058V15.6158C80.2464 15.6158 79.4182 15.5525 78.59 15.5525C77.7618 15.5525 76.9327 15.6158 75.9761 15.6158V15.1058L76.8694 15.0425C77.2518 15.0425 77.4426 14.9792 77.5701 14.7884C77.6985 14.5959 77.7618 14.1492 77.7618 13.4494V10.963C77.7618 10.7089 77.6985 10.453 77.5701 10.2622L75.4028 6.43763C74.5104 4.90779 73.5538 4.20617 73.1714 4.20617L72.6614 4.14199V3.63204L74.637 3.18629C75.0204 3.1221 75.2754 3.50456 75.5936 3.82372L76.3585 4.9711L78.8441 9.56149ZM96.6298 4.01538L96.5014 2.74052C96.4381 2.16727 96.3739 1.9756 95.5448 1.46566C94.9074 1.0832 94.0168 0.892405 93.1235 0.892405C91.5936 0.892405 89.873 1.9756 89.873 4.14287C89.873 5.60941 90.7645 6.56511 93.5068 6.82009C96.6307 7.20255 98.6054 7.96835 98.6054 10.453C98.6054 14.2152 95.2274 16 91.9137 16C90.3838 16 88.9173 15.5534 88.1533 15.1709C88.344 14.0235 88.344 12.877 88.344 11.7929H89.0448L89.2373 13.3228C89.3006 14.2161 91.0854 15.0434 92.8061 15.0434C94.7825 15.0434 96.759 13.8327 96.759 11.6655C96.759 9.56149 95.1017 8.98824 92.8694 8.73239C89.4281 8.34905 88.0249 7.26673 88.0249 4.97197C88.0249 1.52984 91.0213 0 93.6985 0C95.4191 0 96.7582 0.574129 97.6514 0.892405C97.4589 2.03978 97.3323 2.99637 97.3323 4.01627H96.6298V4.01538ZM110.079 14.9792C109.059 15.6167 107.339 15.9358 106.255 15.9358C102.048 15.9358 99.1778 13.5127 99.1778 9.56149C99.1778 7.52083 100.007 5.92768 101.345 4.7803C102.621 3.69711 104.469 3.12298 106.445 3.12298C108.039 3.12298 109.633 3.50632 110.462 3.82459C110.333 4.65282 110.142 5.60941 110.142 6.50181H109.633V5.22695C109.633 4.71612 108.869 4.46203 108.103 4.14287C107.464 3.93933 106.798 3.83207 106.128 3.82459C102.812 3.82459 101.091 6.24684 101.091 9.24321C101.091 12.7495 103.385 14.9801 106.828 14.9801C108.102 14.9801 109.632 14.5335 110.398 13.9602L110.589 14.0877L110.079 14.9792ZM123.594 13.4494C123.594 14.1501 123.594 14.5968 123.721 14.7884C123.849 14.9792 124.039 15.0425 124.485 15.0425L125.314 15.1058V15.6158C124.421 15.6158 123.594 15.5525 122.765 15.5525C121.871 15.5525 121.044 15.6158 120.151 15.6158V15.1058L120.98 15.0425C121.425 15.0425 121.617 14.9792 121.744 14.7884C121.871 14.5959 121.871 14.1492 121.871 13.4494V9.56149C121.68 9.56149 121.234 9.49818 120.47 9.49818H116.326C115.56 9.49818 115.05 9.56149 114.859 9.56149V13.4494C114.859 14.1501 114.923 14.5968 115.05 14.7884C115.115 14.9792 115.306 15.0425 115.753 15.0425L116.58 15.1058V15.6158C115.689 15.6158 114.859 15.5525 114.03 15.5525C113.203 15.5525 112.373 15.6158 111.416 15.6158V15.1058L112.31 15.0425C112.693 15.0425 112.947 14.9792 113.01 14.7884C113.139 14.5959 113.203 14.1492 113.203 13.4494V5.54522C113.203 4.90691 113.14 4.46115 113.01 4.27036C112.947 4.07869 112.693 4.01538 112.31 4.01538L111.416 3.9512V3.37795C112.373 3.44125 113.202 3.44125 114.03 3.44125C114.859 3.44125 115.689 3.44125 116.58 3.37795V3.9512L115.753 4.01538C115.306 4.01538 115.115 4.07869 115.05 4.27036C114.923 4.46115 114.859 4.90779 114.859 5.54522V8.73239H121.871V5.54522C121.871 4.90691 121.871 4.46115 121.744 4.27036C121.616 4.07869 121.425 4.01538 120.98 4.01538L120.151 3.9512V3.37795C121.044 3.44125 121.871 3.44125 122.765 3.44125C123.594 3.44125 124.422 3.44125 125.314 3.37795V3.9512L124.485 4.01538C124.039 4.01538 123.848 4.07869 123.721 4.27036C123.594 4.46115 123.594 4.90779 123.594 5.54522V13.4494ZM127.608 5.54522C127.608 4.90691 127.608 4.46115 127.481 4.27036C127.353 4.07869 127.161 4.01538 126.717 4.01538L125.888 3.9512V3.37795C126.397 3.37795 126.844 3.44125 127.354 3.44125H128.819C130.349 3.44125 132.008 3.37795 133.026 3.37795C133.792 3.37795 134.556 3.44125 135.258 3.44125C135.066 4.20617 135.002 5.22607 135.002 6.11847H134.365V4.9711C134.365 4.77943 134.365 4.58863 134.237 4.52445C133.281 4.14199 131.878 4.14199 130.794 4.14199C130.284 4.14199 129.775 4.14199 129.265 4.27036V8.98824C129.838 8.98824 130.477 9.05154 131.304 9.05154C132.388 9.05154 133.025 8.98824 133.218 8.85899C133.281 8.79569 133.345 8.6049 133.345 8.41235L133.408 7.45664H133.918V11.472H133.408L133.345 10.4521C133.345 10.198 133.282 10.0706 133.218 10.0073C133.025 9.8147 132.388 9.7514 131.304 9.7514C130.477 9.7514 129.838 9.7514 129.265 9.8147V14.7243C129.765 14.8504 130.279 14.9145 130.794 14.915C132.198 14.915 133.982 14.8517 134.301 14.6592C134.555 14.5317 134.811 13.7677 134.938 12.6845H135.576C135.372 13.6271 135.266 14.5881 135.258 15.5525C134.492 15.6158 133.089 15.68 131.815 15.6158C130.478 15.6158 129.075 15.5525 127.991 15.5525C127.29 15.5525 126.717 15.6158 126.077 15.6158V15.1058L126.717 15.0425C127.161 15.0425 127.354 14.9792 127.481 14.7884C127.608 14.5959 127.608 14.1492 127.608 13.4494V5.54522ZM139.847 13.4494C139.847 14.1501 139.847 14.5968 139.975 14.7884C140.103 14.9792 140.293 15.0425 140.739 15.0425L141.568 15.1058V15.6158C140.675 15.6158 139.846 15.5525 139.019 15.5525C138.125 15.5525 137.296 15.6158 136.405 15.6158V15.1058L137.232 15.0425C137.679 15.0425 137.871 14.9792 137.998 14.7884C138.125 14.5959 138.125 14.1492 138.125 13.4494V5.54522C138.125 4.90691 138.125 4.46115 137.998 4.27036C137.87 4.07869 137.679 4.01538 137.232 4.01538L136.405 3.9512V3.37795C137.296 3.44125 138.125 3.44125 139.019 3.44125C139.846 3.44125 140.676 3.44125 141.568 3.37795V3.9512L140.739 4.01538C140.293 4.01538 140.102 4.07869 139.975 4.27036C139.847 4.46115 139.847 4.90779 139.847 5.54522V13.4494ZM143.737 5.54522C143.737 4.90691 143.673 4.46115 143.544 4.27036C143.481 4.07869 143.227 4.01538 142.843 4.01538L142.016 3.9512V3.37795C142.843 3.44125 143.544 3.44125 144.181 3.44125C144.501 3.44125 144.756 3.44125 145.075 3.37795L153.489 13.7685H153.552V5.54522C153.552 4.90691 153.552 4.46115 153.425 4.27036C153.297 4.07869 153.105 4.01538 152.661 4.01538L151.895 3.9512V3.37795C152.597 3.44125 153.298 3.44125 153.935 3.44125C154.635 3.44125 155.274 3.44125 156.039 3.37795V3.9512L155.274 4.01538C154.828 4.01538 154.635 4.07869 154.509 4.27036C154.381 4.46115 154.381 4.90779 154.381 5.54522V15.2984C154.381 15.4892 154.381 15.7433 154.445 15.9358L152.851 15.68L144.564 5.35355H144.501V13.4494C144.501 14.1501 144.564 14.5968 144.691 14.7884C144.756 14.9792 145.01 15.0425 145.394 15.0425L146.221 15.1058V15.6158C145.394 15.6158 144.756 15.5525 144.054 15.5525C143.481 15.5525 142.717 15.6158 142.016 15.6158V15.1058L142.843 15.0425C143.227 15.0425 143.481 14.9792 143.544 14.7884C143.672 14.5959 143.737 14.1492 143.737 13.4494V5.54522ZM160.056 3.18716C161.649 3.18716 162.924 4.39784 162.924 5.92768C162.924 7.52082 161.65 8.73239 160.056 8.73239C159.695 8.7352 159.337 8.66621 159.003 8.52945C158.669 8.39268 158.366 8.19088 158.111 7.93576C157.855 7.68065 157.654 7.37733 157.517 7.04345C157.38 6.70958 157.311 6.35182 157.313 5.99098C157.313 4.39784 158.525 3.18716 160.056 3.18716ZM160.056 2.80382C158.333 2.80382 156.932 4.20617 156.932 5.99098C156.933 6.81913 157.262 7.61302 157.848 8.19861C158.434 8.78419 159.228 9.11368 160.056 9.11485C161.84 9.11485 163.306 7.71161 163.306 5.92768C163.306 4.20617 161.84 2.80382 160.056 2.80382ZM158.589 4.07869V4.27036H158.78C158.907 4.27036 159.036 4.27036 159.036 4.52533V7.20254C159.036 7.45752 158.972 7.45752 158.78 7.45752H158.652V7.58589H159.99V7.45752H159.799C159.545 7.45752 159.545 7.33003 159.545 7.13924V5.99186H159.672C159.863 5.99186 160.119 5.99187 160.246 6.12023C160.373 6.24772 160.565 6.63018 160.629 6.82097C160.692 7.01264 160.82 7.39422 161.011 7.52171C161.139 7.64919 161.33 7.58589 161.52 7.58589H161.776V7.45752C161.584 7.45752 161.52 7.45752 161.393 7.33004C161.33 7.26673 161.202 6.94757 161.139 6.82009C161.011 6.50181 160.756 5.92768 160.373 5.92768C160.883 5.8635 161.33 5.54522 161.33 4.97197C161.33 4.20706 160.566 4.07957 159.991 4.07957L158.589 4.07869ZM159.546 4.65282C159.546 4.46203 159.482 4.27036 159.8 4.27036H160.056C160.501 4.27036 160.883 4.52533 160.883 5.03528C160.883 5.67271 160.31 5.79932 159.8 5.79932H159.546V4.65282Z" fill="black"/>
<path id="Vector_2" fill-rule="evenodd" clip-rule="evenodd" d="M16.82 1.21086V0.0634766H0.693359V12.3022C2.98812 12.3022 5.41036 10.8357 7.89679 7.01105C10.3182 3.12228 13.952 1.21086 16.82 1.21086Z" fill="#C9322D"/>
<path id="Vector_3" fill-rule="evenodd" clip-rule="evenodd" d="M0.693359 14.5327V15.6801H16.8208V3.44141C14.5894 3.44141 12.1038 4.90707 9.6816 8.79585C7.19517 12.6204 3.62555 14.5327 0.693359 14.5327Z" fill="#0167B0"/>
</g>
</svg>
