<svg width="58" height="30" viewBox="0 0 58 30" fill="none" xmlns="http://www.w3.org/2000/svg">
<g id="logo_hyva">
<path id="Vector" d="M22.9005 20.8578L20.0171 10.8555H16.0039L20.225 23.7068H21.4921L19.3541 30.0001H23.438L29.9069 10.8555H25.8662L22.9005 20.8578Z" fill="#0A23B9"/>
<path id="Vector_2" d="M40.4962 10.8555L37.3774 19.5463L34.2743 10.8555H30.2886L35.3257 23.4304H39.433L44.4663 10.8555H40.4962Z" fill="#0A23B9"/>
<path id="Vector_3" d="M54.3477 11.6892C53.3566 11.0058 52.1946 10.607 50.9897 10.5366C49.7848 10.4663 48.5837 10.7271 47.5185 11.2905C46.4534 11.8538 45.5657 12.6978 44.953 13.7295C44.3403 14.7612 44.0265 15.9407 44.046 17.138C44.0293 18.0002 44.186 18.8572 44.5068 19.6587C44.8277 20.4603 45.3064 21.1904 45.9148 21.8063C46.5233 22.4223 47.2493 22.9118 48.0507 23.2463C48.8519 23.5807 49.7124 23.7535 50.5816 23.7544C51.9296 23.7685 53.2477 23.3598 54.3477 22.5868V23.4352H58V10.8525H54.3477V11.6892ZM54.1123 18.9283C53.7235 19.5372 53.146 20.0045 52.4664 20.2598C51.7869 20.515 51.0422 20.5445 50.3444 20.3437C49.6466 20.1428 49.0333 19.7226 48.5969 19.1463C48.1606 18.5699 47.9246 17.8685 47.9246 17.1477C47.9246 16.4269 48.1606 15.7255 48.5969 15.1492C49.0333 14.5728 49.6466 14.1526 50.3444 13.9518C51.0422 13.751 51.7869 13.7804 52.4664 14.0357C53.146 14.2909 53.7235 14.7582 54.1123 15.3671V18.9283Z" fill="#0A23B9"/>
<path id="Vector_4" d="M9.91332 10.5268C8.50374 10.5342 7.13947 11.022 6.04923 11.9085V4H1.23966L0 7.66624H2.35378V23.4288H6.22968V15.4658C6.54291 14.9804 6.973 14.58 7.48118 14.3007C7.98936 14.0215 8.5596 13.8721 9.14053 13.8662C10.796 13.8662 12.0082 14.8236 12.0082 17.3689V23.4288H15.8684V17.3534C15.8684 12.4417 12.9458 10.5268 9.91332 10.5268Z" fill="#0A23B9"/>
<path id="Vector_5" d="M52.3477 4H48.0952L46.8555 7.66624H51.1041L52.3477 4Z" fill="#0A23B9"/>
<path id="Vector_6" d="M57.9993 4H53.7468L52.5071 7.66624H56.7557L57.9993 4Z" fill="#0A23B9"/>
</g>
</svg>
