<svg xmlns="http://www.w3.org/2000/svg" width="104" height="36" viewBox="0 0 104 36" fill="none">
<g id="logo-directus">
<g id="logo">
<g id="vector">
<path d="M28.4136 20.8833C28.2485 20.8415 28.111 20.7997 27.9872 20.744C27.8993 20.7044 27.8253 20.6578 27.7601 20.6042C27.7102 20.5631 27.6891 20.4974 27.6951 20.4325C27.7274 20.0859 27.7257 19.7594 27.724 19.4336C27.7223 19.1057 27.7205 18.7785 27.7534 18.4322C27.9559 16.3616 28.9555 16.2979 30.0942 16.2252C30.5027 16.1992 30.929 16.172 31.3429 16.0507C32.2345 15.7963 33.1261 15.2982 33.4627 14.3228C33.5249 14.1427 33.4717 13.946 33.3472 13.8029C32.3253 12.6297 31.195 11.5925 29.9676 10.7028C25.838 7.72544 20.4747 6.48406 15.5435 7.19591C15.3354 7.22596 15.2263 7.45932 15.3409 7.63777C15.9465 8.58016 16.7352 9.35715 17.6376 9.93877C17.8274 10.0611 17.7497 10.3179 17.5311 10.2639C17.0839 10.1535 16.5315 9.95107 16.0089 9.58001C15.9487 9.53724 15.8713 9.52646 15.803 9.55405L15.7976 9.5562C15.5586 9.65273 15.2254 9.7873 14.9406 9.91083C14.7488 9.99401 14.7098 10.2439 14.8682 10.3813C17.3268 12.5151 20.8759 12.8499 23.6797 11.1674C23.8725 11.0517 24.1857 11.2987 24.1262 11.5175C24.043 11.8232 23.9481 12.229 23.8477 12.764C23.1463 16.3571 21.1247 16.0785 18.6217 15.1733C16.6135 14.4363 14.9543 14.2479 13.5241 14.0855C11.4089 13.8453 9.79496 13.6621 8.29508 11.8446C8.09859 11.6065 7.75528 11.5224 7.5282 11.7307C7.03184 12.1859 6.73952 12.8362 6.73952 13.53C6.73952 14.3668 7.16261 15.0846 7.79155 15.5184C7.87972 15.5792 7.99751 15.5535 8.06396 15.469C8.19099 15.3076 8.29979 15.1915 8.42374 15.1102C8.60593 14.991 8.70273 15.2636 8.54534 15.4148C8.08526 15.8569 7.92087 16.3887 7.62205 17.3554L7.56465 17.5409C7.45255 17.9013 7.373 18.2634 7.29564 18.6156C6.99333 19.9919 6.72433 21.2165 4.67661 21.5935C3.57146 21.6501 3.3815 22.2755 3.08435 23.2539C3.01543 23.4808 2.94074 23.7267 2.84752 23.989C2.29748 25.5981 1.58449 26.3491 0.303004 27.6989L0.165212 27.8441C-0.0464589 28.0673 -0.0657005 28.4256 0.171545 28.6206C0.714952 29.0673 1.27474 29.0865 1.84358 28.8494C2.9234 28.3912 3.81866 27.2165 4.63861 26.1406C4.91516 25.7777 5.18314 25.4261 5.44675 25.117C6.05727 24.4042 7.11423 24.2232 8.28649 24.0225C9.35872 23.8389 10.5274 23.6388 11.5391 23.0001C12.6407 22.3162 13.3181 21.4492 13.1682 20.1712C13.1395 19.9268 13.4139 19.7849 13.5056 20.0129C13.6413 20.3506 13.7325 20.7065 13.7747 21.0728C13.7889 21.1959 13.8977 21.287 14.0199 21.281C15.3204 21.2171 16.8356 22.0115 18.408 22.836C19.5845 23.4529 20.7931 24.0866 21.9679 24.3901C22.1546 24.4384 22.2884 24.2198 22.1842 24.0556C22.0218 23.7997 21.883 23.535 21.7711 23.2647C21.6708 23.021 21.5904 22.7832 21.5285 22.552C21.4642 22.3116 21.8123 22.2416 21.9383 22.4554C22.6715 23.6997 24.0597 24.8377 25.9656 24.9777C26.6394 25.0335 27.3821 24.9499 28.1523 24.7131C28.2881 24.6721 28.4225 24.6292 28.556 24.5865C29.3286 24.3399 30.0764 24.1012 30.944 24.2675C31.7004 24.4067 32.4018 24.7967 32.8419 25.4512C33.4544 26.3558 34.742 26.601 35.4408 25.6745C35.5482 25.5322 35.557 25.339 35.4868 25.1746C34.1694 22.0838 31.1388 21.4586 29.2505 21.0691C28.9353 21.004 28.6518 20.9456 28.4136 20.8833Z" fill="#001941"/>
<path fill-rule="evenodd" clip-rule="evenodd" d="M49.5539 12.9779C49.6026 12.7063 49.8251 12.5015 50.0967 12.4782L51.909 12.3226C51.9572 12.3185 52.0054 12.3308 52.0459 12.3576C52.119 12.4058 52.1564 12.4936 52.141 12.5805L50.2825 23.0682C50.2309 23.3595 49.9807 23.5714 49.6886 23.5714H48.3334C48.2078 23.5714 48.1126 23.4568 48.134 23.3315C48.167 23.1382 47.9297 23.0031 47.771 23.1155C47.1528 23.5537 46.4724 23.7728 45.7301 23.7728C44.7011 23.7728 43.8499 23.3995 43.1763 22.653C42.4974 21.9064 42.1579 20.9959 42.1579 19.9217C42.1579 18.5467 42.5769 17.4027 43.415 16.4896C44.2529 15.5765 45.319 15.12 46.6132 15.12C47.3692 15.12 48.0116 15.314 48.5402 15.702C48.7421 15.8501 49.0559 15.7545 49.1005 15.5062L49.5539 12.9779ZM46.4143 21.6217C47.0508 21.6217 47.5732 21.3907 47.9816 20.9288C48.3794 20.4669 48.5783 19.9003 48.5783 19.2288C48.5783 18.6434 48.4165 18.1708 48.093 17.8109C47.7695 17.4511 47.3452 17.2711 46.82 17.2711C46.1783 17.2711 45.6585 17.5021 45.2607 17.964C44.8576 18.4205 44.6561 18.9871 44.6561 19.664C44.6561 20.244 44.8205 20.7167 45.1493 21.0819C45.4728 21.4417 45.8945 21.6217 46.4143 21.6217Z" fill="#001941"/>
<path d="M53.9058 13.5972C54.1816 13.8658 54.5077 14 54.8844 14C55.367 14 55.7807 13.8281 56.1255 13.4844C56.4755 13.146 56.6505 12.7351 56.6505 12.2517C56.6505 11.8811 56.5153 11.5535 56.2448 11.2688C55.9743 10.9895 55.6534 10.8499 55.2821 10.8499C54.7942 10.8499 54.3778 11.0218 54.033 11.3655C53.6777 11.7093 53.5 12.1255 53.5 12.6143C53.5 13.001 53.6352 13.3287 53.9058 13.5972Z" fill="#001941"/>
<path d="M54.0381 23.5713C54.33 23.5713 54.58 23.3598 54.6319 23.0689L55.8857 16.0411C55.9526 15.6662 55.668 15.3213 55.2918 15.3213H54.0047C53.7126 15.3213 53.4624 15.5332 53.4107 15.8243L52.1637 22.8521C52.0972 23.2269 52.3817 23.5713 52.7577 23.5713H54.0381Z" fill="#001941"/>
<path d="M63.4163 15.3603C63.4778 15.386 63.5255 15.4369 63.5502 15.4996C63.5768 15.5658 63.575 15.64 63.5454 15.7048L62.8025 17.3464C62.7778 17.402 62.7349 17.4474 62.6812 17.4756C62.5992 17.5188 62.5014 17.5149 62.4175 17.4747C62.1604 17.3513 61.878 17.2941 61.5702 17.3033C60.9022 17.3033 60.3874 17.5772 60.0271 18.125C59.8945 18.3345 59.7513 18.8233 59.5974 19.5913L59.0003 23.065C58.95 23.3577 58.6991 23.5713 58.4058 23.5713H57.1128C56.7368 23.5713 56.4523 23.2269 56.5188 22.8521L57.7659 15.8243C57.8175 15.5332 58.0677 15.3213 58.3598 15.3213H59.5072C59.7333 15.3213 59.9049 15.5273 59.867 15.7529C59.8354 15.941 60.0906 16.0641 60.2317 15.9374C60.3591 15.8226 60.49 15.722 60.624 15.6356C61.1225 15.3025 61.6553 15.1307 62.2226 15.1199C62.6342 15.1199 63.0318 15.2 63.4163 15.3603Z" fill="#001941"/>
<path fill-rule="evenodd" clip-rule="evenodd" d="M70.6934 16.3848C70.0356 15.5415 69.0567 15.1199 67.7575 15.1199C66.8239 15.1199 65.9646 15.3562 65.1795 15.8289C64.4903 16.2264 63.9442 16.7581 63.541 17.4241C63.1271 18.0955 62.9044 18.8421 62.8724 19.6639C62.7927 20.8616 63.1271 21.8445 63.8748 22.6126C64.6176 23.386 65.591 23.7727 66.7949 23.7727C68.2203 23.7622 69.4188 23.2788 70.3898 22.3225C70.4272 22.2862 70.4514 22.2385 70.4598 22.187C70.4713 22.1146 70.4514 22.0404 70.4043 21.9843L69.6252 21.0509C69.586 21.004 69.5287 20.9771 69.4683 20.9771C69.417 20.9771 69.3675 20.9967 69.3289 21.0308C68.6862 21.602 67.9608 21.8875 67.1528 21.8875C66.5801 21.8875 66.116 21.7264 65.7606 21.4041C65.5216 21.1909 65.3714 20.9154 65.3092 20.5776C65.2513 20.2622 65.5289 20.0103 65.8457 20.0103H70.7446C70.9957 20.0103 71.2286 19.854 71.2872 19.6063C71.3017 19.5453 71.3131 19.4866 71.3216 19.4302C71.5605 18.2432 71.3511 17.2281 70.6934 16.3848ZM66.3357 18.5198C65.9308 18.5198 65.6387 18.1154 65.871 17.7795C65.9809 17.6211 66.1082 17.4785 66.2536 17.3516C66.6091 17.0669 67.0333 16.9246 67.527 16.9246C68.0785 16.9192 68.4865 17.0992 68.752 17.4644C68.8606 17.6093 68.9397 17.7695 68.9886 17.9452C69.0761 18.2581 68.7942 18.5198 68.4732 18.5198H66.3357Z" fill="#001941"/>
<path d="M76.0664 23.7727C74.8999 23.7727 73.9476 23.3994 73.2108 22.6529C72.4679 21.9117 72.0968 20.9529 72.0968 19.7766C72.0968 19.0086 72.264 18.2996 72.5977 17.6497C72.932 16.9944 73.3991 16.4546 73.9983 16.0303C74.8679 15.4234 75.8359 15.1199 76.9022 15.1199C78.3077 15.1199 79.3855 15.5931 80.1368 16.5394C80.1797 16.5937 80.1929 16.6659 80.1748 16.7331C80.1628 16.779 80.1362 16.8197 80.0994 16.8494L78.639 18.0298C78.601 18.0601 78.5545 18.0767 78.5062 18.0767C78.4381 18.0767 78.3747 18.043 78.3324 17.9889C77.9565 17.5103 77.4502 17.271 76.8147 17.271C76.1992 17.271 75.6899 17.4617 75.2867 17.8431C74.8203 18.2942 74.5867 18.8904 74.5867 19.6316C74.5867 20.2332 74.7569 20.7139 75.096 21.0738C75.4304 21.439 75.8781 21.6216 76.4406 21.6216C77.0235 21.6216 77.5407 21.406 77.9927 20.9748C78.0337 20.9357 78.0874 20.9126 78.1436 20.9126C78.2039 20.9126 78.2618 20.9387 78.3023 20.9842L79.3342 22.1502C79.3807 22.203 79.4012 22.2747 79.3891 22.3447C79.3807 22.3931 79.3577 22.4378 79.3221 22.4715C78.4103 23.339 77.3253 23.7727 76.0664 23.7727Z" fill="#001941"/>
<path d="M86.3524 17.1985C86.645 17.1985 86.8961 16.9855 86.9468 16.6933L87.0602 16.0383C87.1254 15.6642 86.8412 15.3213 86.4658 15.3213H85.5769C85.2003 15.3213 84.9161 14.976 84.9831 14.6009L85.2896 12.8946C85.3053 12.8077 85.2679 12.7199 85.1949 12.6717C85.1545 12.6449 85.1062 12.6327 85.0579 12.6369L83.2783 12.7917C83.0067 12.8154 82.784 13.0212 82.7364 13.2935L82.4684 14.8173C82.4171 15.1089 82.1667 15.3213 81.874 15.3213H81.4703C81.177 15.3213 80.9266 15.5344 80.8759 15.8265L80.7582 16.5027C80.6954 16.8658 80.9712 17.1985 81.3351 17.1985C81.7008 17.1985 81.9766 17.5341 81.9108 17.8983L81.4009 20.7193C81.2313 21.7344 81.3961 22.4944 81.8945 22.9993C82.393 23.5149 83.0822 23.7728 83.9626 23.7728C84.6934 23.7728 85.35 23.5735 85.9323 23.1751C85.977 23.1447 86.0132 23.1036 86.0392 23.0563C86.085 22.9733 86.0971 22.8753 86.073 22.7834L85.7235 21.4662C85.7121 21.4211 85.6837 21.3824 85.6445 21.3578C85.5805 21.3178 85.4991 21.3227 85.4363 21.3646C85.1961 21.5252 84.9439 21.6055 84.6789 21.6055C84.0423 21.6055 83.793 21.2269 83.9312 20.4695L84.4225 17.7015C84.4744 17.4104 84.7242 17.1985 85.0163 17.1985H86.3524Z" fill="#001941"/>
<path d="M92.7432 20.1875L93.5132 15.8249C93.5651 15.5335 93.8149 15.3213 94.1076 15.3213H95.3797C95.7551 15.3213 96.0399 15.6653 95.9735 16.0399L94.7334 23.0677C94.6821 23.3591 94.4317 23.5713 94.1396 23.5713H92.8095C92.6798 23.5713 92.5814 23.4522 92.6044 23.3227C92.6394 23.1247 92.3992 22.9847 92.2357 23.0992C91.5948 23.5482 90.9098 23.7727 90.1814 23.7727C89.205 23.7727 88.4682 23.4478 87.9697 22.7979C87.4707 22.148 87.312 21.2833 87.4924 20.2037L88.2703 15.8243C88.3216 15.5331 88.572 15.3213 88.8641 15.3213H90.1597C90.5357 15.3213 90.8205 15.6657 90.7535 16.0405L90.0378 20.0747C89.9636 20.542 90.0197 20.9153 90.205 21.1946C90.3909 21.4685 90.6823 21.6055 91.08 21.6055C91.637 21.6055 92.0721 21.396 92.3853 20.9771C92.5495 20.7944 92.6689 20.5313 92.7432 20.1875Z" fill="#001941"/>
<path d="M97.4172 23.3619C98.0436 23.6465 98.7594 23.7889 99.5656 23.7889C100.653 23.7889 101.53 23.5311 102.199 23.0154C102.867 22.5052 103.201 21.815 103.201 20.9449C103.201 20.3863 103.042 19.9217 102.724 19.5511C102.406 19.1751 101.918 18.8367 101.26 18.5359C101.165 18.4983 101.045 18.45 100.902 18.3909C100.791 18.3479 100.669 18.2996 100.536 18.2459C100.409 18.1868 100.332 18.1519 100.305 18.1412C100.152 18.0767 100.011 17.9908 99.8836 17.8834C99.7828 17.8028 99.7328 17.7034 99.7328 17.5853C99.7328 17.3973 99.8172 17.2469 99.9874 17.1341C100.157 17.0159 100.385 16.9569 100.672 16.9569C101 16.9569 101.329 17.032 101.658 17.1824C101.954 17.3175 102.206 17.5003 102.416 17.7308C102.461 17.7805 102.524 17.8108 102.591 17.8108C102.646 17.8108 102.699 17.7904 102.74 17.7534L103.915 16.7013C103.958 16.6633 103.987 16.6119 103.996 16.5554C104.007 16.4924 103.994 16.4272 103.957 16.3753C103.686 15.995 103.283 15.692 102.748 15.4664C102.165 15.2247 101.528 15.1038 100.838 15.1038C99.7828 15.1038 98.932 15.3589 98.2844 15.8692C97.6375 16.3794 97.3141 17.0374 97.3141 17.8431C97.3141 18.5359 97.5844 19.0757 98.1257 19.4625C98.3961 19.6505 98.6477 19.8009 98.8813 19.9136C99.1359 20.0318 99.4359 20.15 99.7804 20.2681C99.95 20.3326 100.125 20.4077 100.305 20.4937C100.444 20.5635 100.56 20.6575 100.655 20.7757C100.756 20.8885 100.807 21.012 100.807 21.1463C100.807 21.3719 100.714 21.5491 100.528 21.678C100.348 21.8069 100.094 21.8714 99.7647 21.8714C99.3453 21.8714 98.9265 21.7667 98.5077 21.5572C98.1269 21.3695 97.8469 21.1558 97.6671 20.9163C97.6285 20.8652 97.5699 20.8321 97.5066 20.8321C97.4595 20.8321 97.4142 20.8501 97.3798 20.8826L96.1584 22.0309C96.1186 22.0686 96.0914 22.1184 96.0818 22.1729C96.0709 22.2331 96.0812 22.2956 96.1144 22.3469C96.3799 22.7611 96.8144 23.0994 97.4172 23.3619Z" fill="#001941"/>
</g>
</g>
</g>
</svg>