<svg xmlns="http://www.w3.org/2000/svg" width="97" height="36" viewBox="0 0 97 36" fill="none">
<g id="logo-wunderkind">
<g id="logo">
<path id="vector" d="M46.8051 23.4512C46.1522 23.1033 45.6153 22.5742 45.26 21.9284C44.8856 21.2285 44.6982 20.4449 44.7158 19.6525C44.6995 18.8624 44.8959 18.0824 45.2846 17.3928C45.6583 16.7443 46.2143 16.218 46.8844 15.8782C47.6227 15.5101 48.4403 15.3266 49.2663 15.3436C49.9966 15.3264 50.7191 15.4967 51.3638 15.8379C51.9511 16.1588 52.4313 16.643 52.7453 17.2311C53.081 17.874 53.2487 18.5903 53.2331 19.3143H48.2179V18.8422H50.4053C50.4114 18.0711 50.2991 17.3035 50.0722 16.5659C49.8717 15.9991 49.5928 15.7156 49.2354 15.7154C48.8341 15.7154 48.5009 15.9962 48.2357 16.5578C47.8832 17.47 47.7094 18.4407 47.7237 19.4177C47.7237 20.5122 47.937 21.5761 48.3658 22.1862C48.5613 22.4786 48.8291 22.7163 49.1435 22.8765C49.458 23.0368 49.8086 23.1142 50.1618 23.1013C50.4999 23.108 50.8354 23.0421 51.1454 22.908C51.4554 22.7739 51.7325 22.5749 51.9579 22.3246C52.1375 22.1307 52.2897 21.9133 52.4101 21.6784L52.8196 21.9666C52.6379 22.3627 52.378 22.7186 52.0553 23.0131C51.2394 23.7004 50.1895 24.0514 49.1212 23.9939C48.3153 24.011 47.5183 23.8243 46.8051 23.4512ZM88.1627 23.4357C87.6066 23.0608 87.1674 22.5386 86.895 21.9284C86.895 21.9252 86.8928 21.9217 86.8911 21.9185C86.89 21.9167 86.889 21.9148 86.8882 21.9129C86.5772 21.2058 86.4241 20.4402 86.4392 19.6688C86.4232 18.8873 86.5929 18.1131 86.9348 17.4091C87.2426 16.7805 87.7248 16.2522 88.3245 15.8863C88.9478 15.5172 89.6628 15.3292 90.3882 15.3436C90.839 15.3303 91.2835 15.4516 91.6642 15.6917C91.8502 15.8158 92.0145 15.9693 92.1505 16.1461V16.6147C91.8439 16.3845 91.4715 16.2573 91.0872 16.2514C90.5895 16.2514 90.1913 16.5645 89.8926 17.1909C89.5643 17.9752 89.4118 18.8211 89.4458 19.6698C89.419 20.451 89.5535 21.2293 89.8407 21.957C90.134 22.5463 90.4433 22.8009 91.0079 22.8009C91.3783 22.8009 91.9098 22.3955 92.191 22.1551V22.6229C92.191 22.6229 91.4053 23.9798 89.9264 23.9798C89.2941 23.9974 88.6738 23.806 88.1627 23.4357ZM36.3317 23.4357C35.7756 23.0608 35.3364 22.5386 35.064 21.9284C35.064 21.9252 35.0615 21.9217 35.0601 21.9185C35.0589 21.9167 35.0578 21.9149 35.0569 21.9129C34.7458 21.2058 34.5925 20.4402 34.6075 19.6688C34.5916 18.8873 34.7615 18.1131 35.1035 17.4091C35.4113 16.7805 35.8934 16.2522 36.4931 15.8863C37.1165 15.5172 37.8316 15.3291 38.5572 15.3436C39.008 15.3303 39.4525 15.4516 39.8332 15.6917C40.0192 15.8158 40.1835 15.9693 40.3195 16.1461V16.6147C40.0129 16.3845 39.6405 16.2573 39.2562 16.2514C38.7585 16.2514 38.3603 16.5645 38.0617 17.1909C37.7333 17.9752 37.5808 18.8211 37.6148 19.6698C37.588 20.451 37.7225 21.2293 38.0098 21.957C38.303 22.5463 38.5757 22.8009 39.1403 22.8009C39.564 22.8009 40.0788 22.3955 40.36 22.1551V22.6229C40.36 22.6229 39.5744 23.9798 38.0954 23.9798C37.4632 23.9973 36.8427 23.8059 36.3317 23.4357ZM15.7832 23.2404C15.2981 22.664 15.0539 21.9248 15.1006 21.175V16.5744C15.1103 16.4834 15.1 16.3914 15.0706 16.3047C15.0411 16.218 14.9932 16.1386 14.93 16.072C14.7918 15.9663 14.6246 15.9047 14.4504 15.8955V15.5555H17.9451V21.3045C17.9191 21.6358 18.0049 21.9662 18.189 22.2437C18.2575 22.3672 18.359 22.4696 18.4823 22.5396C18.6056 22.6096 18.7459 22.6446 18.8879 22.6406C19.2939 22.6187 19.6766 22.4449 19.9587 22.154V22.6219C19.8048 22.8242 18.9896 23.978 17.7016 23.978C17.3472 23.9989 16.9924 23.9438 16.6614 23.8166C16.3303 23.6893 16.0311 23.4928 15.7832 23.2404ZM10.7374 23.8329L6.41408 13.4469C6.327 13.2137 6.18965 13.0022 6.01164 12.8273C5.94419 12.7549 5.86302 12.6965 5.77279 12.6554C5.68257 12.6142 5.58506 12.5912 5.48584 12.5875V12.2147H10.2852V12.5875C10.1 12.5849 9.92126 12.6548 9.78753 12.7821C9.67026 12.9101 9.60889 13.0791 9.61688 13.252C9.62137 13.3364 9.63411 13.4201 9.65492 13.502C9.70333 13.7133 9.77055 13.92 9.85578 14.1195L12.494 20.4505L11.0859 23.8333L10.7374 23.8329ZM5.28925 23.8329L0.966235 13.4469C0.879383 13.2138 0.742412 13.0024 0.564863 12.8273C0.497367 12.755 0.416192 12.6966 0.325975 12.6554C0.235757 12.6143 0.138263 12.5912 0.0390625 12.5875L0.0390625 12.2147H3.6155L7.04725 20.4501L5.63942 23.8329H5.28925ZM76.4678 23.7881V23.4477C76.6422 23.4388 76.8097 23.3772 76.9478 23.2712C77.0111 23.2045 77.0591 23.1251 77.0887 23.0384C77.1182 22.9516 77.1284 22.8595 77.1188 22.7684V17.8066C77.1188 17.4392 76.9019 17.2554 76.4682 17.2551V16.9473L79.6977 15.2613H79.9902V22.767C79.977 22.8562 79.9832 22.9473 80.0082 23.034C80.0333 23.1207 80.0768 23.2011 80.1357 23.2698C80.2738 23.3758 80.4412 23.4374 80.6156 23.4463V23.7867L76.4678 23.7881ZM24.6369 23.7881V23.4477C24.8112 23.4388 24.9787 23.3772 25.1168 23.2712C25.1801 23.2045 25.2282 23.1251 25.2577 23.0384C25.2872 22.9516 25.2975 22.8595 25.2878 22.7684V17.8066C25.2878 17.4392 25.0709 17.2554 24.6372 17.2551V16.9473L27.8663 15.2613H28.16V22.767C28.1468 22.8562 28.1529 22.9473 28.178 23.034C28.203 23.1207 28.2465 23.2011 28.3054 23.2698C28.4435 23.3758 28.611 23.4374 28.7853 23.4463V23.7867L24.6369 23.7881ZM92.5302 23.7845V14.7596C92.5302 14.3924 92.3133 14.2087 91.8796 14.2085V13.9006L95.0838 12.2147H95.3764V22.7634C95.3667 22.8545 95.377 22.9466 95.4065 23.0334C95.4361 23.1202 95.4841 23.1996 95.5474 23.2662C95.6853 23.373 95.8528 23.4352 96.0273 23.4445V23.7849L92.5302 23.7845ZM71.7097 23.7845V23.4438C71.884 23.4349 72.0515 23.3733 72.1896 23.2673C72.2529 23.2006 72.3009 23.1212 72.3303 23.0344C72.3598 22.9476 72.37 22.8556 72.3603 22.7645V17.884C72.3603 17.5168 72.1434 17.3331 71.7097 17.3328V17.0249L74.9136 15.3387H75.2061V22.7634C75.1965 22.8545 75.2068 22.9466 75.2363 23.0334C75.2658 23.1202 75.3138 23.1996 75.3771 23.2662C75.5153 23.3723 75.6827 23.4339 75.8571 23.4428V23.7835L71.7097 23.7845ZM66.5253 23.7845V23.4438C66.9156 23.4332 67.1108 23.2928 67.1108 23.0226C67.103 22.8561 67.0526 22.6944 66.9643 22.5527L65.0695 19.2083L67.0134 17.5598C67.4689 17.171 67.6966 16.8415 67.6963 16.5712C67.6963 16.2002 67.526 15.9389 66.6152 15.8743V15.5502H70.7036V15.8732C70.3502 15.9052 70.0056 16.0009 69.6868 16.1557C69.3113 16.3309 68.9589 16.5515 68.6377 16.8124L67.4034 17.8504L70.2983 22.6974C70.4094 22.8813 70.5406 23.0525 70.6894 23.208C70.7917 23.3328 70.9363 23.4164 71.0961 23.4431V23.7838L66.5253 23.7845ZM61.1976 23.7845V23.4438C61.3719 23.4351 61.5392 23.3734 61.6772 23.2673C61.7405 23.2007 61.7885 23.1212 61.818 23.0345C61.8476 22.9477 61.8578 22.8556 61.8482 22.7645V14.7596C61.8482 14.3924 61.6313 14.2087 61.1976 14.2085V13.9006L64.4011 12.2147H64.694V22.7634C64.6844 22.8545 64.6947 22.9466 64.7242 23.0334C64.7537 23.1202 64.8017 23.1996 64.865 23.2662C65.0031 23.3725 65.1706 23.4341 65.345 23.4428V23.7835L61.1976 23.7845ZM53.9679 23.7845V23.4438C54.1423 23.4349 54.3097 23.3733 54.4479 23.2673C54.5111 23.2006 54.5591 23.1212 54.5885 23.0344C54.618 22.9476 54.6282 22.8556 54.6185 22.7645V17.8028C54.6185 17.4356 54.4016 17.2519 53.9679 17.2516V16.9437L57.197 15.2578H57.49V22.5873V22.7638C57.4776 22.8502 57.4887 22.9383 57.5222 23.019C57.5556 23.0997 57.6102 23.1701 57.6802 23.2228C57.9314 23.3533 58.208 23.4285 58.4911 23.4431V23.7838L53.9679 23.7845ZM40.6995 23.7845V14.7596C40.6995 14.3924 40.4827 14.2087 40.049 14.2085V13.9006L43.2525 12.2147H43.5454V22.7634C43.5357 22.8545 43.546 22.9466 43.5755 23.0334C43.6051 23.1202 43.6531 23.1996 43.7164 23.2662C43.8543 23.3724 44.0217 23.434 44.196 23.4428V23.7835L40.6995 23.7845ZM20.3402 23.7845V22.0015L20.3277 19.959V16.7365C20.3415 16.6222 20.3314 16.5063 20.2978 16.3961C20.2643 16.286 20.2081 16.1839 20.1329 16.0964C19.9482 15.964 19.7261 15.8931 19.4983 15.8937V15.5533H23.1739V22.7634C23.1642 22.8545 23.1744 22.9466 23.2039 23.0334C23.2333 23.1201 23.2813 23.1996 23.3446 23.2662C23.4827 23.3722 23.6502 23.4338 23.8245 23.4428V23.7831L20.3402 23.7845ZM81.7923 23.7845V23.4431C81.9666 23.4342 82.1339 23.3726 82.2719 23.2666C82.3351 23.2 82.3831 23.1206 82.4125 23.0339C82.442 22.9472 82.4522 22.8552 82.4426 22.7642V18.016C82.4641 17.6267 82.3829 17.2386 82.2069 16.8901C82.138 16.765 82.0353 16.6615 81.9103 16.5914C81.7854 16.5213 81.6432 16.4873 81.4997 16.4932C81.2729 16.5218 81.0548 16.5982 80.8601 16.7171C80.6653 16.8361 80.4983 16.995 80.3703 17.1831V16.7368C80.5004 16.4321 80.8861 15.3429 82.6864 15.3429C83.0409 15.3219 83.3959 15.3769 83.7271 15.5041C84.0583 15.6313 84.3581 15.8277 84.6062 16.0801C85.0911 16.6567 85.3354 17.3958 85.2888 18.1456V22.7627C85.2791 22.8537 85.2894 22.9458 85.3188 23.0325C85.3483 23.1192 85.3962 23.1986 85.4594 23.2652C85.5974 23.3712 85.7648 23.4328 85.939 23.4417V23.7821L81.7923 23.7845ZM29.9613 23.7845V23.4431C30.1356 23.4342 30.3029 23.3726 30.4409 23.2666C30.5041 23.2 30.5521 23.1206 30.5815 23.0339C30.611 22.9472 30.6212 22.8552 30.6116 22.7642V18.016C30.6332 17.6267 30.5519 17.2386 30.3759 16.8901C30.307 16.765 30.2043 16.6615 30.0793 16.5914C29.9544 16.5213 29.8122 16.4873 29.6688 16.4932C29.4419 16.5218 29.2239 16.5982 29.0291 16.7172C28.8343 16.8361 28.6673 16.995 28.5393 17.1831V16.7368C28.6694 16.4321 29.0551 15.3429 30.8555 15.3429C31.2097 15.3221 31.5643 15.3771 31.8952 15.5043C32.2261 15.6315 32.5256 15.8279 32.7734 16.0801C33.2589 16.6565 33.5035 17.3956 33.4571 18.1456V22.7627C33.4474 22.8537 33.4577 22.9458 33.4871 23.0325C33.5166 23.1192 33.5645 23.1986 33.6277 23.2652C33.7657 23.3712 33.9331 23.4328 34.1073 23.4417V23.7821L29.9613 23.7845ZM58.8701 17.402C58.7051 17.0917 58.5736 16.4664 58.3172 16.4664C58.2339 16.4651 58.1512 16.4811 58.0743 16.5133C57.9975 16.5456 57.9283 16.5933 57.8711 16.6535V16.3435C57.962 16.1875 58.0708 16.0425 58.1953 15.9113C58.3658 15.7326 58.5711 15.5901 58.7988 15.4925C59.0264 15.3949 59.2716 15.3442 59.5196 15.3436C59.9375 15.3264 60.3456 15.4718 60.6572 15.7489C60.8021 15.8829 60.9162 16.0463 60.9919 16.228C61.0676 16.4096 61.1031 16.6053 61.0959 16.8018C61.1023 16.9674 61.0746 17.1326 61.0145 17.2872C60.9544 17.4418 60.8632 17.5827 60.7464 17.7011C60.6332 17.8151 60.4976 17.9049 60.348 17.9647C60.1985 18.0246 60.0381 18.0534 59.8769 18.0492C59.6639 18.0491 59.4555 17.9878 59.2768 17.8727C59.0981 17.7576 58.9567 17.5937 58.8697 17.4006L58.8701 17.402ZM72.2629 13.5048C72.2639 13.2064 72.354 12.9149 72.5217 12.6673C72.6894 12.4196 72.9273 12.2269 73.2052 12.1134C73.4831 12 73.7887 11.9708 74.0833 12.0297C74.3779 12.0885 74.6483 12.2328 74.8604 12.4442C75.0725 12.6556 75.2168 12.9246 75.2751 13.2174C75.3333 13.5102 75.3029 13.8136 75.1876 14.0892C75.0724 14.3648 74.8775 14.6004 74.6276 14.7661C74.3777 14.9318 74.0839 15.0202 73.7834 15.0202C73.5834 15.0199 73.3853 14.9804 73.2007 14.9041C73.016 14.8277 72.8483 14.716 72.7071 14.5753C72.5659 14.4346 72.454 14.2676 72.3777 14.0839C72.3015 13.9003 72.2625 13.7035 72.2629 13.5048ZM11.6838 13.5048C11.6849 13.2064 11.7749 12.9149 11.9427 12.6673C12.1104 12.4196 12.3482 12.2269 12.6261 12.1134C12.9041 12 13.2096 11.9708 13.5042 12.0297C13.7988 12.0885 14.0693 12.2328 14.2814 12.4442C14.4935 12.6556 14.6378 12.9246 14.696 13.2174C14.7543 13.5102 14.7238 13.8136 14.6086 14.0892C14.4934 14.3648 14.2985 14.6004 14.0485 14.7661C13.7986 14.9318 13.5048 15.0202 13.2043 15.0202C12.8006 15.0192 12.4138 14.859 12.1289 14.5748C11.8441 14.2906 11.6845 13.9058 11.6852 13.5048H11.6838Z" fill="#001941"/>
</g>
</g>
</svg>