<svg xmlns="http://www.w3.org/2000/svg" width="87" height="36" viewBox="0 0 87 36" fill="none">
<g id="logo-adobe">
<g id="logo">
<path id="vector" fill-rule="evenodd" clip-rule="evenodd" d="M19.7136 6H4.24144C1.89848 6 0 7.95117 0 10.358V25.642C0 28.0488 1.89848 30 4.24144 30H19.7136C22.0566 30 23.9551 28.0488 23.9551 25.642V10.358C23.9551 7.95117 22.0566 6 19.7136 6ZM18.6231 23.8463H15.7817C15.6575 23.849 15.5352 23.8134 15.4326 23.7444C15.3912 23.7174 15.3534 23.6858 15.321 23.6502C15.2688 23.5953 15.2274 23.5308 15.1968 23.46L12.1089 16.0254L12.0981 15.997L12.0855 15.9763L12.0603 15.951L12.0441 15.9411L12.0207 15.9307L11.9937 15.9253L11.9775 15.9244C11.9649 15.9253 11.9523 15.9271 11.9415 15.9312C11.9199 15.937 11.9001 15.9488 11.884 15.9645C11.875 15.9731 11.866 15.983 11.8606 15.9934L11.8462 16.0222L9.92429 20.7553C9.91169 20.7805 9.90629 20.8084 9.90989 20.8364C9.91169 20.8639 9.92069 20.8909 9.93509 20.9144C9.95128 20.9378 9.97108 20.9563 9.99627 20.9689L10.0179 20.9788L10.0323 20.9829L10.0736 20.9869H12.1899C12.2529 20.9842 12.3176 21.0014 12.3734 21.0365C12.4292 21.0717 12.4742 21.123 12.5012 21.1839L13.4279 23.3032C13.4423 23.3392 13.4513 23.3767 13.4549 23.4154C13.4621 23.4781 13.4531 23.5416 13.4297 23.6011C13.3919 23.6971 13.32 23.7737 13.2264 23.8148C13.1796 23.8355 13.1274 23.8459 13.077 23.8463H5.36253C5.31755 23.8463 5.27076 23.8368 5.22757 23.8184C5.18438 23.8003 5.14659 23.7733 5.1142 23.7395L5.07641 23.6926C5.06562 23.6764 5.05662 23.6588 5.04942 23.6403L5.04042 23.6214C5.02963 23.5948 5.02243 23.5673 5.01883 23.5394C5.01523 23.5209 5.01523 23.502 5.01523 23.483C5.01523 23.4348 5.02423 23.387 5.04222 23.3428L9.94408 11.3528C9.99267 11.2279 10.0754 11.1202 10.1852 11.0445C10.2932 10.9683 10.421 10.9273 10.5523 10.9268H13.3901C13.5251 10.9255 13.6547 10.9656 13.7662 11.0413C13.876 11.1175 13.9624 11.2261 14.011 11.3528L18.947 23.3428C18.965 23.3866 18.974 23.4334 18.9758 23.4808C18.9758 23.5281 18.9668 23.5754 18.9506 23.6196L18.92 23.6809C18.9074 23.7016 18.8912 23.7206 18.8768 23.7377C18.8445 23.7719 18.8049 23.799 18.7617 23.8179C18.7185 23.8364 18.6699 23.8459 18.6231 23.8463Z" fill="#001941"/>
<g id="vector_2">
<path fill-rule="evenodd" clip-rule="evenodd" d="M53.1996 8H54.7007C54.7991 8 54.8237 8.01244 54.8237 8.09951V10.6494C55.1436 10.5624 55.4882 10.5126 55.8573 10.5126C57.6659 10.5126 58.8102 11.8062 58.8102 13.473C58.8102 15.799 56.9892 16.9434 55.119 16.9434C54.4669 16.9434 53.8148 16.8563 53.1873 16.6573C53.1504 16.6449 53.1135 16.5827 53.1135 16.5329V8.08707C53.1135 8.02488 53.1381 8 53.1996 8ZM57.063 13.6347C57.063 12.5028 56.4109 11.9804 55.5497 11.9804C55.217 11.9804 55.0424 12.0248 54.8998 12.0611C54.8736 12.0677 54.8485 12.0741 54.8237 12.0799V15.4508C54.9714 15.4881 55.1313 15.5005 55.279 15.5005C56.2141 15.5005 57.063 14.9283 57.063 13.6347Z" fill="#001941"/>
<path fill-rule="evenodd" clip-rule="evenodd" d="M61.1304 14.182H63.5297C64.1695 14.182 64.637 14.1571 64.797 14.1323C64.8585 14.1198 64.8831 14.0949 64.8954 14.0327C64.9323 13.8959 64.9569 13.585 64.9569 13.1994C64.9569 11.9679 64.2187 10.5126 62.3608 10.5126C60.4291 10.5126 59.3833 12.0799 59.3833 13.7964C59.3833 15.3388 60.1953 16.9434 62.5085 16.9434C63.3574 16.9434 63.8988 16.819 64.3909 16.5827C64.4525 16.5578 64.4771 16.5205 64.4771 16.4334V15.2517C64.4771 15.1771 64.4402 15.1647 64.4033 15.1895C63.9357 15.3886 63.4436 15.4756 62.8899 15.4756C61.6841 15.4756 61.192 14.891 61.1304 14.182ZM62.7299 12.9755H61.1181C61.192 12.4655 61.5242 11.8809 62.2993 11.8809C63.1114 11.8809 63.3451 12.565 63.3451 12.8635V12.9506C63.2959 12.963 63.1237 12.9755 62.7299 12.9755Z" fill="#001941"/>
<path d="M38.4623 26.3208V27.6019C38.4623 27.689 38.4377 27.7512 38.3639 27.7761C37.9578 27.9253 37.3427 28 36.6536 28C34.2667 28 32.4088 26.5695 32.4088 23.8455C32.4088 21.3204 34.1314 19.6039 36.8505 19.6039C37.6256 19.6039 38.1301 19.6661 38.45 19.8153C38.5115 19.8402 38.5361 19.89 38.5361 19.9646V21.3204C38.5361 21.4324 38.4746 21.4324 38.4254 21.4075C38.0194 21.2085 37.4411 21.1338 36.8259 21.1338C35.1772 21.1338 34.1683 22.1662 34.1683 23.7833C34.1683 25.7237 35.5709 26.4576 36.8628 26.4576C37.4657 26.4576 37.9209 26.4078 38.3639 26.2586C38.4254 26.2337 38.4623 26.2461 38.4623 26.3208Z" fill="#001941"/>
<path fill-rule="evenodd" clip-rule="evenodd" d="M44.968 24.7535C44.968 23.0743 43.9468 21.5692 41.9659 21.5692C40.0711 21.5692 38.9022 23.0245 38.9022 24.7908C38.9022 26.3954 39.8373 28 41.9413 28C43.713 28 44.968 26.7064 44.968 24.7535ZM40.6371 24.7659C40.6371 23.6589 41.1784 23.0121 41.8921 23.0121C42.8271 23.0121 43.2209 23.8206 43.2209 24.7908C43.2209 25.9352 42.6795 26.5571 41.9659 26.5571C41.1415 26.5571 40.6371 25.8605 40.6371 24.7659Z" fill="#001941"/>
<path d="M47.4255 27.8756H45.9367C45.8506 27.8756 45.826 27.8383 45.826 27.7637V23.037C45.826 22.6616 45.8014 22.2365 45.7857 21.9643L45.7855 21.9612L45.7854 21.9606C45.782 21.9007 45.779 21.8482 45.7767 21.8055C45.7644 21.7309 45.8013 21.6936 45.8752 21.6936H47.1794C47.2532 21.6936 47.2778 21.7185 47.327 21.7682C47.3639 21.8677 47.3885 22.0294 47.4008 22.2285C47.9791 21.7558 48.5328 21.5692 49.1726 21.5692C49.8862 21.5692 50.4153 21.8429 50.7475 22.3653C51.2766 21.9051 51.9287 21.5692 52.7407 21.5692C53.8112 21.5692 54.8447 22.1538 54.8447 24.0321V27.7637C54.8447 27.8383 54.8078 27.8756 54.7339 27.8756H53.2575C53.1714 27.8756 53.1344 27.8383 53.1344 27.7637V24.2062C53.1344 23.5594 52.913 23.0618 52.1993 23.0618C51.7933 23.0618 51.4119 23.236 51.1535 23.4599C51.1781 23.5967 51.1904 23.9201 51.1904 24.1565V27.7637C51.1904 27.8259 51.1658 27.8756 51.092 27.8756H49.6032C49.5294 27.8756 49.4802 27.8507 49.4802 27.7637V24.1565C49.4802 23.4101 49.1357 23.0743 48.5451 23.0743C48.176 23.0743 47.8684 23.1862 47.5362 23.4226V27.7761C47.5362 27.8383 47.5116 27.8756 47.4255 27.8756Z" fill="#001941"/>
<path d="M56.1442 27.8756H57.633C57.7191 27.8756 57.7437 27.8383 57.7437 27.7761V23.4226C58.0759 23.1862 58.3835 23.0743 58.7526 23.0743C59.3432 23.0743 59.6877 23.4101 59.6877 24.1565V27.7637C59.6877 27.8507 59.7369 27.8756 59.8107 27.8756H61.2995C61.3733 27.8756 61.3979 27.8259 61.3979 27.7637V24.1565C61.3979 23.9201 61.3856 23.5967 61.361 23.4599C61.6194 23.236 62.0008 23.0618 62.4069 23.0618C63.1205 23.0618 63.342 23.5594 63.342 24.2062V27.7637C63.342 27.8383 63.3789 27.8756 63.465 27.8756H64.9415C65.0153 27.8756 65.0522 27.8383 65.0522 27.7637V24.0321C65.0522 22.1538 64.0187 21.5692 62.9482 21.5692C62.1362 21.5692 61.4841 21.9051 60.955 22.3653C60.6228 21.8429 60.0937 21.5692 59.3801 21.5692C58.7403 21.5692 58.1866 21.7558 57.6084 22.2285C57.5961 22.0294 57.5714 21.8677 57.5345 21.7682C57.4853 21.7185 57.4607 21.6936 57.3869 21.6936H56.0827C56.0089 21.6936 55.9719 21.7309 55.9843 21.8055C55.9865 21.849 55.9896 21.9027 55.9932 21.964C56.0089 22.2362 56.0335 22.6616 56.0335 23.037V27.7637C56.0335 27.8383 56.0581 27.8756 56.1442 27.8756Z" fill="#001941"/>
<path fill-rule="evenodd" clip-rule="evenodd" d="M70.0541 25.2386H67.6548C67.7164 25.9476 68.2085 26.5322 69.4143 26.5322C69.968 26.5322 70.4601 26.4452 70.9277 26.2461C70.9646 26.2213 71.0015 26.2337 71.0015 26.3083V27.49C71.0015 27.5771 70.9769 27.6144 70.9154 27.6393C70.4232 27.8756 69.8818 28 69.0329 28C66.7197 28 65.9077 26.3954 65.9077 24.853C65.9077 23.1365 66.9535 21.5692 68.8852 21.5692C70.7431 21.5692 71.4813 23.0245 71.4813 24.256C71.4813 24.6416 71.4567 24.9525 71.4198 25.0894C71.4075 25.1515 71.3829 25.1764 71.3214 25.1889C71.1614 25.2137 70.6939 25.2386 70.0541 25.2386ZM67.6425 24.0321H69.2543C69.6481 24.0321 69.8203 24.0196 69.8695 24.0072V23.9201C69.8695 23.6216 69.6358 22.9375 68.8237 22.9375C68.0486 22.9375 67.7164 23.5221 67.6425 24.0321Z" fill="#001941"/>
<path d="M73.6801 21.6936H72.3389C72.2774 21.6936 72.2651 21.7185 72.2651 21.7807C72.3143 22.216 72.3266 22.9375 72.3266 23.4723V27.7637C72.3266 27.8383 72.3512 27.8756 72.4497 27.8756H73.9261C74.0123 27.8756 74.0369 27.8507 74.0369 27.7761L74.0492 23.8206C74.3076 23.5221 75.0212 23.2484 75.9071 23.2857C75.9932 23.2857 76.0178 23.2609 76.0178 23.1987V21.6687C76.0178 21.5941 75.9932 21.5692 75.9194 21.5692C75.0458 21.5692 74.3691 22.017 73.963 22.5021C73.9507 22.2285 73.8892 21.9672 73.8277 21.8055C73.8031 21.7309 73.7662 21.6936 73.6801 21.6936Z" fill="#001941"/>
<path d="M81.0012 26.4078V27.7015C81.0012 27.7637 80.9889 27.7885 80.9397 27.801C80.546 27.9627 80.0415 28 79.5617 28C77.5684 28 76.3135 26.6442 76.3135 24.8157C76.3135 22.9499 77.7038 21.5692 79.7954 21.5692C80.3983 21.5692 80.7305 21.6314 80.9274 21.706C80.9889 21.7309 81.0012 21.7682 81.0012 21.8429L80.9889 23.124C80.9889 23.2111 80.9397 23.2236 80.8905 23.2111C80.6567 23.124 80.3122 23.0618 79.857 23.0618C78.8234 23.0618 78.0729 23.634 78.0729 24.7535C78.0729 26.0471 79.0203 26.47 79.8816 26.47C80.3122 26.47 80.6936 26.4203 80.9028 26.3581C80.9766 26.3332 81.0012 26.3581 81.0012 26.4078Z" fill="#001941"/>
<path fill-rule="evenodd" clip-rule="evenodd" d="M85.5728 25.2386H83.1735C83.235 25.9476 83.7272 26.5322 84.933 26.5322C85.4866 26.5322 85.9788 26.4452 86.4463 26.2461C86.4832 26.2213 86.5202 26.2337 86.5202 26.3083V27.49C86.5202 27.5771 86.4955 27.6144 86.434 27.6393C85.9419 27.8756 85.4005 28 84.5515 28C82.2384 28 81.4264 26.3954 81.4264 24.853C81.4264 23.1365 82.4722 21.5692 84.4039 21.5692C86.2618 21.5692 87 23.0245 87 24.256C87 24.6416 86.9754 24.9525 86.9385 25.0894C86.9262 25.1515 86.9016 25.1764 86.8401 25.1889C86.6801 25.2137 86.2126 25.2386 85.5728 25.2386ZM83.1612 24.0321H84.773C85.1667 24.0321 85.339 24.0196 85.3882 24.0072V23.9201C85.3882 23.6216 85.1544 22.9375 84.3424 22.9375C83.5672 22.9375 83.235 23.5221 83.1612 24.0321Z" fill="#001941"/>
<path fill-rule="evenodd" clip-rule="evenodd" d="M52.2554 13.6969C52.2554 12.0177 51.2341 10.5126 49.2532 10.5126C47.3584 10.5126 46.1896 11.9679 46.1896 13.7342C46.1896 15.3388 47.1247 16.9434 49.2286 16.9434C51.0004 16.9434 52.2554 15.6498 52.2554 13.6969ZM47.9244 13.7093C47.9244 12.6023 48.4658 11.9555 49.1794 11.9555C50.1145 11.9555 50.5082 12.764 50.5082 13.7342C50.5082 14.8786 49.9668 15.5005 49.2532 15.5005C48.4289 15.5005 47.9244 14.8039 47.9244 13.7093Z" fill="#001941"/>
<path fill-rule="evenodd" clip-rule="evenodd" d="M42.8708 16.9434C41.0499 16.9434 39.6472 15.8986 39.6472 13.784C39.6472 12.0053 40.9637 10.5126 43.2153 10.5126C43.2839 10.5126 43.3644 10.5186 43.4694 10.5265C43.5151 10.5299 43.5654 10.5337 43.6214 10.5375V8.08707C43.6214 8.02488 43.6583 8 43.7075 8H45.2578C45.3193 8 45.3316 8.02488 45.3316 8.07463V15.4259C45.3316 15.712 45.3439 16.0851 45.3808 16.3339C45.3808 16.3961 45.3685 16.421 45.2947 16.4459C44.4457 16.8066 43.6337 16.9434 42.8708 16.9434ZM43.6214 15.3886V12.0177C43.4983 11.9679 43.3384 11.9555 43.1661 11.9555C42.2187 11.9555 41.4067 12.5401 41.4067 13.6969C41.4067 14.9283 42.108 15.4632 43.0431 15.4632C43.2522 15.4632 43.4491 15.4508 43.6214 15.3886Z" fill="#001941"/>
<path fill-rule="evenodd" clip-rule="evenodd" d="M34.2546 14.8786H37.0968L37.7243 16.7319C37.7489 16.7941 37.7858 16.819 37.8596 16.819H39.4591C39.5329 16.819 39.5452 16.7692 39.5206 16.707L36.7276 8.74629C36.7153 8.6841 36.6907 8.67166 36.6292 8.67166H34.6606C34.6237 8.67166 34.5868 8.70898 34.5868 8.75873C34.5622 9.2314 34.513 9.38066 34.4637 9.51749L32.003 16.6946C31.9907 16.7692 32.0153 16.819 32.1014 16.819H33.5286C33.6025 16.819 33.6394 16.7817 33.664 16.7195L34.2546 14.8786ZM36.6415 13.3237H34.6975C34.7288 13.2252 34.7613 13.1232 34.7946 13.0186C35.1017 12.0537 35.4796 10.8664 35.6572 10.1145H35.6695C35.8251 10.7023 36.0952 11.5656 36.3309 12.3194C36.4494 12.6981 36.5592 13.0492 36.6415 13.3237Z" fill="#001941"/>
</g>
</g>
</g>
</svg>