<svg xmlns="http://www.w3.org/2000/svg" xmlns:xlink="http://www.w3.org/1999/xlink" xmlns:serif="http://www.serif.com/" width="100%" height="100%" viewBox="0 0 81 19" version="1.1" xml:space="preserve" style="fill-rule:evenodd;clip-rule:evenodd;stroke-linejoin:round;stroke-miterlimit:2;">
    <g transform="matrix(0.999391,-0.0348995,0.0348995,0.999391,-0.424056,1.23931)">
        <clipPath id="_clip1">
            <path d="M80.828,3.18L80.288,18.65L0.337,15.858L0.877,0.388L80.828,3.18Z"/>
        </clipPath>
        <g clip-path="url(#_clip1)">
            <path d="M17.742,16.466L19.429,10.741L20.203,10.768L19.479,13.227L24.34,13.397L25.064,10.937L25.838,10.964L24.151,16.69L23.377,16.663L24.204,13.854L19.344,13.684L18.516,16.493L17.742,16.466Z" style="fill:rgb(0,105,63);fill-rule:nonzero;"/>
            <path d="M24.999,16.713L29.92,11.095L30.796,11.126L32.262,16.961L31.465,16.934L31.045,15.101L27.3,14.97L25.802,16.736L25.005,16.708L24.999,16.713ZM27.697,14.523L30.919,14.635L30.194,11.572L27.697,14.523Z" style="fill:rgb(0,105,63);fill-rule:nonzero;"/>
            <path d="M34.653,14.418L33.884,17.018L33.11,16.991L34.797,11.266L38.019,11.378C39.823,11.441 40.684,11.916 40.374,12.976C40.16,13.698 39.657,14.068 38.628,14.329C39.531,14.594 39.375,15.312 39.222,15.916C38.998,16.786 39.036,17.027 39.208,17.147L39.189,17.203L38.335,17.173C38.133,16.773 38.529,15.704 38.527,15.26C38.526,14.633 37.875,14.53 37.101,14.503L34.659,14.418L34.653,14.418ZM37.208,14.04C38.363,14.08 39.348,13.778 39.587,12.972C39.84,12.114 38.942,11.872 37.906,11.836L35.442,11.75L34.795,13.955L37.214,14.04L37.208,14.04Z" style="fill:rgb(0,105,63);fill-rule:nonzero;"/>
            <path d="M40.492,17.249L42.18,11.524L44.986,11.621C45.896,11.653 46.743,11.723 47.395,12.139C48.315,12.724 48.276,13.851 48.05,14.612C47.83,15.368 47.339,16.2 46.419,16.749C45.494,17.309 44.386,17.385 43.304,17.347L40.498,17.249L40.492,17.249ZM41.402,16.813L43.263,16.878C43.958,16.903 44.574,16.89 45.271,16.681C46.48,16.33 47.043,15.358 47.276,14.579C47.522,13.745 47.531,12.822 46.504,12.353C46.067,12.155 45.368,12.097 44.685,12.073L42.824,12.008L41.408,16.813L41.402,16.813Z" style="fill:rgb(0,105,63);fill-rule:nonzero;"/>
            <path d="M54.772,16.967L54.794,16.967L58.048,12.066L58.845,12.094L55.001,17.744L54.147,17.714L53.734,12.588L53.711,12.587L50.311,17.58L49.457,17.55L49.022,11.751L49.796,11.778L50.104,16.804L50.127,16.804L53.495,11.907L54.36,11.937L54.772,16.967Z" style="fill:rgb(0,105,63);fill-rule:nonzero;"/>
            <path d="M56.293,17.789L61.213,12.171L62.09,12.202L63.55,18.037L62.753,18.009L62.333,16.177L58.588,16.046L57.09,17.811L56.293,17.783L56.293,17.789ZM58.991,15.598L62.212,15.711L61.487,12.648L58.991,15.598Z" style="fill:rgb(0,105,63);fill-rule:nonzero;"/>
            <path d="M65.947,15.493L65.178,18.094L64.404,18.067L66.091,12.341L69.307,12.454C71.111,12.517 71.972,12.991 71.662,14.052C71.448,14.774 70.945,15.144 69.916,15.404C70.819,15.669 70.663,16.388 70.51,16.992C70.286,17.862 70.323,18.102 70.496,18.222L70.477,18.279L69.623,18.249C69.42,17.849 69.817,16.78 69.821,16.335C69.82,15.709 69.168,15.606 68.394,15.579L65.952,15.494L65.947,15.493ZM68.501,15.115C69.657,15.156 70.642,14.854 70.881,14.047C71.133,13.19 70.236,12.948 69.2,12.912L66.735,12.826L66.088,15.031L68.507,15.116L68.501,15.115Z" style="fill:rgb(0,105,63);fill-rule:nonzero;"/>
            <path d="M71.633,18.302L73.292,12.576L78.659,12.763L78.523,13.22L73.919,13.059L73.316,15.13L77.471,15.275L77.336,15.732L73.181,15.586L72.52,17.866L77.238,18.03L77.103,18.487L71.622,18.296L71.633,18.302Z" style="fill:rgb(0,105,63);fill-rule:nonzero;"/>
            <path d="M5.659,7.707L10.85,0.879L13.724,0.979L14.858,8.011L11.995,7.911L11.903,6.956L9.137,6.86L8.426,7.803L5.659,7.707ZM11.637,3.129L10.033,5.5L11.832,5.552L11.637,3.129Z" style="fill:rgb(244,129,32);fill-rule:nonzero;"/>
            <path d="M16.649,1.098L19.529,1.199L18.299,5.242C18.1,5.902 18.097,6.471 19.287,6.507C20.334,6.538 20.796,6.047 21.015,5.32L22.244,1.299L25.147,1.401L23.989,5.178C23.333,7.321 21.729,8.222 18.785,8.137C16.041,8.058 14.76,7.227 15.467,4.926L16.649,1.098Z" style="fill:rgb(244,129,32);fill-rule:nonzero;"/>
            <path d="M24.04,8.292L26.121,1.406L30.396,1.527C32.412,1.586 33.902,1.992 33.489,3.362C33.277,4.067 32.524,4.57 31.865,4.832C32.775,5.052 33.105,5.708 32.88,6.452C32.416,7.992 30.723,8.485 28.401,8.416L24.04,8.292ZM27.842,5.495L27.455,6.77L28.736,6.815C29.459,6.828 30.038,6.729 30.193,6.21C30.374,5.607 29.703,5.549 28.77,5.522L27.836,5.49L27.842,5.495ZM28.564,3.093L28.216,4.238L29.434,4.28C30.021,4.289 30.5,4.101 30.622,3.701C30.784,3.165 30.215,3.139 29.594,3.123L28.564,3.087L28.564,3.093Z" style="fill:rgb(244,129,32);fill-rule:nonzero;"/>
            <path d="M49.167,4.821C49.293,4.124 48.847,3.704 47.953,3.684C46.951,3.655 46.147,4.3 45.755,5.585C45.471,6.521 45.469,7.41 46.92,7.455C47.837,7.481 48.424,7 48.725,6.367L51.469,6.446C50.691,8.162 48.77,9.161 46.476,9.092C43.601,9.009 42.271,7.606 42.928,5.435C43.579,3.27 45.898,1.977 48.323,2.045C50.982,2.121 52.159,3.176 51.871,4.898L49.167,4.821Z" style="fill:rgb(244,129,32);fill-rule:nonzero;"/>
            <path d="M51.336,9.285L53.44,2.383L56.292,2.466L55.585,4.777L58.254,4.871L58.961,2.582L61.813,2.681L59.674,9.582L56.862,9.483L57.722,6.715L55.03,6.621L54.193,9.39L51.336,9.29L51.336,9.285Z" style="fill:rgb(244,129,32);fill-rule:nonzero;"/>
            <path d="M70.669,6.421C69.98,8.693 67.6,9.921 65.027,9.848C62.294,9.77 60.865,8.421 61.555,6.143C62.187,4.045 64.449,2.733 67.153,2.811C70.256,2.902 71.203,4.656 70.669,6.421ZM64.401,6.242C64.143,7.093 64.157,8.171 65.523,8.213C66.753,8.25 67.487,7.444 67.817,6.338C68.093,5.431 67.9,4.449 66.635,4.439C65.343,4.4 64.653,5.396 64.395,6.236L64.401,6.242Z" style="fill:rgb(244,129,32);fill-rule:nonzero;"/>
            <path d="M77.102,6.931L78.096,3.261L80.828,3.357L78.794,10.21L76.17,10.118L74.134,6.24L73.125,10.012L70.359,9.915L72.433,3.064L75.057,3.155L77.102,6.936L77.102,6.931Z" style="fill:rgb(244,129,32);fill-rule:nonzero;"/>
            <path d="M34.828,1.739L37.708,1.839L36.478,5.882C36.279,6.542 36.276,7.112 37.466,7.148C38.513,7.179 38.975,6.687 39.194,5.96L40.423,1.94L43.326,2.041L42.168,5.819C41.512,7.961 39.908,8.863 36.964,8.777C34.22,8.698 32.939,7.867 33.646,5.567L34.828,1.739Z" style="fill:rgb(244,129,32);fill-rule:nonzero;"/>
            <path d="M6.228,12.798C6.223,12.946 6.156,13.212 6.242,13.694C6.242,13.694 6.474,16.027 8.835,16.155C9.514,16.133 9.808,16.012 10.162,15.854C11.499,15.256 11.765,13.824 11.765,13.824L10.53,13.781C9.757,15.366 8.393,14.777 8.393,14.777L9.301,11.134C10.802,11.226 10.804,12.645 10.804,12.645L12.061,12.689C12.061,12.689 12.204,11.206 10.784,10.274C10.494,10.081 10.009,9.939 9.531,9.911C9.531,9.911 6.862,9.652 6.228,12.793L6.228,12.798Z" style="fill:rgb(224,30,55);fill-rule:nonzero;"/>
            <path d="M17.013,10.576L16.729,11.706L14.623,11.633L14.338,12.768L16.45,12.842L16.171,13.977L14.059,13.904L13.78,15.04L15.886,15.113L15.602,16.243L11.356,16.095L12.767,10.428L17.013,10.576Z" style="fill:rgb(224,30,55);fill-rule:nonzero;"/>
            <path d="M3.455,15.83L2.9,12.158L0.342,15.721L3.455,15.83Z" style="fill:rgb(224,30,55);fill-rule:nonzero;"/>
            <path d="M6.432,15.934L4.11,15.853L3.445,11.391L5.355,8.733L6.432,15.934Z" style="fill:rgb(224,30,55);fill-rule:nonzero;"/>
            <path d="M15.833,15.966C15.839,15.795 15.98,15.675 16.145,15.681C16.311,15.687 16.437,15.816 16.431,15.987C16.425,16.158 16.284,16.278 16.125,16.273C15.965,16.267 15.828,16.137 15.833,15.966ZM16.127,16.221C16.257,16.226 16.369,16.127 16.374,15.985C16.379,15.843 16.28,15.737 16.144,15.732C16.007,15.727 15.901,15.826 15.896,15.968C15.891,16.111 15.99,16.217 16.127,16.221ZM16.067,16.145L16.015,16.143L16.027,15.802L16.158,15.807C16.238,15.809 16.277,15.839 16.274,15.907C16.272,15.97 16.231,15.991 16.186,15.996L16.277,16.147L16.22,16.145L16.134,15.994L16.078,15.992L16.072,16.14L16.067,16.145ZM16.136,15.954C16.181,15.956 16.216,15.957 16.218,15.9C16.219,15.86 16.18,15.847 16.145,15.846L16.077,15.844L16.073,15.946L16.136,15.948L16.136,15.954Z" style="fill:rgb(224,30,55);fill-rule:nonzero;"/>
        </g>
    </g>
</svg>