<svg xmlns="http://www.w3.org/2000/svg" width="78" height="36" viewBox="0 0 78 36" fill="none">
<g id="logo-directus">
<g id="logo">
<g id="vector">
<path d="M3.36849 10L15.9225 25.8164V12.551H15.9214V10.0068H29.5077V12.551H18.6173V16.6439H27.3753V19.1881H18.6173V23.3916H29.5077V25.9358L12.6318 25.9357L2.69479 13.4048V25.929H0V10H3.36849Z" fill="#001941"/>
<path d="M65.4384 10.0068H51.8521V12.551H57.3539V25.9358H60.0489V12.551H65.4384V10.0068Z" fill="#001941"/>
<path d="M36.292 10.0132H32.7653L45.397 25.9422H48.934L42.6173 17.9832L48.9239 10.0253L45.397 10.0309L40.8516 15.7584L36.292 10.0132Z" fill="#001941"/>
<path d="M38.145 19.1637L39.9111 21.3915L36.2922 25.9545H32.7555L38.145 19.1637Z" fill="#001941"/>
<path d="M65.5387 25.6304C65.6792 25.7692 65.8471 25.8385 66.0445 25.8385C66.1722 25.8385 66.289 25.8057 66.3949 25.7418C66.5028 25.6797 66.5885 25.5939 66.656 25.4844C66.7217 25.3767 66.7546 25.2562 66.7566 25.1248C66.7546 24.9313 66.6835 24.7651 66.541 24.6264C66.4004 24.4877 66.2343 24.4183 66.0445 24.4183C65.8471 24.4183 65.6792 24.4877 65.5387 24.6264C65.3981 24.7651 65.3286 24.9313 65.3304 25.1248C65.3286 25.3237 65.3981 25.4917 65.5387 25.6304Z" fill="#001941"/>
<path d="M70.6441 19.128H71.8382V23.7958C71.8364 24.2247 71.745 24.5917 71.5662 24.9002C71.3854 25.2087 71.1352 25.4441 70.8139 25.6103C70.4944 25.7745 70.12 25.8585 69.6946 25.8585C69.3056 25.8585 68.957 25.7873 68.6465 25.6486C68.3361 25.5099 68.0896 25.3018 67.9089 25.0279C67.7262 24.7541 67.6367 24.4128 67.6367 24.0039H68.8328C68.8346 24.1828 68.8748 24.3379 68.9514 24.4675C69.028 24.5971 69.1339 24.6957 69.2691 24.7651C69.4059 24.8344 69.5631 24.8691 69.7401 24.8691C69.9319 24.8691 70.0963 24.829 70.2295 24.7468C70.3627 24.6665 70.4651 24.546 70.5364 24.3854C70.6056 24.2266 70.6423 24.0294 70.6441 23.7958V19.128Z" fill="#001941"/>
<path d="M76.3713 20.2926C76.594 20.4496 76.7219 20.6705 76.751 20.9534H77.9087C77.9032 20.5792 77.7973 20.2488 77.5946 19.9604C77.392 19.672 77.1125 19.4456 76.7566 19.2831C76.4004 19.1188 75.9878 19.0385 75.5167 19.0385C75.053 19.0385 74.6367 19.1188 74.2679 19.2831C73.9008 19.4456 73.6104 19.6738 73.3988 19.9677C73.185 20.2616 73.0791 20.6048 73.0791 20.9954C73.0791 21.4719 73.2362 21.8516 73.5538 22.1382C73.8697 22.4248 74.3025 22.6383 74.8485 22.7789L75.6044 22.9724C75.8417 23.0326 76.05 23.102 76.2288 23.1787C76.4059 23.2553 76.5447 23.3503 76.6451 23.4634C76.7437 23.5766 76.795 23.7208 76.7967 23.8943C76.795 24.0841 76.7383 24.2502 76.6251 24.3908C76.5136 24.5332 76.3584 24.6427 76.1613 24.7212C75.9623 24.7997 75.7323 24.8399 75.4711 24.8399C75.2209 24.8399 74.9946 24.8015 74.7919 24.7267C74.591 24.65 74.4266 24.5368 74.3007 24.3835C74.1766 24.2283 74.1035 24.0366 74.0871 23.8066H72.9038C72.9203 24.2466 73.0353 24.6208 73.2489 24.9275C73.4625 25.2342 73.7585 25.4678 74.1382 25.6266C74.5161 25.7873 74.9653 25.8676 75.4802 25.8676C76.0134 25.8676 76.4661 25.7836 76.8405 25.6193C77.2166 25.4532 77.5033 25.2232 77.7023 24.9293C77.9014 24.6336 78 24.2922 78 23.9034C78 23.615 77.9452 23.3649 77.8375 23.1513C77.7298 22.9377 77.5837 22.7552 77.3992 22.6036C77.2149 22.4521 77.0048 22.3262 76.773 22.2276C76.5412 22.1272 76.2983 22.0487 76.048 21.9903L75.4254 21.8351C75.2904 21.8023 75.1552 21.7621 75.0202 21.7146C74.8867 21.6672 74.7644 21.6088 74.6549 21.5376C74.5434 21.4682 74.4577 21.3824 74.3938 21.2802C74.3298 21.1798 74.297 21.0593 74.297 20.9206C74.3007 20.7544 74.3482 20.6066 74.4431 20.477C74.5381 20.3474 74.6769 20.2451 74.8558 20.1685C75.0348 20.0936 75.2502 20.0553 75.5002 20.0553C75.8564 20.0553 76.1466 20.1338 76.3713 20.2926Z" fill="#001941"/>
</g>
</g>
</g>
</svg>