<svg xmlns="http://www.w3.org/2000/svg" width="41" height="36" viewBox="0 0 41 36" fill="none">
<g id="logo-pwa">
<g id="logo">
<g id="vector">
<path d="M25.8867 25.17L31.959 10L27.9334 10.0003L23.7795 19.8035L20.8255 10.0003H17.7313L14.5598 19.8035L12.323 15.3361L10.2988 21.6175L12.3541 25.17H16.3159L19.182 16.3786L21.9144 25.17H25.8867Z" fill="#001941"/>
<path d="M29.4543 23.283L30.6099 20.3395H33.9466L32.3628 15.8744L34.3433 10.83L40.0156 26H35.8325L34.8633 23.283H29.4543Z" fill="#001941"/>
<path fill-rule="evenodd" clip-rule="evenodd" d="M6.31655 19.9638H3.83692V25.1716H0.015625V10.0017H6.24984C8.02224 10.0017 9.36871 10.5144 10.2889 11.5404C10.4644 11.7346 10.6202 11.941 10.7565 12.1588L8.3231 19.7105C7.73646 19.8794 7.06772 19.9638 6.31655 19.9638ZM7.65821 14.9543C7.65821 14.3437 7.47859 13.8559 7.11904 13.4914C6.75981 13.127 6.14688 12.9451 5.28056 12.9451H3.83692V17.0206H5.26998C6.19948 17.0206 6.83743 16.82 7.18415 16.4191C7.50008 16.0582 7.65821 15.57 7.65821 14.9543Z" fill="#001941"/>
</g>
</g>
</g>
</svg>