<svg xmlns="http://www.w3.org/2000/svg" width="46" height="36" viewBox="0 0 46 36" fill="none">
<g id="logo-aws">
<g id="logo">
<path id="vector" d="M12.9633 18.1693C12.9633 18.7455 13.0245 19.2127 13.1316 19.5553C13.254 19.8979 13.4069 20.2716 13.6211 20.6765C13.6976 20.8011 13.7282 20.9257 13.7282 21.0347C13.7282 21.1904 13.6364 21.3462 13.4375 21.5019L12.4737 22.156C12.336 22.2494 12.1983 22.2961 12.076 22.2961C11.923 22.2961 11.77 22.2183 11.617 22.0781C11.4028 21.8445 11.2192 21.5953 11.0662 21.3462C10.9133 21.0814 10.7603 20.7855 10.592 20.4274C9.39869 21.8601 7.89942 22.5765 6.09418 22.5765C4.80909 22.5765 3.78408 22.2027 3.03445 21.4552C2.28481 20.7077 1.90234 19.711 1.90234 18.4651C1.90234 17.1414 2.3613 16.0669 3.29452 15.2571C4.22774 14.4473 5.46693 14.0424 7.0427 14.0424C7.56285 14.0424 8.0983 14.0891 8.66435 14.167C9.2304 14.2448 9.81176 14.3694 10.4237 14.5096V13.3727C10.4237 12.1892 10.1789 11.3638 9.70466 10.881C9.21511 10.3983 8.38898 10.1647 7.21098 10.1647C6.67553 10.1647 6.12478 10.227 5.55873 10.3671C4.99267 10.5073 4.44192 10.6786 3.90647 10.8966C3.66169 11.0056 3.47811 11.0679 3.37102 11.0991C3.26393 11.1302 3.18743 11.1458 3.12624 11.1458C2.91206 11.1458 2.80497 10.99 2.80497 10.663V9.89992C2.80497 9.65075 2.83556 9.46387 2.91206 9.35486C2.98855 9.24585 3.12624 9.13684 3.34042 9.02783C3.87587 8.74751 4.51842 8.51391 5.26805 8.32704C6.01768 8.12459 6.81322 8.03115 7.65464 8.03115C9.47518 8.03115 10.8062 8.45162 11.6629 9.29257C12.5043 10.1335 12.9327 11.4105 12.9327 13.1236V18.1693H12.9633ZM6.75202 20.5364C7.25688 20.5364 7.77703 20.4429 8.32778 20.2561C8.87854 20.0692 9.36809 19.7266 9.78116 19.2594C10.0259 18.9635 10.2095 18.6365 10.3013 18.2627C10.3931 17.8889 10.4543 17.4373 10.4543 16.9078V16.2538C10.0106 16.1447 9.53638 16.0513 9.04682 15.989C8.55726 15.9267 8.08301 15.8956 7.60875 15.8956C6.58374 15.8956 5.8341 16.098 5.32925 16.5185C4.82439 16.939 4.57961 17.5308 4.57961 18.3094C4.57961 19.0414 4.76319 19.5864 5.14566 19.9602C5.51283 20.3495 6.04828 20.5364 6.75202 20.5364ZM19.0369 22.2183C18.7615 22.2183 18.5779 22.1716 18.4555 22.0625C18.3331 21.9691 18.226 21.7511 18.1342 21.4552L14.539 9.41716C14.4473 9.10569 14.4014 8.90324 14.4014 8.79423C14.4014 8.54506 14.5237 8.4049 14.7685 8.4049H16.2678C16.5585 8.4049 16.7573 8.45162 16.8644 8.56063C16.9868 8.65407 17.0786 8.8721 17.1704 9.16799L19.7406 19.4774L22.1272 9.16799C22.2037 8.85652 22.2955 8.65407 22.4179 8.56063C22.5402 8.46719 22.7544 8.4049 23.0298 8.4049H24.2537C24.5444 8.4049 24.7433 8.45162 24.8656 8.56063C24.988 8.65407 25.0951 8.8721 25.1563 9.16799L27.5735 19.602L30.2202 9.16799C30.312 8.85652 30.4191 8.65407 30.5261 8.56063C30.6485 8.46719 30.8474 8.4049 31.1228 8.4049H32.5456C32.7904 8.4049 32.928 8.52949 32.928 8.79423C32.928 8.8721 32.9127 8.94996 32.8974 9.0434C32.8821 9.13684 32.8515 9.26142 32.7904 9.43273L29.1034 21.4708C29.0116 21.7822 28.9045 21.9847 28.7821 22.0781C28.6597 22.1716 28.4608 22.2338 28.2008 22.2338H26.8851C26.5944 22.2338 26.3955 22.1871 26.2731 22.0781C26.1507 21.9691 26.0436 21.7667 25.9824 21.4552L23.6112 11.4105L21.2552 21.4396C21.1787 21.7511 21.0869 21.9535 20.9645 22.0625C20.8421 22.1716 20.6279 22.2183 20.3525 22.2183H19.0369ZM38.6956 22.6387C37.9001 22.6387 37.1046 22.5453 36.3396 22.3584C35.5747 22.1716 34.9781 21.9691 34.5803 21.7355C34.3355 21.5953 34.1672 21.4396 34.106 21.2995C34.0448 21.1593 34.0142 21.0036 34.0142 20.8634V20.0692C34.0142 19.7421 34.1366 19.5864 34.3661 19.5864C34.4579 19.5864 34.5497 19.602 34.6415 19.6331C34.7333 19.6643 34.871 19.7266 35.024 19.7889C35.5441 20.0225 36.1102 20.2093 36.7068 20.3339C37.3188 20.4585 37.9154 20.5208 38.5274 20.5208C39.4912 20.5208 40.2408 20.3495 40.761 20.0069C41.2811 19.6643 41.5565 19.1659 41.5565 18.5274C41.5565 18.0914 41.4188 17.7332 41.1434 17.4373C40.868 17.1414 40.3479 16.8767 39.5983 16.6275L37.38 15.9267C36.2631 15.5685 35.437 15.0391 34.9322 14.3383C34.4273 13.653 34.1672 12.89 34.1672 12.0802C34.1672 11.4261 34.3049 10.8499 34.5803 10.3515C34.8557 9.8532 35.2228 9.41716 35.6818 9.07455C36.1408 8.71636 36.6609 8.45162 37.2729 8.26474C37.8848 8.07787 38.5274 8 39.2005 8C39.5371 8 39.8889 8.01557 40.2255 8.06229C40.5774 8.10901 40.8986 8.1713 41.2199 8.2336C41.5259 8.31146 41.8166 8.38933 42.0919 8.48277C42.3673 8.57621 42.5815 8.66964 42.7345 8.76308C42.9487 8.88767 43.1017 9.01225 43.1934 9.15241C43.2852 9.277 43.3311 9.4483 43.3311 9.66633V10.3983C43.3311 10.7253 43.2087 10.8966 42.9793 10.8966C42.8569 10.8966 42.658 10.8343 42.3979 10.7097C41.5259 10.3048 40.5468 10.1024 39.4606 10.1024C38.5885 10.1024 37.9001 10.2425 37.4258 10.5384C36.9516 10.8343 36.7068 11.2859 36.7068 11.9244C36.7068 12.3605 36.8598 12.7342 37.1658 13.0301C37.4717 13.326 38.0378 13.6219 38.8486 13.8866L41.021 14.5874C42.1225 14.9456 42.9181 15.444 43.3923 16.0825C43.8666 16.721 44.0961 17.4529 44.0961 18.2627C44.0961 18.9323 43.9584 19.5397 43.6983 20.0692C43.4229 20.5987 43.0558 21.0659 42.5815 21.4396C42.1072 21.8289 41.5412 22.1093 40.8833 22.3117C40.1949 22.5297 39.4759 22.6387 38.6956 22.6387Z" fill="#001941"/>
<g id="vector_2">
<path d="M37.7937 27.5749C39.4307 27.3727 43.0409 26.9368 43.6826 27.7775C44.3262 28.603 42.9636 32.0757 42.3529 33.6173C42.1693 34.0848 42.5674 34.2717 42.9791 33.9133C45.6713 31.6086 46.3767 26.7964 45.8259 26.0955C45.2751 25.4105 40.5478 24.8189 37.67 26.8745C37.2274 27.2012 37.3028 27.6377 37.7937 27.5749Z" fill="#001941"/>
<path d="M22.9527 36.0001C29.2416 36.0001 36.5529 33.9914 41.5875 30.2068C41.949 29.9335 42.0147 29.5974 41.9026 29.3394C41.7596 29.0087 41.3247 28.8051 40.8531 29.0236C35.2078 31.4529 29.0735 32.6366 23.488 32.6366C15.2123 32.6366 7.21102 30.3161 0.724952 26.485C0.158677 26.1425 -0.270377 26.7341 0.203129 27.1701C6.20023 32.6831 14.1416 36.0001 22.9527 36.0001Z" fill="#001941"/>
</g>
</g>
</g>
</svg>