<svg xmlns="http://www.w3.org/2000/svg" width="92" height="36" viewBox="0 0 92 36" fill="none">
<g id="logo-klevu">
<g id="logo">
<g id="vector">
<path d="M5.82978 11.0002L9.32336 16.0916C9.52572 16.3855 9.72714 16.6794 9.92809 16.9732C10.1694 17.326 10.1281 17.7076 9.82351 17.9182C9.49946 18.1462 9.11889 18.0607 8.87315 17.7011C8.37909 16.9841 7.8855 16.2668 7.39238 15.5494L5.88231 13.3507C5.86284 13.3222 5.84338 13.2961 5.81032 13.2521L5.22317 14.1028L2.71302 17.7579C2.63939 17.8798 2.52778 17.974 2.39576 18.026C2.36645 18.0374 2.33667 18.0467 2.30642 18.0538C2.28813 18.058 2.26961 18.0614 2.25109 18.064C2.16175 18.0768 2.0703 18.0706 1.98237 18.0452C1.88248 18.0178 1.79079 17.9661 1.71552 17.8945C1.64026 17.823 1.58374 17.734 1.55045 17.6352C1.51739 17.5364 1.50894 17.4309 1.52583 17.3281C1.54271 17.2252 1.58445 17.128 1.64729 17.0452C1.96314 16.5817 2.28087 16.12 2.59859 15.6583L5.79531 11L5.82978 11.0002Z" fill="#001941"/>
<path d="M62.909 11.1295H61.5061C61.5244 11.1703 61.5392 11.2044 61.5526 11.235L61.5952 11.3312C62.449 13.1933 63.3032 15.0556 64.1579 16.9184L64.9742 18.6966L66.2029 21.3685C66.729 22.5152 67.254 23.6623 67.7779 24.8098C67.7924 24.8576 67.8234 24.8987 67.8651 24.9256C67.9068 24.9525 67.9568 24.9635 68.006 24.9568C68.6084 24.9503 69.2108 24.9503 69.8134 24.9568C69.8352 24.9588 69.857 24.957 69.8779 24.9518C69.8993 24.9466 69.9197 24.9377 69.9384 24.9255C69.9755 24.9013 70.0034 24.8651 70.0174 24.8229C70.9847 22.8012 71.9533 20.7796 72.9234 18.7578C74.0023 16.5089 75.0811 14.2606 76.16 12.013L76.5802 11.1295H76.3668L75.8015 11.1302C75.5803 11.1307 75.3595 11.1311 75.1383 11.131C74.894 11.1308 74.6497 11.1298 74.4049 11.1274C74.3472 11.1189 74.2886 11.1318 74.2398 11.1637C74.191 11.1956 74.1554 11.2442 74.1394 11.3006C72.4275 15.2175 70.7157 19.1352 69.004 23.0536C68.9735 23.1189 68.9409 23.183 68.8994 23.2642L68.8061 23.0361C68.128 21.3995 67.4508 19.7644 66.7745 18.1308C65.8296 15.8525 64.8886 13.5743 63.9511 11.2962C63.938 11.2413 63.9051 11.1934 63.8589 11.1617C63.8125 11.1301 63.7562 11.1171 63.7009 11.1252C63.515 11.1359 63.3283 11.1336 63.1419 11.1314C63.0643 11.1304 62.9867 11.1295 62.909 11.1295Z" fill="#001941"/>
<path d="M19.272 11.1383H21.0839V17.0829C21.1449 17.0976 21.2075 17.1034 21.2696 17.1002C21.3106 17.0981 21.3512 17.0921 21.3913 17.0822C21.4924 17.0575 21.5859 17.0088 21.6647 16.9403C23.8506 15.0303 26.0423 13.1277 28.2399 11.2325C28.2943 11.1842 28.3616 11.1536 28.4336 11.1448C29.0589 11.1383 29.6857 11.1354 30.312 11.1326L30.9611 11.1296C30.9667 11.1296 30.9723 11.1302 30.9791 11.1315L30.9948 11.1344C31.0084 11.1371 31.027 11.1407 31.0546 11.1448L29.7776 12.1849C27.5491 13.9996 25.333 15.8044 23.1045 17.6199C26.0038 20.0604 28.8901 22.4899 31.8026 24.9435C31.7332 24.9524 31.6917 24.9634 31.6526 24.9634C31.3508 24.9641 31.0488 24.9649 30.7468 24.9651C30.2344 24.9656 29.7218 24.9645 29.2099 24.9589C29.1211 24.9529 29.0364 24.9183 28.9687 24.8603C27.3894 23.5227 25.8118 22.1837 24.2356 20.8432L21.2537 18.3107C21.2267 18.2875 21.1988 18.2661 21.1655 18.2407C21.1451 18.2251 21.1228 18.2079 21.0975 18.1878V24.9481H19.2728L19.272 11.1383Z" fill="#001941"/>
<path d="M48.4904 11.1383H59.3465V12.5544H50.3154V16.9867H58.6461V18.3855H58.4524C56.3883 18.3855 54.3232 18.3848 52.2576 18.3833C52.1394 18.3803 52.0238 18.3488 51.9204 18.2914C51.5701 18.0991 51.2233 17.8992 50.8765 17.6994L50.4565 17.4579C50.4174 17.4362 50.3761 17.4186 50.3196 17.3902V23.4005H59.3418V24.9485H48.4904V11.1383Z" fill="#001941"/>
<path d="M91.8162 22.0845C91.8978 21.8224 91.9619 21.555 92.0078 21.2842V11.1406H90.1915V11.3752C90.1908 14.4663 90.1915 17.5589 90.1936 20.6528C90.2032 21.0986 90.0855 21.5376 89.8545 21.9179C89.5868 22.3766 89.2039 22.7561 88.7445 23.0183C88.2849 23.2804 87.7651 23.4159 87.2372 23.4113C85.9539 23.4375 84.6685 23.4375 83.3875 23.3915C82.413 23.3563 81.6474 22.8695 81.0773 22.078C80.7425 21.6138 80.6271 21.078 80.6271 20.5124V11.1405H78.8087L78.8071 11.1755L78.8043 11.2191C78.8021 11.2493 78.8003 11.2772 78.8003 11.3051C78.7972 14.5006 78.7979 17.6969 78.8024 20.8938C78.7836 21.4898 78.9161 22.0808 79.1872 22.6108C80.0161 24.1325 81.3254 24.911 83.024 24.9701C84.2283 25.0127 85.4341 25.0008 86.6391 24.9889H86.651C86.9329 24.9861 87.2145 24.9832 87.4961 24.9811C87.8743 24.9858 88.2518 24.9505 88.6228 24.8759C90.1784 24.5228 91.2572 23.5954 91.8162 22.0845Z" fill="#001941"/>
<path d="M36.4923 23.4046H36.2445V11.1405H34.4282V24.9419H45.1579C45.1579 24.4901 45.1469 24.0538 45.1621 23.6152C45.1689 23.4308 45.1063 23.4002 44.9382 23.4002L43.0743 23.4019C40.88 23.4037 38.6859 23.4046 36.4923 23.4046Z" fill="#001941"/>
<path d="M3.79376 20.7577C4.46368 19.7799 5.13594 18.804 5.81032 17.8216C5.83822 17.859 5.86425 17.8898 5.8884 17.9227C6.88449 19.3734 7.88058 20.8235 8.8769 22.2731C9.39019 23.0185 9.89925 23.764 10.4125 24.5052C10.4672 24.5922 10.5415 24.6649 10.6297 24.7174C10.7176 24.7697 10.8166 24.8003 10.9186 24.8065C11.0206 24.8127 11.1226 24.7944 11.2163 24.753C11.3099 24.7117 11.3924 24.6485 11.4569 24.5687C11.6593 24.3232 11.6485 24.0404 11.4243 23.7114C9.79795 21.3465 8.17251 18.982 6.54777 16.6179L6.39512 16.3958C6.20472 16.1193 6.01432 15.842 5.81688 15.5567L5.77819 15.6094C5.75522 15.6406 5.73575 15.6672 5.71699 15.6948C4.74553 17.1062 3.77453 18.519 2.80447 19.9334C2.41968 20.4913 2.03583 21.0502 1.65198 21.6091C1.15018 22.3395 0.648388 23.07 0.144247 23.7991C0.0764814 23.8884 0.0321639 23.9934 0.0152811 24.1046C-0.00136729 24.2157 0.00988794 24.3293 0.0483433 24.4349C0.0863297 24.5485 0.157144 24.6479 0.251875 24.7206C0.346373 24.7933 0.460332 24.8359 0.578981 24.8429C0.702788 24.8562 0.827534 24.8332 0.938679 24.7769C1.04982 24.7204 1.14245 24.633 1.20552 24.5249C2.06749 23.2677 2.93039 22.012 3.79376 20.7577Z" fill="#001941"/>
</g>
</g>
</g>
</svg>