<svg xmlns="http://www.w3.org/2000/svg" width="48" height="36" viewBox="0 0 48 36" fill="none">
<g id="logo-hyva">
<g id="logo">
<g id="vector">
<path d="M5.00593 14.692C5.90787 13.9417 7.03772 13.5289 8.20474 13.5227C10.7134 13.5227 13.1331 15.1431 13.1331 19.2991V24.4397H9.9375V19.3124C9.9375 17.1585 8.93534 16.3483 7.56466 16.3483C7.08459 16.3533 6.61261 16.4797 6.19073 16.716C6.05981 16.7896 5.93535 16.873 5.81897 16.9656C5.55873 17.1701 5.33405 17.4188 5.15625 17.7018V24.4397H1.94774V11.102H0L1.0264 8H5.00593V14.692Z" fill="#001941"/>
<path fill-rule="evenodd" clip-rule="evenodd" d="M44.9774 14.506C44.6008 14.2404 44.195 14.0255 43.7683 13.8652C43.555 13.7851 43.3367 13.7186 43.1137 13.6661C42.9278 13.6223 42.7403 13.588 42.5496 13.564C42.4332 13.5492 42.3168 13.538 42.1988 13.531C41.8157 13.5083 41.4343 13.5269 41.0577 13.5851C40.4547 13.6785 39.8696 13.8752 39.3265 14.1689C38.444 14.6457 37.7101 15.3596 37.2026 16.2326C36.695 17.1057 36.4364 18.1039 36.4526 19.1169C36.438 19.8462 36.5673 20.5717 36.8341 21.2497C37.0991 21.9281 37.4952 22.5457 37.9978 23.0667C38.5022 23.5882 39.1035 24.0021 39.7662 24.2852C40.4289 24.5682 41.1417 24.7144 41.861 24.7153C42.9763 24.7272 44.0674 24.3814 44.9774 23.7274V24.445H48V13.7983H44.9774V14.506ZM44.7834 20.6316C44.4617 21.1468 43.9833 21.5422 43.4208 21.7583C42.8583 21.9743 42.2425 21.9991 41.6638 21.8293C41.0867 21.6595 40.5792 21.3038 40.2188 20.8163C40.049 20.5878 39.9165 20.3362 39.8227 20.0705C39.7581 19.8895 39.7128 19.7015 39.687 19.5107C39.6708 19.3834 39.6611 19.2545 39.6611 19.1248C39.6611 18.5149 39.8567 17.9216 40.2188 17.4337C40.5792 16.9462 41.0867 16.5909 41.6638 16.4206C42.2425 16.2508 42.8583 16.2756 43.4208 16.4917C43.9833 16.7078 44.4617 17.1032 44.7834 17.6184V20.6316Z" fill="#001941"/>
<path d="M16.5663 13.8008L18.952 22.2644L21.4073 13.8008H24.75L19.3966 30H16.0167L17.7866 24.6748H16.7376L13.2446 13.8008H16.5663Z" fill="#001941"/>
<path d="M30.9327 21.1546L33.514 13.8008H36.8001L32.6347 24.4413H29.2355L25.0668 13.8008H28.3658L30.9327 21.1546Z" fill="#001941"/>
<path d="M43.3222 8H39.8033L38.7769 11.102H42.2926L43.3222 8Z" fill="#001941"/>
<path d="M44.4811 8H48L46.9704 11.102H43.4547L44.4811 8Z" fill="#001941"/>
</g>
</g>
</g>
</svg>