<svg xmlns="http://www.w3.org/2000/svg" width="70" height="36" viewBox="0 0 70 36" fill="none">
<g id="logo-react">
<g id="logo">
<g id="vector">
<path d="M12.2927 20.3036C13.558 20.3036 14.5837 19.2733 14.5837 18.0023C14.5837 16.7314 13.558 15.7011 12.2927 15.7011C11.0274 15.7011 10.0017 16.7314 10.0017 18.0023C10.0017 19.2733 11.0274 20.3036 12.2927 20.3036Z" fill="#001941"/>
<path fill-rule="evenodd" clip-rule="evenodd" d="M24.5941 18.0025C24.5941 16.366 22.5538 14.8151 19.4256 13.8533C20.1475 10.6507 19.8267 8.10278 18.4129 7.28702C18.0884 7.09645 17.7092 7.00577 17.2951 7.00504V7C15.9164 7 14.1118 7.98696 12.2871 9.69902C10.4622 7.99703 8.65758 7.02014 7.27901 7.02014V7.02518C6.85787 7.02518 6.47685 7.11582 6.14605 7.30717C4.73733 8.12291 4.42155 10.6658 5.14839 13.8583C2.03029 14.8252 0 16.3711 0 18.0025C0 19.6391 2.04031 21.1901 5.16845 22.1518C4.44655 25.3544 4.76737 27.9023 6.18114 28.7181C6.507 28.9094 6.88791 29 7.30906 29C8.68763 29 10.4924 28.0131 12.3171 26.301C14.1418 28.0031 15.9466 28.98 17.3251 28.98C17.7462 28.98 18.1272 28.8893 18.4581 28.6979C19.8667 27.8821 20.1826 25.3392 19.4557 22.1468C22.5638 21.185 24.5941 19.6341 24.5941 18.0025ZM13.0841 10.4846C14.7157 8.96127 16.2474 8.12561 17.2901 8.12292V8.12796C17.5206 8.12796 17.7062 8.17328 17.8615 8.25887C18.5433 8.65164 18.8391 10.1472 18.6084 12.0707C18.5534 12.5441 18.4632 13.0426 18.3528 13.5512C17.3702 13.3095 16.2974 13.1232 15.1695 13.0023C14.4928 12.0707 13.7909 11.2248 13.0841 10.4846ZM7.27901 8.14305C8.3167 8.14305 9.85567 8.97392 11.4899 10.4896C10.7881 11.2298 10.0863 12.0707 9.41951 13.0023C8.28654 13.1232 7.21377 13.3095 6.23124 13.5562C6.1159 13.0527 6.0307 12.5642 5.97051 12.0959C5.73499 10.1724 6.02566 8.67682 6.7025 8.27902C6.85282 8.18838 7.04832 8.1481 7.27901 8.1481V8.14305ZM18.0671 14.6439C17.8816 15.2935 17.651 15.9631 17.3903 16.6329C17.1848 16.2301 16.9692 15.8272 16.7336 15.4243C16.503 15.0215 16.2573 14.6288 16.0117 14.2461C16.7235 14.3518 17.4103 14.4827 18.0671 14.6439ZM15.771 20.0066C15.38 20.6865 14.9791 21.331 14.563 21.9303C13.8159 21.9957 13.0591 22.0309 12.297 22.0309C11.54 22.0309 10.7831 21.9957 10.0412 21.9352C9.62509 21.336 9.21896 20.6965 8.82797 20.0217C8.44695 19.3621 8.10113 18.6924 7.78524 18.0177C8.09609 17.3429 8.44695 16.6681 8.82304 16.0085C9.21403 15.3287 9.615 14.6842 10.0311 14.0849C10.7781 14.0195 11.535 13.9842 12.297 13.9842C13.054 13.9842 13.811 14.0195 14.5529 14.0799C14.969 14.6791 15.3751 15.3186 15.7661 15.9934C16.1471 16.653 16.4929 17.3227 16.8088 17.9976C16.4929 18.6722 16.1471 19.347 15.771 20.0066ZM17.3903 19.3521C17.6534 20.0083 17.8843 20.6772 18.0821 21.3561C17.4254 21.5173 16.7336 21.6533 16.0167 21.759C16.2624 21.3713 16.508 20.9735 16.7386 20.5656C16.9692 20.1628 17.1848 19.7549 17.3903 19.3521ZM12.307 24.725C11.8408 24.2415 11.3746 23.7027 10.9134 23.1136C11.3646 23.1337 11.8258 23.1488 12.292 23.1488C12.7632 23.1488 13.2295 23.1388 13.6857 23.1136C13.2554 23.6753 12.7951 24.2132 12.307 24.725ZM8.57732 21.759C7.86551 21.6533 7.17869 21.5223 6.52202 21.3612C6.70743 20.7116 6.93813 20.0419 7.19875 19.3722C7.40434 19.775 7.6199 20.1779 7.85542 20.5807C8.09104 20.9836 8.33172 21.3763 8.57732 21.759ZM12.282 11.2802C12.7482 11.7636 13.2144 12.3024 13.6756 12.8915C13.2244 12.8714 12.7632 12.8563 12.297 12.8563C11.8258 12.8563 11.3596 12.8663 10.9034 12.8915C11.3337 12.3298 11.7939 11.7919 12.282 11.2802ZM8.57228 14.2461C8.32667 14.6338 8.08107 15.0316 7.85048 15.4394C7.6199 15.8423 7.40434 16.2452 7.19875 16.6479C6.93557 15.9917 6.70471 15.3229 6.507 14.6439C7.16367 14.4878 7.85542 14.3518 8.57228 14.2461ZM4.03549 20.5505C2.26089 19.7901 1.1129 18.7932 1.1129 18.0025C1.1129 17.212 2.26089 16.2099 4.03549 15.4546C4.46661 15.2683 4.93787 15.1021 5.42415 14.946C5.70988 15.9329 6.08586 16.9602 6.55207 18.0126C6.0909 19.06 5.71986 20.0822 5.43917 21.0642C4.94291 20.908 4.47166 20.7368 4.03549 20.5505ZM6.73254 27.7462C6.05077 27.3535 5.75494 25.8579 5.98564 23.9343C6.04079 23.4611 6.13092 22.9625 6.24122 22.4539C7.22386 22.6956 8.29663 22.882 9.42455 23.0028C10.1013 23.9343 10.8031 24.7803 11.51 25.5205C9.87574 27.0463 8.34169 27.8821 7.29897 27.8821C7.07343 27.8772 6.88298 27.8318 6.73254 27.7462ZM18.6236 23.9092C18.8591 25.8327 18.5684 27.3283 17.8916 27.7261C17.7412 27.8167 17.5458 27.857 17.3151 27.857C16.2774 27.857 14.7384 27.0261 13.1041 25.5105C13.806 24.7702 14.5078 23.9293 15.1746 22.9977C16.3075 22.8769 17.3803 22.6905 18.3628 22.4438C18.4782 22.9524 18.5684 23.4409 18.6236 23.9092ZM20.5535 20.5505C20.1224 20.7368 19.6512 20.903 19.1649 21.0591C18.8791 20.0722 18.5032 19.0449 18.037 17.9925C18.4982 16.9451 18.8692 15.9229 19.1499 14.941C19.6462 15.0971 20.1174 15.2683 20.5586 15.4546C22.3332 16.2149 23.4812 17.212 23.4812 18.0025C23.4761 18.7932 22.3281 19.7952 20.5535 20.5505Z" fill="#001941"/>
<path d="M68.4531 12.7693V14.7361H69.9629V15.8097H68.4531V20.8469C68.4531 21.1723 68.5205 21.4174 68.655 21.5826C68.7895 21.7428 69.0187 21.8231 69.3426 21.8231C69.5018 21.8231 69.7211 21.793 70 21.7329V22.859C69.6363 22.9591 69.2828 23.0093 68.9388 23.0093C68.3212 23.0093 67.8552 22.8213 67.5411 22.4461C67.2274 22.0708 67.0705 21.5377 67.0705 20.8469V15.8097H65.5978V14.7361H67.0705V12.7693H68.4531Z" fill="#001941"/>
<path d="M61.8087 21.8756C62.302 21.8756 62.7332 21.7253 63.1018 21.425C63.4705 21.1248 63.6747 20.7495 63.7145 20.2989H65.0227C64.9977 20.7644 64.8382 21.2073 64.5442 21.6279C64.2502 22.0484 63.8565 22.3837 63.3632 22.6337C62.8749 22.8841 62.3569 23.0093 61.8087 23.0093C60.7077 23.0093 59.8306 22.6413 59.1778 21.9057C58.5303 21.1647 58.2064 20.1539 58.2064 18.8725V18.64C58.2064 17.8492 58.3507 17.1459 58.6398 16.5305C58.9289 15.9147 59.3422 15.4367 59.8806 15.0965C60.4235 14.7559 61.0638 14.5858 61.8011 14.5858C62.7082 14.5858 63.4606 14.8587 64.0585 15.4044C64.6613 15.9498 64.9825 16.658 65.0227 17.5287H63.7145C63.6747 17.0032 63.4754 16.5727 63.1166 16.2375C62.7631 15.8972 62.3244 15.7271 61.8011 15.7271C61.0987 15.7271 60.5531 15.9821 60.1644 16.4928C59.781 16.9982 59.5889 17.7316 59.5889 18.6925V18.9551C59.5889 19.8909 59.781 20.6117 60.1644 21.1171C60.5482 21.6229 61.0964 21.8756 61.8087 21.8756Z" fill="#001941"/>
<path fill-rule="evenodd" clip-rule="evenodd" d="M34.3421 18.4372H36.8982L39.26 22.859H40.7996V22.7688L38.2435 18.1293C38.8963 17.8792 39.4045 17.5013 39.7682 16.9959C40.1369 16.4902 40.3213 15.8972 40.3213 15.2164C40.3213 14.1455 39.9899 13.3295 39.3272 12.7693C38.6695 12.2087 37.7278 11.9283 36.5021 11.9283H32.8997V22.859H34.3421V18.4372ZM34.3421 17.2585H36.547C37.2595 17.2585 37.825 17.0732 38.2435 16.7029C38.667 16.3326 38.8788 15.8371 38.8788 15.2164C38.8788 14.5409 38.677 14.0229 38.2734 13.6625C37.8748 13.3021 37.2968 13.1194 36.5395 13.1145H34.3421V17.2585Z" fill="#001941"/>
<path fill-rule="evenodd" clip-rule="evenodd" d="M55.2318 22.859C55.1519 22.6988 55.0871 22.4137 55.0375 22.0031C54.3945 22.6737 53.6273 23.0093 52.7354 23.0093C51.9382 23.0093 51.2832 22.784 50.7698 22.3334C50.2617 21.8779 50.0075 21.3025 50.0075 20.6068C50.0075 19.7612 50.3265 19.1054 50.9642 18.64C51.6067 18.1692 52.5088 17.934 53.6697 17.934H55.0151V17.2962C55.0151 16.8106 54.8704 16.4251 54.5817 16.14C54.2926 15.8497 53.8663 15.7047 53.3033 15.7047C52.81 15.7047 52.3967 15.8295 52.0629 16.0799C51.7291 16.3299 51.562 16.6329 51.562 16.9883H50.1719C50.1719 16.583 50.314 16.1926 50.5978 15.8169C50.8869 15.4367 51.2756 15.1365 51.764 14.9161C52.2573 14.6962 52.7975 14.5858 53.3856 14.5858C54.3176 14.5858 55.0473 14.821 55.5755 15.2917C56.1036 15.7572 56.3775 16.4004 56.3976 17.2209V20.9596C56.3976 21.7055 56.4923 22.2984 56.6818 22.7388V22.859H55.2318ZM54.1706 21.4627C53.7819 21.688 53.3708 21.8006 52.9373 21.8006C52.4838 21.8006 52.1125 21.6777 51.8235 21.4326C51.5347 21.1876 51.39 20.8469 51.39 20.4116C51.39 19.4156 52.2372 18.9178 53.9311 18.9178H55.0151V20.5843C54.8404 20.9447 54.5589 21.2374 54.1706 21.4627Z" fill="#001941"/>
<path fill-rule="evenodd" clip-rule="evenodd" d="M42.8026 21.9281C43.4902 22.6489 44.3821 23.0093 45.4784 23.0093C46.8337 23.0093 47.8498 22.4861 48.5276 21.4402L47.6831 20.7796C47.4289 21.1099 47.1326 21.3752 46.7935 21.5753C46.4548 21.7755 46.0414 21.8756 45.5531 21.8756C44.8654 21.8756 44.2974 21.6302 43.8489 21.14C43.4055 20.6445 43.1738 19.9964 43.1539 19.1953H48.6322V18.6172C48.6322 17.321 48.3408 16.325 47.7577 15.6293C47.175 14.9336 46.3578 14.5858 45.3064 14.5858C44.6636 14.5858 44.0657 14.7662 43.5126 15.1266C42.9645 15.4817 42.536 15.9771 42.2271 16.6131C41.9232 17.2437 41.7712 17.9618 41.7712 18.7675V19.0229C41.7712 20.2338 42.115 21.2024 42.8026 21.9281ZM45.3064 15.7271C44.7483 15.7271 44.28 15.9322 43.9013 16.3425C43.5226 16.7482 43.2884 17.3187 43.1987 18.0543H47.2497V17.9493C47.2099 17.2437 47.0204 16.698 46.6817 16.3124C46.3426 15.9224 45.8842 15.7271 45.3064 15.7271Z" fill="#001941"/>
</g>
</g>
</g>
</svg>