<svg xmlns="http://www.w3.org/2000/svg" width="95" height="36" viewBox="0 0 95 36" fill="none">
<g id="logo-dynamic_yield">
<g id="logo">
<g id="element" opacity="0.8">
<path id="vector" fill-rule="evenodd" clip-rule="evenodd" d="M86.0702 27.217C85.3484 26.6459 84.4814 26.2901 83.5681 26.191C82.6547 26.0919 81.732 26.2532 80.9055 26.6564C80.079 27.0596 79.3821 27.6885 78.8946 28.471C78.407 29.2536 78.1484 30.1583 78.1484 31.0816C78.1484 32.0049 78.407 32.9096 78.8946 33.6921C79.3821 34.4747 80.079 35.1035 80.9055 35.5067C81.732 35.9099 82.6547 36.0712 83.5681 35.9722C84.4814 35.8731 85.3485 35.5172 86.0703 34.9463C86.792 35.5172 87.6589 35.8729 88.572 35.9719C89.4852 36.0709 90.4077 35.9096 91.234 35.5063C92.0603 35.1031 92.757 34.4743 93.2443 33.6918C93.7317 32.9093 93.99 32.0048 93.9899 31.0816C93.99 30.1585 93.7317 29.2539 93.2443 28.4715C92.757 27.689 92.0603 27.0601 91.234 26.6569C90.4077 26.2537 89.4852 26.0924 88.572 26.1914C87.6589 26.2903 86.7919 26.6461 86.0702 27.217ZM84.6931 28.9328C84.3693 29.6023 84.2012 30.3371 84.2015 31.0816C84.2012 31.826 84.3693 32.5608 84.6931 33.2304C85.0169 33.8999 85.4878 34.4866 86.0703 34.9463C86.6525 34.4863 87.1232 33.8996 87.4469 33.2302C87.7706 32.5607 87.9388 31.826 87.9388 31.0816C87.9388 30.3373 87.7706 29.6026 87.4469 28.9331C87.1232 28.2637 86.6525 27.6769 86.0702 27.217C85.4877 27.6766 85.0168 28.2633 84.6931 28.9328Z" fill="#001941"/>
</g>
<path id="vector_2" d="M86.0718 27.2173C85.4893 27.677 85.0184 28.2637 84.6947 28.9331C84.3709 29.6027 84.2028 30.3375 84.2031 31.0819C84.2028 31.8264 84.3709 32.5612 84.6947 33.2308C85.0184 33.9002 85.4894 34.4869 86.0719 34.9466C86.0689 34.949 86.0659 34.9513 86.063 34.9537H86.0808C86.0778 34.9513 86.0749 34.949 86.0719 34.9466C86.6541 34.4867 87.1248 33.8999 87.4484 33.2306C87.7722 32.561 87.9404 31.8264 87.9404 31.082C87.9404 30.3376 87.7722 29.6029 87.4484 28.9334C87.1248 28.264 86.654 27.6772 86.0718 27.2173Z" fill="#001941"/>
<g id="vector_3">
<path fill-rule="evenodd" clip-rule="evenodd" d="M3.65784 13.7634C3.77491 13.7606 3.89198 13.7638 4.00906 13.7729C4.18783 13.7868 4.36503 13.8154 4.53906 13.8574C4.83016 13.9277 5.11336 14.0368 5.37915 14.1824C5.84903 14.4506 6.24771 14.8282 6.54198 15.2837V10H7.41529V21.1895H6.54198V19.7838C6.24929 20.2429 5.85061 20.6233 5.37915 20.8919C4.85073 21.1811 4.25745 21.3259 3.65784 21.3109L3.53443 21.3097C3.41261 21.3065 3.29079 21.2974 3.17055 21.2819C2.84623 21.2402 2.52823 21.155 2.22605 21.0272C2.02512 20.9427 1.83369 20.8403 1.65333 20.7209C1.4445 20.5833 1.25148 20.423 1.07587 20.2433C0.746797 19.8981 0.485753 19.4918 0.30856 19.0475C-0.0663949 18.0787 -0.0663949 17.0027 0.30856 16.0339C0.487335 15.5904 0.746797 15.1845 1.07587 14.8378C1.40178 14.4982 1.79256 14.2292 2.22605 14.0475C2.67852 13.8562 3.16581 13.7598 3.65784 13.7634ZM3.75118 14.5946C3.35724 14.589 2.96488 14.6676 2.60258 14.8243C2.26402 14.9691 1.95868 15.1833 1.70712 15.4527C1.45557 15.7229 1.25623 16.0395 1.12333 16.385C0.844887 17.1301 0.844887 17.9509 1.12333 18.696C1.25623 19.0419 1.45557 19.3585 1.70712 19.6283C1.96342 19.8945 2.27035 20.106 2.60891 20.25C2.97121 20.4016 3.35882 20.4773 3.75118 20.473C4.14195 20.4777 4.52798 20.4016 4.88712 20.25C5.22568 20.1072 5.53261 19.8965 5.78732 19.6303C5.89174 19.5204 5.98667 19.4022 6.0721 19.2768C6.19234 19.0987 6.29043 18.9059 6.36637 18.7027C6.42649 18.5429 6.47395 18.3786 6.50875 18.2116C6.55305 17.9914 6.57678 17.7665 6.5752 17.5407C6.57995 17.1412 6.50875 16.7445 6.36637 16.3715C6.23347 16.026 6.03413 15.7094 5.78258 15.4392C5.71297 15.3682 5.64019 15.3008 5.56425 15.2377C5.46141 15.1524 5.35383 15.0746 5.23992 15.0052C5.12759 14.9366 5.00894 14.8762 4.88712 14.8243C4.69885 14.7433 4.50267 14.6834 4.30174 14.645C4.12139 14.6104 3.93628 14.5934 3.75118 14.5946Z" fill="#001941"/>
<path d="M10.1396 24.3245H9.1635L11.948 19.5609L8.53224 13.8785H9.52105L12.4511 18.6893L15.1944 13.8785H16.1626L10.1396 24.3245Z" fill="#001941"/>
<path d="M20.863 13.7638C21.2854 13.759 21.7063 13.8277 22.1065 13.9665C22.2426 14.0138 22.3739 14.0717 22.5005 14.1399C22.5574 14.1705 22.6128 14.203 22.6682 14.2375C22.7236 14.2724 22.7773 14.3097 22.8296 14.3486C22.915 14.4121 22.9973 14.4807 23.0748 14.5541C23.3469 14.814 23.5605 15.1298 23.6997 15.4797C23.8516 15.8693 23.9275 16.2847 23.9212 16.7028V21.1895H23.0479V16.9797C23.051 16.6425 22.9988 16.3069 22.8928 15.9867C22.847 15.8498 22.7868 15.7189 22.7125 15.5959C22.635 15.4658 22.5416 15.3452 22.4356 15.2365C22.2284 15.0274 21.9784 14.8659 21.7031 14.7636C21.3851 14.6509 21.0513 14.5958 20.7143 14.6013C20.3884 14.5997 20.0641 14.6592 19.7603 14.7771C19.6195 14.8318 19.485 14.9004 19.3569 14.9818C19.224 15.0667 19.1006 15.1659 18.9867 15.2773C18.887 15.3757 18.7968 15.4829 18.7161 15.5971C18.618 15.7372 18.5342 15.8883 18.4693 16.0474C18.3396 16.3577 18.2763 16.6913 18.2811 17.0273V21.1895H17.3998V13.8785H18.2731V15.1623C18.4108 14.929 18.5801 14.7176 18.7778 14.5339C18.8316 14.4859 18.8854 14.4402 18.9408 14.3966L19.0072 14.3466L19.0879 14.2903C19.1512 14.2482 19.2145 14.2085 19.2809 14.1713L19.4107 14.1014C19.6369 13.9884 19.8758 13.9043 20.1226 13.8515C20.3647 13.792 20.6131 13.7626 20.863 13.7638Z" fill="#001941"/>
<path fill-rule="evenodd" clip-rule="evenodd" d="M32.8489 21.1895H31.9756V19.7838C31.8917 19.9152 31.8 20.0397 31.7003 20.1572C31.6323 20.2365 31.5611 20.3123 31.4867 20.3845C31.3839 20.4845 31.2747 20.5777 31.1608 20.6634L31.0754 20.7245C30.9915 20.7844 30.9045 20.8407 30.8128 20.8923C30.7163 20.9455 30.6166 20.9935 30.5153 21.0367C30.4188 21.078 30.3207 21.1149 30.2226 21.147L30.1277 21.176L30.0075 21.2089L29.8319 21.2482C29.5882 21.2958 29.3398 21.3172 29.0915 21.3109C28.5994 21.3148 28.1121 21.2184 27.6597 21.0272C27.4508 20.9391 27.2515 20.8312 27.0632 20.7055C26.8639 20.5714 26.6788 20.4166 26.5095 20.2437C26.1804 19.8981 25.9194 19.4918 25.7422 19.0475C25.508 18.4445 25.421 17.7994 25.478 17.165C25.5128 16.7806 25.6014 16.3997 25.7422 16.0339C25.921 15.5904 26.1804 15.1845 26.5095 14.8382C26.8354 14.4982 27.2262 14.2292 27.6597 14.0475C28.1121 13.8562 28.5994 13.7598 29.0915 13.7638C29.6911 13.7487 30.2843 13.8931 30.8128 14.1828C31.0105 14.2958 31.1956 14.4283 31.3665 14.5783C31.6006 14.7834 31.8063 15.0207 31.9756 15.2841V13.8785H32.8489V21.1895ZM29.1927 14.5946C28.7972 14.5894 28.4048 14.6676 28.0425 14.8247L27.9492 14.8671L27.8274 14.9282C27.7799 14.954 27.7324 14.981 27.6866 15.0096C27.4888 15.1325 27.3084 15.2813 27.1486 15.4527C27.0585 15.5491 26.9746 15.6515 26.8987 15.759C26.761 15.9526 26.6487 16.1629 26.5633 16.3854C26.2848 17.1301 26.2848 17.9513 26.5633 18.696C26.6962 19.0419 26.8955 19.3585 27.1486 19.6287C27.4034 19.8949 27.7103 20.1064 28.0489 20.2504C28.4112 20.4016 28.8003 20.4777 29.1927 20.4734C29.3477 20.4749 29.5028 20.4638 29.6563 20.4404C29.8857 20.4051 30.1119 20.3413 30.3286 20.2504C30.4109 20.2159 30.49 20.1774 30.5675 20.1349C30.6371 20.0973 30.7052 20.0568 30.77 20.0135C30.8507 19.9604 30.9283 19.9029 31.001 19.8414C31.0801 19.7755 31.1561 19.7053 31.2273 19.6303C31.3523 19.4994 31.463 19.3566 31.5595 19.2042C31.6592 19.0467 31.7414 18.8785 31.8079 18.7027C31.9471 18.3314 32.0167 17.9378 32.0151 17.5407C32.0199 17.1412 31.9503 16.7445 31.8079 16.3719C31.6734 16.026 31.4757 15.7094 31.2225 15.4392C31.0611 15.2726 30.8792 15.1274 30.683 15.0072C30.5691 14.9381 30.4505 14.877 30.3286 14.8247C29.9695 14.6707 29.5819 14.5926 29.1927 14.5946Z" fill="#001941"/>
<path d="M44.1592 13.7634C44.5832 13.7594 45.0072 13.8281 45.4091 13.9661C45.7698 14.0915 46.0989 14.2919 46.3773 14.5541C46.6494 14.814 46.863 15.1294 47.0022 15.4797C47.0972 15.7213 47.162 15.9732 47.1968 16.2295C47.2174 16.3862 47.2269 16.5441 47.2237 16.7028V21.1895H46.3441V16.9797C46.3488 16.6417 46.2935 16.3057 46.1827 15.9867C46.0878 15.7058 45.9312 15.4495 45.7255 15.2365C45.5183 15.0274 45.2683 14.8659 44.993 14.7636C44.8142 14.7009 44.6307 14.6561 44.444 14.6295C44.3665 14.6184 44.289 14.6104 44.2114 14.6057L44.1355 14.6021L43.9979 14.6013C43.6704 14.5997 43.3476 14.6592 43.0423 14.7771C42.7543 14.8893 42.4901 15.0595 42.2702 15.2769C42.0472 15.4967 41.8715 15.7586 41.7513 16.0474C41.6232 16.3577 41.5583 16.6909 41.563 17.0273V21.1895H40.6834V16.9797C40.6866 16.6425 40.6344 16.3069 40.5284 15.9867C40.435 15.7046 40.2784 15.4475 40.0711 15.2365C39.9904 15.1555 39.9034 15.0818 39.8117 15.0159C39.7452 14.9675 39.6756 14.9235 39.6028 14.8838C39.5174 14.8374 39.4304 14.7973 39.3386 14.7636C39.0206 14.6509 38.6868 14.5958 38.3498 14.6013C38.19 14.6005 38.0302 14.6144 37.872 14.643C37.7091 14.6723 37.5493 14.7172 37.3958 14.7771C37.1063 14.8893 36.8437 15.0595 36.6222 15.2769C36.5826 15.3158 36.5447 15.3559 36.5083 15.3972C36.4608 15.4515 36.4149 15.5086 36.3722 15.5678C36.2646 15.7161 36.1744 15.8772 36.1048 16.0474C35.9751 16.3577 35.9118 16.6909 35.9166 17.0273V21.1895H35.0354V13.8785H35.9087V15.1623C36.0463 14.929 36.2156 14.7172 36.4133 14.5339C36.6032 14.3617 36.8168 14.2161 37.0462 14.1014C37.2724 13.9884 37.5113 13.9043 37.7581 13.8515C37.891 13.8225 38.0255 13.8011 38.16 13.7876C38.2248 13.7813 38.2897 13.7765 38.3546 13.7737L38.5112 13.7702C38.584 13.7698 38.6567 13.7717 38.7295 13.7757C38.845 13.7817 38.9605 13.7928 39.0744 13.809C39.2057 13.8277 39.3355 13.8531 39.4652 13.8852C39.7484 13.9566 40.0205 14.0681 40.2721 14.2165L40.3891 14.2907L40.4856 14.3585C40.5742 14.4244 40.6581 14.4954 40.7372 14.5716C40.9967 14.8219 41.2007 15.1266 41.3352 15.4662C41.3874 15.3464 41.4475 15.2309 41.5156 15.1206C41.5535 15.0599 41.5947 15.0008 41.6374 14.9433C41.7023 14.8568 41.7719 14.7743 41.8462 14.6961C42.044 14.4863 42.2734 14.3085 42.5249 14.1689C42.7733 14.034 43.0375 13.932 43.3112 13.865C43.5897 13.7975 43.8729 13.7634 44.1592 13.7634Z" fill="#001941"/>
<path d="M49.9339 10.6082C50.0177 10.6054 50.1016 10.6209 50.1791 10.6534C50.2566 10.6863 50.3262 10.7351 50.3832 10.7974C50.4433 10.8573 50.4907 10.9291 50.5208 11.0081C50.5524 11.087 50.5667 11.172 50.5651 11.2569C50.5667 11.3406 50.5524 11.4239 50.5208 11.5016C50.4907 11.579 50.4433 11.6496 50.3847 11.7087C50.3246 11.7674 50.255 11.8135 50.1775 11.844C50.1348 11.8603 50.0905 11.8722 50.0462 11.8789C50.0098 11.8849 49.9718 11.8869 49.9339 11.8853H49.9006L49.8532 11.8817L49.8105 11.8762C49.7693 11.869 49.7298 11.8579 49.6902 11.8424C49.6491 11.8266 49.6111 11.8063 49.5747 11.7825C49.5415 11.7611 49.5114 11.7365 49.483 11.7095C49.4244 11.65 49.3785 11.5794 49.3485 11.5012C49.3184 11.4235 49.3042 11.3402 49.3073 11.2569C49.3042 11.0867 49.3659 10.9216 49.483 10.7974C49.5399 10.7359 49.6111 10.6875 49.6886 10.655C49.7662 10.6225 49.8484 10.6066 49.9339 10.6082Z" fill="#001941"/>
<path d="M49.4956 21.1895H50.3768V13.8785H49.4956V21.1895Z" fill="#001941"/>
<path d="M56.384 13.7932C56.2116 13.7717 56.0375 13.7618 55.8635 13.7638C55.604 13.7606 55.3446 13.7836 55.0915 13.8324C54.8431 13.8801 54.5994 13.9519 54.3637 14.0475C53.9223 14.2272 53.522 14.4966 53.1882 14.8382C52.8528 15.1797 52.5933 15.5868 52.4209 16.0339C52.0538 16.9976 52.0538 18.0636 52.4209 19.0273C52.5949 19.4736 52.8544 19.8802 53.1882 20.2234C53.522 20.565 53.9223 20.834 54.3637 21.0137C54.7197 21.1569 55.0915 21.247 55.4664 21.2843C55.604 21.2978 55.7417 21.3045 55.8793 21.3041C56.1752 21.3033 56.4695 21.27 56.759 21.2041L56.9203 21.1637L57.0422 21.1288L57.2051 21.0756L57.3697 21.0137C57.8206 20.8221 58.224 20.5337 58.5531 20.1691L58.0009 19.5613C57.7225 19.8374 57.3966 20.0616 57.0406 20.2234C56.664 20.3932 56.2559 20.4789 55.8429 20.4734C55.4617 20.4765 55.0851 20.4004 54.7339 20.2504C54.6754 20.2246 54.6168 20.1972 54.5583 20.1675L54.4412 20.1044C54.2213 19.9782 54.0188 19.8231 53.84 19.6422C53.7404 19.5398 53.6486 19.4304 53.5663 19.3141C53.5015 19.2209 53.4413 19.1233 53.3875 19.0225C53.3353 18.9237 53.2879 18.8214 53.2483 18.7166C52.962 17.9593 52.962 17.1226 53.2483 16.3652C53.3512 16.0966 53.4935 15.8475 53.6707 15.6261C53.7293 15.5523 53.791 15.4817 53.8574 15.4142C53.9824 15.2869 54.1201 15.1718 54.2688 15.0703C54.7339 14.7537 55.2829 14.5878 55.8429 14.595C55.9395 14.5942 56.036 14.5981 56.1325 14.6069C56.24 14.6164 56.3461 14.6319 56.4505 14.6533C56.6451 14.693 56.8365 14.7525 57.02 14.8314C57.376 14.9909 57.7003 15.2155 57.974 15.4936L58.5467 14.8989C58.224 14.5295 57.8221 14.2403 57.3697 14.0542C57.0532 13.9229 56.721 13.8352 56.384 13.7932Z" fill="#001941"/>
<path fill-rule="evenodd" clip-rule="evenodd" d="M71.4471 29.818C71.273 29.7418 71.0863 29.7026 70.8965 29.703C70.7146 29.6998 70.5358 29.7391 70.3712 29.818C70.3269 29.8414 70.2842 29.8672 70.2431 29.8962L70.1703 29.9525C70.1118 30.0013 70.058 30.0557 70.0089 30.1152V28.3449H69.3904V32.6221H70.0089V32.2841C70.0754 32.3682 70.1545 32.4424 70.2431 32.5039L70.3127 32.5475L70.3712 32.5817C70.5358 32.6606 70.7146 32.6999 70.8965 32.6963L70.9582 32.6955L71.0294 32.6916L71.1037 32.6832C71.1639 32.6745 71.224 32.6622 71.2841 32.6455C71.3395 32.6301 71.3933 32.611 71.4471 32.5884C71.4945 32.5686 71.542 32.5456 71.5879 32.5202C71.6274 32.4976 71.6654 32.4734 71.7018 32.4468C71.773 32.3972 71.8378 32.3405 71.898 32.2774C71.9296 32.244 71.9597 32.2095 71.9881 32.1734C72.0198 32.1338 72.0483 32.0925 72.0751 32.0496L72.1226 31.9723L72.1574 31.9025L72.2001 31.8045C72.3441 31.4165 72.3441 30.9896 72.2001 30.6016C72.1732 30.5329 72.1416 30.4667 72.1036 30.4028C72.0467 30.304 71.9771 30.212 71.898 30.1287C71.7714 29.9946 71.6179 29.8886 71.4471 29.818ZM70.4725 30.3584C70.5832 30.3116 70.7019 30.2885 70.8221 30.2909C70.9455 30.2866 71.0674 30.3123 71.1781 30.3651C71.2319 30.3893 71.2841 30.4195 71.3316 30.4548C71.3743 30.4861 71.4123 30.5218 71.4471 30.5611C71.5214 30.6464 71.5784 30.7452 71.6163 30.8519C71.6559 30.9642 71.6765 31.0832 71.6765 31.203C71.6765 31.3228 71.6559 31.4418 71.6163 31.5545C71.5989 31.6049 71.5768 31.6533 71.5515 31.6993C71.5214 31.7513 71.4866 31.8001 71.4471 31.8449C71.3727 31.9286 71.2809 31.9953 71.1781 32.0409C71.0658 32.0909 70.9455 32.1163 70.8221 32.1151C70.7019 32.1179 70.5832 32.0949 70.4725 32.0477C70.3712 32.0048 70.2795 31.9401 70.2035 31.8584C70.1703 31.8223 70.1403 31.7834 70.1149 31.7426L70.0706 31.6636C70.0548 31.6327 70.0406 31.6009 70.0295 31.568C69.9884 31.4506 69.9678 31.3272 69.9678 31.203C69.9678 31.0788 69.9884 30.9555 70.0295 30.8384L70.0596 30.7634L70.096 30.6936C70.126 30.6412 70.1624 30.592 70.2035 30.5476C70.2795 30.4659 70.3712 30.4016 70.4725 30.3584Z" fill="#001941"/>
<path d="M72.7523 33.825H73.4373L75.6633 29.7776H74.9846L74.1097 31.4129L73.2032 29.7776H72.5102L73.768 32.0342L72.7523 33.825Z" fill="#001941"/>
<path d="M82.8223 21.1895H83.7035V10H82.8223V21.1895Z" fill="#001941"/>
<path d="M72.0831 10.6534C72.0055 10.6209 71.9217 10.6054 71.8378 10.6082C71.7856 10.6074 71.735 10.6126 71.686 10.6245L71.6543 10.6328L71.5926 10.655C71.5151 10.6875 71.4439 10.7359 71.3869 10.7974C71.2714 10.9216 71.2082 11.0867 71.2113 11.2569C71.2082 11.3402 71.2224 11.4235 71.2525 11.5012L71.2809 11.5611L71.3126 11.6171C71.3332 11.65 71.3585 11.681 71.3869 11.7095C71.4471 11.7671 71.5167 11.8123 71.5942 11.8424C71.6717 11.8726 71.754 11.8873 71.8378 11.8853C71.8695 11.8865 71.9027 11.8849 71.9343 11.8809C71.985 11.875 72.034 11.8623 72.0815 11.844C72.159 11.8135 72.2286 11.7674 72.2887 11.7087C72.3473 11.6496 72.3947 11.579 72.4248 11.5016C72.4406 11.462 72.4533 11.4211 72.4612 11.3794C72.4675 11.339 72.4691 11.2981 72.4691 11.2569C72.4707 11.172 72.4564 11.087 72.4248 11.0081C72.3947 10.9291 72.3473 10.8573 72.2871 10.7974C72.2302 10.7351 72.1606 10.6863 72.0831 10.6534Z" fill="#001941"/>
<path d="M72.2808 21.1895H71.3996V13.8785H72.2808V21.1895Z" fill="#001941"/>
<path d="M63.1712 24.3245H64.1473L70.1703 13.8785H69.2021L66.4587 18.6893L63.5287 13.8785H62.5399L65.9556 19.5609L63.1712 24.3245Z" fill="#001941"/>
<path fill-rule="evenodd" clip-rule="evenodd" d="M78.9968 14.0407C78.5712 13.8551 78.1108 13.7606 77.6457 13.7634C77.5286 13.7622 77.4131 13.767 77.2976 13.7773C77.1347 13.792 76.9733 13.8178 76.8151 13.8547C76.6094 13.9027 76.4085 13.9693 76.2139 14.0542C75.9797 14.153 75.7567 14.2768 75.551 14.424C75.3785 14.5466 75.2188 14.685 75.07 14.8378C74.7394 15.1805 74.4815 15.5876 74.3106 16.0339C73.9452 17.0162 73.9436 18.0973 74.3043 19.0812C74.3961 19.3209 74.5147 19.5494 74.6555 19.7624C74.7758 19.9433 74.9118 20.1135 75.0637 20.2702C75.396 20.6043 75.7915 20.8665 76.2265 21.0407C76.6948 21.2276 77.1948 21.3216 77.6995 21.3176C77.9605 21.3168 78.2215 21.2986 78.4794 21.2637C78.7389 21.2248 78.9936 21.1589 79.2388 21.0677C79.4951 20.9697 79.7419 20.8451 79.9713 20.6959C80.0868 20.619 80.1992 20.5364 80.3083 20.4492C80.3732 20.3972 80.4365 20.3436 80.4982 20.2881C80.5599 20.2321 80.62 20.1746 80.6785 20.1151L80.2071 19.5069C80.0552 19.6601 79.8907 19.7993 79.715 19.9239C79.6233 19.9897 79.5268 20.0516 79.4287 20.1092C79.3274 20.1675 79.2246 20.221 79.1186 20.2702C78.6851 20.4599 78.2184 20.5543 77.7469 20.5476C77.3894 20.5519 77.035 20.4924 76.698 20.3718C76.3784 20.2524 76.0842 20.0735 75.831 19.8449C75.6997 19.7235 75.5826 19.5902 75.4798 19.4462C75.3785 19.3066 75.2915 19.157 75.2188 19.0003C75.0574 18.642 74.9609 18.2572 74.9356 17.8648H81.0345C81.0424 17.8069 81.0472 17.7482 81.0472 17.6895L81.0551 17.5919V17.5002C81.0551 16.9857 80.9633 16.4755 80.7861 15.9935C80.6247 15.557 80.3827 15.1555 80.0726 14.8108C80.0125 14.7441 79.9492 14.6799 79.8827 14.6188C79.7815 14.5255 79.6755 14.4394 79.5647 14.3605C79.492 14.3093 79.4176 14.2613 79.3417 14.2165C79.2926 14.1875 79.2436 14.1597 79.193 14.1336C79.1281 14.1002 79.0632 14.0693 78.9968 14.0407ZM76.6173 14.7366C76.7739 14.6731 76.9353 14.6255 77.0999 14.5938C77.1916 14.5759 77.285 14.5636 77.3783 14.5561C77.4622 14.5489 77.5476 14.5462 77.633 14.5474C77.9573 14.5454 78.2785 14.6073 78.5807 14.7299C78.6978 14.7779 78.8101 14.835 78.9177 14.9004C79.0775 14.9984 79.2262 15.1159 79.3607 15.25C79.5885 15.4833 79.772 15.7554 79.9049 16.0542C79.9935 16.2585 80.0584 16.4711 80.1027 16.6889C80.1153 16.748 80.1264 16.8075 80.1343 16.8675C80.1454 16.9428 80.1549 17.0186 80.1596 17.0948H74.9561C74.9672 16.9908 74.983 16.8877 75.0036 16.7857C75.0226 16.6861 75.0479 16.5874 75.0764 16.4902C75.1207 16.3457 75.1745 16.2045 75.2393 16.0676C75.3785 15.7665 75.5716 15.4936 75.8105 15.2635C76.043 15.0377 76.3167 14.8588 76.6173 14.7366Z" fill="#001941"/>
<path fill-rule="evenodd" clip-rule="evenodd" d="M89.1031 13.7634C89.7028 13.7487 90.296 13.8931 90.8244 14.1824C91.1678 14.3783 91.4731 14.6331 91.7278 14.9338C91.8212 15.0445 91.9082 15.1611 91.9873 15.2837V10H92.8606V21.1895H91.9873V19.7838C91.7832 20.1044 91.5269 20.3869 91.231 20.6194C91.1029 20.7197 90.9668 20.811 90.8244 20.8919C90.296 21.1811 89.7028 21.3259 89.1031 21.3109C88.6111 21.3148 88.1238 21.218 87.6714 21.0272C87.2394 20.8455 86.8487 20.5789 86.5212 20.2433C86.1921 19.8981 85.9311 19.4918 85.7539 19.0475C85.5957 18.6405 85.5039 18.2144 85.4786 17.7851C85.4659 17.5661 85.4707 17.3459 85.4928 17.1273C85.5308 16.7556 85.6178 16.3878 85.7539 16.0339C85.9326 15.5904 86.1921 15.1845 86.5212 14.8378C86.8471 14.4982 87.2379 14.2292 87.6714 14.0475C88.1238 13.8562 88.6111 13.7598 89.1031 13.7634ZM88.4434 14.689C88.3105 14.7243 88.1808 14.7695 88.0542 14.8243C87.7157 14.9691 87.4119 15.1833 87.1603 15.4527C86.9072 15.7229 86.7079 16.0395 86.575 16.385C86.4025 16.8464 86.3377 17.3368 86.3772 17.82C86.4025 18.1176 86.469 18.4123 86.575 18.696C86.7079 19.0419 86.9072 19.3585 87.1603 19.6283C87.2568 19.7303 87.3628 19.8243 87.4752 19.9096C87.5527 19.9687 87.6334 20.0235 87.7157 20.0739C87.7884 20.1175 87.8628 20.158 87.9387 20.1945L88.0605 20.25C88.4228 20.4016 88.812 20.4773 89.2044 20.473C89.4259 20.4757 89.6474 20.4519 89.8625 20.4031C90.0255 20.3662 90.1853 20.3151 90.3403 20.25C90.6789 20.1072 90.9842 19.8965 91.239 19.6303C91.4937 19.3641 91.6898 19.0487 91.8196 18.7027C91.8971 18.4949 91.9541 18.2798 91.9873 18.0612C92.0142 17.8894 92.0268 17.7153 92.0268 17.5407C92.0316 17.1412 91.962 16.7445 91.8196 16.3715C91.6851 16.026 91.4873 15.7094 91.2342 15.4392C91.1235 15.3246 91.0032 15.2198 90.8735 15.1266C90.7659 15.0488 90.6536 14.9786 90.5349 14.9171C90.4716 14.8838 90.4068 14.8528 90.3403 14.8243C89.9812 14.6707 89.5936 14.5926 89.2044 14.5946C88.9465 14.591 88.6918 14.6231 88.4434 14.689Z" fill="#001941"/>
</g>
</g>
</g>
</svg>