<svg xmlns="http://www.w3.org/2000/svg" width="86" height="36" viewBox="0 0 86 36" fill="none">
<g id="logo-vercel">
<g id="logo">
<path id="vector" d="M42.9027 13C39.5444 13 37.1231 15.25 37.1231 18.625C37.1231 22 39.8486 24.25 43.2069 24.25C45.2358 24.25 47.0244 23.425 48.1317 22.0344L45.8046 20.6531C45.1902 21.3438 44.2563 21.7469 43.2069 21.7469C41.7498 21.7469 40.5117 20.9656 40.0524 19.7156H48.5758C48.6427 19.3656 48.6822 19.0031 48.6822 18.6219C48.6822 15.25 46.2609 13 42.9027 13ZM40.025 17.5312C40.4053 16.2844 41.4456 15.5 42.8996 15.5C44.3567 15.5 45.397 16.2844 45.7742 17.5312H40.025ZM75.6576 13C72.2994 13 69.8781 15.25 69.8781 18.625C69.8781 22 72.6036 24.25 75.9618 24.25C77.9907 24.25 79.7794 23.425 80.8866 22.0344L78.5596 20.6531C77.9451 21.3438 77.0113 21.7469 75.9618 21.7469C74.5047 21.7469 73.2667 20.9656 72.8074 19.7156H81.3307C81.3976 19.3656 81.4372 19.0031 81.4372 18.6219C81.4372 15.25 79.0159 13 75.6576 13ZM72.783 17.5312C73.1633 16.2844 74.2036 15.5 75.6576 15.5C77.1147 15.5 78.155 16.2844 78.5322 17.5312H72.783ZM60.9106 18.625C60.9106 20.5 62.103 21.75 63.9525 21.75C65.2057 21.75 66.1457 21.1656 66.6293 20.2125L68.9655 21.5969C67.9982 23.2531 66.1852 24.25 63.9525 24.25C60.5912 24.25 58.1729 22 58.1729 18.625C58.1729 15.25 60.5942 13 63.9525 13C66.1852 13 67.9951 13.9969 68.9655 15.6531L66.6293 17.0375C66.1457 16.0844 65.2057 15.5 63.9525 15.5C62.106 15.5 60.9106 16.75 60.9106 18.625ZM86 9.5625V23.9375H83.2623V9.5625H86ZM11.2397 8L22.4795 28H0L11.2397 8ZM39.3406 9.5625L30.9116 24.5625L22.4825 9.5625H25.643L30.9116 18.9375L36.1801 9.5625H39.3406ZM57.2603 13.3125V16.3406C56.9561 16.25 56.6337 16.1875 56.2869 16.1875C54.5196 16.1875 53.2451 17.4375 53.2451 19.3125V23.9375H50.5074V13.3125H53.2451V16.1875C53.2451 14.6 55.0428 13.3125 57.2603 13.3125Z" fill="#001941"/>
</g>
</g>
</svg>