<svg xmlns="http://www.w3.org/2000/svg" width="130" height="36" viewBox="0 0 130 36" fill="none">
<g id="logo-tailwindcss">
<g id="logo">
<path id="vector" d="M40.2924 16.7422H37.9486V21.2462C37.9486 22.4472 38.7434 22.4278 40.2924 22.3532V24.1733C37.1554 24.5493 35.9071 23.6855 35.9071 21.2462V16.7422H34.168V14.7892H35.9071V12.2689L37.9486 11.6693V14.7892H40.2924V16.7422ZM49.2288 14.7892H51.2703V24.1733H49.2288V22.8216C48.5104 23.8167 47.3938 24.418 45.9195 24.418C43.3498 24.418 41.214 22.2592 41.214 19.4812C41.214 16.6855 43.3498 14.5461 45.9195 14.5461C47.3938 14.5461 48.5104 15.1458 49.2288 16.1214V14.7892ZM46.2414 22.4845C47.9431 22.4845 49.2288 21.2268 49.2288 19.4812C49.2288 17.7357 47.9431 16.478 46.2414 16.478C44.5396 16.478 43.2555 17.7357 43.2555 19.4812C43.2555 21.2268 44.5396 22.4845 46.2414 22.4845ZM54.6723 13.3824C53.9538 13.3824 53.3671 12.7811 53.3671 12.0874C53.3687 11.9172 53.4028 11.7487 53.4678 11.5915C53.5335 11.4343 53.6296 11.2915 53.7507 11.1714C53.8717 11.0512 54.0153 10.9561 54.1733 10.8913C54.3309 10.8265 54.5016 10.7924 54.6723 10.7924C54.8429 10.7924 55.012 10.8265 55.1712 10.8913C55.3289 10.9561 55.4719 11.0518 55.5938 11.1717C55.7141 11.2932 55.81 11.4359 55.8767 11.5915C55.9417 11.7487 55.9758 11.9172 55.9758 12.0874C55.9758 12.7811 55.3907 13.3824 54.6723 13.3824ZM53.6515 24.1733V14.7892H55.693V24.1733H53.6515ZM58.0563 24.1733V10.4731H60.0978V24.1733H58.0563ZM73.348 14.7892H75.5032L72.5353 24.1733H70.5312L68.5661 17.8492L66.5815 24.1733H64.5774L61.6094 14.7892H63.7647L65.5981 21.2641L67.5827 14.7892H69.5299L71.495 21.2641L73.348 14.7892ZM78.0356 13.3824C77.3172 13.3824 76.732 12.7811 76.732 12.0874C76.732 11.9172 76.7662 11.7487 76.8312 11.5915C76.8978 11.4359 76.9937 11.2932 77.114 11.1717C77.2359 11.0518 77.3789 10.9561 77.5366 10.8913C77.6959 10.8265 77.8649 10.7924 78.0356 10.7924C78.381 10.7925 78.7123 10.9289 78.9572 11.1717C79.0791 11.2932 79.175 11.4359 79.24 11.5915C79.3066 11.7487 79.3408 11.9172 79.3408 12.0874C79.3408 12.7811 78.754 13.3824 78.0356 13.3824ZM77.0148 24.1733V14.7892H79.0563V24.1733H77.0148ZM90.0212 18.4116V24.1733H87.9797V18.619C87.9797 17.1911 87.1475 16.4407 85.8618 16.4407C84.5193 16.4407 83.4611 17.23 83.4611 19.1441V24.1733H81.4197V14.7892H83.4611V15.9902C84.0853 15.0145 85.106 14.5461 86.3917 14.5461C88.508 14.5461 90.0212 15.9723 90.0212 18.4116ZM99.6988 11.0355H101.74V24.1733H99.6988V22.8216C98.9804 23.8167 97.8653 24.418 96.3911 24.418C93.8197 24.418 91.684 22.2592 91.684 19.4812C91.684 16.6855 93.8197 14.5461 96.3911 14.5461C97.8653 14.5461 98.9804 15.1458 99.6988 16.1214V11.0355ZM96.7129 22.4845C98.4131 22.4845 99.6988 21.2268 99.6988 19.4812C99.6988 17.7357 98.4131 16.478 96.7129 16.478C95.0112 16.478 93.7255 17.7357 93.7255 19.4812C93.7255 21.2268 95.0112 22.4845 96.7129 22.4845ZM103.593 19.4812C103.593 16.6855 105.729 14.5461 108.583 14.5461C110.436 14.5461 112.042 15.5023 112.798 16.9675L111.041 17.9804C110.625 17.0988 109.698 16.5347 108.564 16.5347C106.901 16.5347 105.635 17.7924 105.635 19.4812C105.635 21.1701 106.901 22.4278 108.564 22.4278C109.698 22.4278 110.625 21.8459 111.078 20.9837L112.837 21.9772C112.042 23.4602 110.436 24.418 108.583 24.418C105.729 24.418 103.593 22.2592 103.593 19.4812ZM121.286 21.5266C121.286 23.4035 119.641 24.418 117.599 24.418C115.709 24.418 114.348 23.572 113.744 22.2219L115.501 21.2073C115.805 22.0534 116.561 22.559 117.599 22.559C118.508 22.559 119.207 22.2592 119.207 21.5088C119.207 19.8378 114.122 20.7762 114.122 17.4164C114.122 15.653 115.654 14.5461 117.581 14.5461C119.13 14.5461 120.416 15.2592 121.078 16.4975L119.358 17.4553C119.018 16.7227 118.357 16.3856 117.581 16.3856C116.843 16.3856 116.201 16.7033 116.201 17.3791C116.201 19.0874 121.286 18.055 121.286 21.5266ZM130.001 21.5266C130.001 23.4035 128.356 24.418 126.315 24.418C124.424 24.418 123.062 23.572 122.457 22.2219L124.216 21.2073C124.518 22.0534 125.274 22.559 126.315 22.559C127.221 22.559 127.92 22.2592 127.92 21.5088C127.92 19.8378 122.836 20.7762 122.836 17.4164C122.836 15.653 124.367 14.5461 126.295 14.5461C127.846 14.5461 129.131 15.2592 129.793 16.4975L128.072 17.4553C127.732 16.7227 127.07 16.3856 126.295 16.3856C125.559 16.3856 124.915 16.7033 124.915 17.3791C124.915 19.0874 130.001 18.055 130.001 21.5266Z" fill="#001941"/>
<path id="vector_2" d="M13.4306 10C9.84986 10 7.61007 11.778 6.71448 15.3339C8.05868 13.5559 9.62556 12.8882 11.4167 13.3323C12.4375 13.5867 13.1673 14.3225 13.9767 15.1378C15.2933 16.4635 16.8179 18 20.1467 18C23.7274 18 25.9656 16.222 26.8612 12.6661C25.5186 14.4441 23.9517 15.1102 22.1606 14.6661C21.1398 14.4133 20.4084 13.6759 19.6006 12.8622C18.284 11.5348 16.7594 10 13.4306 10ZM6.71448 18C3.13375 18 0.89559 19.778 0 23.3339C1.34257 21.5559 2.90945 20.8898 4.70063 21.3339C5.723 21.5867 6.4528 22.3241 7.26061 23.1378C8.57718 24.4652 10.1018 26 13.4306 26C17.0129 26 19.2511 24.222 20.1467 20.6661C18.8025 22.4441 17.2356 23.1118 15.4461 22.6677C14.4237 22.4133 13.6939 21.6775 12.8845 20.8622C11.5679 19.5365 10.0433 18 6.71448 18Z" fill="#001941"/>
</g>
</g>
</svg>