<svg width="111" height="32" viewBox="0 0 111 32" fill="none" xmlns="http://www.w3.org/2000/svg">
<g id="Group 321">
<path id="Vector" fill-rule="evenodd" clip-rule="evenodd" d="M86.0993 13.8852H78.341V18.7148H77.1169V5.43333H86.2978C86.8598 5.43333 87.4172 5.54263 87.937 5.755C88.4568 5.96738 88.929 6.27866 89.3269 6.67107C89.7247 7.06348 90.0405 7.52935 90.2555 8.04207C90.4712 8.55477 90.5815 9.10431 90.5815 9.65924C90.5815 10.2142 90.4712 10.7637 90.2555 11.2764C90.0405 11.7892 89.7247 12.255 89.3269 12.6474C88.929 13.0398 88.4568 13.3511 87.937 13.5635C87.8151 13.6134 87.6908 13.6577 87.5641 13.6962L90.805 18.7317H89.133L86.0993 13.8852ZM78.341 6.64073H86.2978C87.1092 6.64073 87.8878 6.95876 88.4615 7.52484C89.0353 8.09093 89.3573 8.85869 89.3573 9.65924C89.3573 10.4598 89.0353 11.2276 88.4615 11.7936C87.8878 12.3597 87.1092 12.6778 86.2978 12.6778H78.341V6.64073ZM42.2289 18.7148H48.3511C52.0692 18.7148 55.0835 15.7416 55.0835 12.0741C55.0835 8.40656 52.0692 5.43333 48.3511 5.43333H41.5207L41.0048 5.43394V18.7154L42.2289 18.7148ZM42.2289 17.5074H48.3511C49.812 17.5074 51.2131 16.9349 52.2461 15.916C53.2791 14.8971 53.8594 13.5151 53.8594 12.0741C53.8594 10.6331 53.2791 9.25104 52.2461 8.23212C51.2131 7.21317 49.812 6.64073 48.3511 6.64073H42.2289V17.5074ZM25.4344 12.6784L29.0718 6.86773L32.7094 12.6784H25.4344ZM23.8677 12.6801L19.9733 18.7311H21.6454L24.6785 13.8858H33.4652L36.4984 18.7311H38.1704L29.6019 5.41763H28.5419L23.8688 12.6784H23.8677V12.6801ZM31.9907 0L29.2708 4.22592H30.8896L33.5348 0H31.9907ZM9.1371 14.1786L15.913 7.13577V18.7148H17.1371V5.43333H15.913V5.4285L8.56857 13.0316L1.22408 5.43695V5.43333H0V18.7148H1.22408V7.14423L7.99997 14.1786H9.1371ZM106.294 13.8858L109.328 18.7317H111L102.431 5.41824H101.371L92.803 18.7317H94.4751L97.508 13.8858H106.294ZM98.2663 12.6784L101.903 6.86833L105.541 12.6784H98.2663ZM60.7883 13.8858H69.5747L72.608 18.7317H74.2801L65.7115 5.41824H64.6515L56.083 18.7317H57.755L60.7883 13.8858ZM61.5429 12.6784L65.1803 6.86833L68.8177 12.6784H61.5429Z" fill="black"/>
<path id="Vector_2" fill-rule="evenodd" clip-rule="evenodd" d="M45.7001 28.8914C45.7001 29.2155 45.789 29.4372 46.0674 29.4372C46.2505 29.4372 46.45 29.3441 46.5479 29.2693L46.619 30.0381C46.5212 30.122 46.1284 30.2598 45.7293 30.2598C45.114 30.2598 44.7938 29.9003 44.7938 29.104V25.3282H45.7001V28.8914ZM45.2539 23.4141C45.5958 23.4141 45.8157 23.5531 45.8157 23.952C45.8157 24.3508 45.5958 24.4977 45.2539 24.4977C44.926 24.4977 44.6883 24.3508 44.6883 23.952C44.6883 23.5518 44.926 23.4141 45.2539 23.4141ZM18.852 29.4096C19.7863 29.4096 20.4256 28.6986 20.4256 27.7618C20.4256 26.812 19.7849 26.0878 18.852 26.0878C17.9355 26.0878 17.2975 26.812 17.2975 27.7618C17.2975 28.6986 17.9355 29.4096 18.852 29.4096ZM18.852 25.1996C20.287 25.1996 21.3001 26.2924 21.3001 27.7605C21.3001 29.2142 20.287 30.2965 18.852 30.2965C17.4385 30.2965 16.4141 29.2155 16.4141 27.7605C16.4141 26.2924 17.4385 25.1996 18.852 25.1996ZM22.9416 26.6152C22.9416 26.2806 22.8678 26.0708 22.5754 26.0708C22.3924 26.0708 22.1992 26.1534 22.0861 26.2269L22.0264 25.4778C22.123 25.3859 22.5132 25.2469 22.9174 25.2469C23.4436 25.2469 23.7462 25.5145 23.8262 26.08C24.0626 25.5709 24.4046 25.2469 25.0147 25.2469C25.4405 25.2469 25.7481 25.4148 25.8447 25.5787L25.6769 26.4289C25.5828 26.2728 25.2854 26.1338 24.8838 26.1338C24.2355 26.1338 23.9736 26.7621 23.8504 27.4116V30.1666H22.9402V26.6152H22.9416ZM29.9579 28.5031C29.6922 28.7891 29.2397 29.0475 28.7427 29.0475C27.825 29.0475 27.2403 28.4125 27.2403 27.5795C27.2403 26.7359 27.825 26.0878 28.7427 26.0878C29.2473 26.0878 29.7049 26.3659 29.9579 26.6519V28.5031ZM29.9579 25.8188C29.6312 25.4778 29.1431 25.2469 28.4936 25.2469C27.1869 25.2469 26.3149 26.2925 26.3149 27.5795C26.3149 28.8468 27.1857 29.8898 28.4923 29.8898C29.1164 29.8898 29.6223 29.6498 29.9566 29.3257V29.8465C29.9566 30.7806 29.3427 31.1506 28.6525 31.1506C27.9458 31.1506 27.4119 30.837 27.1221 30.6415L26.9251 31.4996L26.959 31.5186L26.9822 31.5316C27.2812 31.7 27.8131 31.9994 28.6538 31.9994C29.9312 31.9994 30.8629 31.1965 30.8629 29.6498V25.3308H29.9579V25.8188ZM35.8294 26.6336C35.5931 26.3554 35.1202 26.0904 34.6156 26.0904C33.6954 26.0904 33.1107 26.7752 33.1107 27.7632C33.1107 28.7327 33.708 29.4188 34.6156 29.4188C35.1215 29.4188 35.5676 29.1604 35.8294 28.8718V26.6336ZM36.7357 28.8914C36.7357 29.2155 36.8324 29.4359 37.1031 29.4359C37.2785 29.4359 37.4348 29.3729 37.5937 29.2693L37.6534 30.0381C37.445 30.1588 37.1031 30.2571 36.7739 30.2571C36.2769 30.2571 35.9985 30.0184 35.8892 29.5461C35.5689 29.9357 35.0249 30.248 34.3753 30.248C33.0687 30.248 32.1929 29.2129 32.1929 27.7605C32.1929 26.2925 33.0687 25.2442 34.3753 25.2442C35.0071 25.2442 35.504 25.4751 35.8307 25.8176V25.3269H36.737V28.8914H36.7357ZM39.6235 26.0694V25.3308V25.3282H38.7121V30.1654H39.6235V27.1794C39.7772 26.6493 40.2336 26.1324 40.8792 26.1324C41.6304 26.1324 42.0042 26.7083 42.0042 27.531V29.104C42.0042 29.8977 42.3219 30.2585 42.9397 30.2585C43.2829 30.2585 43.6146 30.1601 43.8205 30.0394L43.7634 29.2706C43.6019 29.3743 43.4367 29.4372 43.2829 29.4372C42.9994 29.4372 42.9155 29.2168 42.9155 28.8928V27.384C42.9155 26.181 42.369 25.2469 41.1945 25.2469C40.4839 25.2469 39.9437 25.5709 39.6235 26.0694ZM49.8545 30.2978C50.5942 30.2978 51.273 30.0302 51.7547 29.6327L51.4001 28.877C51.0264 29.1814 50.4671 29.449 49.9612 29.449C48.7982 29.449 48.3266 28.6907 48.3266 27.737C48.3266 26.7752 48.8744 26.055 49.7997 26.055C50.5878 26.055 50.9551 26.526 50.9984 27.2646L51.8106 27.0613C51.7699 25.9606 51.0759 25.2022 49.7922 25.2022C48.333 25.2022 47.3885 26.2833 47.3885 27.7645C47.3885 29.2168 48.1308 30.2978 49.8545 30.2978ZM58.5712 26.4407C58.1873 26.2374 57.6027 26.059 57.1044 26.059C56.549 26.059 56.1168 26.2938 56.1168 26.7097C56.1168 27.0521 56.3367 27.1439 56.774 27.2528L57.7146 27.485C58.481 27.6884 58.8534 28.0794 58.8534 28.7707C58.8534 29.6602 58.1874 30.2611 57.0371 30.2611C56.2567 30.2611 55.6452 30.0302 55.2944 29.8465L55.4813 29.0108C55.8524 29.2246 56.4053 29.4543 56.9989 29.4543C57.6014 29.4543 57.9421 29.2246 57.9421 28.8377C57.9421 28.5306 57.6561 28.4125 57.2252 28.2998L56.3456 28.0794C55.602 27.8825 55.2054 27.5139 55.2054 26.7818C55.2054 25.8858 55.9605 25.2469 57.1744 25.2469C57.7616 25.2469 58.4772 25.4226 58.814 25.5997L58.5712 26.4407ZM63.028 27.7277C63.7348 27.3014 64.2038 26.5299 64.3983 25.3308V25.3295H63.4894C63.1653 27.0206 62.259 27.3184 61.0782 27.3289V23.5977H60.1719V30.1666H61.0782V28.1896C61.4862 28.1896 61.8739 28.1436 62.2247 28.0597L63.5225 30.1679H64.5228V30.0118L63.028 27.7277ZM66.6077 28.8914C66.6077 29.2155 66.6967 29.4372 66.9763 29.4372C67.1606 29.4372 67.3627 29.3441 67.4568 29.2693L67.5293 30.0381C67.4326 30.122 67.0386 30.2598 66.6344 30.2598C66.0243 30.2598 65.7027 29.9003 65.7027 29.104V25.3282H66.6077V28.8914ZM66.1666 23.4141C66.5022 23.4141 66.7221 23.5531 66.7221 23.952C66.7221 24.3508 66.5022 24.4977 66.1666 24.4977C65.8336 24.4977 65.5985 24.3508 65.5985 23.952C65.5985 23.5518 65.8336 23.4141 66.1666 23.4141ZM69.5175 26.0694V25.3308V25.3282H68.6087V30.1654H69.5162V27.1794C69.6764 26.6493 70.1276 26.1324 70.7758 26.1324C71.527 26.1324 71.902 26.7083 71.902 27.531V29.104C71.902 29.8977 72.2185 30.2585 72.8388 30.2585C73.1795 30.2585 73.5125 30.1601 73.7197 30.0394L73.66 29.2706C73.5061 29.3743 73.3358 29.4372 73.1795 29.4372C72.9024 29.4372 72.8134 29.2168 72.8134 28.8928V27.384C72.8134 26.181 72.2732 25.2469 71.0898 25.2469C70.3844 25.2469 69.8429 25.5709 69.5175 26.0694ZM78.7523 29.6327C78.2715 30.0302 77.5941 30.2978 76.8518 30.2978C75.1281 30.2978 74.3858 29.2168 74.3858 27.7645C74.3858 26.2833 75.3315 25.2022 76.7895 25.2022C78.0745 25.2022 78.7624 25.9606 78.8093 27.0613L77.9957 27.2646C77.95 26.526 77.5864 26.055 76.7996 26.055C75.8692 26.055 75.3239 26.7752 75.3239 27.737C75.3239 28.6907 75.7942 29.449 76.961 29.449C77.4606 29.449 78.0263 29.1814 78.3951 28.877L78.7523 29.6327ZM82.1902 26.0904C82.6936 26.0904 83.1688 26.3554 83.4026 26.6336V28.8718C83.143 29.1604 82.6944 29.4188 82.1902 29.4188C81.2826 29.4188 80.6885 28.7327 80.6885 27.7632C80.6885 26.7752 81.2701 26.0904 82.1902 26.0904ZM84.6814 29.4359C84.407 29.4359 84.314 29.2155 84.314 28.8914V25.3269H83.4026V25.8176C83.0797 25.4751 82.5826 25.2442 81.9533 25.2442C80.6448 25.2442 79.7661 26.2925 79.7661 27.7605C79.7661 29.2129 80.6448 30.248 81.9533 30.248C82.5982 30.248 83.143 29.9357 83.4674 29.5461C83.5675 30.0184 83.8497 30.2571 84.3468 30.2571C84.6814 30.2571 85.0183 30.1588 85.2294 30.0381L85.1723 29.2693C85.0128 29.3729 84.8518 29.4359 84.6814 29.4359ZM86.6255 26.6152C86.6255 26.2806 86.545 26.0708 86.2596 26.0708C86.0728 26.0708 85.8829 26.1534 85.7703 26.2269L85.7054 25.4778C85.8016 25.3859 86.1932 25.2469 86.5973 25.2469C87.1211 25.2469 87.429 25.5145 87.5088 26.08C87.7402 25.5709 88.0833 25.2469 88.693 25.2469C89.1206 25.2469 89.4317 25.4148 89.5232 25.5787L89.3598 26.4289C89.2613 26.2728 88.9666 26.1338 88.5609 26.1338C87.9129 26.1338 87.651 26.7621 87.5307 27.4116V30.1666H86.6231V26.6152H86.6255ZM92.5319 26.0065C93.3543 26.0065 93.7131 26.5037 93.7131 27.0586C93.7131 27.1426 93.7052 27.2476 93.6951 27.3184H91.1077C91.1796 26.6165 91.6768 26.0065 92.5319 26.0065ZM92.6289 30.2966C93.3965 30.2966 94.0546 30.0486 94.5268 29.6419L94.168 28.9505C93.8162 29.226 93.2847 29.4857 92.6539 29.4857C91.6588 29.4857 91.1788 28.9098 91.0897 28.0701H94.4869C94.5432 27.8917 94.5839 27.5047 94.5839 27.2174C94.5839 26.1088 93.9382 25.2009 92.5483 25.2009C91.0835 25.2009 90.154 26.3397 90.154 27.7632C90.154 29.1695 90.9091 30.2966 92.6289 30.2966Z" fill="black"/>
</g>
</svg>
