<svg xmlns="http://www.w3.org/2000/svg" xmlns:xlink="http://www.w3.org/1999/xlink" xmlns:serif="http://www.serif.com/" width="100%" height="100%" viewBox="0 0 60 60" version="1.1" xml:space="preserve" style="fill-rule:evenodd;clip-rule:evenodd;stroke-linejoin:round;stroke-miterlimit:2;">
    <circle cx="30" cy="30" r="30" style="fill:white;"/>
    <path d="M30,26L22,26C21.47,26 20.961,26.211 20.586,26.586C20.211,26.961 20,27.47 20,28L20,32C20,32.53 20.211,33.039 20.586,33.414C20.961,33.789 21.47,34 22,34L23,34L23,38C23,38.265 23.105,38.52 23.293,38.707C23.48,38.895 23.735,39 24,39C24.265,39 24.52,38.895 24.707,38.707C24.895,38.52 25,38.265 25,38L25,34L30,34L35,38L35,22L30,26ZM33,33.6L31,32L22,32L22,28L31,28L33,26.4L33,33.6ZM39.5,30C39.5,31.71 38.54,33.26 37,34L37,26C38.53,26.75 39.5,28.3 39.5,30Z" style="fill:rgb(127,0,229);fill-rule:nonzero;"/>
</svg>