<svg xmlns="http://www.w3.org/2000/svg" width="60" height="60" viewBox="0 0 60 60" fill="none">
<circle cx="30" cy="30" r="30" fill="url(#paint0_linear_3791_3145)"/>
<path d="M30 26H22C21.4696 26 20.9609 26.2107 20.5858 26.5858C20.2107 26.9609 20 27.4696 20 28V32C20 32.5304 20.2107 33.0391 20.5858 33.4142C20.9609 33.7893 21.4696 34 22 34H23V38C23 38.2652 23.1054 38.5196 23.2929 38.7071C23.4804 38.8946 23.7348 39 24 39C24.2652 39 24.5196 38.8946 24.7071 38.7071C24.8946 38.5196 25 38.2652 25 38V34H30L35 38V22L30 26ZM33 33.6L31 32H22V28H31L33 26.4V33.6ZM39.5 30C39.5 31.71 38.54 33.26 37 34V26C38.53 26.75 39.5 28.3 39.5 30Z" fill="white"/>
<defs>
<linearGradient id="paint0_linear_3791_3145" x1="60" y1="60" x2="1.78814e-06" y2="-1.78814e-06" gradientUnits="userSpaceOnUse">
<stop offset="2.77791e-10" stop-color="#8700F5"/>
<stop offset="0.25" stop-color="#8400ED"/>
<stop offset="0.5" stop-color="#8000E7"/>
<stop offset="0.75" stop-color="#7D00E1"/>
<stop offset="1" stop-color="#7700D6"/>
</linearGradient>
</defs>
</svg>