<svg width="94" height="30" viewBox="0 0 94 30" fill="none" xmlns="http://www.w3.org/2000/svg">
<g id="logo_openai">
<g id="Group 1303">
<path id="Vector" d="M29.5632 14.4996C29.5632 18.7507 32.2823 21.7147 36.0502 21.7147C39.8181 21.7147 42.5372 18.7507 42.5372 14.4996C42.5372 10.2485 39.8181 7.28442 36.0502 7.28442C32.2823 7.28442 29.5632 10.2485 29.5632 14.4996ZM40.0512 14.4996C40.0512 17.5416 38.4003 19.5112 36.0502 19.5112C33.7002 19.5112 32.0493 17.5416 32.0493 14.4996C32.0493 11.4575 33.7002 9.48797 36.0502 9.48797C38.4003 9.48797 40.0512 11.4575 40.0512 14.4996Z" fill="black"/>
<path id="Vector_2" d="M49.5379 21.7149C52.393 21.7149 54.0245 19.2968 54.0245 16.3912C54.0245 13.4857 52.393 11.0676 49.5379 11.0676C48.2172 11.0676 47.2461 11.5941 46.6052 12.3547V11.2626H44.2745V25.0104H46.6052V20.4278C47.2461 21.1883 48.2172 21.7149 49.5379 21.7149ZM46.5469 16.0987C46.5469 14.1682 47.6346 13.1152 49.0718 13.1152C50.7615 13.1152 51.6744 14.4412 51.6744 16.3912C51.6744 18.3413 50.7615 19.6673 49.0718 19.6673C47.6346 19.6673 46.5469 18.5948 46.5469 16.7032V16.0987Z" fill="black"/>
<path id="Vector_3" d="M60.3317 21.7149C62.371 21.7149 63.9831 20.6423 64.7017 18.8483L62.7012 18.0878C62.3904 19.1408 61.4776 19.7258 60.3317 19.7258C58.8362 19.7258 57.7874 18.6533 57.6126 16.8983H64.7599V16.1182C64.7599 13.3102 63.1867 11.0676 60.2346 11.0676C57.2824 11.0676 55.379 13.3882 55.379 16.3912C55.379 19.5503 57.4184 21.7149 60.3317 21.7149ZM60.2152 13.0372C61.6912 13.0372 62.3904 14.0122 62.4099 15.1432H57.7291C58.0787 13.7587 59.011 13.0372 60.2152 13.0372Z" fill="black"/>
<path id="Vector_4" d="M66.5088 21.5003H68.8395V15.4942C68.8395 14.0317 69.9077 13.2517 70.9565 13.2517C72.2383 13.2517 72.7433 14.1682 72.7433 15.4357V21.5003H75.074V14.7532C75.074 12.5497 73.7921 11.0676 71.6557 11.0676C70.335 11.0676 69.4221 11.6721 68.8395 12.3547V11.2626H66.5088V21.5003Z" fill="black"/>
<path id="Vector_5" d="M81.9 7.49951L76.6172 21.5008H79.0838L80.2686 18.3027H86.2894L87.4936 21.5008H89.9991L84.7162 7.49951H81.9ZM83.2596 10.2686L85.4737 16.1187H81.0843L83.2596 10.2686Z" fill="black"/>
<path id="Vector_6" d="M94.0001 7.53979H91.514V21.5411H94.0001V7.53979Z" fill="black"/>
<path id="Vector_7" d="M23.8674 12.6417C24.455 10.8712 24.2526 8.93171 23.3131 7.3213C21.9001 4.85124 19.0596 3.58047 16.2855 4.17848C15.0514 2.78257 13.2783 1.98875 11.4194 2.00012C8.58381 1.99362 6.06783 3.82666 5.19545 6.53559C3.37381 6.91016 1.80142 8.055 0.881298 9.6776C-0.542186 12.1411 -0.217674 15.2466 1.68408 17.3591C1.09656 19.1296 1.29887 21.0691 2.23842 22.6795C3.65139 25.1496 6.49188 26.4203 9.26601 25.8223C10.4993 27.2182 12.2732 28.0121 14.1321 27.9999C16.9693 28.0072 19.4861 26.1725 20.3585 23.4611C22.1801 23.0866 23.7525 21.9417 24.6727 20.3191C26.0945 17.8556 25.7692 14.7526 23.8683 12.64L23.8674 12.6417ZM14.1337 26.3009C12.9983 26.3025 11.8985 25.9036 11.027 25.1731C11.0666 25.152 11.1354 25.1138 11.1799 25.0862L16.3365 22.0961C16.6003 21.9458 16.7622 21.6639 16.7605 21.3592V14.0603L18.9399 15.3238C18.9633 15.3352 18.9787 15.3579 18.982 15.3839V21.4282C18.9787 24.116 16.8107 26.2952 14.1337 26.3009ZM3.70722 21.8296C3.13832 20.8432 2.93357 19.687 3.1286 18.5649C3.16664 18.5877 3.23381 18.6291 3.28155 18.6567L8.43814 21.6468C8.69953 21.8004 9.02324 21.8004 9.28543 21.6468L15.5806 17.997V20.5239C15.5823 20.5499 15.5701 20.5751 15.5499 20.5913L10.3375 23.6131C8.01571 24.9554 5.05059 24.1575 3.70803 21.8296H3.70722ZM2.3501 10.5283C2.91658 9.54028 3.81081 8.78464 4.87579 8.39219C4.87579 8.43688 4.87336 8.5157 4.87336 8.57095V14.5519C4.87174 14.8558 5.0336 15.1377 5.29661 15.288L11.5918 18.937L9.41249 20.2005C9.39064 20.2151 9.36312 20.2176 9.33885 20.207L4.12561 17.1828C1.80871 15.8357 1.01402 12.8594 2.34929 10.5291L2.3501 10.5283ZM20.2557 14.712L13.9605 11.0621L16.1398 9.79947C16.1617 9.78485 16.1892 9.78241 16.2135 9.79297L21.4267 12.8147C23.7477 14.1611 24.5432 17.1422 23.2022 19.4725C22.6349 20.4589 21.7415 21.2145 20.6774 21.6078V15.4481C20.6798 15.1442 20.5187 14.8631 20.2565 14.712H20.2557ZM22.4245 11.4343C22.3865 11.4107 22.3193 11.3701 22.2716 11.3424L17.115 8.35238C16.8536 8.19882 16.5299 8.19882 16.2677 8.35238L9.97249 12.0022V9.47528C9.97087 9.44928 9.98301 9.42409 10.0032 9.40784L15.2157 6.38853C17.5374 5.04381 20.5058 5.84414 21.8443 8.17607C22.41 9.16084 22.6147 10.3138 22.4229 11.4343H22.4245ZM8.78774 15.938L6.6076 14.6746C6.58413 14.6632 6.56876 14.6405 6.56552 14.6145V8.57014C6.56714 5.87908 8.74161 3.69828 11.4219 3.69991C12.5556 3.69991 13.653 4.09967 14.5246 4.82768C14.4849 4.84881 14.4169 4.88699 14.3716 4.91462L9.21503 7.90468C8.95121 8.055 8.78936 8.33613 8.79098 8.64083L8.78774 15.9364V15.938ZM9.97168 13.3754L12.7758 11.7495L15.5798 13.3746V16.6254L12.7758 18.2505L9.97168 16.6254V13.3754Z" fill="black"/>
</g>
</g>
</svg>
