<svg width="86" height="26" viewBox="0 0 86 26" fill="none" xmlns="http://www.w3.org/2000/svg">
<g id="logo_oracle-netsuite">
<path id="Vector" d="M84.1753 1.12631C84.2436 1.12631 84.3461 1.1263 84.3802 1.02383C84.4144 0.989677 84.4144 0.955521 84.4144 0.921364C84.4144 0.853422 84.3802 0.784736 84.3119 0.750579C84.2436 0.716422 84.1753 0.716422 84.0728 0.716422H84.0045V1.09178H84.1753M84.0728 0.546009C84.2436 0.546009 84.3461 0.54601 84.4144 0.580166C84.6531 0.64848 84.6531 0.887208 84.6531 0.955521V1.05762C84.6531 1.1263 84.619 1.2284 84.4823 1.29672C84.4823 1.29672 84.4482 1.33087 84.4144 1.33087L84.7214 1.87664H84.4144L84.1753 1.36466H84.0045V1.87664H83.732V0.546009H84.0728ZM84.1753 2.42278C84.8235 2.42278 85.3697 1.9108 85.3697 1.2284C85.3697 0.54601 84.8577 0.03403 84.1753 0.03403C83.5271 0.03403 82.9809 0.580167 82.9809 1.2284C82.9809 1.87664 83.5271 2.42278 84.1753 2.42278ZM83.2542 1.2284C83.2542 0.716423 83.6633 0.307284 84.2095 0.307284C84.7214 0.307284 85.1306 0.716423 85.1306 1.2284C85.1306 1.74038 84.7214 2.14989 84.2095 2.14989C83.6633 2.18405 83.2542 1.74038 83.2542 1.2284ZM74.963 8.8372C73.3933 8.8372 72.0626 7.77946 71.6535 6.34636H80.3538L81.5482 4.46996H71.6535C72.0626 3.03686 73.3933 1.97911 74.963 1.97911H80.9341L82.1281 0.102342H74.8264C71.8918 0.102342 69.5376 2.49109 69.5376 5.39108C69.5376 8.3256 71.926 10.6798 74.8264 10.6798H81.1049L82.2985 8.80342H74.963M50.0549 10.6798H56.3672L57.5612 8.80342H50.2257C48.3147 8.80342 46.7792 7.26785 46.7792 5.39108C46.7792 3.48053 48.3147 1.97911 50.2257 1.97911H56.1968L57.3912 0.102342H50.0894C47.1545 0.102342 44.7665 2.49109 44.7665 5.39108C44.7665 8.3256 47.1545 10.6798 50.0549 10.6798ZM11.3964 8.8372H5.4936C3.6172 8.8372 2.08163 7.302 2.08163 5.42524C2.08163 3.51468 3.6172 2.01327 5.4936 2.01327H11.3623C13.2728 2.01327 14.8084 3.54847 14.8084 5.42524C14.8084 7.302 13.2728 8.8372 11.3964 8.8372ZM5.35697 10.6798H11.4989C14.433 10.6798 16.7873 8.3256 16.7873 5.39108C16.7873 2.45694 14.433 0.102342 11.4989 0.102342H5.35697C2.45698 0.102342 0.0686035 2.49109 0.0686035 5.39108C0.0686035 8.3256 2.45698 10.6798 5.35697 10.6798ZM26.819 7.26785C28.7978 7.26785 30.4013 5.66434 30.4013 3.6851C30.4013 1.70586 28.7978 0.102342 26.819 0.102342H17.9133V10.6798H19.9609V1.97911H26.6827C27.638 1.97911 28.3883 2.72982 28.3883 3.6851C28.3883 4.64074 27.638 5.39108 26.6827 5.39108H20.9499L27.0239 10.6798H29.9922L25.8975 7.23369H26.819M60.4957 8.8372V0.102342H58.4485V9.69038C58.4485 9.96326 58.5514 10.202 58.7556 10.4069C58.9601 10.6119 59.233 10.714 59.5063 10.714H68.7873L69.9813 8.8372H60.4957ZM35.588 6.96081H41.013L38.1471 2.32031L32.858 10.6798H30.4355L36.8503 0.648481C37.1232 0.238971 37.601 0.000244141 38.113 0.000244141C38.6246 0.000244141 39.0683 0.238971 39.3411 0.648481L45.7897 10.714H43.4017L42.2757 8.8372H36.7824L35.588 6.96081Z" fill="#F90000"/>
<g id="Union">
<path d="M29.2072 24.9761C27.1946 24.9761 27.1262 23.8501 27.0921 23.236H25.8298C25.8298 23.6797 25.8298 24.3621 26.3417 25.0103C27.0241 25.8976 28.3886 25.9997 29.0368 25.9997C31.2889 25.9997 32.4833 24.8054 32.4833 23.2702C32.4833 22.8948 32.4491 22.0762 31.6301 21.53C31.1794 21.2294 30.9402 21.1672 29.4666 20.7834C29.2675 20.7316 29.0458 20.6739 28.7981 20.6089C27.7403 20.3356 27.2283 20.0969 27.2283 19.3121C27.2283 18.4592 27.9794 17.9131 29.1734 17.9131C30.0262 17.9131 30.9477 18.1518 31.0157 19.2441H32.2784L32.2743 19.199C32.2408 18.8233 32.1913 18.2674 31.7326 17.7427C31.0157 16.992 29.8558 16.8899 29.2759 16.8899C27.6382 16.8899 25.966 17.6744 25.966 19.4487C25.966 20.0286 26.171 20.6768 26.8871 21.1547C27.306 21.4443 27.8454 21.5823 29.0224 21.8834L29.2417 21.9395L29.3313 21.9619C30.5083 22.2554 31.2548 22.4416 31.2548 23.4068C31.2548 23.8501 31.0157 24.9761 29.2072 24.9761Z" fill="black"/>
<path d="M3.75402 17.0606H1.05884V25.7599H2.83339V18.5256L6.20904 25.7946H8.77081V17.0606H7.02827V23.9186L3.75402 17.0606Z" fill="black"/>
<path d="M16.5838 17.0606H10.7478V25.7946H16.7199V24.3616H12.6237V22.008H16.3436V20.575H12.6237V18.4936H16.5838V17.0606Z" fill="black"/>
<path d="M17.7422 18.4936V17.0606H24.8404V18.4936H22.2466V25.7946H20.3707V18.4936H17.7422Z" fill="black"/>
<path d="M35.6224 17.0599V22.4508C35.6224 23.3723 35.827 23.7814 35.9974 24.0205C36.5435 24.737 37.3963 24.8733 37.9766 24.8733C40.3309 24.8733 40.3309 23.0311 40.3309 22.3828V17.0599H41.4907V22.4508C41.4907 22.9286 41.4907 23.8839 40.7745 24.7708C39.9213 25.8631 38.5907 25.9652 37.9425 25.9652C37.1235 25.9652 35.6566 25.7265 34.8717 24.5666C34.5988 24.1909 34.3597 23.6793 34.3597 22.3828V17.0599H35.6224Z" fill="black"/>
<path d="M45.2089 25.7946H44.0161V17.0606H45.2089V25.7946Z" fill="black"/>
<path d="M49.919 25.7946V18.0826H46.9836V17.0606H54.0125V18.0826H51.0798V25.7946H49.919Z" fill="black"/>
<path d="M60.9395 17.0606H55.4797V25.7946H61.0409V24.7379H56.6752V21.8372H60.734V20.8125H56.6752V18.0826H60.9395V17.0606Z" fill="black"/>
</g>
</g>
</svg>
