<svg xmlns="http://www.w3.org/2000/svg" xmlns:xlink="http://www.w3.org/1999/xlink" xmlns:serif="http://www.serif.com/" width="100%" height="100%" viewBox="0 0 98 17" version="1.1" xml:space="preserve" style="fill-rule:evenodd;clip-rule:evenodd;stroke-linejoin:round;stroke-miterlimit:2;">
    <g id="Stars" transform="matrix(1,0,0,1,-0.734725,0.612937)">
        <g>
            <g>
                <g transform="matrix(0.999391,-0.0348995,0.0348995,0.999391,-0.00275085,0.0281855)">
                    <path d="M17.742,7.039L13.862,10.493L14.572,15.586C14.603,15.809 14.503,16.029 14.312,16.155C14.205,16.226 14.079,16.26 13.954,16.256C13.858,16.252 13.762,16.226 13.676,16.178L9.117,13.626L4.393,15.853C4.187,15.951 3.941,15.925 3.76,15.786C3.578,15.647 3.494,15.42 3.54,15.2L4.603,10.169L0.974,6.454C0.815,6.291 0.763,6.054 0.843,5.843C0.921,5.633 1.116,5.483 1.344,5.458L6.558,4.902L9.039,0.377C9.256,-0.019 9.931,0.004 10.12,0.415L12.28,5.101L17.443,6.02C17.668,6.061 17.852,6.223 17.915,6.439C17.979,6.656 17.912,6.887 17.742,7.039Z" style="fill:rgb(0,110,255);fill-rule:nonzero;"/>
                </g>
                <g transform="matrix(0.999391,-0.0348995,0.0348995,0.999391,-0.00275085,0.0281855)">
                    <path d="M37.73,7.737L33.85,11.191L34.56,16.284C34.591,16.507 34.49,16.727 34.3,16.853C34.192,16.924 34.067,16.958 33.942,16.953C33.846,16.95 33.75,16.924 33.664,16.876L29.105,14.323L24.38,16.551C24.175,16.649 23.929,16.623 23.747,16.484C23.566,16.345 23.482,16.118 23.528,15.898L24.591,10.867L20.961,7.152C20.803,6.989 20.751,6.752 20.831,6.541C20.909,6.331 21.103,6.181 21.331,6.156L26.546,5.6L29.026,1.075C29.244,0.679 29.919,0.702 30.108,1.113L32.267,5.799L37.431,6.718C37.656,6.759 37.84,6.921 37.903,7.137C37.967,7.354 37.9,7.585 37.73,7.737Z" style="fill:rgb(0,110,255);fill-rule:nonzero;"/>
                </g>
                <g transform="matrix(0.999391,-0.0348995,0.0348995,0.999391,-0.00275085,0.0281855)">
                    <path d="M53.838,11.889L57.718,8.435C57.887,8.283 57.955,8.052 57.891,7.835C57.828,7.619 57.644,7.457 57.418,7.416L52.255,6.497L50.096,1.811C49.907,1.4 49.232,1.377 49.014,1.773L46.534,6.298L41.319,6.854C41.091,6.879 40.897,7.029 40.818,7.239C40.739,7.45 40.791,7.687 40.949,7.85L44.579,11.565L43.516,16.596C43.47,16.816 43.554,17.043 43.735,17.182C43.916,17.321 44.163,17.347 44.368,17.249L49.093,15.021L53.652,17.574C53.738,17.622 53.834,17.648 53.93,17.652C54.055,17.656 54.18,17.622 54.288,17.551C54.478,17.425 54.579,17.205 54.548,16.982L53.838,11.889Z" style="fill:rgb(0,110,255);fill-rule:nonzero;"/>
                </g>
                <g transform="matrix(0.999391,-0.0348995,0.0348995,0.999391,-0.00275085,0.0281855)">
                    <path d="M77.706,9.133L73.826,12.586L74.536,17.68C74.567,17.903 74.466,18.123 74.275,18.249C74.168,18.32 74.043,18.354 73.918,18.35C73.822,18.346 73.726,18.32 73.639,18.272L69.081,15.719L64.356,17.947C64.15,18.045 63.904,18.019 63.723,17.88C63.542,17.741 63.458,17.514 63.503,17.294L64.567,12.263L60.937,8.548C60.779,8.385 60.727,8.148 60.806,7.937C60.885,7.727 61.079,7.577 61.307,7.552L66.522,6.996L69.002,2.471C69.22,2.075 69.894,2.098 70.083,2.509L72.243,7.195L77.406,8.114C77.632,8.155 77.815,8.317 77.879,8.533C77.942,8.75 77.875,8.981 77.706,9.133Z" style="fill:rgb(0,110,255);fill-rule:nonzero;"/>
                </g>
                <g transform="matrix(0.999391,-0.0348995,0.0348995,0.999391,-0.00275085,0.0281855)">
                    <path d="M93.814,13.285L97.694,9.831C97.863,9.679 97.93,9.448 97.867,9.231C97.803,9.015 97.62,8.853 97.394,8.812L92.231,7.893L90.071,3.207C89.882,2.796 89.208,2.773 88.99,3.169L86.509,7.693L81.295,8.25C81.067,8.275 80.872,8.425 80.794,8.635C80.715,8.846 80.766,9.083 80.925,9.246L84.554,12.961L83.491,17.992C83.445,18.212 83.53,18.439 83.711,18.578C83.892,18.717 84.138,18.743 84.344,18.645L89.069,16.417L93.627,18.97C93.714,19.018 93.81,19.044 93.906,19.047C94.031,19.052 94.156,19.018 94.263,18.947C94.454,18.821 94.555,18.601 94.523,18.378L93.814,13.285Z" style="fill:rgb(0,110,255);fill-rule:nonzero;"/>
                </g>
            </g>
        </g>
    </g>
</svg>