<svg width="118" height="24" viewBox="0 0 118 24" fill="none" xmlns="http://www.w3.org/2000/svg">
<g id="logo_shopifyplus">
<path id="Vector" d="M91.8849 9.10211C90.4068 9.10211 89.1815 9.62723 88.3063 10.5997L88.4814 9.72447C88.5397 9.45219 88.3452 9.2188 88.0729 9.2188C87.8007 9.2188 87.5089 9.45219 87.47 9.72447L84.9028 23.047C84.8444 23.3193 85.0389 23.5527 85.3112 23.5527C85.5835 23.5527 85.8752 23.3193 85.9141 23.047L86.8671 18.0875C87.2172 18.7293 88.034 19.5851 89.8622 19.5851C91.3015 19.5851 92.4879 19.1378 93.4214 18.282C94.3939 17.3874 95.0551 16.0454 95.3857 14.3144C95.7164 12.5835 95.5802 11.2609 94.9579 10.3663C94.3549 9.52998 93.3242 9.10211 91.8849 9.10211ZM90.0373 18.671C87.859 18.671 87.0033 17.1734 87.5478 14.3339C88.0924 11.4749 89.4733 10.0162 91.6321 10.0162C94.0049 10.0162 94.8801 11.436 94.3161 14.3339C93.752 17.3096 92.3906 18.671 90.0373 18.671ZM114.037 13.7893C112.754 13.3031 111.528 12.8558 111.762 11.6499C111.878 11.047 112.365 10.0357 114.348 10.0357C115.457 10.0357 116.157 10.3468 116.76 11.1053C116.877 11.2415 117.013 11.2415 117.052 11.2415C117.324 11.222 117.558 11.0276 117.616 10.7747C117.635 10.658 117.616 10.5413 117.558 10.4441V10.4246C116.935 9.54943 115.924 9.10211 114.523 9.10211C112.501 9.10211 111.042 10.0746 110.75 11.6499C110.381 13.5365 112.053 14.1588 113.532 14.7228C114.796 15.2091 116.002 15.6564 115.788 16.8039C115.477 18.4376 113.765 18.671 112.773 18.671C111.412 18.671 110.575 18.3015 109.953 17.4263C109.875 17.329 109.778 17.2901 109.661 17.2901C109.389 17.3096 109.156 17.5041 109.097 17.7569C109.078 17.8736 109.097 17.9903 109.156 18.0875C109.564 18.846 110.789 19.624 112.598 19.624C114.893 19.624 116.468 18.5737 116.799 16.8233C117.149 14.9368 115.496 14.3144 114.037 13.7893ZM110.964 6.45705H109.895L110.109 5.38735C110.167 5.11507 109.972 4.88168 109.7 4.88168C109.428 4.88168 109.156 5.11507 109.097 5.38735L108.883 6.45705H107.814C107.541 6.45705 107.269 6.69044 107.211 6.96272C107.152 7.23501 107.347 7.46839 107.619 7.46839H108.689L108.475 8.53809C108.417 8.81037 108.611 9.04376 108.883 9.04376C109.156 9.04376 109.428 8.81037 109.486 8.53809L109.7 7.46839H110.77C111.042 7.46839 111.314 7.23501 111.373 6.96272C111.431 6.74878 111.295 6.51539 111.062 6.45705C111.042 6.4765 111.003 6.45705 110.964 6.45705ZM25.6613 16.8039C26.1864 17.0762 27.1199 17.4457 28.0146 17.4263C28.8314 17.4263 29.2593 16.9789 29.2593 16.4538C29.2593 15.9287 28.9481 15.5786 28.0729 15.0729C26.9838 14.4506 26.1669 13.5754 26.1669 12.4279C26.1669 10.4052 27.8979 8.96596 30.4263 8.96596C31.5348 8.96596 32.3906 9.1799 32.8574 9.45218L32.1961 11.4943C31.6321 11.2415 31.0292 11.1053 30.4068 11.1053C29.59 11.1053 29.0648 11.4749 29.0648 12.0583C29.0648 12.5251 29.4344 12.8558 30.1734 13.2447C31.3015 13.8865 32.235 14.7617 32.235 16.0065C32.235 18.3015 30.3679 19.6045 27.7812 19.5851C26.5948 19.5656 25.4862 19.2545 24.9417 18.8655C24.9611 18.8655 25.6613 16.8039 25.6613 16.8039ZM32.8185 19.5073L35.6191 4.88168H38.4976L37.389 10.5413L37.4279 10.5024C38.2058 9.58833 39.1977 8.94652 40.4814 8.94652C41.9789 8.94652 42.8347 9.91896 42.8347 11.5332C42.8347 12.0389 42.7569 12.8363 42.6208 13.4781L41.4927 19.4878H38.6143L39.7034 13.6532C39.7812 13.2642 39.8201 12.7391 39.8201 12.3501C39.8201 11.7277 39.5673 11.2609 38.9254 11.2609C38.0113 11.2609 37.0195 12.4862 36.6499 14.3922L35.6969 19.4878L32.8185 19.5073ZM53.2593 12.9724C53.2593 16.5511 50.9643 19.5851 47.5608 19.5851C44.9741 19.5851 43.5932 17.7958 43.5932 15.5592C43.5932 12.0778 45.8882 8.94652 49.3501 8.94652C52.0535 8.94652 53.2593 10.9109 53.2593 12.9724ZM46.5494 15.5008C46.5494 16.5511 46.9579 17.3874 47.9498 17.3874C49.4668 17.3874 50.3225 14.6645 50.3225 12.8947C50.3225 12.0389 49.9919 11.1637 48.9611 11.1637C47.4052 11.1442 46.5494 13.8476 46.5494 15.5008ZM52.5786 23.5721L54.5819 13.0308C54.8152 11.8444 55.0486 10.3079 55.1653 9.2188H57.7131L57.5381 10.8525H57.577C58.3549 9.76337 59.483 9.04376 60.6305 9.04376C62.731 9.04376 63.5867 10.7358 63.5867 12.6613C63.5867 16.1621 61.3695 19.624 57.9854 19.624C57.2853 19.624 56.624 19.5073 56.2934 19.235H56.235L55.4376 23.5721H52.5786ZM56.6823 16.9984C56.9935 17.2512 57.3436 17.4068 57.8687 17.4068C59.483 17.4068 60.5916 14.7617 60.5916 12.8947C60.5916 12.1167 60.3193 11.2998 59.4441 11.2998C58.4327 11.2998 57.4992 12.4862 57.1686 14.295L56.6823 16.9984ZM63.684 19.5073L65.6289 9.2188H68.5267L66.5624 19.5073H63.684ZM67.4182 8.14911C66.6013 8.14911 66.0567 7.44895 66.0567 6.59319C66.0567 5.65964 66.7958 4.86224 67.7099 4.86224C68.5851 4.86224 69.1491 5.54295 69.1491 6.37925C69.1297 7.44894 68.3517 8.12966 67.4571 8.12966C67.4571 8.14911 67.4182 8.14911 67.4182 8.14911ZM69.0713 19.5073L70.5883 11.3776H69.2464L69.6548 9.2188H70.9968L71.0746 8.69368C71.308 7.48784 71.7553 6.24311 72.7472 5.42626C73.5251 4.76499 74.5365 4.45381 75.5673 4.45381C76.2674 4.45381 76.7925 4.55105 77.1232 4.70664L76.5592 6.96272C76.2674 6.86548 75.9562 6.80713 75.6451 6.80713C74.6921 6.80713 74.1086 7.72123 73.9336 8.71313L73.8363 9.23825H75.8396L75.4506 11.3971H73.4668L71.9498 19.5267L69.0713 19.5073ZM79.4376 9.2188L79.9044 13.8282C80.0016 14.6451 80.0794 15.4425 80.1572 16.2593H80.1961C80.4295 15.7147 80.6434 14.9173 81.0519 13.8088L82.8023 9.2188H85.8169L82.2966 16.7455C81.0519 19.3322 79.8266 21.2188 78.5235 22.4441C77.4927 23.3971 76.2869 23.8833 75.7034 24L74.906 21.5494C75.3922 21.3744 75.9951 21.1216 76.5397 20.7326C77.201 20.2658 77.765 19.6434 78.1151 19.0016C78.1929 18.846 78.2123 18.7488 78.1734 18.5543L76.4425 9.19935C76.4036 9.2188 79.4376 9.2188 79.4376 9.2188ZM108.611 10.1912C108.339 10.1912 108.066 10.4246 108.008 10.6969L107.036 15.7536C106.511 18.3209 104.935 18.671 103.438 18.671C100.773 18.671 100.695 17.154 100.987 15.6564L102.135 9.72447C102.193 9.45219 101.998 9.2188 101.726 9.2188C101.454 9.2188 101.182 9.45219 101.123 9.72447L99.9757 15.6564C99.7423 16.8622 99.8201 17.7374 100.229 18.3793C100.734 19.1767 101.746 19.5851 103.263 19.5851C104.78 19.5851 105.947 19.1767 106.763 18.3793C107.405 17.7374 107.833 16.8428 108.066 15.6564L109.019 10.6775C109.078 10.4246 108.883 10.1912 108.611 10.1912ZM99.4117 4.90113C99.1394 4.90113 98.8477 5.13452 98.8088 5.40681L96.2026 18.9627C96.1443 19.235 96.3387 19.4684 96.611 19.4684C96.8833 19.4684 97.1556 19.235 97.2139 18.9627L99.8201 5.40681C99.8785 5.13452 99.684 4.90113 99.4117 4.90113ZM15.1005 2.76175L14.4003 2.97569C14.3225 2.68395 14.2058 2.41167 14.0697 2.13938C13.564 1.18639 12.8444 0.680713 11.9692 0.680713C11.9109 0.680713 11.8525 0.680708 11.7942 0.700157C11.7747 0.661259 11.7358 0.641811 11.7164 0.602913C11.3274 0.194485 10.8412 0 10.2577 0C9.11021 0.0388979 7.98217 0.855753 7.06807 2.31442C6.42626 3.34522 5.92058 4.62885 5.78444 5.64019L3.54781 6.34035C2.88655 6.55429 2.8671 6.57374 2.7893 7.19611C2.73096 7.66289 1 21.0243 1 21.0243L15.3339 23.4943V2.7423C15.2172 2.7423 15.1588 2.7423 15.1005 2.76175ZM11.7942 3.79254L9.3825 4.55105C9.61588 3.6564 10.0632 2.76175 10.6078 2.17828C10.8023 1.96434 11.094 1.7115 11.4246 1.57536C11.7358 2.23662 11.7942 3.15073 11.7942 3.79254ZM10.2383 0.777958C10.4716 0.758509 10.7245 0.836304 10.919 0.952997C10.5883 1.12804 10.2966 1.36143 10.0438 1.63371C9.32415 2.41167 8.76013 3.6175 8.54619 4.78444L6.54295 5.40681C6.95138 3.5786 8.4684 0.836305 10.2383 0.777958ZM8.02107 11.2026C8.09887 12.4279 11.3079 12.6807 11.483 15.5397C11.6191 17.7958 10.2966 19.3323 8.37115 19.4489C6.05673 19.6045 4.79255 18.2431 4.79255 18.2431L5.27877 16.1621C5.27877 16.1621 6.5624 17.1345 7.57374 17.0567C8.23501 17.0178 8.48785 16.4733 8.44895 16.0843C8.3517 14.4895 5.74554 14.5867 5.5705 11.9805C5.43436 9.78282 6.87358 7.54619 10.0632 7.3517C11.2885 7.2739 11.9109 7.58509 11.9109 7.58509L11.1912 10.3079C11.1912 10.3079 10.3744 9.93841 9.4214 9.99676C8.02107 10.094 8.00162 10.9887 8.02107 11.2026ZM12.5527 3.55915C12.5527 2.97569 12.4749 2.17828 12.2026 1.47812C13.0583 1.63371 13.4862 2.62561 13.6807 3.20908C13.6613 3.20908 12.5527 3.55915 12.5527 3.55915ZM15.7423 23.4554L21.6937 21.9773C21.6937 21.9773 19.1264 4.66775 19.1264 4.55105C19.107 4.45381 19.0292 4.37601 18.9125 4.35656C18.8347 4.35656 17.1621 4.31766 17.1621 4.31766C17.1621 4.31766 16.1507 3.32577 15.7618 2.95624V23.4554H15.7423Z" fill="black"/>
</g>
</svg>
