<svg width="152" height="32" viewBox="0 0 152 32" fill="none" xmlns="http://www.w3.org/2000/svg">
<g id="logo_stellantis" clip-path="url(#clip0_5265_9810)">
<path id="Vector" d="M103.889 11.5775C103.921 11.5753 103.953 11.5666 103.983 11.5519C104.012 11.5373 104.038 11.517 104.06 11.4922C104.081 11.4674 104.098 11.4387 104.108 11.4075C104.118 11.3764 104.122 11.3436 104.12 11.3109C104.115 11.2448 104.084 11.1834 104.034 11.1401C103.984 11.0967 103.919 11.075 103.853 11.0797C103.787 11.0845 103.726 11.1152 103.682 11.1652C103.639 11.2152 103.617 11.2804 103.622 11.3464C103.628 11.4117 103.659 11.4721 103.709 11.5145C103.759 11.557 103.823 11.578 103.889 11.5731M88.0577 3.50641C88.0577 3.64969 88.1001 3.78976 88.1797 3.90889C88.2593 4.02803 88.3725 4.12088 88.5049 4.17571C88.6372 4.23054 88.7829 4.24489 88.9234 4.21694C89.064 4.18898 89.193 4.11999 89.2944 4.01867C89.3957 3.91736 89.4647 3.78827 89.4926 3.64774C89.5206 3.50722 89.5062 3.36155 89.4514 3.22918C89.3966 3.0968 89.3037 2.98366 89.1846 2.90406C89.0654 2.82446 88.9254 2.78197 88.7821 2.78197C88.59 2.78197 88.4057 2.85829 88.2698 2.99415C88.134 3.13001 88.0577 3.31428 88.0577 3.50641ZM92.6576 5.06197C92.6576 5.20613 92.7004 5.34705 92.7805 5.46692C92.8606 5.58678 92.9744 5.68021 93.1076 5.73537C93.2408 5.79054 93.3873 5.80498 93.5287 5.77685C93.6701 5.74873 93.8 5.67931 93.9019 5.57737C94.0039 5.47543 94.0733 5.34556 94.1014 5.20417C94.1295 5.06278 94.1151 4.91622 94.0599 4.78303C94.0048 4.64985 93.9114 4.53601 93.7915 4.45592C93.6716 4.37583 93.5307 4.33308 93.3865 4.33308C93.1944 4.33308 93.0101 4.4094 92.8743 4.54526C92.7384 4.68112 92.6621 4.86539 92.6621 5.05752M75.3288 24.0309C75.3279 24.175 75.3698 24.3162 75.4491 24.4365C75.5285 24.5569 75.6418 24.651 75.7746 24.707C75.9075 24.763 76.0539 24.7783 76.1955 24.751C76.337 24.7238 76.4673 24.6551 76.5699 24.5538C76.6724 24.4525 76.7427 24.3231 76.7716 24.1818C76.8006 24.0406 76.7871 23.894 76.7327 23.7605C76.6784 23.627 76.5857 23.5125 76.4663 23.4317C76.3469 23.3509 76.2063 23.3073 76.0621 23.3064C75.967 23.3058 75.8726 23.324 75.7845 23.3599C75.6964 23.3957 75.6162 23.4486 75.5485 23.5155C75.4809 23.5823 75.427 23.6618 75.3901 23.7495C75.3531 23.8372 75.3338 23.9313 75.3332 24.0264M78.911 27.0397C78.911 27.1839 78.9537 27.3248 79.0338 27.4447C79.1139 27.5646 79.2278 27.658 79.3609 27.7132C79.4941 27.7683 79.6407 27.7828 79.7821 27.7546C79.9235 27.7265 80.0533 27.6571 80.1553 27.5551C80.2572 27.4532 80.3266 27.3233 80.3548 27.1819C80.3829 27.0406 80.3685 26.894 80.3133 26.7608C80.2581 26.6276 80.1647 26.5138 80.0448 26.4337C79.925 26.3536 79.784 26.3109 79.6399 26.3109C79.4477 26.3132 79.2641 26.3909 79.1286 26.5272C78.9931 26.6635 78.9166 26.8476 78.9154 27.0397M83.4754 28.4442C83.4754 28.5884 83.5182 28.7293 83.5983 28.8491C83.6784 28.969 83.7922 29.0624 83.9254 29.1176C84.0586 29.1728 84.2051 29.1872 84.3465 29.1591C84.4879 29.131 84.6178 29.0615 84.7197 28.9596C84.8217 28.8577 84.8911 28.7278 84.9192 28.5864C84.9473 28.445 84.9329 28.2984 84.8777 28.1653C84.8226 28.0321 84.7291 27.9182 84.6093 27.8381C84.4894 27.7581 84.3485 27.7153 84.2043 27.7153C84.1084 27.7147 84.0134 27.7332 83.9247 27.7696C83.836 27.806 83.7554 27.8597 83.6876 27.9275C83.6198 27.9953 83.5661 28.0759 83.5297 28.1646C83.4933 28.2533 83.4748 28.3483 83.4754 28.4442ZM88.1599 28.3864C88.1634 28.5287 88.2087 28.6668 88.2902 28.7835C88.3717 28.9002 88.4858 28.9902 88.6182 29.0425C88.7505 29.0947 88.8954 29.1068 89.0346 29.0773C89.1738 29.0477 89.3013 28.9778 89.401 28.8762C89.5007 28.7747 89.5683 28.646 89.5953 28.5063C89.6224 28.3665 89.6077 28.2219 89.553 28.0905C89.4984 27.9591 89.4063 27.8467 89.2881 27.7673C89.17 27.6879 89.0311 27.6451 88.8888 27.6442C88.7917 27.6436 88.6956 27.6624 88.606 27.6997C88.5164 27.7369 88.4352 27.7918 88.3672 27.861C88.2992 27.9303 88.2458 28.0124 88.2102 28.1027C88.1746 28.1929 88.1575 28.2894 88.1599 28.3864ZM92.6576 26.9597C92.6594 27.1031 92.7034 27.2428 92.7842 27.3613C92.865 27.4798 92.9789 27.5718 93.1117 27.6259C93.2445 27.68 93.3903 27.6937 93.5309 27.6652C93.6714 27.6368 93.8005 27.5676 93.9019 27.4662C94.0033 27.3648 94.0725 27.2358 94.1009 27.0952C94.1293 26.9546 94.1156 26.8088 94.0616 26.676C94.0075 26.5432 93.9155 26.4293 93.797 26.3485C93.6785 26.2677 93.5388 26.2237 93.3954 26.222C93.2995 26.2214 93.2045 26.2398 93.1158 26.2763C93.0271 26.3127 92.9465 26.3663 92.8787 26.4341C92.8109 26.5019 92.7572 26.5825 92.7208 26.6712C92.6844 26.7599 92.6659 26.855 92.6665 26.9509M96.2488 24.0709C96.2488 24.215 96.2915 24.3559 96.3716 24.4758C96.4517 24.5957 96.5655 24.6891 96.6987 24.7443C96.8319 24.7994 96.9785 24.8139 97.1199 24.7857C97.2612 24.7576 97.3911 24.6882 97.493 24.5863C97.595 24.4843 97.6644 24.3544 97.6925 24.2131C97.7207 24.0717 97.7062 23.9251 97.6511 23.7919C97.5959 23.6587 97.5025 23.5449 97.3826 23.4648C97.2627 23.3847 97.1218 23.342 96.9776 23.342C96.8818 23.3414 96.7867 23.3598 96.698 23.3962C96.6093 23.4327 96.5287 23.4863 96.4609 23.5541C96.3931 23.6219 96.3395 23.7025 96.303 23.7912C96.2666 23.8799 96.2482 23.975 96.2488 24.0709ZM96.1999 7.93752C96.2008 8.08061 96.244 8.22024 96.3241 8.33879C96.4043 8.45733 96.5177 8.54949 96.6501 8.60365C96.7826 8.6578 96.9281 8.67151 97.0684 8.64306C97.2086 8.6146 97.3373 8.54526 97.4381 8.44377C97.539 8.34228 97.6076 8.21319 97.6351 8.07278C97.6627 7.93238 97.6481 7.78695 97.5932 7.65483C97.5382 7.52271 97.4454 7.40983 97.3263 7.33042C97.2073 7.25102 97.0674 7.20864 96.9243 7.20863C96.8288 7.20863 96.7342 7.22752 96.646 7.2642C96.5579 7.30089 96.4778 7.35465 96.4105 7.42239C96.3431 7.49013 96.2899 7.57052 96.2537 7.65893C96.2176 7.74733 96.1993 7.84202 96.1999 7.93752ZM91.111 6.01752C91.1101 5.83488 91.0551 5.65658 90.953 5.50515C90.8509 5.35371 90.7062 5.23591 90.5372 5.16662C90.3682 5.09734 90.1825 5.07966 90.0035 5.11583C89.8244 5.152 89.6601 5.2404 89.5313 5.36986C89.4025 5.49932 89.3149 5.66404 89.2795 5.84325C89.2442 6.02245 89.2628 6.2081 89.3329 6.37676C89.403 6.54542 89.5215 6.68953 89.6734 6.79092C89.8253 6.8923 90.0039 6.94641 90.1865 6.94641C90.3083 6.94641 90.4289 6.92236 90.5413 6.87562C90.6538 6.82889 90.7559 6.76039 90.8418 6.67408C90.9277 6.58777 90.9957 6.48533 91.0419 6.37266C91.0881 6.25999 91.1116 6.1393 91.111 6.01752ZM94.2221 7.93308C94.2212 7.75043 94.1663 7.57214 94.0641 7.4207C93.962 7.26926 93.8173 7.15147 93.6484 7.08218C93.4794 7.01289 93.2936 6.99522 93.1146 7.03139C92.9356 7.06756 92.7713 7.15595 92.6424 7.28541C92.5136 7.41487 92.426 7.5796 92.3907 7.7588C92.3553 7.938 92.3739 8.12365 92.444 8.29231C92.5141 8.46097 92.6326 8.60509 92.7845 8.70647C92.9364 8.80786 93.115 8.86197 93.2977 8.86197C93.4194 8.86197 93.54 8.83791 93.6525 8.79118C93.7649 8.74444 93.867 8.67595 93.9529 8.58963C94.0388 8.50332 94.1068 8.40089 94.153 8.28821C94.1992 8.17554 94.2227 8.05485 94.2221 7.93308ZM96.6488 10.6664C96.6488 10.4827 96.5943 10.3031 96.4922 10.1503C96.3902 9.99759 96.2451 9.87854 96.0753 9.80823C95.9056 9.73793 95.7188 9.71953 95.5387 9.75537C95.3585 9.79121 95.193 9.87968 95.063 10.0096C94.9331 10.1395 94.8447 10.305 94.8088 10.4852C94.773 10.6654 94.7914 10.8522 94.8617 11.0219C94.932 11.1916 95.0511 11.3367 95.2038 11.4388C95.3566 11.5408 95.5362 11.5953 95.7199 11.5953C95.842 11.5959 95.9631 11.5723 96.076 11.5258C96.189 11.4793 96.2916 11.4109 96.378 11.3245C96.4644 11.2382 96.5328 11.1355 96.5793 11.0226C96.6257 10.9096 96.6494 10.7886 96.6488 10.6664ZM89.9954 0.270857C90.0017 0.206182 89.9824 0.141618 89.9417 0.090959C89.901 0.0403003 89.8422 0.0075645 89.7776 -0.000254251C89.7118 -0.00523287 89.6467 0.0156689 89.5961 0.0580026C89.5454 0.100336 89.5133 0.160759 89.5065 0.226412C89.5016 0.292224 89.5225 0.357381 89.5648 0.408015C89.6071 0.45865 89.6675 0.490764 89.7332 0.497524C89.7653 0.500578 89.7977 0.497241 89.8286 0.487705C89.8594 0.478169 89.888 0.462623 89.9128 0.441964C89.9376 0.421305 89.9581 0.395941 89.973 0.367336C89.988 0.338731 89.9971 0.307451 89.9999 0.275301M96.1954 2.52419C96.1985 2.49206 96.1951 2.45965 96.1856 2.42882C96.1761 2.39799 96.1605 2.36935 96.1399 2.34456C96.1192 2.31977 96.0938 2.29932 96.0652 2.28438C96.0366 2.26944 96.0054 2.26031 95.9732 2.25752C95.9076 2.25983 95.8454 2.28753 95.7998 2.33479C95.7542 2.38206 95.7287 2.44518 95.7288 2.51086C95.7307 2.56808 95.752 2.62295 95.7891 2.66654C95.8262 2.71012 95.877 2.73984 95.9332 2.75086C95.9985 2.75578 96.0632 2.73475 96.1131 2.69231C96.163 2.64988 96.1942 2.58947 96.1999 2.52419M101.067 6.01752C101.07 5.98481 101.066 5.95182 101.056 5.92046C101.047 5.88909 101.031 5.85996 101.01 5.83476C100.989 5.80956 100.963 5.78877 100.934 5.77361C100.904 5.75845 100.873 5.7492 100.84 5.74641C100.808 5.74336 100.775 5.7467 100.744 5.75623C100.714 5.76577 100.685 5.78131 100.66 5.80197C100.635 5.82263 100.615 5.84799 100.6 5.8766C100.585 5.9052 100.576 5.93648 100.573 5.96863C100.561 6.03335 100.575 6.10015 100.612 6.1549C100.648 6.20964 100.704 6.24804 100.769 6.26197C100.834 6.27257 100.901 6.25773 100.955 6.22051C101.01 6.1833 101.048 6.12654 101.062 6.06197C101.064 6.04575 101.064 6.0293 101.062 6.01308M92.6399 2.78641C92.6448 2.69404 92.6224 2.60227 92.5754 2.52254C92.5285 2.44282 92.4592 2.37868 92.376 2.33811C92.2929 2.29754 92.1996 2.28235 92.1079 2.29442C92.0162 2.30649 91.9301 2.3453 91.8603 2.406C91.7905 2.4667 91.7401 2.54661 91.7154 2.63576C91.6907 2.7249 91.6928 2.81935 91.7214 2.90731C91.7501 2.99527 91.804 3.07286 91.8764 3.1304C91.9488 3.18793 92.0366 3.22287 92.1288 3.23086C92.1917 3.23631 92.2551 3.22904 92.3152 3.20948C92.3753 3.18992 92.4309 3.15847 92.4786 3.11701C92.5262 3.07554 92.5651 3.0249 92.5928 2.96811C92.6205 2.91131 92.6365 2.84952 92.6399 2.78641ZM97.3643 5.15086C97.3698 5.0879 97.3625 5.02448 97.3429 4.96439C97.3234 4.9043 97.2919 4.84875 97.2505 4.80106C97.209 4.75338 97.1584 4.71452 97.1016 4.68681C97.0448 4.65909 96.983 4.64309 96.9199 4.63975C96.8575 4.62909 96.7935 4.63112 96.7319 4.64573C96.6703 4.66033 96.6123 4.6872 96.5613 4.72474C96.5103 4.76228 96.4674 4.80971 96.4352 4.86419C96.4029 4.91868 96.382 4.97911 96.3736 5.04187C96.3652 5.10463 96.3696 5.16844 96.3865 5.22947C96.4033 5.29051 96.4323 5.34752 96.4716 5.3971C96.511 5.44669 96.56 5.48783 96.6156 5.51806C96.6712 5.5483 96.7324 5.56701 96.7954 5.57308H96.8399C96.9026 5.57854 96.9658 5.57124 97.0256 5.55164C97.0855 5.53203 97.1407 5.50051 97.1881 5.45899C97.2354 5.41747 97.2738 5.36679 97.3011 5.31002C97.3283 5.25324 97.3438 5.19154 97.3465 5.12863M100.582 8.49308C100.49 8.48819 100.398 8.5106 100.318 8.55752C100.239 8.60444 100.174 8.67379 100.134 8.75693C100.093 8.84006 100.078 8.9333 100.09 9.02502C100.102 9.11673 100.141 9.20286 100.202 9.27266C100.262 9.34247 100.342 9.39286 100.431 9.41755C100.521 9.44224 100.615 9.44014 100.703 9.41151C100.791 9.38288 100.869 9.32899 100.926 9.25655C100.984 9.18412 101.019 9.09635 101.027 9.00419C101.032 8.94123 101.025 8.87782 101.005 8.81772C100.986 8.75763 100.954 8.70209 100.913 8.6544C100.871 8.60671 100.821 8.56785 100.764 8.54014C100.707 8.51242 100.645 8.49642 100.582 8.49308ZM86.4888 1.48863C86.3947 1.48776 86.3025 1.51479 86.2238 1.56632C86.1451 1.61784 86.0835 1.69154 86.0467 1.77809C86.0099 1.86465 85.9996 1.96017 86.0171 2.05259C86.0346 2.145 86.0791 2.23016 86.1449 2.29728C86.2108 2.36441 86.2951 2.41049 86.3872 2.4297C86.4793 2.44891 86.575 2.44039 86.6622 2.40521C86.7494 2.37003 86.8243 2.30978 86.8773 2.23207C86.9302 2.15436 86.959 2.06268 86.9599 1.96863C86.9605 1.9066 86.9487 1.84507 86.9252 1.78765C86.9018 1.73022 86.8671 1.67805 86.8232 1.63419C86.7793 1.59032 86.7272 1.55564 86.6697 1.53218C86.6123 1.50871 86.5508 1.49693 86.4888 1.49752M84.1954 2.79086C84.0513 2.78998 83.9101 2.83187 83.7897 2.91123C83.6694 2.99059 83.5753 3.10386 83.5193 3.2367C83.4633 3.36955 83.448 3.51602 83.4753 3.65757C83.5025 3.79913 83.5712 3.92943 83.6725 4.03198C83.7738 4.13454 83.9032 4.20475 84.0444 4.23373C84.1857 4.26272 84.3323 4.24918 84.4658 4.19483C84.5993 4.14048 84.7137 4.04775 84.7946 3.92838C84.8754 3.809 84.919 3.66835 84.9199 3.52419C84.9199 3.33206 84.8436 3.14779 84.7077 3.01193C84.5718 2.87607 84.3876 2.79975 84.1954 2.79975M79.5954 4.33308C79.4513 4.3322 79.3101 4.37409 79.1897 4.45345C79.0694 4.53281 78.9753 4.64608 78.9193 4.77893C78.8633 4.91177 78.848 5.05824 78.8753 5.1998C78.9025 5.34135 78.9712 5.47165 79.0725 5.5742C79.1738 5.67676 79.3032 5.74697 79.4444 5.77596C79.5857 5.80494 79.7323 5.7914 79.8658 5.73705C79.9993 5.6827 80.1137 5.58997 80.1946 5.4706C80.2754 5.35123 80.319 5.21057 80.3199 5.06641C80.3187 4.87422 80.2422 4.69016 80.1067 4.55385C79.9712 4.41753 79.7876 4.33985 79.5954 4.33752M72.8621 15.302C72.7179 15.3011 72.5768 15.343 72.4564 15.4223C72.3361 15.5017 72.242 15.615 72.186 15.7478C72.13 15.8807 72.1147 16.0271 72.1419 16.1687C72.1692 16.3102 72.2378 16.4405 72.3391 16.5431C72.4404 16.6457 72.5699 16.7159 72.7111 16.7448C72.8523 16.7738 72.999 16.7603 73.1325 16.7059C73.266 16.6516 73.3804 16.5589 73.4612 16.4395C73.5421 16.3201 73.5857 16.1795 73.5865 16.0353C73.5865 15.9402 73.5678 15.846 73.5314 15.7581C73.495 15.6702 73.4416 15.5903 73.3744 15.523C73.3071 15.4558 73.2272 15.4024 73.1393 15.366C73.0514 15.3296 72.9572 15.3109 72.8621 15.3109M73.751 11.0309C73.6068 11.03 73.4657 11.0719 73.3453 11.1512C73.225 11.2306 73.1308 11.3439 73.0749 11.4767C73.0189 11.6096 73.0036 11.756 73.0308 11.8976C73.0581 12.0391 73.1267 12.1694 73.228 12.272C73.3293 12.3745 73.4588 12.4447 73.6 12.4737C73.7412 12.5027 73.8879 12.4892 74.0214 12.4348C74.1549 12.3805 74.2693 12.2878 74.3501 12.1684C74.4309 12.049 74.4746 11.9083 74.4754 11.7642C74.4802 11.5735 74.4097 11.3887 74.279 11.2497C74.1484 11.1108 73.9682 11.0289 73.7777 11.022M76.0932 7.20419C75.9491 7.20331 75.8079 7.2452 75.6875 7.32456C75.5672 7.40392 75.4731 7.51719 75.4171 7.65004C75.3611 7.78288 75.3458 7.92935 75.373 8.07091C75.4003 8.21247 75.4689 8.34276 75.5702 8.44532C75.6716 8.54787 75.801 8.61808 75.9422 8.64707C76.0834 8.67605 76.2301 8.66251 76.3636 8.60816C76.4971 8.55381 76.6115 8.46108 76.6923 8.34171C76.7732 8.22234 76.8168 8.08168 76.8176 7.93752C76.8165 7.74533 76.74 7.56127 76.6045 7.42496C76.469 7.28864 76.2854 7.21096 76.0932 7.20863M86.4888 27.502C86.6725 27.5028 86.8523 27.4492 87.0056 27.3479C87.1588 27.2466 87.2785 27.1021 87.3497 26.9327C87.4208 26.7633 87.4401 26.5766 87.4051 26.3962C87.3701 26.2159 87.2824 26.0499 87.1532 25.9194C87.0239 25.7889 86.8588 25.6996 86.6788 25.6629C86.4988 25.6262 86.3119 25.6437 86.1418 25.7132C85.9718 25.7827 85.8261 25.9011 85.7233 26.0533C85.6205 26.2056 85.5652 26.3849 85.5643 26.5686C85.5643 26.8142 85.6616 27.0498 85.8348 27.2239C86.008 27.398 86.2432 27.4963 86.4888 27.4975M86.4888 6.3953C86.6725 6.39618 86.8523 6.34256 87.0056 6.24122C87.1588 6.13989 87.2785 5.99538 87.3497 5.82599C87.4208 5.6566 87.4401 5.46992 87.4051 5.28956C87.3701 5.10921 87.2824 4.94328 87.1532 4.81275C87.0239 4.68222 86.8588 4.59296 86.6788 4.55626C86.4988 4.51956 86.3119 4.53706 86.1418 4.60655C85.9718 4.67604 85.8261 4.7944 85.7233 4.94666C85.6205 5.09893 85.5652 5.27825 85.5643 5.46197C85.5643 5.70756 85.6616 5.94315 85.8348 6.11723C86.008 6.2913 86.2432 6.38968 86.4888 6.39086M82.7999 6.93752C82.9836 6.9384 83.1634 6.88478 83.3167 6.78344C83.4699 6.68211 83.5897 6.53761 83.6608 6.36821C83.7319 6.19882 83.7512 6.01214 83.7162 5.83179C83.6812 5.65143 83.5936 5.4855 83.4643 5.35497C83.335 5.22444 83.1699 5.13519 82.9899 5.09848C82.8099 5.06178 82.623 5.07928 82.4529 5.14877C82.2829 5.21826 82.1372 5.33662 82.0344 5.48889C81.9316 5.64115 81.8763 5.82048 81.8754 6.00419C81.8748 6.12559 81.8982 6.24592 81.9441 6.3583C81.99 6.47068 82.0576 6.57292 82.1431 6.65918C82.2285 6.74543 82.3301 6.81402 82.442 6.86101C82.5539 6.90801 82.674 6.9325 82.7954 6.93308M79.6843 8.84863C79.868 8.84951 80.0479 8.79589 80.2011 8.69456C80.3544 8.59322 80.4741 8.44872 80.5452 8.27932C80.6163 8.10993 80.6356 7.92325 80.6007 7.7429C80.5657 7.56254 80.478 7.39661 80.3487 7.26608C80.2194 7.13556 80.0543 7.0463 79.8743 7.00959C79.6943 6.97289 79.5075 6.99039 79.3374 7.05988C79.1673 7.12937 79.0217 7.24773 78.9189 7.4C78.8161 7.55226 78.7608 7.73159 78.7599 7.9153C78.7593 8.0367 78.7826 8.15703 78.8285 8.26941C78.8745 8.38179 78.9421 8.48403 79.0275 8.57029C79.1129 8.65654 79.2145 8.72513 79.3264 8.77212C79.4384 8.81912 79.5585 8.84361 79.6799 8.84419M77.2265 11.5909C77.4108 11.5987 77.5932 11.5516 77.7506 11.4554C77.908 11.3593 78.0332 11.2184 78.1102 11.0509C78.1872 10.8833 78.2127 10.6966 78.1832 10.5145C78.1538 10.3325 78.0708 10.1633 77.9449 10.0286C77.819 9.89383 77.6558 9.79962 77.4761 9.75795C77.2965 9.71628 77.1085 9.72903 76.9361 9.79458C76.7637 9.86013 76.6147 9.97552 76.5082 10.126C76.4016 10.2765 76.3422 10.4554 76.3377 10.6397C76.3371 10.7611 76.3604 10.8815 76.4063 10.9939C76.4522 11.1062 76.5198 11.2085 76.6053 11.2947C76.6907 11.381 76.7923 11.4496 76.9042 11.4966C77.0162 11.5436 77.1363 11.5681 77.2577 11.5686M76.2488 15.022C76.4325 15.0228 76.6123 14.9692 76.7656 14.8679C76.9188 14.7666 77.0386 14.6221 77.1097 14.4527C77.1808 14.2833 77.2001 14.0966 77.1651 13.9162C77.1301 13.7359 77.0424 13.5699 76.9132 13.4394C76.7839 13.3089 76.6188 13.2196 76.4388 13.1829C76.2588 13.1462 76.0719 13.1637 75.9018 13.2332C75.7318 13.3027 75.5861 13.4211 75.4833 13.5733C75.3805 13.7256 75.3252 13.9049 75.3243 14.0886C75.3243 14.21 75.3482 14.3302 75.3947 14.4424C75.4412 14.5546 75.5092 14.6565 75.5951 14.7423C75.6809 14.8282 75.7828 14.8963 75.895 14.9427C76.0072 14.9892 76.1274 15.0131 76.2488 15.0131M83.2488 0.497524C83.3144 0.490764 83.3748 0.45865 83.4172 0.408015C83.4595 0.357381 83.4804 0.292224 83.4754 0.226412C83.4687 0.160759 83.4366 0.100336 83.3859 0.0580026C83.3353 0.0156689 83.2701 -0.00523287 83.2043 -0.000254251C83.1718 0.00250877 83.1401 0.0117741 83.1112 0.0269938C83.0822 0.0422136 83.0566 0.0630786 83.0359 0.0883549C83.0152 0.113631 82.9998 0.142806 82.9905 0.174153C82.9813 0.2055 82.9784 0.238383 82.9821 0.270857C82.9844 0.302988 82.9929 0.334357 83.0073 0.363161C83.0218 0.391966 83.0417 0.417638 83.0661 0.438701C83.0905 0.459765 83.1188 0.475805 83.1493 0.4859C83.1799 0.495995 83.2122 0.499945 83.2443 0.497524M77.0532 2.74641C77.0853 2.74416 77.1167 2.73558 77.1455 2.72117C77.1743 2.70675 77.2 2.68679 77.2211 2.66242C77.2421 2.63805 77.2582 2.60976 77.2683 2.57918C77.2784 2.54859 77.2823 2.51631 77.2799 2.48419C77.2742 2.41891 77.243 2.3585 77.1931 2.31607C77.1432 2.27364 77.0785 2.2526 77.0132 2.25752C76.9811 2.25977 76.9497 2.26835 76.9209 2.28277C76.8921 2.29718 76.8664 2.31715 76.8454 2.34151C76.8243 2.36588 76.8083 2.39417 76.7982 2.42476C76.7881 2.45535 76.7841 2.48763 76.7865 2.51975C76.7922 2.58502 76.8234 2.64543 76.8733 2.68787C76.9232 2.7303 76.9879 2.75134 77.0532 2.74641ZM103.889 22.1731C103.955 22.1731 104.018 22.1469 104.065 22.1002C104.111 22.0535 104.138 21.9902 104.138 21.9242C104.138 21.8582 104.111 21.7949 104.065 21.7482C104.018 21.7015 103.955 21.6753 103.889 21.6753H103.835C103.803 21.6776 103.772 21.6861 103.743 21.7005C103.714 21.715 103.689 21.7349 103.668 21.7593C103.647 21.7837 103.63 21.812 103.62 21.8425C103.61 21.8731 103.606 21.9054 103.609 21.9375C103.614 22.0028 103.646 22.0632 103.696 22.1056C103.745 22.1481 103.81 22.1691 103.875 22.1642M100.907 26.2975C100.972 26.2897 101.032 26.2573 101.074 26.2069C101.116 26.1565 101.137 26.092 101.133 26.0264C101.126 25.9608 101.094 25.9003 101.044 25.858C100.993 25.8157 100.928 25.7948 100.862 25.7997C100.796 25.8065 100.736 25.8386 100.694 25.8893C100.651 25.9399 100.63 26.005 100.635 26.0709C100.638 26.1036 100.647 26.1354 100.663 26.1646C100.678 26.1937 100.699 26.2196 100.724 26.2407C100.749 26.2617 100.778 26.2776 100.809 26.2874C100.841 26.2971 100.874 26.3006 100.907 26.2975ZM95.9643 29.7775C95.9964 29.7753 96.0278 29.7667 96.0566 29.7523C96.0854 29.7379 96.1111 29.7179 96.1322 29.6935C96.1532 29.6692 96.1693 29.6409 96.1794 29.6103C96.1895 29.5797 96.1934 29.5474 96.191 29.5153C96.191 29.4493 96.1648 29.386 96.1181 29.3393C96.0714 29.2926 96.0081 29.2664 95.9421 29.2664C95.8761 29.2664 95.8128 29.2926 95.7661 29.3393C95.7194 29.386 95.6932 29.4493 95.6932 29.5153C95.691 29.5315 95.691 29.548 95.6932 29.5642C95.696 29.5963 95.7051 29.6276 95.7201 29.6562C95.735 29.6848 95.7555 29.7102 95.7803 29.7309C95.805 29.7515 95.8337 29.7671 95.8645 29.7766C95.8953 29.7861 95.9277 29.7895 95.9599 29.7864M89.7776 31.9997C89.8437 31.9944 89.9049 31.9631 89.9478 31.9127C89.9907 31.8623 90.0118 31.7969 90.0065 31.7309C90.0012 31.6648 89.9699 31.6036 89.9195 31.5607C89.8691 31.5178 89.8037 31.4967 89.7377 31.502C89.6716 31.5073 89.6104 31.5386 89.5675 31.589C89.5246 31.6394 89.5035 31.7048 89.5088 31.7709C89.5141 31.8369 89.5454 31.8981 89.5958 31.941C89.6462 31.9839 89.7116 32.0051 89.7776 31.9997ZM83.2532 31.9997C83.3192 31.9939 83.3802 31.962 83.4227 31.9111C83.4652 31.8603 83.4858 31.7946 83.4799 31.7286C83.474 31.6626 83.4421 31.6017 83.3913 31.5592C83.3404 31.5166 83.2748 31.4961 83.2088 31.502C83.1761 31.5046 83.1442 31.5136 83.115 31.5286C83.0859 31.5435 83.0599 31.564 83.0386 31.589C82.9957 31.6394 82.9746 31.7048 82.9799 31.7709C82.9852 31.8369 83.0165 31.8981 83.0669 31.941C83.1173 31.9839 83.1828 32.0051 83.2488 31.9997M77.0532 29.7464C77.0853 29.7442 77.1167 29.7356 77.1455 29.7212C77.1743 29.7068 77.2 29.6868 77.2211 29.6624C77.2421 29.6381 77.2582 29.6098 77.2683 29.5792C77.2784 29.5486 77.2823 29.5163 77.2799 29.4842C77.2742 29.4189 77.243 29.3585 77.1931 29.3161C77.1432 29.2736 77.0785 29.2526 77.0132 29.2575C76.9811 29.2598 76.9497 29.2684 76.9209 29.2828C76.8921 29.2972 76.8664 29.3171 76.8454 29.3415C76.8243 29.3659 76.8083 29.3942 76.7982 29.4248C76.7881 29.4553 76.7841 29.4876 76.7865 29.5197C76.7922 29.585 76.8234 29.6454 76.8733 29.6879C76.9232 29.7303 76.9879 29.7513 77.0532 29.7464ZM72.1643 26.2575C72.197 26.2553 72.229 26.2466 72.2583 26.2319C72.2877 26.2173 72.3138 26.197 72.3353 26.1722C72.3568 26.1474 72.3732 26.1187 72.3835 26.0875C72.3938 26.0564 72.3979 26.0236 72.3954 25.9909C72.3931 25.9582 72.3843 25.9263 72.3697 25.897C72.355 25.8677 72.3347 25.8415 72.31 25.8201C72.2852 25.7986 72.2565 25.7822 72.2254 25.7719C72.1943 25.7615 72.1614 25.7574 72.1288 25.7597C72.0961 25.7621 72.0642 25.7708 72.0349 25.7855C72.0056 25.8002 71.9794 25.8205 71.958 25.8452C71.9365 25.87 71.9202 25.8987 71.9098 25.9298C71.8994 25.9609 71.8953 25.9937 71.8977 26.0264C71.9033 26.0917 71.9345 26.1521 71.9844 26.1945C72.0343 26.237 72.099 26.258 72.1643 26.2531M69.1065 22.1686C69.1726 22.1686 69.2359 22.1424 69.2825 22.0957C69.3292 22.0491 69.3554 21.9858 69.3554 21.9197C69.3554 21.8537 69.3292 21.7904 69.2825 21.7438C69.2359 21.6971 69.1726 21.6709 69.1065 21.6709H69.0532C68.9929 21.6823 68.9389 21.7157 68.9016 21.7645C68.8644 21.8134 68.8466 21.8743 68.8515 21.9355C68.8565 21.9967 68.8839 22.0539 68.9285 22.0962C68.9732 22.1384 69.0318 22.1626 69.0932 22.1642M72.1865 6.22197C72.2193 6.21972 72.2512 6.21102 72.2805 6.19638C72.3099 6.18174 72.3361 6.16145 72.3575 6.13667C72.379 6.11189 72.3954 6.08311 72.4057 6.05199C72.416 6.02086 72.4201 5.988 72.4177 5.9553C72.4153 5.92262 72.4066 5.89071 72.3919 5.86141C72.3772 5.83211 72.3569 5.80598 72.3322 5.78452C72.3074 5.76306 72.2787 5.74668 72.2476 5.73633C72.2165 5.72598 72.1837 5.72186 72.151 5.72419C72.1183 5.72652 72.0864 5.73527 72.0571 5.74994C72.0278 5.7646 72.0017 5.7849 71.9802 5.80966C71.9587 5.83442 71.9424 5.86317 71.932 5.89426C71.9217 5.92535 71.9175 5.95817 71.9199 5.99086C71.9255 6.05613 71.9567 6.11654 72.0066 6.15898C72.0566 6.20141 72.1212 6.22245 72.1865 6.21752M80.8488 3.19086C80.9688 3.17491 81.0781 3.11333 81.154 3.01891C81.2299 2.92449 81.2664 2.80448 81.2561 2.6838C81.2458 2.56312 81.1895 2.45104 81.0987 2.37084C81.008 2.29063 80.8898 2.24846 80.7688 2.25308C80.6507 2.2694 80.5433 2.32983 80.468 2.42221C80.3928 2.51459 80.3553 2.63205 80.3632 2.75094C80.3711 2.86983 80.4237 2.98131 80.5105 3.06294C80.5973 3.14457 80.7118 3.19028 80.831 3.19086M76.1021 5.5553C76.2179 5.5495 76.3269 5.49868 76.4057 5.41367C76.4846 5.32867 76.5271 5.21621 76.5242 5.1003C76.5213 4.98439 76.4732 4.87419 76.3902 4.79324C76.3072 4.71228 76.1958 4.66697 76.0799 4.66697C75.9639 4.66697 75.8526 4.71228 75.7696 4.79324C75.6866 4.87419 75.6385 4.98439 75.6356 5.1003C75.6327 5.21621 75.6752 5.32867 75.754 5.41367C75.8329 5.49868 75.9419 5.5495 76.0577 5.5553H76.1021ZM71.9332 9.00419C71.9332 9.12206 71.98 9.23511 72.0634 9.31846C72.1467 9.40181 72.2598 9.44864 72.3777 9.44864H72.4443C72.5086 9.44769 72.572 9.4336 72.6306 9.40723C72.6893 9.38086 72.7419 9.34278 72.7852 9.29531C72.8286 9.24785 72.8618 9.19201 72.8827 9.13124C72.9037 9.07047 72.912 9.00605 72.9072 8.94195C72.9023 8.87785 72.8844 8.81542 72.8545 8.75851C72.8246 8.7016 72.7834 8.6514 72.7333 8.61102C72.6833 8.57064 72.6256 8.54092 72.5636 8.52369C72.5017 8.50646 72.4369 8.5021 72.3732 8.51086C72.249 8.51775 72.1326 8.57349 72.0493 8.66591C71.966 8.75834 71.9227 8.87994 71.9288 9.00419M102.44 17.9553C102.378 17.9606 102.318 17.9779 102.263 18.0065C102.207 18.035 102.158 18.0741 102.118 18.1216C102.078 18.169 102.048 18.2239 102.029 18.2831C102.01 18.3422 102.004 18.4045 102.009 18.4664C102.014 18.5283 102.031 18.5885 102.06 18.6437C102.088 18.6988 102.128 18.7478 102.175 18.7878C102.222 18.8279 102.277 18.8581 102.337 18.877C102.396 18.8958 102.458 18.9028 102.52 18.8975C102.645 18.8869 102.76 18.8271 102.841 18.7313C102.922 18.6354 102.962 18.5114 102.951 18.3864C102.94 18.2615 102.881 18.1459 102.785 18.065C102.689 17.9842 102.565 17.9447 102.44 17.9553ZM100.609 22.5331C100.489 22.549 100.379 22.6106 100.304 22.705C100.228 22.7994 100.191 22.9195 100.201 23.0401C100.212 23.1608 100.268 23.2729 100.359 23.3531C100.45 23.4333 100.568 23.4755 100.689 23.4709C100.807 23.4545 100.914 23.3941 100.99 23.3017C101.065 23.2093 101.102 23.0919 101.094 22.973C101.086 22.8541 101.034 22.7426 100.947 22.661C100.86 22.5794 100.746 22.5337 100.627 22.5331M96.9688 26.422C96.9045 26.4229 96.8411 26.437 96.7824 26.4634C96.7238 26.4897 96.6712 26.5278 96.6279 26.5753C96.5845 26.6228 96.5513 26.6786 96.5303 26.7394C96.5094 26.8001 96.5011 26.8645 96.5059 26.9286C96.5108 26.9928 96.5287 27.0552 96.5586 27.1121C96.5885 27.169 96.6297 27.2192 96.6797 27.2596C96.7298 27.3 96.7875 27.3297 96.8494 27.3469C96.9114 27.3641 96.9762 27.3685 97.0399 27.3597C97.1641 27.3529 97.2805 27.2971 97.3638 27.2047C97.4471 27.1123 97.4904 26.9907 97.4843 26.8664C97.4843 26.7485 97.4375 26.6355 97.3541 26.5521C97.2708 26.4688 97.1577 26.422 97.0399 26.422H96.9732M92.1332 28.7909C92.009 28.7978 91.8926 28.8535 91.8093 28.9459C91.726 29.0383 91.6827 29.1599 91.6888 29.2842C91.6935 29.4091 91.7476 29.5271 91.8393 29.6121C91.931 29.6971 92.0527 29.7422 92.1777 29.7375C92.3026 29.7328 92.4206 29.6787 92.5056 29.587C92.5906 29.4953 92.6357 29.3736 92.631 29.2486C92.631 29.2486 92.631 29.2175 92.631 29.2042C92.6281 29.1429 92.6132 29.0827 92.5871 29.0272C92.561 28.9717 92.5241 28.9218 92.4787 28.8806C92.4333 28.8393 92.3802 28.8073 92.3224 28.7866C92.2647 28.7659 92.2034 28.7568 92.1421 28.7597M86.4354 29.5553C86.3736 29.5576 86.3128 29.5721 86.2565 29.598C86.2002 29.6238 86.1496 29.6605 86.1075 29.7059C86.0654 29.7513 86.0327 29.8045 86.0112 29.8625C85.9896 29.9206 85.9798 29.9823 85.9821 30.0442C85.9844 30.1061 85.9989 30.1669 86.0248 30.2231C86.0506 30.2794 86.0873 30.33 86.1327 30.3721C86.1781 30.4142 86.2313 30.4469 86.2893 30.4685C86.3474 30.49 86.4091 30.4999 86.471 30.4975H86.5154C86.6355 30.4816 86.7448 30.42 86.8207 30.3256C86.8965 30.2312 86.9331 30.1111 86.9228 29.9905C86.9125 29.8698 86.8561 29.7577 86.7654 29.6775C86.6746 29.5973 86.5565 29.5551 86.4354 29.5597M80.9777 28.9331C80.8855 28.9411 80.7977 28.976 80.7253 29.0335C80.6529 29.0911 80.599 29.1687 80.5703 29.2566C80.5417 29.3446 80.5396 29.439 80.5643 29.5282C80.589 29.6173 80.6394 29.6972 80.7092 29.7579C80.779 29.8186 80.8651 29.8574 80.9568 29.8695C81.0485 29.8816 81.1418 29.8664 81.2249 29.8258C81.308 29.7853 81.3774 29.7211 81.4243 29.6414C81.4712 29.5617 81.4937 29.4699 81.4888 29.3775C81.4854 29.3144 81.4694 29.2526 81.4417 29.1958C81.414 29.139 81.3751 29.0884 81.3274 29.0469C81.2798 29.0055 81.2242 28.974 81.1641 28.9545C81.104 28.9349 81.0406 28.9276 80.9777 28.9331ZM76.0399 26.4397C75.9149 26.4445 75.797 26.4986 75.712 26.5903C75.6269 26.682 75.5818 26.8037 75.5865 26.9286C75.5913 27.0536 75.6454 27.1715 75.7371 27.2566C75.8288 27.3416 75.9505 27.3867 76.0754 27.382H76.1199C76.2399 27.366 76.3493 27.3044 76.4251 27.21C76.501 27.1156 76.5376 26.9956 76.5273 26.8749C76.517 26.7542 76.4606 26.6422 76.3698 26.5619C76.2791 26.4817 76.1609 26.4396 76.0399 26.4442M72.3732 22.5509C72.2531 22.5668 72.1438 22.6284 72.068 22.7228C71.9921 22.8172 71.9555 22.9372 71.9658 23.0579C71.9761 23.1786 72.0325 23.2907 72.1233 23.3709C72.214 23.4511 72.3322 23.4933 72.4532 23.4886C72.5712 23.4723 72.6787 23.4119 72.754 23.3195C72.8292 23.2271 72.8667 23.1097 72.8588 22.9908C72.8509 22.8719 72.7982 22.7604 72.7114 22.6788C72.6246 22.5971 72.5101 22.5514 72.391 22.5509M70.3465 13.5242C70.2265 13.5401 70.1172 13.6017 70.0413 13.6961C69.9655 13.7906 69.9289 13.9106 69.9392 14.0312C69.9495 14.1519 70.0058 14.264 70.0966 14.3442C70.1874 14.4244 70.3055 14.4666 70.4265 14.462C70.5446 14.4457 70.652 14.3852 70.7273 14.2928C70.8025 14.2005 70.84 14.083 70.8321 13.9641C70.8242 13.8452 70.7716 13.7337 70.6848 13.6521C70.598 13.5705 70.4835 13.5248 70.3643 13.5242M83.7599 25.9686C83.7599 25.7858 83.7057 25.6071 83.6041 25.455C83.5025 25.303 83.3581 25.1845 83.1892 25.1146C83.0203 25.0446 82.8344 25.0263 82.6551 25.062C82.4758 25.0976 82.311 25.1857 82.1818 25.315C82.0525 25.4442 81.9644 25.609 81.9287 25.7883C81.8931 25.9676 81.9114 26.1535 81.9814 26.3224C82.0513 26.4913 82.1698 26.6357 82.3218 26.7373C82.4739 26.8389 82.6526 26.8931 82.8354 26.8931C83.0806 26.8931 83.3157 26.7957 83.4891 26.6223C83.6625 26.4489 83.7599 26.2138 83.7599 25.9686ZM90.1421 25.0397C89.9584 25.0389 89.7785 25.0925 89.6253 25.1938C89.4721 25.2952 89.3523 25.4397 89.2812 25.6091C89.2101 25.7785 89.1908 25.9651 89.2258 26.1455C89.2607 26.3258 89.3484 26.4918 89.4777 26.6223C89.607 26.7528 89.7721 26.8421 89.9521 26.8788C90.1321 26.9155 90.3189 26.898 90.489 26.8285C90.6591 26.759 90.8047 26.6406 90.9075 26.4884C91.0103 26.3361 91.0657 26.1568 91.0665 25.9731C91.0671 25.8517 91.0438 25.7314 90.9979 25.619C90.952 25.5066 90.8844 25.4043 90.7989 25.3181C90.7135 25.2318 90.6119 25.1633 90.5 25.1163C90.388 25.0693 90.2679 25.0448 90.1465 25.0442M93.3154 23.2042C93.1312 23.1998 92.9498 23.2503 92.7944 23.3492C92.639 23.4482 92.5165 23.5912 92.4425 23.7599C92.3685 23.9287 92.3464 24.1157 92.379 24.297C92.4116 24.4784 92.4974 24.646 92.6254 24.7785C92.7535 24.9109 92.9181 25.0023 93.0983 25.041C93.2785 25.0797 93.466 25.0639 93.6372 24.9957C93.8084 24.9274 93.9554 24.8098 94.0596 24.6578C94.1637 24.5058 94.2203 24.3262 94.2221 24.142C94.2239 24.0172 94.2006 23.8932 94.1537 23.7776C94.1068 23.6619 94.0371 23.5568 93.9488 23.4686C93.8606 23.3803 93.7555 23.3106 93.6398 23.2637C93.5242 23.2168 93.4002 23.1935 93.2754 23.1953M96.6354 21.3331C96.6345 21.1504 96.5796 20.9721 96.4775 20.8207C96.3754 20.6693 96.2307 20.5515 96.0617 20.4822C95.8927 20.4129 95.707 20.3952 95.5279 20.4314C95.3489 20.4676 95.1846 20.556 95.0557 20.6854C94.9269 20.8149 94.8393 20.9796 94.804 21.1588C94.7687 21.338 94.7872 21.5237 94.8573 21.6923C94.9274 21.861 95.0459 22.0051 95.1979 22.1065C95.3498 22.2079 95.5283 22.262 95.711 22.262C95.8328 22.262 95.9533 22.2379 96.0658 22.1912C96.1782 22.1444 96.2803 22.0759 96.3662 21.9896C96.4521 21.9033 96.5201 21.8009 96.5663 21.6882C96.6125 21.5755 96.636 21.4549 96.6354 21.3331ZM79.7065 23.1553C79.5228 23.1544 79.343 23.208 79.1897 23.3094C79.0365 23.4107 78.9167 23.5552 78.8456 23.7246C78.7745 23.894 78.7552 24.0807 78.7902 24.261C78.8252 24.4414 78.9129 24.6073 79.0422 24.7379C79.1714 24.8684 79.3365 24.9576 79.5165 24.9943C79.6965 25.031 79.8834 25.0135 80.0535 24.9441C80.2235 24.8746 80.3692 24.7562 80.472 24.6039C80.5748 24.4517 80.6301 24.2723 80.631 24.0886C80.6316 23.9672 80.6082 23.8469 80.5623 23.7345C80.5164 23.6221 80.4488 23.5199 80.3634 23.4336C80.2779 23.3474 80.1764 23.2788 80.0644 23.2318C79.9525 23.1848 79.8324 23.1603 79.711 23.1597M77.2577 20.4131C77.0732 20.4113 76.8924 20.4645 76.7383 20.5659C76.5842 20.6673 76.4637 20.8123 76.3923 20.9824C76.3209 21.1525 76.3018 21.34 76.3373 21.521C76.3729 21.702 76.4615 21.8683 76.592 21.9987C76.7224 22.1292 76.8887 22.2178 77.0698 22.2534C77.2508 22.289 77.4383 22.2698 77.6084 22.1984C77.7785 22.127 77.9234 22.0066 78.0248 21.8525C78.1262 21.6983 78.1794 21.5175 78.1777 21.3331C78.1777 21.0879 78.0803 20.8528 77.9069 20.6794C77.7335 20.506 77.4984 20.4086 77.2532 20.4086M114.364 12.4442H120.093V20.0886H122.107V12.4442H127.333L127.818 11.1109H114.853L114.364 12.4442ZM67.9154 11.1109H65.9021V20.0886H75.0843L75.5777 18.7553H67.9154V11.1109ZM86.631 11.1109L91.4843 19.9997H93.6399L88.7865 11.1331L86.631 11.1109ZM79.2977 19.9997H81.4532L86.3021 11.1331H84.1465L79.2977 19.9997ZM108.244 17.7775L99.7999 11.1464H97.7776V19.9997H99.791V13.3331L108.235 19.9997H110.244V11.1331H108.235L108.244 17.7775ZM148.929 14.8931H142.76C142.613 14.9065 142.464 14.8909 142.323 14.847C142.182 14.8031 142.051 14.7319 141.938 14.6374C141.824 14.5429 141.731 14.4269 141.662 14.2962C141.593 14.1654 141.551 14.0224 141.538 13.8753C141.535 13.8427 141.535 13.8101 141.538 13.7775V13.5286C141.54 13.3831 141.571 13.2395 141.629 13.1061C141.687 12.9726 141.771 12.852 141.876 12.7512C141.981 12.6504 142.105 12.5713 142.241 12.5187C142.376 12.466 142.521 12.4407 142.667 12.4442H151.067L151.555 11.1109H142.151C140.458 11.1109 139.595 12.2531 139.573 13.3864V13.9731C139.573 15.1242 140.462 16.3153 142.2 16.3153H148.369C148.516 16.3018 148.664 16.3175 148.805 16.3614C148.946 16.4053 149.077 16.4765 149.191 16.571C149.304 16.6655 149.398 16.7815 149.467 16.9122C149.535 17.043 149.578 17.186 149.591 17.3331C149.593 17.3612 149.593 17.3894 149.591 17.4175V17.6664C149.588 17.8118 149.557 17.9551 149.498 18.0883C149.44 18.2214 149.356 18.3418 149.251 18.4425C149.146 18.5432 149.023 18.6223 148.887 18.6752C148.752 18.7281 148.607 18.7538 148.462 18.7509H140.062L139.573 20.0842H148.978C150.671 20.0842 151.533 18.942 151.555 17.8086V17.2175C151.555 16.0709 150.667 14.8797 148.929 14.8797M9.81767 14.8797H3.631C3.48392 14.8932 3.33562 14.8775 3.19459 14.8337C3.05355 14.7898 2.92255 14.7186 2.80905 14.6241C2.69555 14.5295 2.60178 14.4136 2.5331 14.2828C2.46442 14.1521 2.42218 14.0091 2.40878 13.862C2.40657 13.8339 2.40657 13.8056 2.40878 13.7775V13.5286C2.4111 13.3839 2.4419 13.241 2.49945 13.1082C2.55699 12.9753 2.64014 12.8551 2.74414 12.7544C2.84815 12.6537 2.97097 12.5745 3.1056 12.5212C3.24023 12.468 3.38403 12.4418 3.52878 12.4442H11.9377L12.4443 11.1109H3.02211C1.33322 11.1509 0.466558 12.2753 0.444336 13.4086V13.9953C0.444336 15.1464 1.33322 16.3375 3.071 16.3375H9.23989C9.38698 16.3241 9.53527 16.3397 9.6763 16.3836C9.81734 16.4275 9.94835 16.4987 10.0618 16.5932C10.1753 16.6877 10.2691 16.8037 10.3378 16.9344C10.4065 17.0652 10.4487 17.2082 10.4621 17.3553C10.4643 17.3834 10.4643 17.4116 10.4621 17.4397V17.6886C10.4592 17.834 10.4277 17.9773 10.3694 18.1105C10.3111 18.2436 10.2272 18.364 10.1223 18.4647C10.0175 18.5654 9.89385 18.6445 9.75845 18.6974C9.62305 18.7503 9.47856 18.776 9.33322 18.7731H0.933225L0.444336 20.1064H9.84878C11.5421 20.1064 12.4043 18.9642 12.4266 17.8309V17.2175C12.4266 16.0709 11.5377 14.8797 9.79989 14.8797M132.071 19.9997H134.084V11.1331H132.071V19.9997ZM16.8132 12.4442H22.5377V20.0886H24.551V12.4442H29.7777L30.2666 11.1109H17.2977L16.8132 12.4442ZM44.3688 12.4442L44.8577 11.1109H34.6665V20.0886H44.3821L44.871 18.7553H36.6932V16.2353H42.4132L42.8977 14.9286H36.6754V12.4442H44.3688ZM52.9243 18.7642H60.5866L60.0932 20.0975H50.911V11.1331H52.9243V18.7642Z" fill="#243882"/>
</g>
<defs>
<clipPath id="clip0_5265_9810">
<rect width="151.111" height="32" fill="white" transform="translate(0.444336)"/>
</clipPath>
</defs>
</svg>
