<svg xmlns="http://www.w3.org/2000/svg" width="60" height="60" viewBox="0 0 60 60" fill="none">
<circle cx="30" cy="30" r="30" fill="url(#paint0_linear_3791_3112)"/>
<path d="M30 20C28.6868 20 27.3864 20.2587 26.1732 20.7612C24.9599 21.2638 23.8575 22.0003 22.9289 22.9289C21.0536 24.8043 20 27.3478 20 30C20 32.6522 21.0536 35.1957 22.9289 37.0711C23.8575 37.9997 24.9599 38.7362 26.1732 39.2388C27.3864 39.7413 28.6868 40 30 40C32.6522 40 35.1957 38.9464 37.0711 37.0711C38.9464 35.1957 40 32.6522 40 30C40 28.84 39.79 27.69 39.39 26.61L37.79 28.21C37.93 28.8 38 29.4 38 30C38 32.1217 37.1571 34.1566 35.6569 35.6569C34.1566 37.1571 32.1217 38 30 38C27.8783 38 25.8434 37.1571 24.3431 35.6569C22.8429 34.1566 22 32.1217 22 30C22 27.8783 22.8429 25.8434 24.3431 24.3431C25.8434 22.8429 27.8783 22 30 22C30.6 22 31.2 22.07 31.79 22.21L33.4 20.6C32.31 20.21 31.16 20 30 20ZM37 20L33 24V25.5L30.45 28.05C30.3 28 30.15 28 30 28C29.4696 28 28.9609 28.2107 28.5858 28.5858C28.2107 28.9609 28 29.4696 28 30C28 30.5304 28.2107 31.0391 28.5858 31.4142C28.9609 31.7893 29.4696 32 30 32C30.5304 32 31.0391 31.7893 31.4142 31.4142C31.7893 31.0391 32 30.5304 32 30C32 29.85 32 29.7 31.95 29.55L34.5 27H36L40 23H37V20ZM30 24C28.4087 24 26.8826 24.6321 25.7574 25.7574C24.6321 26.8826 24 28.4087 24 30C24 31.5913 24.6321 33.1174 25.7574 34.2426C26.8826 35.3679 28.4087 36 30 36C31.5913 36 33.1174 35.3679 34.2426 34.2426C35.3679 33.1174 36 31.5913 36 30H34C34 31.0609 33.5786 32.0783 32.8284 32.8284C32.0783 33.5786 31.0609 34 30 34C28.9391 34 27.9217 33.5786 27.1716 32.8284C26.4214 32.0783 26 31.0609 26 30C26 28.9391 26.4214 27.9217 27.1716 27.1716C27.9217 26.4214 28.9391 26 30 26V24Z" fill="white"/>
<defs>
<linearGradient id="paint0_linear_3791_3112" x1="60" y1="60" x2="1.78814e-06" y2="-1.78814e-06" gradientUnits="userSpaceOnUse">
<stop offset="2.77791e-10" stop-color="#0075FA"/>
<stop offset="0.25" stop-color="#0074F7"/>
<stop offset="0.5" stop-color="#0073F5"/>
<stop offset="0.75" stop-color="#006FEE"/>
<stop offset="1" stop-color="#0065D9"/>
</linearGradient>
</defs>
</svg>