<svg xmlns="http://www.w3.org/2000/svg" xmlns:xlink="http://www.w3.org/1999/xlink" xmlns:serif="http://www.serif.com/" width="100%" height="100%" viewBox="0 0 60 60" version="1.1" xml:space="preserve" style="fill-rule:evenodd;clip-rule:evenodd;stroke-linejoin:round;stroke-miterlimit:2;">
    <circle cx="30" cy="30" r="30" style="fill:white;"/>
    <path d="M30,20C28.687,20 27.386,20.259 26.173,20.761C24.96,21.264 23.858,22 22.929,22.929C21.054,24.804 20,27.348 20,30C20,32.652 21.054,35.196 22.929,37.071C23.858,38 24.96,38.736 26.173,39.239C27.386,39.741 28.687,40 30,40C32.652,40 35.196,38.946 37.071,37.071C38.946,35.196 40,32.652 40,30C40,28.84 39.79,27.69 39.39,26.61L37.79,28.21C37.93,28.8 38,29.4 38,30C38,32.122 37.157,34.157 35.657,35.657C34.157,37.157 32.122,38 30,38C27.878,38 25.843,37.157 24.343,35.657C22.843,34.157 22,32.122 22,30C22,27.878 22.843,25.843 24.343,24.343C25.843,22.843 27.878,22 30,22C30.6,22 31.2,22.07 31.79,22.21L33.4,20.6C32.31,20.21 31.16,20 30,20ZM37,20L33,24L33,25.5L30.45,28.05C30.3,28 30.15,28 30,28C29.47,28 28.961,28.211 28.586,28.586C28.211,28.961 28,29.47 28,30C28,30.53 28.211,31.039 28.586,31.414C28.961,31.789 29.47,32 30,32C30.53,32 31.039,31.789 31.414,31.414C31.789,31.039 32,30.53 32,30C32,29.85 32,29.7 31.95,29.55L34.5,27L36,27L40,23L37,23L37,20ZM30,24C28.409,24 26.883,24.632 25.757,25.757C24.632,26.883 24,28.409 24,30C24,31.591 24.632,33.117 25.757,34.243C26.883,35.368 28.409,36 30,36C31.591,36 33.117,35.368 34.243,34.243C35.368,33.117 36,31.591 36,30L34,30C34,31.061 33.579,32.078 32.828,32.828C32.078,33.579 31.061,34 30,34C28.939,34 27.922,33.579 27.172,32.828C26.421,32.078 26,31.061 26,30C26,28.939 26.421,27.922 27.172,27.172C27.922,26.421 28.939,26 30,26L30,24Z" style="fill:rgb(0,113,241);fill-rule:nonzero;"/>
</svg>