<svg width="36" height="36" viewBox="0 0 36 36" fill="none" xmlns="http://www.w3.org/2000/svg">
<path id="logo_vw" d="M18.0226 34.1709C9.10374 34.1709 1.79675 26.8281 1.79675 17.9093C1.79675 15.9034 2.15494 14.0051 2.83549 12.2141L12.3274 31.3054C12.4349 31.5561 12.614 31.7711 12.9005 31.7711C13.1871 31.7711 13.3661 31.5561 13.4736 31.3054L17.8435 21.5269C17.8793 21.4195 17.9509 21.312 18.0584 21.312C18.1658 21.312 18.2016 21.4195 18.2733 21.5269L22.6432 31.3054C22.7506 31.5561 22.9297 31.7711 23.2162 31.7711C23.5028 31.7711 23.6819 31.5561 23.7893 31.3054L33.2813 12.2141C33.9618 14.0051 34.32 15.9034 34.32 17.9093C34.2484 26.8281 26.9414 34.1709 18.0226 34.1709ZM18.0226 14.22C17.9151 14.22 17.8793 14.1125 17.8076 14.0051L12.7214 2.54312C14.3691 1.9342 16.16 1.61183 18.0226 1.61183C19.8851 1.61183 21.676 1.9342 23.3237 2.54312L18.2375 14.0051C18.1658 14.1483 18.13 14.22 18.0226 14.22ZM12.8289 26.0043C12.7214 26.0043 12.6856 25.8968 12.614 25.7894L4.37569 9.16955C5.84425 6.91298 7.81427 5.0146 10.2141 3.68931L16.16 16.9064C16.2316 17.1213 16.4107 17.1929 16.5898 17.1929H19.4553C19.6702 17.1929 19.8135 17.1571 19.9209 16.9064L25.8668 3.68931C28.2308 5.0146 30.2367 6.91298 31.7052 9.16955L23.3953 25.7894C23.3595 25.8968 23.2879 26.0043 23.1804 26.0043C23.073 26.0043 23.0372 25.8968 22.9655 25.7894L19.8493 18.6973C19.7418 18.4466 19.5986 18.4107 19.3837 18.4107H16.5182C16.3033 18.4107 16.16 18.4466 16.0525 18.6973L13.0438 25.7894C13.008 25.8968 12.9363 26.0043 12.8289 26.0043ZM18.0226 35.8186C27.9443 35.8186 35.9318 27.831 35.9318 17.9093C35.9318 7.98754 27.9443 0 18.0226 0C8.10082 0 0.113281 7.98754 0.113281 17.9093C0.113281 27.831 8.10082 35.8186 18.0226 35.8186Z" fill="#001E50"/>
</svg>
